<svg viewBox="0 0 800 800" xmlns="http://www.w3.org/2000/svg"><path d="M487.498432180543,410.2304287747386 L484.93266024199954,409.0815164011327 M485.25363032278904,411.38221018368677 L482.687458124762,410.2304287747386 M487.498432180543,410.2304287747386 L485.25363032278904,411.38221018368677 M484.93266024199954,409.0815164011327 L482.687458124762,410.2304287747386 M488.2382641285408,396.5814728738475 L487.498432180543,410.2304287747386 M485.6571042531856,395.4431802361308 L484.93266024199954,409.0815164011327 M485.6571042531856,395.4431802361308 L488.2382641285408,396.5814728738475 M485.25363032278904,411.38221018368677 L485.98170722602174,397.7226240888947 M482.687458124762,410.2304287747386 L483.40014027650307,396.5814728738475 M485.98170722602174,397.7226240888947 L483.40014027650307,396.5814728738475 M488.2382641285408,396.5814728738475 L488.0675608317539,396.66779831696994 M486.15280695187323,397.6360981697692 L485.98170722602174,397.7226240888947 M486.0837269885235,398.93045726333435 L486.15280695187323,397.6360981697692 M487.99753602565977,397.9612956367723 L486.0837269885235,398.93045726333435 M488.0675608317539,396.66779831696994 L487.99753602565977,397.9612956367723 M485.6571042531856,395.4431802361308 L485.20616386573533,395.6706105931887 M483.8519858200506,396.35358600417703 L483.8602019983223,396.5625925529595 M483.8602019983223,396.5625925529595 L483.90730973507425,396.7395415199185 M483.90730973507425,396.7395415199185 L483.99055842586813,396.8741703974812 M483.99055842586813,396.8741703974812 L484.1050921487674,396.9586674804186 M484.1050921487674,396.9586674804186 L484.24424874989666,396.98811639617 M484.24424874989666,396.98811639617 L484.39993543373737,396.96086352627356 M484.39993543373737,396.96086352627356 L484.5631036922274,396.87849007420414 M484.5631036922274,396.87849007420414 L484.72428900539705,396.745787768558 M484.72428900539705,396.745787768558 L484.8741313395161,396.5704921623161 M484.8741313395161,396.5704921623161 L485.0039391143091,396.36274287974277 M485.0039391143091,396.36274287974277 L485.10618203864203,396.1346186463902 M485.10618203864203,396.1346186463902 L485.17492068880847,395.89936278860495 M485.17492068880847,395.89936278860495 L485.20616386573533,395.6706105931887 M483.8519858200506,396.35358600417703 L483.40014027650307,396.5814728738475 M485.87692970812725,395.70155722993627 L485.5967312905109,395.84293190995515 M485.87692970812725,395.70155722993627 L488.0675608317539,396.66779831696994 M485.5967312905109,395.84293190995515 L485.20616386573533,395.6706105931887 M486.15280695187323,397.6360981697692 L483.9618822357911,396.66779831696994 M484.2425898887466,396.52616670122757 L483.9618822357911,396.66779831696994 M483.8519858200506,396.35358600417703 L484.2425898887466,396.52616670122757 M487.99753602565977,397.9612956367723 L485.8081431055057,396.99419351353026 M485.87692970812725,395.70155722993627 L485.8081431055057,396.99419351353026 M485.8081431055057,396.99419351353026 L483.894040944087,397.9612956367723 M486.0837269885235,398.93045726333435 L483.894040944087,397.9612956367723 M483.894040944087,397.9612956367723 L483.9618822357911,396.66779831696994 M484.2425898887466,396.52616670122757 L484.2507681950382,396.73519552295295 M484.2507681950382,396.73519552295295 L484.29783920886337,396.91215791045033 M484.29783920886337,396.91215791045033 L484.38105445496853,397.0467905814844 M484.38105445496853,397.0467905814844 L484.49555995233993,397.1312816170059 M484.49555995233993,397.1312816170059 L484.6346951872805,397.16071499991165 M484.6346951872805,397.16071499991165 L484.79036859572307,397.1334380256328 M484.79036859572307,397.1334380256328 L484.9535324422998,397.0510333014678 M484.9535324422998,397.0510333014678 L485.114722462372,396.9182943731382 M485.114722462372,396.9182943731382 L485.2645783462707,396.742958923378 M485.2645783462707,396.742958923378 L485.39440773556385,396.5351688823316 M485.39440773556385,396.5351688823316 L485.4966790827932,396.3070053395703 M485.4966790827932,396.3070053395703 L485.56545131599614,396.0717138999836 M485.56545131599614,396.0717138999836 L485.5967312905109,395.84293190995515" stroke="black"  stroke-width="4"  fill="red"/>
<path d="M488.9864936620529,382.77759223002096 L488.5539811566714,390.7568963524121 M485.96625150926377,389.623193960064 L488.5539811566714,390.7568963524121 M486.3897608289867,381.6502348601102 L485.96625150926377,389.623193960064 M488.9864936620529,382.77759223002096 L486.3897608289867,381.6502348601102 M486.292411011715,391.89345262114136 L488.5539811566714,390.7568963524121 M486.292411011715,391.89345262114136 L486.7180587229735,383.907796803502 M486.7180587229735,383.907796803502 L488.9864936620529,382.77759223002096 M485.96625150926377,389.623193960064 L483.70427135864736,390.7568963524121 M486.292411011715,391.89345262114136 L483.70427135864736,390.7568963524121 M484.12091184548274,382.77759223002096 L486.3897608289867,381.6502348601102 M483.70427135864736,390.7568963524121 L484.12091184548274,382.77759223002096 M486.7180587229735,383.907796803502 L484.12091184548274,382.77759223002096" stroke="black"  stroke-width="4"  fill="red"/>
<path d="M407.96239571583465,452.3299875582356 L410.40724119619114,451.0738855036267 M405.38325496031445,451.0738855036267 L407.8282750984965,449.8210506980449 M407.96239571583465,452.3299875582356 L405.38325496031445,451.0738855036267 M410.40724119619114,451.0738855036267 L407.8282750984965,449.8210506980449 M408.2667399028093,438.30293151048414 L407.96239571583465,452.3299875582356 M410.7255982079335,437.0577995134664 L410.40724119619114,451.0738855036267 M410.7255982079335,437.0577995134664 L408.2667399028093,438.30293151048414 M405.38325496031445,451.0738855036267 L405.6719973663133,437.0577995134664 M407.8282750984965,449.8210506980449 L408.13103343614534,435.8159252973345 M405.6719973663133,437.0577995134664 L408.13103343614534,435.8159252973345 M408.2667399028093,438.30293151048414 L408.0699876372831,438.2085165395008 M405.8682734754992,437.1519859926103 L405.6719973663133,437.0577995134664 M405.8407933488718,438.48057680727976 L405.8682734754992,437.1519859926103 M408.04125252658986,439.5379974994013 L405.8407933488718,438.48057680727976 M408.0699876372831,438.2085165395008 L408.04125252658986,439.5379974994013 M410.7255982079335,437.0577995134664 L410.2061416081516,436.80916445733556 M408.64940317191093,436.0640401319573 L408.66709682993707,436.29963687964414 M408.66709682993707,436.29963687964414 L408.7289465586449,436.5431373418442 M408.7289465586449,436.5431373418442 L408.8313666758813,436.78043270542554 M408.8313666758813,436.78043270542554 L408.9684146916889,436.99775175822504 M408.9684146916889,436.99775175822504 L409.1321315505015,437.1824552076288 M409.1321315505015,437.1824552076288 L409.3130231470701,437.32386086179804 M409.3130231470701,437.32386086179804 L409.5005883552891,437.41372708926326 M409.5005883552891,437.41372708926326 L409.68394923690767,437.44682681130837 M409.68394923690767,437.44682681130837 L409.8524488704201,437.4212383149576 M409.8524488704201,437.4212383149576 L409.9962968827734,437.3383901514667 M409.9962968827734,437.3383901514667 L410.1071137616903,437.20309629518994 M410.1071137616903,437.20309629518994 L410.1784460639197,437.02320917187507 M410.1784460639197,437.02320917187507 L410.2061416081516,436.80916445733556 M408.64940317191093,436.0640401319573 L408.13103343614534,435.8159252973345 M410.15682231844795,437.1519878904188 L409.834100719289,436.997459322269 M410.15682231844795,437.1519878904188 L408.0699876372831,438.2085165395008 M409.834100719289,436.997459322269 L410.2061416081516,436.80916445733556 M405.8682734754992,437.1519859926103 L407.9552357123435,436.0978036437313 M408.2773458202126,436.25203941191455 L407.9552357123435,436.0978036437313 M408.64940317191093,436.0640401319573 L408.2773458202126,436.25203941191455 M408.04125252658986,439.5379974994013 L410.1269598888873,438.4805787066884 M410.15682231844795,437.1519878904188 L410.1269598888873,438.4805787066884 M410.1269598888873,438.4805787066884 L407.92662805439363,437.4255049885405 M405.8407933488718,438.48057680727976 L407.92662805439363,437.4255049885405 M407.92662805439363,437.4255049885405 L407.9552357123435,436.0978036437313 M408.2773458202126,436.25203941191455 L408.2950736985168,436.4876673433662 M408.2950736985168,436.4876673433662 L408.35695612321274,436.7312057436024 M408.35695612321274,436.7312057436024 L408.4594055175088,436.9685436051575 M408.4594055175088,436.9685436051575 L408.59647769365074,437.18590725426156 M408.59647769365074,437.18590725426156 L408.76021219288987,437.3706548100364 M408.76021219288987,437.3706548100364 L408.9411138947569,437.51210152882743 M408.9411138947569,437.51210152882743 L409.12868108498066,437.60200339161804 M409.12868108498066,437.60200339161804 L409.3120357106277,437.6351312493367 M409.3120357106277,437.6351312493367 L409.48052121523193,437.6095617504769 M409.48052121523193,437.6095617504769 L409.62434803742184,437.5267223308832 M409.62434803742184,437.5267223308832 L409.73513789539936,437.391426449695 M409.73513789539936,437.391426449695 L409.80643891236537,437.21152664406566 M409.80643891236537,437.21152664406566 L409.834100719289,436.997459322269" stroke="black"  stroke-width="4"  fill="red"/>
<path d="M408.5746981280701,424.1093064275197 L408.3966639525785,432.3148035748779 M410.86150281977746,431.07442030143363 L408.3966639525785,432.3148035748779 M411.04773067656475,422.87549407012773 L410.86150281977746,431.07442030143363 M408.5746981280701,424.1093064275197 L411.04773067656475,422.87549407012773 M405.79525968868336,431.07442030143363 L408.3966639525785,432.3148035748779 M405.79525968868336,431.07442030143363 L405.96416402390906,422.87549407012773 M405.96416402390906,422.87549407012773 L408.5746981280701,424.1093064275197 M410.86150281977746,431.07442030143363 L408.26027765804196,429.8372904923133 M405.79525968868336,431.07442030143363 L408.26027765804196,429.8372904923133 M408.4373775181218,421.64492899327587 L411.04773067656475,422.87549407012773 M408.26027765804196,429.8372904923133 L408.4373775181218,421.64492899327587 M405.96416402390906,422.87549407012773 L408.4373775181218,421.64492899327587" stroke="black"  stroke-width="4"  fill="red"/>
<path d="M311.25302336231493,332.29664120442266 L308.99664302305905,333.26192738010525 M313.4062008032877,333.26192738010525 L311.14970237007606,334.22942268876466 M311.25302336231493,332.29664120442266 L313.4062008032877,333.26192738010525 M308.99664302305905,333.26192738010525 L311.14970237007606,334.22942268876466 M311.0198841832002,319.4043032865854 L311.25302336231493,332.29664120442266 M308.7515704902523,320.35976811457436 L308.99664302305905,333.26192738010525 M308.7515704902523,320.35976811457436 L311.0198841832002,319.4043032865854 M313.4062008032877,333.26192738010525 L313.1839257153931,320.35976811457436 M311.14970237007606,334.22942268876466 L310.91549208736217,321.3174309166477 M313.1839257153931,320.35976811457436 L310.91549208736217,321.3174309166477 M311.0198841832002,319.4043032865854 L311.1836050419097,319.4765891090976 M313.0198569838317,320.28732869968894 L313.1839257153931,320.35976811457436 M313.0409896320747,321.5093882913597 L313.0198569838317,320.28732869968894 M311.20561079300955,320.6978537713295 L313.0409896320747,321.5093882913597 M311.1836050419097,319.4765891090976 L311.20561079300955,320.6978537713295 M308.7515704902523,320.35976811457436 L309.1839569408318,320.5511245945844 M310.48230962458075,321.12572215433835 L310.46722202266875,321.3243882728556 M310.46722202266875,321.3243882728556 L310.41527484328736,321.4947587106628 M310.41527484328736,321.4947587106628 L310.3294913334771,321.6269482302639 M310.3294913334771,321.6269482302639 L310.2148663881453,321.7132813352628 M310.2148663881453,321.7132813352628 L310.078076488622,321.74873768372487 M310.078076488622,321.74873768372487 L309.9270712562755,321.7313081601492 M309.9270712562755,321.7313081601492 L309.77062752740153,321.66200184504856 M309.77062752740153,321.66200184504856 L309.6178201113985,321.54485107354367 M309.6178201113985,321.54485107354367 L309.4775226444341,321.3866868311068 M309.4775226444341,321.3866868311068 L309.3578718727144,321.19665582939166 M309.3578718727144,321.19665582939166 L309.2658185993552,320.98581321272974 M309.2658185993552,320.98581321272974 L309.20670471110645,320.7663976365835 M309.20670471110645,320.7663976365835 L309.1839569408318,320.5511245945844 M310.48230962458075,321.12572215433835 L310.91549208736217,321.3174309166477 M309.25920548843663,320.28732724034444 L309.5278826983499,320.40619031769404 M309.25920548843663,320.28732724034444 L311.1836050419097,319.4765891090976 M309.5278826983499,320.40619031769404 L309.1839569408318,320.5511245945844 M313.0198569838317,320.28732869968894 L311.09537141858186,321.0996489592282 M310.82624652402524,320.9805878257263 L311.09537141858186,321.0996489592282 M310.48230962458075,321.12572215433835 L310.82624652402524,320.9805878257263 M311.20561079300955,320.6978537713295 L309.2821701648156,321.5093868305849 M309.25920548843663,320.28732724034444 L309.2821701648156,321.5093868305849 M309.2821701648156,321.5093868305849 L311.11746311774664,322.32250425792984 M313.0409896320747,321.5093882913597 L311.11746311774664,322.32250425792984 M311.11746311774664,322.32250425792984 L311.09537141858186,321.0996489592282 M310.82624652402524,320.9805878257263 L310.81112971369765,321.1792327827766 M310.81112971369765,321.1792327827766 L310.7591547092071,321.34958911768524 M310.7591547092071,321.34958911768524 L310.67334637046713,321.48177240946626 M310.67334637046713,321.48177240946626 L310.55870103297383,321.56810751974797 M310.55870103297383,321.56810751974797 L310.421896363227,321.6035739858701 M310.421896363227,321.6035739858701 L310.2708828332301,321.5861620953256 M310.2708828332301,321.5861620953256 L310.1144377627442,321.51687990163316 M310.1144377627442,321.51687990163316 L309.9616360388339,321.3997583379092 M309.9616360388339,321.3997583379092 L309.82135096529686,321.2416266903766 M309.82135096529686,321.2416266903766 L309.7017185755089,321.05162978482184 M309.7017185755089,321.05162978482184 L309.6096886043058,320.8408207856801 M309.6096886043058,320.8408207856801 L309.55060158670074,320.6214364003352 M309.55060158670074,320.6214364003352 L309.5278826983499,320.40619031769404" stroke="black"  stroke-width="4"  fill="red"/>
<path d="M310.7843246089845,306.3781202052943 L310.92046163968445,313.90634694770654 M308.6470580706748,314.8575771216853 L310.92046163968445,313.90634694770654 M308.5039507348305,307.3235070323853 L308.6470580706748,314.8575771216853 M310.7843246089845,306.3781202052943 L308.5039507348305,307.3235070323853 M313.0891353813578,314.8575771216853 L310.92046163968445,313.90634694770654 M313.0891353813578,314.8575771216853 L312.95934035582457,307.3235070323853 M312.95934035582457,307.3235070323853 L310.7843246089845,306.3781202052943 M308.6470580706748,314.8575771216853 L310.8156110863223,315.8110003335292 M313.0891353813578,314.8575771216853 L310.8156110863223,315.8110003335292 M310.6788446669887,308.2710799650681 L308.5039507348305,307.3235070323853 M310.8156110863223,315.8110003335292 L310.6788446669887,308.2710799650681 M312.95934035582457,307.3235070323853 L310.6788446669887,308.2710799650681" stroke="black"  stroke-width="4"  fill="red"/>
<path d="M231.3805367508478,367.44767438345536 L233.5283430174806,368.4950365670534 M233.82023116714402,366.4028002767428 L235.9683845456981,367.44767438345536 M231.3805367508478,367.44767438345536 L233.82023116714402,366.4028002767428 M233.5283430174806,368.4950365670534 L235.9683845456981,367.44767438345536 M230.70791423344946,354.2049653197661 L231.3805367508478,367.44767438345536 M232.8664847469991,355.2421173906045 L233.5283430174806,368.4950365670534 M232.8664847469991,355.2421173906045 L230.70791423344946,354.2049653197661 M233.82023116714402,366.4028002767428 L233.16152216519845,353.1702903109763 M235.9683845456981,367.44767438345536 L235.32044542343357,354.2049653197661 M233.16152216519845,353.1702903109763 L235.32044542343357,354.2049653197661 M230.70791423344946,354.2049653197661 L230.89394471869906,354.1265171327228 M232.97590212473477,353.2485654153698 L233.16152216519845,353.1702903109763 M233.03840807904953,354.50229146739866 L232.97590212473477,353.2485654153698 M230.95756949192696,355.38106924807903 L233.03840807904953,354.50229146739866 M230.89394471869906,354.1265171327228 L230.95756949192696,355.38106924807903 M232.8664847469991,355.2421173906045 L233.3577467618449,355.0344883846003 M234.8301228305541,354.41219728459237 L234.81918479051706,354.6336670395017 M234.81918479051706,354.6336670395017 L234.76613512021265,354.8603045883568 M234.76613512021265,354.8603045883568 L234.6740566222348,355.0789735198808 M234.6740566222348,355.0789735198808 L234.54829945596094,355.27697861240927 M234.54829945596094,355.27697861240927 L234.39615656228648,355.4428063729108 M234.39615656228648,355.4428063729108 L234.22645674010863,355.566865114388 M234.22645674010863,355.566865114388 L234.04905197531508,355.6419219976056 M234.04905197531508,355.6419219976056 L233.87423163775583,355.6636104690303 M233.87423163775583,355.6636104690303 L233.71215683765928,355.6306733982092 M233.71215683765928,355.6306733982092 L233.5722467343668,355.54496980900365 M233.5722467343668,355.54496980900365 L233.46263930082807,355.4114870973423 M233.46263930082807,355.4114870973423 L233.38972286862725,355.2379718936005 M233.38972286862725,355.2379718936005 L233.3577467618449,355.0344883846003 M234.8301228305541,354.41219728459237 L235.32044542343357,354.2049653197661 M232.72524540306244,355.00625185349395 L233.03044329151476,354.8773057032804 M232.72524540306244,355.00625185349395 L230.89394471869906,354.1265171327228 M233.03044329151476,354.8773057032804 L233.3577467618449,355.0344883846003 M232.97590212473477,353.2485654153698 L234.8074570761744,354.1265171327228 M234.50278750763874,354.2552400676983 L234.8074570761744,354.1265171327228 M234.8301228305541,354.41219728459237 L234.50278750763874,354.2552400676983 M230.95756949192696,355.38106924807903 L232.78800543322444,356.26163080414335 M232.72524540306244,355.00625185349395 L232.78800543322444,356.26163080414335 M232.78800543322444,356.26163080414335 L234.869097900918,355.38106924807903 M233.03840807904953,354.50229146739866 L234.869097900918,355.38106924807903 M234.869097900918,355.38106924807903 L234.8074570761744,354.1265171327228 M234.50278750763874,354.2552400676983 L234.49187613430712,354.47668155253916 M234.49187613430712,354.47668155253916 L234.43885249556052,354.70328593851195 M234.43885249556052,354.70328593851195 L234.34679788505372,354.92191873407546 M234.34679788505372,354.92191873407546 L234.22106107644964,355.1198868124263 M234.22106107644964,355.1198868124263 L234.06893382838655,355.2856788278584 M234.06893382838655,355.2856788278584 L233.89924403835033,355.40970516206687 M233.89924403835033,355.40970516206687 L233.72184310877566,355.48473486085345 M233.72184310877566,355.48473486085345 L233.54702018752795,355.50640295052597 M233.54702018752795,355.50640295052597 L233.3849365364162,355.4734534876942 M233.3849365364162,355.4734534876942 L233.24501182211856,355.387746226653 M233.24501182211856,355.387746226653 L233.13538486616176,355.2542687799675 M233.13538486616176,355.2542687799675 L233.06244513146487,355.080767477671 M233.06244513146487,355.080767477671 L233.03044329151476,354.8773057032804" stroke="black"  stroke-width="4"  fill="red"/>
<path d="M230.02801492042482,340.8189894386541 L230.4209854062426,348.55586068469927 M232.58414517638033,349.5886056395134 L230.4209854062426,348.55586068469927 M232.1974575168374,341.84564838263054 L232.58414517638033,349.5886056395134 M230.02801492042482,340.8189894386541 L232.1974575168374,341.84564838263054 M232.88053115838903,347.52558789016007 L230.4209854062426,348.55586068469927 M232.88053115838903,347.52558789016007 L232.49569544751546,339.79479574328457 M232.49569544751546,339.79479574328457 L230.02801492042482,340.8189894386541 M232.58414517638033,349.5886056395134 L235.0440460944729,348.55586068469927 M232.88053115838903,347.52558789016007 L235.0440460944729,348.55586068469927 M234.6654965439144,340.8189894386541 L232.1974575168374,341.84564838263054 M235.0440460944729,348.55586068469927 L234.6654965439144,340.8189894386541 M232.49569544751546,339.79479574328457 L234.6654965439144,340.8189894386541" stroke="black"  stroke-width="4"  fill="red"/>
<path d="M222.11480809860223,346.2412098694803 L225.19245823766244,344.9606635254731 M225.4900502791512,350.5943818727551 L225.19245823766244,344.9606635254731 M222.41983455569562,351.8804164195616 L225.4900502791512,350.5943818727551 M222.11480809860223,346.2412098694803 L222.41983455569562,351.8804164195616 M381.41848218469346,419.45125680621186 L373.98116585992835,423.0906642904271 M381.41848218469346,419.45125680621186 L407.0951072200186,431.69420445350613 M399.6612957921642,435.43008016698786 L407.0951072200186,431.69420445350613 M402.91903279050524,436.9954371860163 L399.6612957921642,435.43008016698786 M403.21451727093046,437.1289588575139 L402.91903279050524,436.9954371860163 M411.84060828118805,436.9954371860163 L411.13743645068024,437.3003862814894 M411.13743645068024,437.3003862814894 L410.3456588946174,437.5487253368798 M410.3456588946174,437.5487253368798 L409.48330800706043,437.73471600221046 M409.48330800706043,437.73471600221046 L408.5701121662042,437.85407035686285 M408.5701121662042,437.85407035686285 L407.62696588126795,437.90402273046044 M407.62696588126795,437.90402273046044 L406.67548187777044,437.88341793837844 M406.67548187777044,437.88341793837844 L405.73747882514334,437.79274062810407 M405.73747882514334,437.79274062810407 L404.83442223820566,437.63407781001746 M404.83442223820566,437.63407781001746 L403.98698097132313,437.4110990489554 M403.98698097132313,437.4110990489554 L403.21451727093046,437.1289588575139 M472.3350507867451,406.3456666840252 L411.84060828118805,436.9954371860163 M464.52011677226,402.83515945152743 L472.3350507867451,406.3456666840252 M464.52011677226,402.83515945152743 L487.4239072697734,391.3248170791451 M495.2269246571724,394.74739994366024 L487.4239072697734,391.3248170791451 M498.0478268580349,393.31817766333165 L495.2269246571724,394.74739994366024 M497.9646185933543,389.60409441223624 L498.4973313395885,389.94098017531667 M498.4973313395885,389.94098017531667 L498.92619368883436,390.30694602028154 M498.92619368883436,390.30694602028154 L499.2421453647007,390.69441981653426 M499.2421453647007,390.69441981653426 L499.4384904774415,391.09537557305646 M499.4384904774415,391.09537557305646 L499.5109670196365,391.50147248171083 M499.5109670196365,391.50147248171083 L499.4579006558341,391.90424466273146 M499.4579006558341,391.90424466273146 L499.28023580132515,392.2952812916618 M499.28023580132515,392.2952812916618 L498.98152561168627,392.6663848853036 M498.98152561168627,392.6663848853036 L498.5678768321767,393.00976141903305 M498.5678768321767,393.00976141903305 L498.0478268580349,393.31817766333165 M497.42558709406717,389.34021302090093 L497.9646185933543,389.60409441223624 M340.7348827740332,321.09436962259565 L497.42558709406717,389.34021302090093 M333.9433696941128,324.0047238558045 L340.7348827740332,321.09436962259565 M333.9433696941128,324.0047238558045 L312.0041746112859,314.3816883781442 M318.79328224906095,311.53781654030814 L312.0041746112859,314.3816883781442 M316.08591613790634,310.3586369300974 L318.79328224906095,311.53781654030814 M315.84050127844506,310.2583913074258 L316.08591613790634,310.3586369300974 M308.35456514726883,310.3586369300974 L308.99235506711227,310.1297638733366 M308.99235506711227,310.1297638733366 L309.700881665707,309.943580844573 M309.700881665707,309.943580844573 L310.4641563221366,309.8042601360199 M310.4641563221366,309.8042601360199 L311.2649519494297,309.71490852433067 M311.2649519494297,309.71490852433067 L312.0852412517643,309.67752537408967 M312.0852412517643,309.67752537408967 L312.90655843759885,309.6929446146171 M312.90655843759885,309.6929446146171 L313.7104073100139,309.7608162404048 M313.7104073100139,309.7608162404048 L314.4787036857403,309.87963291832864 M314.4787036857403,309.87963291832864 L315.19412236435545,310.0467386228066 M315.19412236435545,310.0467386228066 L315.84050127844506,310.2583913074258 M249.48702195331003,334.85219981464354 L308.35456514726883,310.3586369300974 M255.9558729768255,337.85961730210227 L249.48702195331003,334.85219981464354 M255.9558729768255,337.85961730210227 L231.6514946732596,348.0404158225211 M225.19245823766244,344.9606635254731 L231.6514946732596,348.0404158225211 M221.1127960669317,349.60604784604504 L220.70284157131067,349.298606813048 M220.70284157131067,349.298606813048 L220.4011484409641,348.96513563245907 M220.4011484409641,348.96513563245907 L220.2139234694949,348.6126417221178 M220.2139234694949,348.6126417221178 L220.14491959721073,348.24850458260715 M220.14491959721073,348.24850458260715 L220.19543857247737,347.8803411907729 M220.19543857247737,347.8803411907729 L220.36427169315573,347.5158292705029 M220.36427169315573,347.5158292705029 L220.64775555186543,347.162543761649 M220.64775555186543,347.162543761649 L221.0398585338208,346.8278173889088 M221.0398585338208,346.8278173889088 L221.5323150935526,346.51857649064675 M221.5323150935526,346.51857649064675 L222.11480809860223,346.2412098694803 M221.55075645297757,349.8471791963068 L221.1127960669317,349.60604784604504 M373.98116585992835,423.0906642904271 L221.55075645297757,349.8471791963068 M225.4900502791512,350.5943818727551 L231.93545114031946,353.68731873757554 M231.6514946732596,348.0404158225211 L231.93545114031946,353.68731873757554 M381.3568169842543,425.3897404744208 L373.9376627482414,429.04328266903167 M406.96851835092815,437.6799574886961 L381.3568169842543,425.3897404744208 M399.5528429204819,441.430098696482 L406.96851835092815,437.6799574886961 M402.80222097950946,443.00141101793224 L399.5528429204819,441.430098696482 M403.096946998229,443.13544006190045 L402.80222097950946,443.00141101793224 M411.70139420506973,443.00141101793224 L410.99994400836493,443.3075187585873 M410.99994400836493,443.3075187585873 L410.21011990948006,443.5568010061106 M410.21011990948006,443.5568010061106 L409.3499096104145,443.74349784978483 M409.3499096104145,443.74349784978483 L408.43899217461046,443.86330527804466 M408.43899217461046,443.86330527804466 L407.49820953464416,443.9134472502693 M407.49820953464416,443.9134472502693 L406.54911974224973,443.89276425249255 M406.54911974224973,443.89276425249255 L405.6134860379593,443.80174274878436 M405.6134860379593,443.80174274878436 L404.7127192228319,443.6424775724505 M404.7127192228319,443.6424775724505 L403.8674353259654,443.4186520537824 M403.8674353259654,443.4186520537824 L403.096946998229,443.13544006190045 M472.0533109149254,412.2326681098343 L411.70139420506973,443.00141101793224 M464.25836998651505,408.70821574761726 L472.0533109149254,412.2326681098343 M487.1106935900518,397.15169048662375 L464.25836998651505,408.70821574761726 M494.89380383533523,400.5880792902127 L487.1106935900518,397.15169048662375 M497.7084715105651,399.15309941232033 L494.89380383533523,400.5880792902127 M497.6268503028283,395.42400329769396 L498.1581656733599,395.76225382411917 M498.1581656733599,395.76225382411917 L498.58586672767547,396.12970155594917 M498.58586672767547,396.12970155594917 L498.90091789005123,396.5187435546278 M498.90091789005123,396.5187435546278 L499.0966425960014,396.9213212386701 M499.0966425960014,396.9213212386701 L499.16879253775176,397.3290600010009 M499.16879253775176,397.3290600010009 L499.1157009768024,397.7334597283872 M499.1157009768024,397.7334597283872 L498.9383136391142,398.1260756574051 M498.9383136391142,398.1260756574051 L498.6401786278881,398.4986772952496 M498.6401786278881,398.4986772952496 L498.2273912959329,398.8434392949009 M498.2273912959329,398.8434392949009 L497.7084715105651,399.15309941232033 M497.0892031293729,395.1590524710832 L497.6268503028283,395.42400329769396 M340.7694246109096,326.6242062008055 L497.0892031293729,395.1590524710832 M333.9930600661423,329.54739029153495 L340.7694246109096,326.6242062008055 M312.1012837444766,319.8817614270284 L333.9930600661423,329.54739029153495 M318.8752586513707,317.0252078368479 L312.1012837444766,319.8817614270284 M316.1736687268814,315.84075727073906 L318.8752586513707,317.0252078368479 M315.9287773400022,315.7400632072647 L316.1736687268814,315.84075727073906 M308.4591469998829,315.84075727073906 L309.09551995743516,315.6108602903504 M309.09551995743516,315.6108602903504 L309.8024817374839,315.42384411758775 M309.8024817374839,315.42384411758775 L310.5640788696564,315.28389984707144 M310.5640788696564,315.28389984707144 L311.3631218840687,315.1941482673267 M311.3631218840687,315.1941482673267 L312.1816226369415,315.1565977648594 M312.1816226369415,315.1565977648594 L313.0011552636192,315.1720860332206 M313.0011552636192,315.1720860332206 L313.80326341659963,315.240261487177 M313.80326341659963,315.240261487177 L314.56990176320994,315.35960999046256 M314.56990176320994,315.35960999046256 L315.2837822360385,315.5274635357624 M315.2837822360385,315.5274635357624 L315.9287773400022,315.7400632072647 M249.72665806477426,340.4422890827974 L308.4591469998829,315.84075727073906 M256.18180714416894,343.462743618305 L249.72665806477426,340.4422890827974 M231.93545114031946,353.68731873757554 L256.18180714416894,343.462743618305 M221.42130032427679,355.259633981 L221.01217054586448,354.95088160105945 M221.01217054586448,354.95088160105945 L220.7110454208423,354.6159874776385 M220.7110454208423,354.6159874776385 L220.52412034834435,354.2619888107489 M220.52412034834435,354.2619888107489 L220.45514266980433,353.89629651765375 M220.45514266980433,353.89629651765375 L220.5054142444331,353.5265600605443 M220.5054142444331,353.5265600605443 L220.67373222703827,353.1604899671074 M220.67373222703827,353.1604899671074 L220.95644459182842,352.8056936005979 M220.95644459182842,352.8056936005979 L221.34753634989426,352.4695351280815 M221.34753634989426,352.4695351280815 L221.83876343320327,352.1589706384176 M221.83876343320327,352.1589706384176 L222.41983455569562,351.8804164195616 M221.8583478355032,355.50179349199016 L221.42130032427679,355.259633981 M373.9376627482414,429.04328266903167 L221.8583478355032,355.50179349199016 M221.1127960669317,349.60604784604504 L221.42130032427679,355.259633981 M373.98116585992835,423.0906642904271 L373.9376627482414,429.04328266903167 M381.3568169842543,425.3897404744208 L381.41848218469346,419.45125680621186 M407.0951072200186,431.69420445350613 L406.96851835092815,437.6799574886961 M399.5528429204819,441.430098696482 L399.6612957921642,435.43008016698786 M402.91903279050524,436.9954371860163 L402.80222097950946,443.00141101793224 M403.21451727093046,437.1289588575139 L403.096946998229,443.13544006190045 M411.84060828118805,436.9954371860163 L411.70139420506973,443.00141101793224 M472.3350507867451,406.3456666840252 L472.0533109149254,412.2326681098343 M464.25836998651505,408.70821574761726 L464.52011677226,402.83515945152743 M487.4239072697734,391.3248170791451 L487.1106935900518,397.15169048662375 M494.89380383533523,400.5880792902127 L495.2269246571724,394.74739994366024 M498.0478268580349,393.31817766333165 L497.7084715105651,399.15309941232033 M497.9646185933543,389.60409441223624 L497.6268503028283,395.42400329769396 M497.42558709406717,389.34021302090093 L497.0892031293729,395.1590524710832 M340.7348827740332,321.09436962259565 L340.7694246109096,326.6242062008055 M333.9930600661423,329.54739029153495 L333.9433696941128,324.0047238558045 M312.0041746112859,314.3816883781442 L312.1012837444766,319.8817614270284 M318.8752586513707,317.0252078368479 L318.79328224906095,311.53781654030814 M316.08591613790634,310.3586369300974 L316.1736687268814,315.84075727073906 M315.84050127844506,310.2583913074258 L315.9287773400022,315.7400632072647 M308.35456514726883,310.3586369300974 L308.4591469998829,315.84075727073906 M249.48702195331003,334.85219981464354 L249.72665806477426,340.4422890827974 M256.18180714416894,343.462743618305 L255.9558729768255,337.85961730210227 M221.55075645297757,349.8471791963068 L221.8583478355032,355.50179349199016" stroke="black"  stroke-width="4"  fill="red"/>
<path d="M408.6486888791517,431.98781844703694 L408.0430981125935,459.7683228120934 M476.09678690844316,398.0530396714431 L474.7587478117056,425.22563340325917 M408.6486888791517,431.98781844703694 L476.09678690844316,398.0530396714431 M408.0430981125935,459.7683228120934 L474.7587478117056,425.22563340325917 M474.7587478117056,425.22563340325917 L479.614463500477,427.4490410232312 M481.0107370066763,400.2364666157274 L479.614463500477,427.4490410232312 M476.09678690844316,398.0530396714431 L481.0107370066763,400.2364666157274 M481.0107370066763,400.2364666157274 L413.5784548841443,434.33728215095255 M479.614463500477,427.4490410232312 L412.91409623989756,462.15880987193736 M413.5784548841443,434.33728215095255 L412.91409623989756,462.15880987193736 M413.5784548841443,434.33728215095255 L408.6486888791517,431.98781844703694 M412.91409623989756,462.15880987193736 L408.0430981125935,459.7683228120934" stroke="black"  stroke-width="4"  fill="red"/>
<path d="M238.52444574516335,350.90877047708636 L305.9781853676443,322.4638434234598 M239.77459380871318,377.1890091673249 L238.52444574516335,350.90877047708636 M239.77459380871318,377.1890091673249 L306.49549633884885,348.17874279738305 M305.9781853676443,322.4638434234598 L306.49549633884885,348.17874279738305 M310.1091014957406,324.29934305173384 L310.58506375969426,350.05133500596776 M305.9781853676443,322.4638434234598 L310.1091014957406,324.29934305173384 M306.49549633884885,348.17874279738305 L310.58506375969426,350.05133500596776 M242.6430588714644,352.8716490479791 L243.85224055936226,379.1901517539752 M310.1091014957406,324.29934305173384 L242.6430588714644,352.8716490479791 M310.58506375969426,350.05133500596776 L243.85224055936226,379.1901517539752 M243.85224055936226,379.1901517539752 L239.77459380871318,377.1890091673249 M242.6430588714644,352.8716490479791 L238.52444574516335,350.90877047708636" stroke="black"  stroke-width="4"  fill="red"/>
<path d="M313.6231198440458,324.2993445251778 L314.0629505526016,350.0513365091539 M314.0629505526016,350.0513365091539 L318.3439543789352,348.17874279738305 M317.9494662375627,322.4638434234598 L318.3439543789352,348.17874279738305 M313.6231198440458,324.2993445251778 L317.9494662375627,322.4638434234598 M317.9494662375627,322.4638434234598 L480.1710349135284,394.0877013325209 M318.3439543789352,348.17874279738305 L478.7934117554263,421.18738094241485 M480.1710349135284,394.0877013325209 L478.7934117554263,421.18738094241485 M475.8599744820417,396.2521262660854 L474.52719505400694,423.39165378675574 M480.1710349135284,394.0877013325209 L475.8599744820417,396.2521262660854 M478.7934117554263,421.18738094241485 L474.52719505400694,423.39165378675574 M475.8599744820417,396.2521262660854 L313.6231198440458,324.2993445251778 M474.52719505400694,423.39165378675574 L314.0629505526016,350.0513365091539" stroke="black"  stroke-width="4"  fill="red"/>
<path d="M237.76309364339437,356.4838135904166 L239.0293564864042,382.8724789607535 M242.42834933357858,354.504526408983 L243.64207555867654,380.8547865971611 M237.76309364339437,356.4838135904166 L242.42834933357858,354.504526408983 M239.0293564864042,382.8724789607535 L243.64207555867654,380.8547865971611 M404.6823059608345,431.9878165698185 L404.12268719662586,459.7683209020422 M242.42834933357858,354.504526408983 L404.6823059608345,431.9878165698185 M243.64207555867654,380.8547865971611 L404.12268719662586,459.7683209020422 M404.12268719662586,459.7683209020422 L399.49606214242357,462.15880987193736 M400.00268508560885,434.33728215095255 L399.49606214242357,462.15880987193736 M404.6823059608345,431.9878165698185 L400.00268508560885,434.33728215095255 M400.00268508560885,434.33728215095255 L237.76309364339437,356.4838135904166 M399.49606214242357,462.15880987193736 L239.0293564864042,382.8724789607535" stroke="black"  stroke-width="4"  fill="red"/>
<path d="M487.1106935900518,397.15169048662375 L464.25836998651505,408.70821574761726 M487.4239072697734,391.3248170791451 L487.1106935900518,397.15169048662375 M464.52011677226,402.83515945152743 L487.4239072697734,391.3248170791451 M464.25836998651505,408.70821574761726 L464.52011677226,402.83515945152743 M710.9165926879514,520.2337761905286 L711.8813853164648,513.951071710634 M464.25836998651505,408.70821574761726 L710.9165926879514,520.2337761905286 M464.52011677226,402.83515945152743 L711.8813853164648,513.951071710634 M722.0528477105883,512.9310209608562 L723.0408894016289,506.6731417045097 M710.9165926879514,520.2337761905286 L722.0528477105883,512.9310209608562 M711.8813853164648,513.951071710634 L723.0408894016289,506.6731417045097 M510.6378325447,407.5393625529716 L511.01165448664347,401.67094543294684 M722.0528477105883,512.9310209608562 L510.6378325447,407.5393625529716 M723.0408894016289,506.6731417045097 L511.01165448664347,401.67094543294684 M511.01165448664347,401.67094543294684 L487.4239072697734,391.3248170791451 M510.6378325447,407.5393625529716 L487.1106935900518,397.15169048662375" stroke="black"  stroke-width="4"  fill="red"/>
<path d="M487.1106935900518,397.15169048662375 L486.798973811707,402.9507720868835 M486.798973811707,402.9507720868835 L463.99788745276715,414.55290484473784 M464.25836998651505,408.70821574761726 L463.99788745276715,414.55290484473784 M464.25836998651505,408.70821574761726 L487.1106935900518,397.15169048662375 M710.9165926879514,520.2337761905286 L709.9570228575963,526.4824699447834 M464.25836998651505,408.70821574761726 L710.9165926879514,520.2337761905286 M463.99788745276715,414.55290484473784 L709.9570228575963,526.4824699447834 M722.0528477105883,512.9310209608562 L721.0701169441166,519.1552628464395 M710.9165926879514,520.2337761905286 L722.0528477105883,512.9310209608562 M709.9570228575963,526.4824699447834 L721.0701169441166,519.1552628464395 M510.6378325447,407.5393625529716 L510.26581389809417,413.37947076962814 M722.0528477105883,512.9310209608562 L510.6378325447,407.5393625529716 M721.0701169441166,519.1552628464395 L510.26581389809417,413.37947076962814 M510.26581389809417,413.37947076962814 L486.798973811707,402.9507720868835 M510.6378325447,407.5393625529716 L487.1106935900518,397.15169048662375" stroke="black"  stroke-width="4"  fill="red"/>
<path d="M406.96851835092815,437.6799574886961 L381.3568169842543,425.3897404744208 M407.0951072200186,431.69420445350613 L406.96851835092815,437.6799574886961 M381.41848218469346,419.45125680621186 L407.0951072200186,431.69420445350613 M381.3568169842543,425.3897404744208 L381.41848218469346,419.45125680621186 M146.08996319467795,541.2462586124586 L145.50594103762324,534.8936866262159 M381.3568169842543,425.3897404744208 L146.08996319467795,541.2462586124586 M381.41848218469346,419.45125680621186 L145.50594103762324,534.8936866262159 M158.67343124126097,548.9595080369646 L158.12032153719122,542.5818712501446 M146.08996319467795,541.2462586124586 L158.67343124126097,548.9595080369646 M145.50594103762324,534.8936866262159 L158.12032153719122,542.5818712501446 M384.5444377119405,449.0199183108381 L384.61573596078847,442.99125415092294 M158.67343124126097,548.9595080369646 L384.5444377119405,449.0199183108381 M158.12032153719122,542.5818712501446 L384.61573596078847,442.99125415092294 M384.61573596078847,442.99125415092294 L407.0951072200186,431.69420445350613 M384.5444377119405,449.0199183108381 L406.96851835092815,437.6799574886961" stroke="black"  stroke-width="4"  fill="red"/>
<path d="M406.96851835092815,437.6799574886961 L406.8425601002706,443.63589173945184 M406.8425601002706,443.63589173945184 L381.2954550120438,431.29902265020075 M381.3568169842543,425.3897404744208 L381.2954550120438,431.29902265020075 M381.3568169842543,425.3897404744208 L406.96851835092815,437.6799574886961 M146.08996319467795,541.2462586124586 L146.67075964755267,547.563743714133 M381.3568169842543,425.3897404744208 L146.08996319467795,541.2462586124586 M381.2954550120438,431.29902265020075 L146.67075964755267,547.563743714133 M158.67343124126097,548.9595080369646 L159.2234636733434,555.3016623094024 M146.08996319467795,541.2462586124586 L158.67343124126097,548.9595080369646 M146.67075964755267,547.563743714133 L159.2234636733434,555.3016623094024 M384.5444377119405,449.0199183108381 L384.4734988737313,455.0181922988778 M158.67343124126097,548.9595080369646 L384.5444377119405,449.0199183108381 M159.2234636733434,555.3016623094024 L384.4734988737313,455.0181922988778 M384.4734988737313,455.0181922988778 L406.8425601002706,443.63589173945184 M384.5444377119405,449.0199183108381 L406.96851835092815,437.6799574886961" stroke="black"  stroke-width="4"  fill="red"/>
<path d="M312.1012837444766,319.8817614270284 L333.9930600661423,329.54739029153495 M312.0041746112859,314.3816883781442 L312.1012837444766,319.8817614270284 M333.9433696941128,324.0047238558045 L312.0041746112859,314.3816883781442 M333.9930600661423,329.54739029153495 L333.9433696941128,324.0047238558045 M509.34593833723807,253.90377037715297 L509.65458557185593,248.70752941116683 M333.9930600661423,329.54739029153495 L509.34593833723807,253.90377037715297 M333.9433696941128,324.0047238558045 L509.65458557185593,248.70752941116683 M498.39890038910755,249.87528787620096 L498.68394664363996,244.69833769059753 M509.34593833723807,253.90377037715297 L498.39890038910755,249.87528787620096 M509.65458557185593,248.70752941116683 L498.68394664363996,244.69833769059753 M332.2846349276825,311.3705364702333 L332.23231308556797,305.90837547634555 M498.39890038910755,249.87528787620096 L332.2846349276825,311.3705364702333 M498.68394664363996,244.69833769059753 L332.23231308556797,305.90837547634555 M332.23231308556797,305.90837547634555 L312.0041746112859,314.3816883781442 M332.2846349276825,311.3705364702333 L312.1012837444766,319.8817614270284" stroke="black"  stroke-width="4"  fill="red"/>
<path d="M312.1012837444766,319.8817614270284 L312.1979689760605,325.3578255106775 M312.1979689760605,325.3578255106775 L334.04253101535943,335.06558141329356 M333.9930600661423,329.54739029153495 L334.04253101535943,335.06558141329356 M333.9930600661423,329.54739029153495 L312.1012837444766,319.8817614270284 M509.34593833723807,253.90377037715297 L509.0385317998205,259.0791235434268 M333.9930600661423,329.54739029153495 L509.34593833723807,253.90377037715297 M334.04253101535943,335.06558141329356 L509.0385317998205,259.0791235434268 M498.39890038910755,249.87528787620096 L498.1149939479028,255.03153701162776 M509.34593833723807,253.90377037715297 L498.39890038910755,249.87528787620096 M509.0385317998205,259.0791235434268 L498.1149939479028,255.03153701162776 M332.2846349276825,311.3705364702333 L332.33673070512185,316.8090973460582 M498.39890038910755,249.87528787620096 L332.2846349276825,311.3705364702333 M498.1149939479028,255.03153701162776 L332.33673070512185,316.8090973460582 M332.33673070512185,316.8090973460582 L312.1979689760605,325.3578255106775 M332.2846349276825,311.3705364702333 L312.1012837444766,319.8817614270284" stroke="black"  stroke-width="4"  fill="red"/>
<path d="M231.93545114031946,353.68731873757554 L256.18180714416894,343.462743618305 M231.6514946732596,348.0404158225211 L231.93545114031946,353.68731873757554 M255.9558729768255,337.85961730210227 L231.6514946732596,348.0404158225211 M256.18180714416894,343.462743618305 L255.9558729768255,337.85961730210227 M89.37925552552531,265.41349682724206 L88.83229527969479,260.16260923901257 M256.18180714416894,343.462743618305 L89.37925552552531,265.41349682724206 M255.9558729768255,337.85961730210227 L88.83229527969479,260.16260923901257 M77.5334233815023,269.6083741717609 L76.95911059837107,264.33774258167136 M89.37925552552531,265.41349682724206 L77.5334233815023,269.6083741717609 M88.83229527969479,260.16260923901257 L76.95911059837107,264.33774258167136 M212.73640014673134,344.4743227010697 L212.41213732836474,338.8668408524043 M77.5334233815023,269.6083741717609 L212.73640014673134,344.4743227010697 M76.95911059837107,264.33774258167136 L212.41213732836474,338.8668408524043 M212.41213732836474,338.8668408524043 L231.6514946732596,348.0404158225211 M212.73640014673134,344.4743227010697 L231.93545114031946,353.68731873757554" stroke="black"  stroke-width="4"  fill="red"/>
<path d="M231.93545114031946,353.68731873757554 L232.21811783561998,359.30857259458026 M232.21811783561998,359.30857259458026 L256.4067271756888,349.04071955026814 M256.18180714416894,343.462743618305 L256.4067271756888,349.04071955026814 M256.18180714416894,343.462743618305 L231.93545114031946,353.68731873757554 M89.37925552552531,265.41349682724206 L89.9239841426446,270.6429604973899 M256.18180714416894,343.462743618305 L89.37925552552531,265.41349682724206 M256.4067271756888,349.04071955026814 L89.9239841426446,270.6429604973899 M77.5334233815023,269.6083741717609 L78.10538032188077,274.8573855235422 M89.37925552552531,265.41349682724206 L77.5334233815023,269.6083741717609 M89.9239841426446,270.6429604973899 L78.10538032188077,274.8573855235422 M212.73640014673134,344.4743227010697 L213.05920575115863,350.0566049269248 M77.5334233815023,269.6083741717609 L212.73640014673134,344.4743227010697 M78.10538032188077,274.8573855235422 L213.05920575115863,350.0566049269248 M213.05920575115863,350.0566049269248 L232.21811783561998,359.30857259458026 M212.73640014673134,344.4743227010697 L231.93545114031946,353.68731873757554" stroke="black"  stroke-width="4"  fill="red"/></svg>