<svg viewBox="0 0 800 800" xmlns="http://www.w3.org/2000/svg"><path d="M628.1662612303808,173.55455465357232 L625.1548633995828,240.6721537916473 M636.2920770055639,239.39425002665985 L628.1662612303808,173.55455465357232 M625.1548633995828,240.6721537916473 L633.0766990278719,307.88813509921835 M633.0766990278719,307.88813509921835 L636.2920770055639,239.39425002665985 M629.1880082145763,196.27102563884387 L629.4959024174084,198.78401744257167 M628.9707621350583,201.07237005817296 L629.1880082145763,196.27102563884387 M629.4959024174084,198.78401744257167 L629.2781065662407,203.58918454443645 M629.2781065662407,203.58918454443645 L628.9707621350583,201.07237005817296 M627.2993217838671,238.0127872120484 L627.6024528516346,240.55864957500128 M627.0854347726349,242.73989303612797 L627.2993217838671,238.0127872120484 M627.6024528516346,240.55864957500128 L627.388028775812,245.2894261690751 M627.388028775812,245.2894261690751 L627.0854347726349,242.73989303612797 M633.9856924451799,242.1390574981247 L633.6663555870002,239.52403829324584 M634.2119960200021,237.2760478828244 L633.9856924451799,242.1390574981247 M633.6663555870002,239.52403829324584 L633.89207688549,234.66491030742682 M633.89207688549,234.66491030742682 L634.2119960200021,237.2760478828244 M630.6746525639549,238.35222358948582 L630.6987357673493,238.61970931003975 M630.6987357673493,238.61970931003975 L630.7168938639304,238.9702992637687 M630.7168938639304,238.9702992637687 L630.7280673428147,239.38354524454758 M630.7280673428147,239.38354524454758 L630.7316158979188,239.83544988218932 M630.7316158979188,239.83544988218932 L630.7273394665094,240.29973016986526 M630.7273394665094,240.29973016986526 L630.7154702984335,240.74928171950364 M630.7154702984335,240.74928171950364 L630.6967062460417,241.15799078124292 M630.6967062460417,241.15799078124292 L630.6721390725834,241.50212017587387 M630.6721390725834,241.50212017587387 L630.6431947193544,241.7615980464985 M630.6431947193544,241.7615980464985 L630.6115762175934,241.9214148695312 M630.6115762175934,241.9214148695312 L630.5791154939475,241.972301127503 M630.5791154939475,241.972301127503 L630.547684263549,241.9113748565804 M630.547684263549,241.9113748565804 L630.5191147448857,241.7421567357854 M630.5191147448857,241.7421567357854 L630.4950629684565,241.4745623613813 M630.4950629684565,241.4745623613813 L630.4769377491848,241.1241044174428 M630.4769377491848,241.1241044174428 L630.4657871799986,240.7112027531257 M630.4657871799986,240.7112027531257 L630.4622463281842,240.25977591437965 M630.4622463281842,240.25977591437965 L630.4665116014703,239.79603883259006 M630.4665116014703,239.79603883259006 L630.4783585470439,239.34685677137713 M630.4783585470439,239.34685677137713 L630.4970891523144,238.93837349526962 M630.4970891523144,238.93837349526962 L630.5216193137685,238.59427447591645 M630.5216193137685,238.59427447591645 L630.5505368285303,238.33450993531517 M630.5505368285303,238.33450993531517 L630.5821395614923,238.17426974358662 M630.5821395614923,238.17426974358662 L630.614601087935,238.12287903569728 M630.614601087935,238.12287903569728 L630.6460495113902,238.18333528770503 M630.6460495113902,238.18333528770503 L630.6746525639549,238.35222358948582 M632.0221115660943,284.3342048921203 L631.7078047400282,281.6859844447115 M632.2448447229347,279.54791954859076 L632.0221115660943,284.3342048921203 M631.9299693348617,276.9034220217802 L632.2448447229347,279.54791954859076 M631.7078047400282,281.6859844447115 L631.9299693348617,276.9034220217802 M643.453563607234,180.2334445791052 L628.1662612303808,173.55455465357232 M640.241460875423,247.49320885118368 L625.1548633995828,240.6721537916473 M643.453563607234,180.2334445791052 L640.241460875423,247.49320885118368 M650.2628813499612,232.30899204856976 L643.453563607234,180.2334445791052 M636.2920770055639,239.39425002665985 L650.2628813499612,232.30899204856976 M640.241460875423,247.49320885118368 L646.879863152576,300.6574579747102 M633.0766990278719,307.88813509921835 L646.879863152576,300.6574579747102 M646.879863152576,300.6574579747102 L650.2628813499612,232.30899204856976 M632.1857039200652,198.78401744257167 L631.8744111866984,196.27102563884387 M631.8744111866984,196.27102563884387 L629.1880082145763,196.27102563884387 M632.1857039200652,198.78401744257167 L629.4959024174084,198.78401744257167 M631.8744111866984,196.27102563884387 L631.65476714896,201.07237005817296 M631.65476714896,201.07237005817296 L628.9707621350583,201.07237005817296 M631.9655040423074,203.58918454443645 L632.1857039200652,198.78401744257167 M631.9655040423074,203.58918454443645 L629.2781065662407,203.58918454443645 M631.65476714896,201.07237005817296 L631.9655040423074,203.58918454443645 M630.2713544928922,240.55864957500128 L629.9648774699872,238.0127872120484 M629.9648774699872,238.0127872120484 L627.2993217838671,238.0127872120484 M630.2713544928922,240.55864957500128 L627.6024528516346,240.55864957500128 M629.9648774699872,238.0127872120484 L629.7486295778681,242.73989303612797 M629.7486295778681,242.73989303612797 L627.0854347726349,242.73989303612797 M630.0545636080737,245.2894261690751 L630.2713544928922,240.55864957500128 M630.0545636080737,245.2894261690751 L627.388028775812,245.2894261690751 M629.7486295778681,242.73989303612797 L630.0545636080737,245.2894261690751 M636.4021903366197,239.52403829324584 L636.7250520289747,242.1390574981247 M636.7250520289747,242.1390574981247 L633.9856924451799,242.1390574981247 M636.4021903366197,239.52403829324584 L633.6663555870002,239.52403829324584 M636.7250520289747,242.1390574981247 L636.9538535383574,237.2760478828244 M636.9538535383574,237.2760478828244 L634.2119960200021,237.2760478828244 M636.630403142515,234.66491030742682 L636.4021903366197,239.52403829324584 M636.630403142515,234.66491030742682 L633.89207688549,234.66491030742682 M636.9538535383574,237.2760478828244 L636.630403142515,234.66491030742682 M645.2378109429724,238.35221965479147 L645.2633262325924,238.61970537443946 M645.2633262325924,238.61970537443946 L645.2825642691394,238.9702953271964 M645.2825642691394,238.9702953271964 L645.2944202805804,239.38354918210115 M645.2944202805804,239.38354918210115 L645.298184002507,239.83545185143328 M645.298184002507,239.83545185143328 L645.2936313618866,240.29972623054599 M645.2936313618866,240.29972623054599 L645.2810562834131,240.74927777950296 M645.2810562834131,240.74927777950296 L645.2611762522429,241.15798684075125 M645.2611762522429,241.15798684075125 L645.2351479634747,241.50211623511007 M645.2351479634747,241.50211623511007 L645.2045040285584,241.76160001689905 M645.2045040285584,241.76160001689905 L645.1710009189464,241.92141881013336 M645.1710009189464,241.92141881013336 L645.1365916279397,241.97229718732467 M645.1365916279397,241.97229718732467 L645.1032910473189,241.91137091702632 M645.1032910473189,241.91137091702632 L645.0730226218429,241.74215279701892 M645.0730226218429,241.74215279701892 L645.0475583626933,241.47456629924216 M645.0475583626933,241.47456629924216 L645.0283551573862,241.12410835433252 M645.0283551573862,241.12410835433252 L645.0165234376555,240.71119881721577 M645.0165234376555,240.71119881721577 L645.0127717511082,240.25977197940145 M645.0127717511082,240.25977197940145 L645.0173125454887,239.796040799664 M645.0173125454887,239.796040799664 L645.0298602112202,239.34686070484526 M645.0298602112202,239.34686070484526 L645.0497048074599,238.93837742824695 M645.0497048074599,238.93837742824695 L645.0756977551341,238.59427644226884 M645.0756977551341,238.59427644226884 L645.1063132665872,238.33450600264976 M645.1063132665872,238.33450600264976 L645.1397957949544,238.17426581072405 M645.1397957949544,238.17426581072405 L645.1742059367709,238.1228829689819 M645.1742059367709,238.1228829689819 L645.2075247354653,238.18333922161247 M645.2075247354653,238.18333922161247 L645.2378109429724,238.35221965479147 M645.2378109429724,238.35221965479147 L630.6746525639549,238.35222358948582 M634.4220210425992,281.68598444471155 L634.7397971814419,284.3342048921203 M634.7397971814419,284.3342048921203 L632.0221115660943,284.3342048921203 M634.4220210425992,281.68598444471155 L631.7078047400282,281.6859844447115 M634.7397971814419,284.3342048921203 L634.9649888626366,279.54791954859076 M634.9649888626366,279.54791954859076 L632.2448447229347,279.54791954859076 M634.9649888626366,279.54791954859076 L634.6466378860107,276.9034220217802 M634.6466378860107,276.9034220217802 L631.9299693348617,276.9034220217802 M634.6466378860107,276.9034220217802 L634.4220210425992,281.68598444471155" stroke="black"  stroke-width="4"  fill="red"/>
<path d="M623.7307154084529,245.76471269134515 L620.6671214749642,314.38879304445175 M480.7086040902947,245.7647068660952 L623.7307154084529,245.76471269134515 M620.6671214749642,314.38879304445175 L479.4866383861059,314.3887871003887 M479.4866383861059,314.3887871003887 L480.7086040902947,245.7647068660952 M596.1904061321213,256.52846888767067 L590.6546177535474,256.52846888767067 M595.9969232735959,261.41990908013406 L596.1904061321213,256.52846888767067 M590.6546177535474,256.52846888767067 L590.4662260521127,261.41990908013406 M590.4662260521127,261.41990908013406 L595.9969232735959,261.41990908013406 M594.5086619138679,299.0446448698914 L589.0171256414837,299.0446448698914 M594.3182602687598,303.85818890521983 L594.5086619138679,299.0446448698914 M589.0171256414837,299.0446448698914 L588.8317340768187,303.85818890521983 M588.8317340768187,303.85818890521983 L594.3182602687598,303.85818890521983 M507.46473188303315,261.4199029728645 L512.9954290880521,261.4199029728645 M507.57671845316264,256.5284627893538 L507.46473188303315,261.4199029728645 M512.9954290880521,261.4199029728645 L513.1125068152419,256.5284627893538 M513.1125068152419,256.5284627893538 L507.57671845316264,256.5284627893538 M551.1949094831955,278.5830065633464 L550.7269071189776,278.63287515036563 M550.7269071189776,278.63287515036563 L550.2830161491577,278.77963787220403 M550.2830161491577,278.77963787220403 L549.8890615124142,279.01468844292515 M549.8890615124142,279.01468844292515 L549.567929248138,279.3243802461658 M549.567929248138,279.3243802461658 L549.3382818349937,279.6907110978639 M549.3382818349937,279.6907110978639 L549.2134618107966,280.09230577383784 M549.2134618107966,280.09230577383784 L549.2006997256474,280.50585906812876 M549.2006997256474,280.50585906812876 L549.3007103477535,280.90737199426735 M549.3007103477535,280.90737199426735 L549.5076600122995,281.27345020250493 M549.5076600122995,281.27345020250493 L549.8094968810979,281.5828738153542 M549.8094968810979,281.5828738153542 L550.1886735353071,281.81766746099936 M550.1886735353071,281.81766746099936 L550.6231785501964,281.96425374194723 M550.6231785501964,281.96425374194723 L551.087774981338,282.0140668624596 M551.087774981338,282.0140668624596 L551.5554860169846,281.9642598865257 M551.5554860169846,281.9642598865257 L551.9991453161222,281.8176736053135 M551.9991453161222,281.8176736053135 L552.3929850367988,281.58287176739077 M552.3929850367988,281.58287176739077 L552.7141454706443,281.27344405917313 M552.7141454706443,281.27344405917313 L552.9439563944027,280.90737404182414 M552.9439563944027,280.90737404182414 L553.0690414158505,280.50586111544396 M553.0690414158505,280.50586111544396 L553.0821056484338,280.092307820904 M553.0821056484338,280.092307820904 L552.9823651286163,279.69071314468835 M552.9823651286163,279.69071314468835 L552.7755952504867,279.32437410635475 M552.7755952504867,279.32437410635475 L552.473803050957,279.01468639650807 M552.473803050957,279.01468639650807 L552.0945270221396,278.77964401103037 M552.0945270221396,278.77964401103037 L551.6598013526595,278.6328812889265 M551.6598013526595,278.6328812889265 L551.1949094831955,278.5830065633464 M506.49313308739517,303.8581827214017 L511.9796592631338,303.8581827214017 M506.60333627203994,299.0446386946543 L506.49313308739517,303.8581827214017 M512.0948725281921,299.0446386946543 L506.60333627203994,299.0446386946543 M511.9796592631338,303.8581827214017 L512.0948725281921,299.0446386946543 M609.5730628836213,252.9447302500921 L623.7307154084529,245.76471269134515 M606.6817402594293,321.71492313455957 L620.6671214749642,314.38879304445175 M609.5730628836213,252.9447302500921 L606.6817402594293,321.71492313455957 M480.7086040902947,245.7647068660952 L496.04000421083936,252.9447241286208 M496.04000421083936,252.9447241286208 L609.5730628836213,252.9447302500921 M606.6817402594293,321.71492313455957 L494.6156822808508,321.71491688880076 M479.4866383861059,314.3887871003887 L494.6156822808508,321.71491688880076 M494.6156822808508,321.71491688880076 L496.04000421083936,252.9447241286208 M590.7880395553534,257.8615342091309 L596.327433567016,257.8615342091309 M596.327433567016,257.8615342091309 L596.1904061321213,256.52846888767067 M590.7880395553534,257.8615342091309 L590.6546177535474,256.52846888767067 M596.327433567016,257.8615342091309 L596.1336986995166,262.75493062639316 M596.1336986995166,262.75493062639316 L595.9969232735959,261.41990908013406 M590.5994024761123,262.75493062639316 L590.7880395553534,257.8615342091309 M590.5994024761123,262.75493062639316 L590.4662260521127,261.41990908013406 M596.1336986995166,262.75493062639316 L590.5994024761123,262.75493062639316 M589.1484221852559,300.3945176331368 L594.6435066570814,300.3945176331368 M594.6435066570814,300.3945176331368 L594.5086619138679,299.0446448698914 M589.1484221852559,300.3945176331368 L589.0171256414837,299.0446448698914 M594.6435066570814,300.3945176331368 L594.4528589996892,305.20993664202877 M594.4528589996892,305.20993664202877 L594.3182602687598,303.85818890521983 M588.9627910816823,305.20993664202877 L589.1484221852559,300.3945176331368 M588.9627910816823,305.20993664202877 L588.8317340768187,303.85818890521983 M594.4528589996892,305.20993664202877 L588.9627910816823,305.20993664202877 M513.078192781561,262.75492451117265 L507.5438965746425,262.7549245111725 M507.5438965746425,262.7549245111725 L507.46473188303315,261.4199029728645 M513.078192781561,262.75492451117265 L512.9954290880521,261.4199029728645 M507.5438965746425,262.7549245111725 L507.6560290058615,257.8615281028677 M507.6560290058615,257.8615281028677 L507.57671845316264,256.5284627893538 M513.1954230010081,257.8615281028677 L513.078192781561,262.75492451117265 M513.1954230010081,257.8615281028677 L513.1125068152419,256.5284627893538 M507.6560290058615,257.8615281028677 L513.1954230010081,257.8615281028677 M551.7745565236021,285.8336747974537 L551.3049259416421,285.8836578825784 M551.3049259416421,285.8836578825784 L550.8594631684159,286.030733354478 M550.8594631684159,286.030733354478 L550.4640846715918,286.26627653324465 M550.4640846715918,286.26627653324465 L550.1417932921081,286.576628105955 M550.1417932921081,286.576628105955 L549.9113147968596,286.94374950121284 M549.9113147968596,286.94374950121284 L549.7860178644162,287.346197279399 M549.7860178644162,287.346197279399 L549.7731661916262,287.7606309784601 M549.7731661916262,287.7606309784601 L549.8734795651444,288.16300052179736 M549.8734795651444,288.16300052179736 L550.081100983318,288.52984739140834 M550.081100983318,288.52984739140834 L550.3839615190955,288.8399292554624 M550.3839615190955,288.8399292554624 L550.7644582856353,289.0752305412638 M550.7644582856353,289.0752305412638 L551.2004692161431,289.22212857713026 M551.2004692161431,289.22212857713026 L551.6666699678028,289.2720394017248 M551.6666699678028,289.2720394017248 L552.136024694018,289.22212651456414 M552.136024694018,289.22212651456414 L552.5812541485925,289.0752284787861 M552.5812541485925,289.0752284787861 L552.9765168943495,288.8399354424708 M552.9765168943495,288.8399354424708 L553.2988325619679,288.5298515157074 M553.2988325619679,288.5298515157074 L553.5294756787532,288.16299227408274 M553.5294756787532,288.16299227408274 L553.6550435101828,287.7606247934009 M553.6550435101828,287.7606247934009 L553.6681994499868,287.34619109508884 M553.6681994499868,287.34619109508884 L553.5681540314274,286.9437412564359 M553.5681540314274,286.9437412564359 L553.360713707196,286.5766322279011 M553.360713707196,286.5766322279011 L553.0579022370052,286.26628271560253 M553.0579022370052,286.26628271560253 L552.6773054072567,286.03073129383387 M552.6773054072567,286.03073129383387 L552.2410722938957,285.8836558220231 M552.2410722938957,285.8836558220231 L551.7745565236021,285.8336747974537 M551.7745565236021,285.8336747974537 L551.1949094831955,278.5830065633464 M512.0611058244506,305.2099304502243 L506.5710379226668,305.2099304502242 M506.5710379226668,305.2099304502242 L506.49313308739517,303.8581827214017 M512.0611058244506,305.2099304502243 L511.9796592631338,303.8581827214017 M506.5710379226668,305.2099304502242 L506.68138349755765,300.3945114499171 M506.68138349755765,300.3945114499171 L506.60333627203994,299.0446386946543 M506.68138349755765,300.3945114499171 L512.1764679531302,300.39451144991716 M512.1764679531302,300.39451144991716 L512.0948725281921,299.0446386946543 M512.1764679531302,300.39451144991716 L512.0611058244506,305.2099304502243" stroke="black"  stroke-width="4"  fill="red"/>
<path d="M173.03453034445948,30.592620279776554 L175.48811208751135,94.52879629700504 M300.9408881076,30.59262493877401 L173.03453034445948,30.592620279776554 M175.48811208751135,94.52879629700504 L301.9195402527037,94.52880106399436 M301.9195402527037,94.52880106399436 L300.9408881076,30.59262493877401 M197.6239834444731,40.609564016116565 L202.57576117081197,40.609564016116565 M197.7788108936602,45.16303948767245 L197.6239834444731,40.609564016116565 M202.57576117081197,40.609564016116565 L202.72651461121208,45.16303948767245 M202.72651461121208,45.16303948767245 L197.7788108936602,45.16303948767245 M198.9707417874249,80.21772854343004 L203.88708196472538,80.21772854343004 M199.12336069380845,84.70625076841281 L198.9707417874249,80.21772854343004 M203.88708196472538,80.21772854343004 L204.03568497619545,84.70625076841281 M204.03568497619545,84.70625076841281 L199.12336069380845,84.70625076841281 M276.9787799987982,45.16304437526145 L272.0310762680702,45.16304437526145 M276.88916691718384,40.60956889559378 L276.9787799987982,45.16304437526145 M272.0310762680702,45.16304437526145 L271.9373891776471,40.60956889559378 M271.9373891776471,40.60956889559378 L276.88916691718384,40.60956889559378 M237.80783184880403,61.147281548357796 L238.22649783522584,61.19374783164113 M238.22649783522584,61.19374783164113 L238.6233050196902,61.330477278039325 M238.6233050196902,61.330477278039325 L238.9751697831191,61.549453437961404 M238.9751697831191,61.549453437961404 L239.26165129672506,61.83797525305772 M239.26165129672506,61.83797525305772 L239.46610003350534,62.17928023548626 M239.46610003350534,62.17928023548626 L239.5766378037376,62.55343792382797 M239.5766378037376,62.55343792382797 L239.5868588323147,62.938743449305605 M239.5868588323147,62.938743449305605 L239.49619066835876,63.31283707516826 M239.49619066835876,63.31283707516826 L239.30992033474152,63.65391391794793 M239.30992033474152,63.65391391794793 L239.0388923134561,63.942218809784606 M239.0388923134561,63.942218809784606 L238.6988630910424,64.16099413246172 M238.6988630910424,64.16099413246172 L238.3095730252734,64.29757646301084 M238.3095730252734,64.29757646301084 L237.89363481639228,64.34398311244053 M237.89363481639228,64.34398311244053 L237.47520132940897,64.29757154155288 M237.47520132940897,64.29757154155288 L237.07857922621022,64.16098921124433 M237.07857922621022,64.16098921124433 L236.7268058385264,63.94222045006205 M236.7268058385264,63.94222045006205 L236.44030106480946,63.65391883827215 M236.44030106480946,63.65391883827215 L236.23572080883002,63.31283543526047 M236.23572080883002,63.31283543526047 L236.12497048025122,62.9387418096174 M236.12497048025122,62.9387418096174 L236.1145074648028,62.55343628436606 M236.1145074648028,62.55343628436606 L236.20495963122008,62.179278596244444 M236.20495963122008,62.179278596244444 L236.39108654016172,61.83798017018182 M236.39108654016172,61.83798017018182 L236.6620794859616,61.549455076833056 M236.6620794859616,61.549455076833056 L237.00218895702227,61.330472361810166 M237.00218895702227,61.330472361810166 L237.39165620446926,61.19374291565316 M237.39165620446926,61.19374291565316 L237.80783184880403,61.147281548357796 M277.75699633966923,84.70625572560607 L272.8446720442939,84.70625572560607 M277.6686615477125,80.21773349279823 L277.75699633966923,84.70625572560607 M272.75232135740237,80.21773349279823 L277.6686615477125,80.21773349279823 M272.8446720442939,84.70625572560607 L272.75232135740237,80.21773349279823 M187.02390209693814,24.88819769698779 L173.03453034445948,30.592620279776554 M189.30906870734714,88.6919388355995 L175.48811208751135,94.52879629700504 M187.02390209693814,24.88819769698779 L189.30906870734714,88.6919388355995 M300.9408881076,30.59262493877401 L287.8840431454831,24.888202528135196 M287.8840431454831,24.888202528135196 L187.02390209693814,24.88819769698779 M189.30906870734714,88.6919388355995 L289.0097608105598,88.69194377908639 M301.9195402527037,94.52880106399436 L289.0097608105598,88.69194377908639 M289.0097608105598,88.69194377908639 L287.8840431454831,24.888202528135196 M202.68238506967674,39.54424620379962 L197.73348878139808,39.54424620379962 M197.73348878139808,39.54424620379962 L197.6239834444731,40.609564016116565 M202.68238506967674,39.54424620379962 L202.57576117081197,40.609564016116565 M197.73348878139808,39.54424620379962 L197.88813616895038,44.09595015433126 M197.88813616895038,44.09595015433126 L197.7788108936602,45.16303948767245 M202.8329631864436,44.09595015433126 L202.68238506967674,39.54424620379962 M202.8329631864436,44.09595015433126 L202.72651461121208,45.16303948767245 M197.88813616895038,44.09595015433126 L202.8329631864436,44.09595015433126 M203.99218564772522,79.13714717455059 L199.07868582568926,79.13714717455059 M199.07868582568926,79.13714717455059 L198.9707417874249,80.21772854343004 M203.99218564772522,79.13714717455059 L203.88708196472538,80.21772854343004 M199.07868582568926,79.13714717455059 L199.23112850755112,83.62396048735673 M199.23112850755112,83.62396048735673 L199.12336069380845,84.70625076841281 M204.14061707170828,83.62396048735673 L203.99218564772522,79.13714717455059 M204.14061707170828,83.62396048735673 L204.03568497619545,84.70625076841281 M199.23112850755112,83.62396048735673 L204.14061707170828,83.62396048735673 M272.09722969890794,44.09595503623859 L277.04205672956203,44.09595503623876 M277.04205672956203,44.09595503623876 L276.9787799987982,45.16304437526145 M272.09722969890794,44.09595503623859 L272.0310762680702,45.16304437526145 M277.04205672956203,44.09595503623876 L276.9525478664057,39.544251077599824 M276.9525478664057,39.544251077599824 L276.88916691718384,40.60956889559378 M272.0036515649445,39.544251077599824 L272.09722969890794,44.09595503623859 M272.0036515649445,39.544251077599824 L271.9373891776471,40.60956889559378 M276.9525478664057,39.544251077599824 L272.0036515649445,39.544251077599824 M238.26898546241176,55.37899754027626 L238.68632861463837,55.425360974853334 M238.68632861463837,55.425360974853334 L239.08188809663957,55.56180700481349 M239.08188809663957,55.56180700481349 L239.43265292981377,55.78033583734373 M239.43265292981377,55.78033583734373 L239.7182180677793,56.068259744656984 M239.7182180677793,56.068259744656984 L239.92199111458316,56.408849390357034 M239.92199111458316,56.408849390357034 L240.03214983330284,56.78223360968832 M240.03214983330284,56.78223360968832 L240.04230728638015,57.16674110847265 M240.04230728638015,57.16674110847265 L239.95189458279694,57.540058459690044 M239.95189458279694,57.540058459690044 L239.7661868644625,57.88043732670542 M239.7661868644625,57.88043732670542 L239.49597909555868,58.1681454309242 M239.49597909555868,58.1681454309242 L239.15697619154295,58.38646142463517 M239.15697619154295,58.38646142463517 L238.76888707121893,58.522761100749676 M238.76888707121893,58.522761100749676 L238.35425472148052,58.56907825218457 M238.35425472148052,58.56907825218457 L237.9371281171783,58.52276273103439 M237.9371281171783,58.52276273103439 L237.54175255195463,58.38646305483991 M237.54175255195463,58.38646305483991 L237.19107852243746,58.1681405406938 M237.19107852243746,58.1681405406938 L236.90549413278643,57.880434066889165 M236.90549413278643,57.880434066889165 L236.70159035354774,57.5400649785239 M236.70159035354774,57.5400649785239 L236.5912165104818,57.16674599694079 M236.5912165104818,57.16674599694079 L236.58081857669262,56.782238497479796 M236.58081857669262,56.782238497479796 L236.67102051547198,56.408855906535564 M236.67102051547198,56.408855906535564 L236.85658572724225,56.06825648696781 M236.85658572724225,56.06825648696781 L237.12675477231423,55.78033095131701 M237.12675477231423,55.78033095131701 L237.4658374427295,55.56180863336078 M237.4658374427295,55.56180863336078 L237.8541026565919,55.42536260332031 M237.8541026565919,55.42536260332031 L238.26898546241176,55.37899754027626 M238.26898546241176,55.37899754027626 L237.80783184880403,61.147281548357796 M272.9098830450782,83.62396543882863 L277.8193716222088,83.6239654388288 M277.8193716222088,83.6239654388288 L277.75699633966923,84.70625572560607 M272.9098830450782,83.62396543882863 L272.8446720442939,84.70625572560607 M277.8193716222088,83.6239654388288 L277.7311388278149,79.13715211820164 M277.7311388278149,79.13715211820164 L277.6686615477125,80.21773349279823 M277.7311388278149,79.13715211820164 L272.81763899278434,79.13715211820164 M272.81763899278434,79.13715211820164 L272.75232135740237,80.21773349279823 M272.81763899278434,79.13715211820164 L272.9098830450782,83.62396543882863" stroke="black"  stroke-width="4"  fill="red"/>
<path d="M153.45645207620575,92.50563840625125 L156.22581821457055,157.8520792580784 M160.46505115759308,35.71805566001433 L153.45645207620575,92.50563840625125 M156.22581821457055,157.8520792580784 L163.07080596218015,99.77286498933978 M163.07080596218015,99.77286498933978 L160.46505115759308,35.71805566001433 M155.24741303207938,91.67176525399407 L155.52305621677732,89.42200199919 M155.44239152160782,96.30895411218353 L155.24741303207938,91.67176525399407 M155.52305621677732,89.42200199919 L155.7175689783953,94.05555193772074 M155.7175689783953,94.05555193772074 L155.44239152160782,96.30895411218353 M156.94312351344192,132.00098192761317 L157.21472946822877,129.7198848993931 M157.13524408366615,136.5702006646506 L156.94312351344192,132.00098192761317 M157.21472946822877,129.7198848993931 L157.40639450465025,134.2855982764588 M157.40639450465025,134.2855982764588 L157.13524408366615,136.5702006646506 M159.7696872595121,60.87304495004645 L159.5041222751044,63.04773138720827 M159.58196803997922,56.29360667548633 L159.7696872595121,60.87304495004645 M159.5041222751044,63.04773138720827 L159.31596152632238,58.464716584773214 M159.31596152632238,58.464716584773214 L159.58196803997922,56.29360667548633 M158.2980242077396,94.59819691720577 L158.3227063351896,94.45687200931286 M158.3227063351896,94.45687200931286 L158.3498560767949,94.41785235413869 M158.3498560767949,94.41785235413869 L158.37789573828192,94.48331252504522 M158.37789573828192,94.48331252504522 L158.40518709455097,94.64944249281598 M158.40518709455097,94.64944249281598 L158.4301384605402,94.90657925219085 M158.4301384605402,94.90657925219085 L158.45131707896752,95.23969276241769 M158.45131707896752,95.23969276241769 L158.46748873399727,95.62947062632804 M158.46748873399727,95.62947062632804 L158.47771725623346,96.05331168021837 M158.47771725623346,96.05331168021837 L158.4814146363492,96.48654456125365 M158.4814146363492,96.48654456125365 L158.4783501026179,96.90406970245408 M158.4783501026179,96.90406970245408 L158.46870804461156,97.28163756578368 M158.46870804461156,97.28163756578368 L158.45305905245328,97.59737511807725 M158.45305905245328,97.59737511807725 L158.43230417133847,97.83288223326014 M158.43230417133847,97.83288223326014 L158.4076498582525,97.97450352260398 M158.4076498582525,97.97450352260398 L158.38051391093342,98.01393768006983 M158.38051391093342,98.01393768006983 L158.35247489450097,97.94891342185412 M158.35247489450097,97.94891342185412 L158.32517088559283,97.78314095947047 M158.32517088559283,97.78314095947047 L158.30019811290757,97.52624087478893 M158.30019811290757,97.52624087478893 L158.27898968936785,97.19307956836275 M158.27898968936785,97.19307956836275 L158.26279120481036,96.80308981101325 M158.26279120481036,96.80308981101325 L158.25254497295904,96.3789212925343 M158.25254497295904,96.3789212925343 L158.24883851108504,95.94521098512041 M158.24883851108504,95.94521098512041 L158.2519092317685,95.52727725735275 M158.2519092317685,95.52727725735275 L158.26156968086877,95.14942376206733 M158.26156968086877,95.14942376206733 L158.27724504447212,94.83358891948069 M158.27724504447212,94.83358891948069 L158.2980242077396,94.59819691720577 M161.39976392581224,100.63900761863795 L161.13801756298827,102.84437515309628 M161.21474510408044,96.1254459499878 L161.39976392581224,100.63900761863795 M160.9525667085915,98.32736500976756 L161.21474510408044,96.1254459499878 M161.13801756298827,102.84437515309628 L160.9525667085915,98.32736500976756 M140.43479005693314,86.4073200954623 L153.45645207620575,92.50563840625125 M143.34999756861976,151.6170564872533 L156.22581821457055,157.8520792580784 M140.43479005693314,86.4073200954623 L143.34999756861976,151.6170564872533 M146.30797392672633,41.49086322356561 L140.43479005693314,86.4073200954623 M160.46505115759308,35.71805566001433 L146.30797392672633,41.49086322356561 M143.34999756861976,151.6170564872533 L149.08608738499225,105.67888229466593 M163.07080596218015,99.77286498933978 L149.08608738499225,105.67888229466593 M149.08608738499225,105.67888229466593 L146.30797392672633,41.49086322356561 M152.98115418129984,89.42200199919 L152.70246845221104,91.67176525399407 M152.70246845221104,91.67176525399407 L155.24741303207938,91.67176525399407 M152.98115418129984,89.42200199919 L155.52305621677732,89.42200199919 M152.70246845221104,91.67176525399407 L152.89959911071227,96.30895411218353 M152.89959911071227,96.30895411218353 L155.44239152160782,96.30895411218353 M153.17781397119452,94.05555193772074 L152.98115418129984,89.42200199919 M153.17781397119452,94.05555193772074 L155.7175689783953,94.05555193772074 M152.89959911071227,96.30895411218353 L153.17781397119452,94.05555193772074 M154.69150009091294,129.7198848993931 L154.41689615460453,132.00098192761317 M154.41689615460453,132.00098192761317 L156.94312351344192,132.00098192761317 M154.69150009091294,129.7198848993931 L157.21472946822877,129.7198848993931 M154.41689615460453,132.00098192761317 L154.61113734814094,136.5702006646506 M154.61113734814094,136.5702006646506 L157.13524408366615,136.5702006646506 M154.88528072247288,134.2855982764588 L154.69150009091294,129.7198848993931 M154.88528072247288,134.2855982764588 L157.40639450465025,134.2855982764588 M154.61113734814094,136.5702006646506 L154.88528072247288,134.2855982764588 M157.0061632995999,63.0477313872081 L157.27465958526133,60.87304495004645 M157.27465958526133,60.87304495004645 L159.7696872595121,60.87304495004645 M157.0061632995999,63.0477313872081 L159.5041222751044,63.04773138720827 M157.27465958526133,60.87304495004645 L157.08486832454875,56.29360667548633 M157.08486832454875,56.29360667548633 L159.58196803997922,56.29360667548633 M156.81592563604676,58.464716584773214 L157.0061632995999,63.0477313872081 M156.81592563604676,58.464716584773214 L159.31596152632238,58.464716584773214 M157.08486832454875,56.29360667548633 L156.81592563604676,58.464716584773214 M144.76691399514516,94.59820031397982 L144.7930643027829,94.45687540546373 M144.7930643027829,94.45687540546373 L144.82182875630457,94.4178557498139 M144.82182875630457,94.4178557498139 L144.85152114745273,94.4833091296706 M144.85152114745273,94.4833091296706 L144.88043136486732,94.64944079518261 M144.88043136486732,94.64944079518261 L144.90688565097443,94.9065826475479 M144.90688565097443,94.9065826475479 L144.9293238529595,95.23969615805856 M144.9293238529595,95.23969615805856 L144.94645730589147,95.62947402242924 M144.94645730589147,95.62947402242924 L144.95729416235275,96.05331507692989 M144.95729416235275,96.05331507692989 L144.96119249267684,96.48654286253515 M144.96119249267684,96.48654286253515 L144.95794997113669,96.90406630421984 M144.95794997113669,96.90406630421984 L144.94774936188244,97.28164096484215 M144.94774936188244,97.28164096484215 L144.9311696568473,97.59737851793841 M144.9311696568473,97.59737851793841 L144.9091801659117,97.83288563385548 M144.9091801659117,97.83288563385548 L144.88304464697075,97.97450012138444 M144.88304464697075,97.97450012138444 L144.85429480643836,98.01393427837348 M144.85429480643836,98.01393427837348 L144.8246030985195,97.94891682385276 M144.8246030985195,97.94891682385276 L144.7956754305997,97.7831443615786 M144.7956754305997,97.7831443615786 L144.76919845622297,97.52623917377969 M144.76919845622297,97.52623917377969 L144.7467327242644,97.19307616662735 M144.7467327242644,97.19307616662735 L144.72957084515338,96.80308640973863 M144.72957084515338,96.80308640973863 L144.71871117522878,96.37891959220269 M144.71871117522878,96.37891959220269 L144.7148032414403,95.94521438505711 M144.7148032414403,95.94521438505711 L144.71805636314582,95.52728065649006 M144.71805636314582,95.52728065649006 L144.7282764439171,95.14942036375498 M144.7282764439171,95.14942036375498 L144.7448840898041,94.83358552197171 M144.7448840898041,94.83358552197171 L144.76691399514516,94.59820031397982 M144.76691399514516,94.59820031397982 L158.2980242077396,94.59819691720577 M158.65809349263745,102.84437515309628 L158.92272900684262,100.63900761863795 M158.92272900684262,100.63900761863795 L161.39976392581224,100.63900761863795 M158.65809349263745,102.84437515309628 L161.13801756298827,102.84437515309628 M158.92272900684262,100.63900761863795 L158.7356679508708,96.1254459499878 M158.7356679508708,96.1254459499878 L161.21474510408044,96.1254459499878 M158.7356679508708,96.1254459499878 L158.4705956352323,98.32736500976756 M158.4705956352323,98.32736500976756 L160.9525667085915,98.32736500976756 M158.4705956352323,98.32736500976756 L158.65809349263745,102.84437515309628" stroke="black"  stroke-width="4"  fill="red"/>
<path d="M22.1875202601326,46.804120865059474 L23.008347495053783,59.28361459111068 M231.52920790998118,-36.50440454179818 L231.86171485095468,-24.410107313455683 M22.1875202601326,46.804120865059474 L231.52920790998118,-36.50440454179818 M23.008347495053783,59.28361459111068 L231.86171485095468,-24.410107313455683 M250.20851702541546,-36.746210916547284 L250.50072596645845,-24.65305668072091 M231.52920790998118,-36.50440454179818 L232.98150890267286,-37.0103792880725 M232.98150890267286,-37.0103792880725 L234.58015331910627,-37.43204488271863 M234.58015331910627,-37.43204488271863 L236.29527304119574,-37.761609774845965 M236.29527304119574,-37.761609774845965 L238.09492276189155,-37.99300226965255 M238.09492276189155,-37.99300226965255 L239.94556866388544,-38.12196971370611 M239.94556866388544,-38.12196971370611 L241.81287461083093,-38.14611360422248 M241.81287461083093,-38.14611360422248 L243.66208005340292,-38.065012569186706 M243.66208005340292,-38.065012569186706 L245.45883075156462,-37.88015494686391 M245.45883075156462,-37.88015494686391 L247.16971398334732,-37.594932365024874 M247.16971398334732,-37.594932365024874 L248.76285363420715,-37.214612374933154 M248.76285363420715,-37.214612374933154 L250.20851702541546,-36.746210916547284 M231.86171485095468,-24.410107313455683 L233.3107910039354,-24.918473912543448 M233.3107910039354,-24.918473912543448 L234.9059127999133,-25.342133295279552 M234.9059127999133,-25.342133295279552 L236.61727760630885,-25.673256795633222 M236.61727760630885,-25.673256795633222 L238.41300956628345,-25.905743773125607 M238.41300956628345,-25.905743773125607 L240.2596472508815,-26.035321288450348 M240.2596472508815,-26.035321288450348 L242.12292820642523,-26.059579394478988 M242.12292820642523,-26.059579394478988 L243.96816608805847,-25.97809470716703 M243.96816608805847,-25.97809470716703 L245.76107967157435,-25.792362667841758 M245.76107967157435,-25.792362667841758 L247.46832697495324,-25.505791086339798 M247.46832697495324,-25.505791086339798 L249.05809912877436,-25.123672632786963 M249.05809912877436,-25.123672632786963 L250.50072596645845,-24.65305668072091 M250.814295546871,-36.50440454179801 L251.1052391202228,-24.410107313455683 M250.20851702541546,-36.746210916547284 L250.814295546871,-36.50440454179801 M250.50072596645845,-24.65305668072091 L251.1052391202228,-24.410107313455683 M777.3317137663041,187.74680515313216 L776.3802610248372,200.8389674841689 M250.814295546871,-36.50440454179801 L777.3317137663041,187.74680515313216 M251.1052391202228,-24.410107313455683 L776.3802610248372,200.8389674841689 M778.742904442795,188.42092372052971 L777.7876976529769,201.51589859613722 M777.3317137663041,187.74680515313216 L778.742904442795,188.42092372052971 M776.3802610248372,200.8389674841689 L777.7876976529769,201.51589859613722 M779.3446793434825,197.9159345593494 L778.3834298858192,211.05040521033638 M778.742904442795,188.42092372052971 L780.0286395746039,189.20004206204106 M780.0286395746039,189.20004206204106 L781.0986035815793,190.04206021510032 M781.0986035815793,190.04206021510032 L781.9342031855388,190.93262244271824 M781.9342031855388,190.93262244271824 L782.5207739587343,191.85649261604246 M782.5207739587343,191.85649261604246 L782.8478115914031,192.7977962942659 M782.8478115914031,192.7977962942659 L782.9093859698805,193.74036336013648 M782.9093859698805,193.74036336013648 L782.7039996961275,194.66790021011934 M782.7039996961275,194.66790021011934 L782.2348357553685,195.5643600691056 M782.2348357553685,195.5643600691056 L781.509719186693,196.41422448017795 M781.509719186693,196.41422448017795 L780.5408063764178,197.2026521623517 M780.5408063764178,197.2026521623517 L779.3446793434825,197.9159345593494 M777.7876976529769,201.51589859613722 L779.0699307532782,202.29826616333298 M779.0699307532782,202.29826616333298 L780.1368847440515,203.14379417456024 M780.1368847440515,203.14379417456024 L780.970018994959,204.03806670720797 M780.970018994959,204.03806670720797 L781.5547128157029,204.96578388664142 M781.5547128157029,204.96578388664142 L781.8804959878912,205.9110049981889 M781.8804959878912,205.9110049981889 L781.9414615999656,206.8574925644924 M781.9414615999656,206.8574925644924 L781.7361247512847,207.7888852583866 M781.7361247512847,207.7888852583866 L781.2676693571912,208.68906975443355 M781.2676693571912,208.68906975443355 L780.5439096995235,209.54246337542466 M780.5439096995235,209.54246337542466 L779.5769803373648,210.33416354721783 M779.5769803373648,210.33416354721783 L778.3834298858192,211.05040521033638 M570.1941615334113,305.67012420246607 L569.7194360259916,319.2372277277183 M779.3446793434825,197.9159345593494 L570.1941615334113,305.67012420246607 M778.3834298858192,211.05040521033638 L569.7194360259916,319.2372277277183 M547.9191765362423,306.0156048024137 L547.5017327663159,319.58404936855766 M570.1941615334113,305.67012420246607 L568.5742391045399,306.3932742795579 M568.5742391045399,306.3932742795579 L566.758021670568,306.99662848758834 M566.758021670568,306.99662848758834 L564.7797782266452,307.4686414888057 M564.7797782266452,307.4686414888057 L562.6768967045746,307.8002820965885 M562.6768967045746,307.8002820965885 L560.4892721833635,307.9852067363539 M560.4892721833635,307.9852067363539 L558.2583083841314,308.01983297680465 M558.2583083841314,308.01983297680465 L556.026415755282,307.903529296129 M556.026415755282,307.903529296129 L553.8359200226439,307.6385209394679 M553.8359200226439,307.6385209394679 L551.7283391120479,307.22987222241096 M551.7283391120479,307.22987222241096 L549.7435905409302,306.68542836060465 M549.7435905409302,306.68542836060465 L547.9191765362423,306.0156048024137 M569.7194360259916,319.2372277277183 L568.1035223916001,319.9631844963072 M568.1035223916001,319.9631844963072 L566.2918489233066,320.56887945684923 M566.2918489233066,320.56887945684923 L564.3185984767263,321.04272303771484 M564.3185984767263,321.04272303771484 L562.2210639078305,321.3756494986445 M562.2210639078305,321.3756494986445 L560.0390378906895,321.56129101944157 M560.0390378906895,321.56129101944157 L557.8138170615284,321.5960514830077 M557.8138170615284,321.5960514830077 L555.5877014651146,321.47929695789196 M555.5877014651146,321.47929695789196 L553.4029060544685,321.2132611871615 M553.4029060544685,321.2132611871615 L551.3008395954994,320.80302783550803 M551.3008395954994,320.80302783550803 L549.3213142185582,320.2564721205367 M549.3213142185582,320.2564721205367 L547.5017327663159,319.58404936855766 M547.1461299673724,305.670124202466 L546.73074514838,319.2372277277182 M547.9191765362423,306.0156048024137 L547.1461299673724,305.670124202466 M547.5017327663159,319.58404936855766 L546.73074514838,319.2372277277182 M20.451852533426347,55.57239287088862 L21.2805256007332,68.09143205444383 M547.1461299673724,305.670124202466 L20.451852533426347,55.57239287088862 M546.73074514838,319.2372277277182 L21.2805256007332,68.09143205444383 M19.376400133781885,54.985747421894985 L20.207248885390243,67.50214672235387 M20.451852533426347,55.57239287088862 L19.376400133781885,54.985747421894985 M21.2805256007332,68.09143205444383 L20.207248885390243,67.50214672235387 M19.376400133781885,54.985747421894985 L18.456931090880175,54.308688570238644 M18.456931090880175,54.308688570238644 L17.76235045893816,53.57812617812294 M17.76235045893816,53.57812617812294 L17.304374672257666,52.80674976524847 M17.304374672257666,52.80674976524847 L17.090614030119355,52.007936529128926 M17.090614030119355,52.007936529128926 L17.124492894946172,51.19552605056242 M17.124492894946172,51.19552605056242 L17.40504309593024,50.38351433616674 M17.40504309593024,50.38351433616674 L17.927155225275158,49.58590172638765 M17.927155225275158,49.58590172638765 L18.681538153958456,48.81637689886435 M18.681538153958456,48.81637689886435 L19.654907018524,48.08808452060214 M19.654907018524,48.08808452060214 L20.830367177354503,47.413512392068014 M20.830367177354503,47.413512392068014 L22.1875202601326,46.804120865059474 M20.207248885390243,67.50214672235387 L19.28955969389176,66.82204007445284 M19.28955969389176,66.82204007445284 L18.596223705747775,66.08818776927001 M18.596223705747775,66.08818776927001 L18.13893702176574,65.3133362170326 M18.13893702176574,65.3133362170326 L17.92529936356948,64.51092268722806 M17.92529936356948,64.51092268722806 L17.958734297072567,63.69484901569194 M17.958734297072567,63.69484901569194 L18.238282904767402,62.879174278138976 M18.238282904767402,62.879174278138976 L18.758854381221,62.077962015448804 M18.758854381221,62.077962015448804 L19.511185436378014,61.304962807501624 M19.511185436378014,61.304962807501624 L20.482027696928412,60.573380865476 M20.482027696928412,60.573380865476 L21.654530698288795,59.895760649578165 M21.654530698288795,59.895760649578165 L23.008347495053783,59.28361459111068" stroke="black"  stroke-width="4"  fill="red"/>
<path d="M252.53028230114955,1.3177874545565373 L254.04274229614123,64.56984140360953 M707.2355298046036,199.07768839887845 L703.1904002445028,266.73545878223695 M252.53028230114955,1.3177874545565373 L707.2355298046036,199.07768839887845 M254.04274229614123,64.56984140360953 L703.1904002445028,266.73545878223695 M252.53028230114955,1.3177874545565373 L251.94485319823593,9.1866818966123 M254.04274229614123,64.56984140360953 L253.47055316359774,72.62371550426002 M251.94485319823593,9.1866818966123 L253.47055316359774,72.62371550426002 M707.2355298046036,199.07768839887845 L686.5861373865282,199.07769226750244 M703.1904002445028,266.73545878223695 L682.8008796596819,266.73546273209854 M686.5861373865282,199.07769226750244 L682.8008796596819,266.73546273209854 M686.5861373865282,199.07769226750244 L251.94485319823593,9.1866818966123 M682.8008796596819,266.73546273209854 L253.47055316359774,72.62371550426002" stroke="black"  stroke-width="4"  fill="red"/>
<path d="M540.0948002637622,283.6582463291635 L538.0716547309084,353.0459467841204 M85.30113560984478,69.62830551221532 L88.83981799751541,134.45942599311883 M540.0948002637622,283.6582463291635 L85.30113560984478,69.62830551221532 M538.0716547309084,353.0459467841204 L88.83981799751541,134.45942599311883 M540.0948002637622,283.6582463291635 L539.3176826619947,273.2125715475224 M538.0716547309084,353.0459467841204 L537.3147343830133,342.39162321068966 M539.3176826619947,273.2125715475224 L537.3147343830133,342.39162321068966 M85.30113560984478,69.62830551221532 L104.60676504785278,69.62830213071152 M88.83981799751541,134.45942599311883 L107.91811133517831,134.4594225349448 M104.60676504785278,69.62830213071152 L107.91811133517831,134.4594225349448 M104.60676504785278,69.62830213071152 L539.3176826619947,273.2125715475224 M107.91811133517831,134.4594225349448 L537.3147343830133,342.39162321068966" stroke="black"  stroke-width="4"  fill="red"/>
<path d="M569.6086683442397,273.2125715475224 L688.6659700956297,212.83296302324962 M688.6659700956297,212.83296302324962 L684.8285160875678,280.7783596604444 M567.2104874578431,342.39162321068966 L684.8285160875678,280.7783596604444 M569.6086683442397,273.2125715475224 L567.2104874578431,342.39162321068966 M709.458150661213,212.8329591009384 L570.5391327032676,283.6582463291635 M709.458150661213,212.8329591009384 L688.6659700956297,212.83296302324962 M570.5391327032676,283.6582463291635 L569.6086683442397,273.2125715475224 M709.458150661213,212.8329591009384 L705.3572413537618,280.77835565646507 M705.3572413537618,280.77835565646507 L684.8285160875678,280.7783596604444 M705.3572413537618,280.77835565646507 L568.1167691091171,353.0459467841204 M568.1167691091171,353.0459467841204 L567.2104874578431,342.39162321068966 M570.5391327032676,283.6582463291635 L568.1167691091171,353.0459467841204" stroke="black"  stroke-width="4"  fill="red"/>
<path d="M87.21824316904718,57.763783786265094 L90.71218172409607,122.324982627123 M226.23082271255282,1.3177874545565373 L228.04172952572173,64.56984140360953 M87.21824316904718,57.763783786265094 L226.23082271255282,1.3177874545565373 M90.71218172409607,122.324982627123 L228.04172952572173,64.56984140360953 M87.21824316904718,57.763783786265094 L106.40071158021863,57.76378044776868 M90.71218172409607,122.324982627123 L109.67018851970909,122.32497921241821 M106.40071158021863,57.76378044776868 L109.67018851970909,122.32497921241821 M226.23082271255282,1.3177874545565373 L225.5298750365323,9.1866818966123 M228.04172952572173,64.56984140360953 L227.3566343860883,72.62371550426002 M225.5298750365323,9.1866818966123 L227.3566343860883,72.62371550426002 M225.5298750365323,9.1866818966123 L106.40071158021863,57.76378044776868 M227.3566343860883,72.62371550426002 L109.67018851970909,122.32497921241821" stroke="black"  stroke-width="4"  fill="red"/>
<path d="M646.8138112674667,205.93162276085886 L645.2378109429724,238.35221965479147 M645.2378109429724,238.35221965479147 L645.3544736308302,239.2643238583675 M645.3544736308302,239.2643238583675 L645.1895371233261,242.65520066854566 M645.1895371233261,242.65520066854566 L645.0730226218429,241.74215279701892 M645.0730226218429,241.74215279701892 L643.5179121108536,273.73301613549523 M643.5179121108536,273.73301613549523 L644.3976414038707,280.77835565646507 M647.7162259490538,212.8329591009384 L644.3976414038707,280.77835565646507 M646.8138112674667,205.93162276085886 L647.7162259490538,212.8329591009384 M675.2854036567167,212.78970614279035 L675.6556218991134,205.9316247085233 M675.2854036567167,212.78970614279035 L679.1260791706056,212.78971004651018 M679.501209360219,205.93162860385215 L679.1260791706056,212.78971004651018 M708.3430022524738,205.93162276085886 L679.501209360219,205.93162860385215 M675.6837457082088,749.6120729895013 L708.3430022524738,205.93162276085886 M648.0343307590538,749.6120729895013 L675.6837457082088,749.6120729895013 M643.5179121108536,273.73301613549523 L648.0343307590538,749.6120729895013 M691.6379314588962,241.7421567357854 L645.0730226218429,241.74215279701892 M691.6379314588962,241.7421567357854 L691.8323165596892,238.35222358948582 M645.2378109429724,238.35221965479147 L691.8323165596892,238.35222358948582 M675.6556218991134,205.9316247085233 L646.8138112674667,205.93162276085886 M645.3544736308302,239.2643238583675 L691.9699086862161,239.2643218892507 M691.8323165596892,238.35222358948582 L691.9699086862161,239.2643218892507 M645.1895371233261,242.65520066854566 L691.7753487997136,242.6551986973921 M691.9699086862161,239.2643218892507 L691.7753487997136,242.6551986973921 M691.7753487997136,242.6551986973921 L691.6379314588962,241.7421567357854 M648.0343307590538,749.6120729895013 L648.8488755833903,757.5012318709557 M644.3976414038707,280.77835565646507 L648.8488755833903,757.5012318709557 M679.501209360219,205.93162860385215 L679.7670375190921,207.73839298913043 M679.7670375190921,207.73839298913043 L675.9179908154733,207.73839494032237 M675.9179908154733,207.73839494032237 L675.6556218991134,205.9316247085233 M709.458150661213,212.8329591009384 L647.7162259490538,212.8329591009384 M708.3430022524738,205.93162276085886 L709.458150661213,212.8329591009384 M675.5471024698754,214.60036622925907 L675.2854036567167,212.78970614279035 M675.9179908154733,207.73839494032237 L675.5471024698754,214.60036622925907 M679.3912283645022,214.60036427386854 L675.5471024698754,214.60036622925907 M679.1260791706056,212.78971004651018 L679.3912283645022,214.60036427386854 M679.7670375190921,207.73839298913043 L679.3912283645022,214.60036427386854 M675.6837457082088,749.6120729895013 L676.5841768158982,757.5012318709557 M676.5841768158982,757.5012318709557 L709.458150661213,212.8329591009384 M648.8488755833903,757.5012318709557 L676.5841768158982,757.5012318709557" stroke="black"  stroke-width="4"  fill="red"/>
<path d="M645.2378109429724,238.35221965479147 L646.8138112674667,205.93162276085886 M645.1212705690759,237.44094282170119 L645.2378109429724,238.35221965479147 M644.9566302229664,240.82993263113167 L645.1212705690759,237.44094282170119 M645.0730226218429,241.74215279701892 L644.9566302229664,240.82993263113167 M643.5179121108536,273.73301613549523 L645.0730226218429,241.74215279701892 M643.5179121108536,273.73301613549523 L642.6441655579185,266.73545878223695 M645.9176113805372,199.07768839887845 L642.6441655579185,266.73545878223695 M646.8138112674667,205.93162276085886 L645.9176113805372,199.07768839887845 M691.6379314588962,241.7421567357854 L645.0730226218429,241.74215279701892 M691.6379314588962,241.7421567357854 L691.8323165596892,238.35222358948582 M645.2378109429724,238.35221965479147 L691.8323165596892,238.35222358948582 M675.6556218991134,205.9316247085233 L646.8138112674667,205.93162276085886 M675.2854036567167,212.78970614279035 L675.6556218991134,205.9316247085233 M675.2854036567167,212.78970614279035 L679.1260791706056,212.78971004651018 M679.501209360219,205.93162860385215 L679.1260791706056,212.78971004651018 M708.3430022524738,205.93162276085886 L679.501209360219,205.93162860385215 M675.6837457082088,749.6120729895013 L708.3430022524738,205.93162276085886 M648.0343307590538,749.6120729895013 L675.6837457082088,749.6120729895013 M643.5179121108536,273.73301613549523 L648.0343307590538,749.6120729895013 M691.6948404046905,237.44094871844118 L691.8323165596892,238.35222358948582 M645.1212705690759,237.44094282170119 L691.6948404046905,237.44094871844118 M644.9566302229664,240.82993263113167 L691.5006298586582,240.82993853397755 M691.5006298586582,240.82993853397755 L691.6948404046905,237.44094871844118 M691.6379314588962,241.7421567357854 L691.5006298586582,240.82993853397755 M648.0343307590538,749.6120729895013 L647.2248308522239,741.7716319205927 M642.6441655579185,266.73545878223695 L647.2248308522239,741.7716319205927 M679.2358399781883,204.12812328317196 L679.501209360219,205.93162860385215 M675.3937486698944,204.1281252273185 L679.2358399781883,204.12812328317196 M675.6556218991134,205.9316247085233 L675.3937486698944,204.1281252273185 M707.2355298046036,199.07768839887845 L645.9176113805372,199.07768839887845 M708.3430022524738,205.93162276085886 L707.2355298046036,199.07768839887845 M675.3937486698944,204.1281252273185 L675.0241986876902,210.9823196731744 M675.2854036567167,212.78970614279035 L675.0241986876902,210.9823196731744 M678.8613869438295,210.9823177248355 L679.1260791706056,212.78971004651018 M675.0241986876902,210.9823196731744 L678.8613869438295,210.9823177248355 M679.2358399781883,204.12812328317196 L678.8613869438295,210.9823177248355 M675.6837457082088,749.6120729895013 L674.7888898903911,741.7716319205927 M674.7888898903911,741.7716319205927 L707.2355298046036,199.07768839887845 M647.2248308522239,741.7716319205927 L674.7888898903911,741.7716319205927" stroke="black"  stroke-width="4"  fill="red"/>
<path d="M552.8065225946539,252.9447241286208 L551.7745565236021,285.8336747974537 M551.7745565236021,285.8336747974537 L549.8186465694637,285.83367685797884 M549.8186465694637,285.83367685797884 L549.7120314673987,289.2720414643209 M549.7120314673987,289.2720414643209 L551.6666699678028,289.2720394017248 M551.6666699678028,289.2720394017248 L550.6487004633614,321.71491688880076 M550.6487004633614,321.71491688880076 L535.8457643692584,321.71492105263997 M537.809808675667,252.9447282096017 L535.8457643692584,321.71492105263997 M552.8065225946539,252.9447241286208 L537.809808675667,252.9447282096017 M553.7525876366362,274.21532993352855 L553.9739698921333,267.22762064695524 M553.7525876366362,274.21532993352855 L553.9090771717433,276.13880611864914 M554.130872450007,269.14711532135874 L553.9090771717433,276.13880611864914 M555.316957518268,283.658242124563 L554.130872450007,269.14711532135874 M537.5545823150621,838.1461088338073 L555.316957518268,283.658242124563 M536.5403487778142,820.579067767763 L537.5545823150621,838.1461088338073 M550.6487004633614,321.71491688880076 L536.5403487778142,820.579067767763 M553.5464199536182,312.8392045328514 L551.6666699678028,289.2720394017248 M553.5464199536182,312.8392045328514 L553.656766655999,309.37734934115304 M551.7745565236021,285.8336747974537 L553.656766655999,309.37734934115304 M553.9739698921333,267.22762064695524 L552.8065225946539,252.9447241286208 M549.8186465694637,285.83367685797884 L551.6786788719239,309.377349341153 M553.656766655999,309.37734934115304 L551.6786788719239,309.377349341153 M549.7120314673987,289.2720414643209 L551.5696326136924,312.8392045328513 M551.6786788719239,309.377349341153 L551.5696326136924,312.8392045328513 M551.5696326136924,312.8392045328513 L553.5464199536182,312.8392045328514 M536.5403487778142,820.579067767763 L523.0043779576642,820.5790724746222 M535.8457643692584,321.71492105263997 L523.0043779576642,820.5790724746222 M554.130872450007,269.14711532135874 L550.16350033874,269.1471091024121 M550.16350033874,269.1471091024121 L550.0103094724172,267.22762478519434 M550.0103094724172,267.22762478519434 L553.9739698921333,267.22762064695524 M540.0948002637622,283.6582463291635 L537.809808675667,252.9447282096017 M555.316957518268,283.658242124563 L540.0948002637622,283.6582463291635 M549.7941452403559,274.21533408035646 L553.7525876366362,274.21532993352855 M550.0103094724172,267.22762478519434 L549.7941452403559,274.21533408035646 M549.9469328377736,276.13879988681043 L549.7941452403559,274.21533408035646 M553.9090771717433,276.13880611864914 L549.9469328377736,276.13879988681043 M550.16350033874,269.1471091024121 L549.9469328377736,276.13879988681043 M537.5545823150621,838.1461088338073 L523.927530785978,838.1461136042225 M523.927530785978,838.1461136042225 L540.0948002637622,283.6582463291635 M523.0043779576642,820.5790724746222 L523.927530785978,838.1461136042225" stroke="black"  stroke-width="4"  fill="red"/>
<path d="M551.7745565236021,285.8336747974537 L552.8065225946539,252.9447241286208 M553.7304840233369,285.8336809790291 L551.7745565236021,285.8336747974537 M553.621326001967,289.27204558951337 L553.7304840233369,285.8336809790291 M551.6666699678028,289.2720394017248 L553.621326001967,289.27204558951337 M550.6487004633614,321.71491688880076 L551.6666699678028,289.2720394017248 M550.6487004633614,321.71491688880076 L565.4516539757403,321.71492105263997 M567.8032541685511,252.9447282096017 L565.4516539757403,321.71492105263997 M552.8065225946539,252.9447241286208 L567.8032541685511,252.9447282096017 M553.5464199536182,312.8392045328514 L551.6666699678028,289.2720394017248 M553.5464199536182,312.8392045328514 L553.656766655999,309.37734934115304 M551.7745565236021,285.8336747974537 L553.656766655999,309.37734934115304 M553.9739698921333,267.22762064695524 L552.8065225946539,252.9447241286208 M553.7525876366362,274.21532993352855 L553.9739698921333,267.22762064695524 M553.7525876366362,274.21532993352855 L553.9090771717433,276.13880611864914 M554.130872450007,269.14711532135874 L553.9090771717433,276.13880611864914 M555.316957518268,283.658242124563 L554.130872450007,269.14711532135874 M537.5545823150621,838.1461088338073 L555.316957518268,283.658242124563 M536.5403487778142,820.579067767763 L537.5545823150621,838.1461088338073 M550.6487004633614,321.71491688880076 L536.5403487778142,820.579067767763 M555.6348626362626,309.37734512609927 L553.656766655999,309.37734934115304 M553.7304840233369,285.8336809790291 L555.6348626362626,309.37734512609927 M553.621326001967,289.27204558951337 L555.5232154845683,312.8392003136231 M555.5232154845683,312.8392003136231 L555.6348626362626,309.37734512609927 M553.5464199536182,312.8392045328514 L555.5232154845683,312.8392003136231 M536.5403487778142,820.579067767763 L550.0763354745595,820.5790724746223 M565.4516539757403,321.71492105263997 L550.0763354745595,820.5790724746223 M558.0982308761995,269.1471111753943 L554.130872450007,269.14711532135874 M557.9376439913551,267.22762685431377 L558.0982308761995,269.1471111753943 M553.9739698921333,267.22762064695524 L557.9376439913551,267.22762685431377 M570.5391327032676,283.6582463291635 L567.8032541685511,252.9447282096017 M555.316957518268,283.658242124563 L570.5391327032676,283.6582463291635 M557.9376439913551,267.22762685431377 L557.7110436932971,274.21533615377047 M553.7525876366362,274.21532993352855 L557.7110436932971,274.21533615377047 M557.8712078397809,276.13880196409 L553.9090771717433,276.13880611864914 M557.7110436932971,274.21533615377047 L557.8712078397809,276.13880196409 M558.0982308761995,269.1471111753943 L557.8712078397809,276.13880196409 M537.5545823150621,838.1461088338073 L551.1816498312535,838.1461136042224 M551.1816498312535,838.1461136042224 L570.5391327032676,283.6582463291635 M550.0763354745595,820.5790724746223 L551.1816498312535,838.1461136042224" stroke="black"  stroke-width="4"  fill="red"/>
<path d="M237.4539817888691,24.888202528135196 L238.26898546241176,55.37899754027626 M238.26898546241176,55.37899754027626 L240.007770261971,55.37899591183634 M240.007770261971,55.37899591183634 L240.09203461406926,58.56907662187268 M240.09203461406926,58.56907662187268 L238.35425472148052,58.56907825218457 M238.35425472148052,58.56907825218457 L239.1594238242304,88.69194377908639 M239.1594238242304,88.69194377908639 L252.3290049833348,88.69194048342854 M250.7767159203151,24.88819930737037 L252.3290049833348,88.69194048342854 M237.4539817888691,24.888202528135196 L250.7767159203151,24.88819930737037 M238.5335572924774,20.183265740397246 L238.36333507297832,13.762818093041801 M238.5335572924774,20.183265740397246 L238.6536784596829,18.706635202932944 M238.48373396824192,12.289725261155638 L238.6536784596829,18.706635202932944 M239.38055969817032,1.317790592213612 L238.48373396824192,12.289725261155638 M252.82746272562895,513.1747875053629 L239.38055969817032,1.317790592213612 M252.03863763090573,526.837639623751 L252.82746272562895,513.1747875053629 M239.1594238242304,88.69194377908639 L252.03863763090573,526.837639623751 M239.80888442357167,40.3316374992732 L238.35425472148052,58.56907825218457 M239.80888442357167,40.3316374992732 L239.72528968657926,37.16260259510909 M238.26898546241176,55.37899754027626 L239.72528968657926,37.16260259510909 M238.36333507297832,13.762818093041801 L237.4539817888691,24.888202528135196 M240.007770261971,55.37899591183634 L241.44690786257308,37.16260259510909 M239.72528968657926,37.16260259510909 L241.44690786257308,37.16260259510909 M240.09203461406926,58.56907662187268 L241.5295174293313,40.3316374992732 M241.44690786257308,37.16260259510909 L241.5295174293313,40.3316374992732 M241.5295174293313,40.3316374992732 L239.80888442357167,40.3316374992732 M252.03863763090573,526.837639623751 L264.0516330887494,526.8376359164745 M252.3290049833348,88.69194048342854 L264.0516330887494,526.8376359164745 M238.48373396824192,12.289725261155638 L241.9562522393594,12.289730025468316 M241.9562522393594,12.289730025468316 L241.83868074095966,13.76281491163968 M241.83868074095966,13.76281491163968 L238.36333507297832,13.762818093041801 M252.53028230114955,1.3177874545565373 L250.7767159203151,24.88819930737037 M239.38055969817032,1.317790592213612 L252.53028230114955,1.3177874545565373 M242.00489078791026,20.183262551357643 L238.5335572924774,20.183265740397246 M241.83868074095966,13.76281491163968 L242.00489078791026,20.183262551357643 M242.12219109305875,18.706639978691953 L242.00489078791026,20.183262551357643 M238.6536784596829,18.706635202932944 L242.12219109305875,18.706639978691953 M241.9562522393594,12.289730025468316 L242.12219109305875,18.706639978691953 M252.82746272562895,513.1747875053629 L264.7696197116889,513.1747838416798 M264.7696197116889,513.1747838416798 L252.53028230114955,1.3177874545565373 M264.0516330887494,526.8376359164745 L264.7696197116889,513.1747838416798" stroke="black"  stroke-width="4"  fill="red"/>
<path d="M238.26898546241176,55.37899754027626 L237.4539817888691,24.888202528135196 M236.53018617802468,55.37899265495639 L238.26898546241176,55.37899754027626 M236.6164603521327,58.56907336124874 L236.53018617802468,55.37899265495639 M238.35425472148052,58.56907825218457 L236.6164603521327,58.56907336124874 M239.1594238242304,88.69194377908639 L238.35425472148052,58.56907825218457 M239.1594238242304,88.69194377908639 L225.98982826154307,88.69194048342854 M224.13123309238915,24.88819930737037 L225.98982826154307,88.69194048342854 M237.4539817888691,24.888202528135196 L224.13123309238915,24.88819930737037 M239.80888442357167,40.3316374992732 L238.35425472148052,58.56907825218457 M239.80888442357167,40.3316374992732 L239.72528968657926,37.16260259510909 M238.26898546241176,55.37899754027626 L239.72528968657926,37.16260259510909 M238.36333507297832,13.762818093041801 L237.4539817888691,24.888202528135196 M238.5335572924774,20.183265740397246 L238.36333507297832,13.762818093041801 M238.5335572924774,20.183265740397246 L238.6536784596829,18.706635202932944 M238.48373396824192,12.289725261155638 L238.6536784596829,18.706635202932944 M239.38055969817032,1.317790592213612 L238.48373396824192,12.289725261155638 M252.82746272562895,513.1747875053629 L239.38055969817032,1.317790592213612 M252.03863763090573,526.837639623751 L252.82746272562895,513.1747875053629 M239.1594238242304,88.69194377908639 L252.03863763090573,526.837639623751 M238.00366382207233,37.162605788011774 L239.72528968657926,37.16260259510909 M236.53018617802468,55.37899265495639 L238.00366382207233,37.162605788011774 M236.6164603521327,58.56907336124874 L238.0882437338463,40.331640695882925 M238.0882437338463,40.331640695882925 L238.00366382207233,37.162605788011774 M239.80888442357167,40.3316374992732 L238.0882437338463,40.331640695882925 M252.03863763090573,526.837639623751 L240.02562899322348,526.8376359164745 M225.98982826154307,88.69194048342854 L240.02562899322348,526.8376359164745 M235.01122629124347,12.28972843736409 L238.48373396824192,12.289725261155638 M234.88797880887722,13.76281332093879 L235.01122629124347,12.28972843736409 M238.36333507297832,13.762818093041801 L234.88797880887722,13.76281332093879 M226.23082271255282,1.3177874545565373 L224.13123309238915,24.88819930737037 M239.38055969817032,1.317790592213612 L226.23082271255282,1.3177874545565373 M234.88797880887722,13.76281332093879 L235.0622132124045,20.18326095683824 M238.5335572924774,20.183265740397246 L235.0622132124045,20.18326095683824 M235.18517640894981,18.706638386772113 L238.6536784596829,18.706635202932944 M235.0622132124045,20.18326095683824 L235.18517640894981,18.706638386772113 M235.01122629124347,12.28972843736409 L235.18517640894981,18.706638386772113 M252.82746272562895,513.1747875053629 L240.88529263494016,513.1747838416798 M240.88529263494016,513.1747838416798 L226.23082271255282,1.3177874545565373 M240.02562899322348,526.8376359164745 L240.88529263494016,513.1747838416798" stroke="black"  stroke-width="4"  fill="red"/>
<path d="M143.40695743231151,63.67706491148135 L144.76691399514516,94.59820031397982 M144.76691399514516,94.59820031397982 L144.86751803105452,93.81147419986337 M144.86751803105452,93.81147419986337 L145.0096654996741,97.04527424307798 M145.0096654996741,97.04527424307798 L144.9091801659117,97.83288563385548 M144.9091801659117,97.83288563385548 L146.25237977816346,128.37302067793314 M146.25237977816346,128.37302067793314 L147.00756453625488,122.324982627123 M144.180159777623,57.763783786265094 L147.00756453625488,122.324982627123 M143.40695743231151,63.67706491148135 L144.180159777623,57.763783786265094 M116.93997402896929,70.21573700450006 L116.62061503287163,63.67706323153271 M116.93997402896929,70.21573700450006 L113.37268802965957,70.21573363675253 M113.0490918743647,63.677059871636004 L113.37268802965957,70.21573363675253 M86.26276390351637,63.67706491148135 L113.0490918743647,63.677059871636004 M114.63760923327834,585.7565367099015 L86.26276390351637,63.67706491148135 M140.50319104771097,585.7565367099015 L114.63760923327834,585.7565367099015 M146.25237977816346,128.37302067793314 L140.50319104771097,585.7565367099015 M101.64224548640732,97.83288223326014 L144.9091801659117,97.83288563385548 M101.64224548640732,97.83288223326014 L101.47442762439243,94.59819691720577 M144.76691399514516,94.59820031397982 L101.47442762439243,94.59819691720577 M116.62061503287163,63.67706323153271 L143.40695743231151,63.67706491148135 M144.86751803105452,93.81147419986337 L101.59312107823564,93.81147589683303 M101.47442762439243,94.59819691720577 L101.59312107823564,93.81147589683303 M145.0096654996741,97.04527424307798 L101.76079890701465,97.04527594195741 M101.59312107823564,93.81147589683303 L101.76079890701465,97.04527594195741 M101.76079890701465,97.04527594195741 L101.64224548640732,97.83288223326014 M140.50319104771097,585.7565367099015 L141.21175023751084,578.893756314827 M147.00756453625488,122.324982627123 L141.21175023751084,578.893756314827 M113.0490918743647,63.677059871636004 L113.27799590102455,62.12136009137089 M113.27799590102455,62.12136009137089 L116.84650337648793,62.12135841424083 M116.84650337648793,62.12135841424083 L116.62061503287163,63.67706323153271 M87.21824316904718,57.763783786265094 L144.180159777623,57.763783786265094 M86.26276390351637,63.67706491148135 L87.21824316904718,57.763783786265094 M117.16532692538271,68.65639562758491 L116.93997402896929,70.21573700450006 M116.84650337648793,62.12135841424083 L117.16532692538271,68.65639562758491 M113.60104948371713,68.656397308637 L117.16532692538271,68.65639562758491 M113.37268802965957,70.21573363675253 L113.60104948371713,68.656397308637 M113.27799590102455,62.12136009137089 L113.60104948371713,68.656397308637 M114.63760923327834,585.7565367099015 L115.42088091276901,578.893756314827 M115.42088091276901,578.893756314827 L87.21824316904718,57.763783786265094 M141.21175023751084,578.893756314827 L115.42088091276901,578.893756314827" stroke="black"  stroke-width="4"  fill="red"/>
<path d="M144.76691399514516,94.59820031397982 L143.40695743231151,63.67706491148135 M144.6662114368944,95.38557696388688 L144.76691399514516,94.59820031397982 M144.8085964665889,98.62114790389018 L144.6662114368944,95.38557696388688 M144.9091801659117,97.83288563385548 L144.8085964665889,98.62114790389018 M146.25237977816346,128.37302067793314 L144.9091801659117,97.83288563385548 M146.25237977816346,128.37302067793314 L145.492389032446,134.45942599311883 M142.62877615988168,69.62830551221532 L145.492389032446,134.45942599311883 M143.40695743231151,63.67706491148135 L142.62877615988168,69.62830551221532 M101.64224548640732,97.83288223326014 L144.9091801659117,97.83288563385548 M101.64224548640732,97.83288223326014 L101.47442762439243,94.59819691720577 M144.76691399514516,94.59820031397982 L101.47442762439243,94.59819691720577 M116.62061503287163,63.67706323153271 L143.40695743231151,63.67706491148135 M116.93997402896929,70.21573700450006 L116.62061503287163,63.67706323153271 M116.93997402896929,70.21573700450006 L113.37268802965957,70.21573363675253 M113.0490918743647,63.677059871636004 L113.37268802965957,70.21573363675253 M86.26276390351637,63.67706491148135 L113.0490918743647,63.677059871636004 M114.63760923327834,585.7565367099015 L86.26276390351637,63.67706491148135 M140.50319104771097,585.7565367099015 L114.63760923327834,585.7565367099015 M146.25237977816346,128.37302067793314 L140.50319104771097,585.7565367099015 M101.35564317885223,95.38557186446769 L101.47442762439243,94.59819691720577 M144.6662114368944,95.38557696388688 L101.35564317885223,95.38557186446769 M144.8085964665889,98.62114790389018 L101.52360124445948,98.62114279873674 M101.52360124445948,98.62114279873674 L101.35564317885223,95.38557186446769 M101.64224548640732,97.83288223326014 L101.52360124445948,98.62114279873674 M140.50319104771097,585.7565367099015 L139.7905015554477,592.6591857822632 M145.492389032446,134.45942599311883 L139.7905015554477,592.6591857822632 M112.81982155793679,65.23538012445385 L113.0490918743647,63.677059871636004 M116.39432837646575,65.23537844168015 L112.81982155793679,65.23538012445385 M116.62061503287163,63.67706323153271 L116.39432837646575,65.23537844168015 M85.30113560984478,69.62830551221532 L142.62877615988168,69.62830551221532 M86.26276390351637,63.67706491148135 L85.30113560984478,69.62830551221532 M116.39432837646575,65.23537844168015 L116.71422419096291,71.77769176349193 M116.93997402896929,70.21573700450006 L116.71422419096291,71.77769176349193 M113.14396163271982,71.77769345019448 L113.37268802965957,70.21573363675253 M116.71422419096291,71.77769176349193 L113.14396163271982,71.77769345019448 M112.81982155793679,65.23538012445385 L113.14396163271982,71.77769345019448 M114.63760923327834,585.7565367099015 L113.84977321614201,592.6591857822632 M113.84977321614201,592.6591857822632 L85.30113560984478,69.62830551221532 M139.7905015554477,592.6591857822632 L113.84977321614201,592.6591857822632" stroke="black"  stroke-width="4"  fill="red"/></svg>