<svg viewBox="0 0 800 800" xmlns="http://www.w3.org/2000/svg"><path d="M786.6805114340565,123.29793646297156 L783.4410100888531,152.98292339408277 M797.5367720669831,155.09869443723977 L786.6805114340565,123.29793646297156 M783.4410100888531,152.98292339408277 L794.0984680432899,185.3799190979777 M794.0984680432899,185.3799190979777 L797.5367720669831,155.09869443723977 M788.0492391501182,135.00325113731975 L788.4614882685499,136.21967527052158 M787.758304000437,137.64956014081048 L788.0492391501182,135.00325113731975 M788.4614882685499,136.21967527052158 L788.1698845436207,138.86803458361896 M788.1698845436207,138.86803458361896 L787.758304000437,137.64956014081048 M786.3321522388679,150.62165461313063 L786.7404633122405,151.8501082227122 M786.0439960555005,153.24268649357433 L786.3321522388679,150.62165461313063 M786.7404633122405,151.8501082227122 L786.4516481124878,154.47314201356963 M786.4516481124878,154.47314201356963 L786.0439960555005,153.24268649357433 M794.4621480808083,157.49607897190623 L794.0360206314658,156.2345388196578 M794.7640686171434,154.81665664317129 L794.4621480808083,157.49607897190623 M794.0360206314658,156.2345388196578 L794.3372368209706,153.55720344078247 M794.3372368209706,153.55720344078247 L794.7640686171434,154.81665664317129 M790.4556944340289,153.08302282118126 L790.4879842834795,153.2155294485755 M790.4879842834795,153.2155294485755 L790.5123353714239,153.39485435190585 M790.5123353714239,153.39485435190585 L790.527310247407,153.61054749144398 M790.527310247407,153.61054749144398 L790.5320727337852,153.85007043481733 M790.5320727337852,153.85007043481733 L790.5263292264812,154.09950452385607 M790.5263292264812,154.09950452385607 L790.5104320987385,154.34427667743554 M790.5104320987385,154.34427667743554 L790.4852761321326,154.57018685641236 M790.4852761321326,154.57018685641236 L790.4523246478909,154.7641147709823 M790.4523246478909,154.7641147709823 L790.4135295149752,154.91473215104895 M790.4135295149752,154.91473215104895 L790.3711325759311,155.01333420414062 M790.3711325759311,155.01333420414062 L790.3276152467681,155.05418821110868 M790.3276152467681,155.05418821110868 L790.2854650648841,155.03497503107712 M790.2854650648841,155.03497503107712 L790.2471561886503,154.95678767649434 M790.2471561886503,154.95678767649434 L790.2149244061816,154.8242062860698 M790.2149244061816,154.8242062860698 L790.1906133816251,154.64493275964688 M790.1906133816251,154.64493275964688 L790.1756664168431,154.4293977235509 M790.1756664168431,154.4293977235509 L790.1709133212003,154.19010342000558 M790.1709133212003,154.19010342000558 L790.1766279507539,153.94094659750485 M790.1766279507539,153.94094659750485 L790.1925132864451,153.69635237499284 M790.1925132864451,153.69635237499284 L790.2176284994356,153.47056446709666 M790.2176284994356,153.47056446709666 L790.2505196039663,153.27667516507313 M790.2505196039663,153.27667516507313 L790.2892973166049,153.12591944571642 M790.2892973166049,153.12591944571642 L790.3316750416284,153.02711823156875 M790.3316750416284,153.02711823156875 L790.3751933495047,152.9860193917792 M790.3751933495047,152.9860193917792 L790.4173644825195,153.00499815746 M790.4173644825195,153.00499815746 L790.4556944340289,153.08302282118126 M792.683295785053,173.28267175762738 L792.2613064043146,172.0089405726221 M792.9822789248598,170.62931763194348 L792.683295785053,173.28267175762738 M792.5595954422613,169.3576229401329 L792.9822789248598,170.62931763194348 M792.2613064043146,172.0089405726221 L792.5595954422613,169.3576229401329 M795.4948119313983,126.53274384058784 L786.6805114340565,123.29793646297156 M792.1652735248591,156.2791953740709 L783.4410100888531,152.98292339408277 M795.4948119313983,126.53274384058784 L792.1652735248591,156.2791953740709 M804.2663033378647,151.68582972663054 L795.4948119313983,126.53274384058784 M797.5367720669831,155.09869443723977 L804.2663033378647,151.68582972663054 M792.1652735248591,156.2791953740709 L800.7761523775298,181.90391997285738 M794.0984680432899,185.3799190979777 L800.7761523775298,181.90391997285738 M800.7761523775298,181.90391997285738 L804.2663033378647,151.68582972663054 M789.8951036963708,136.21967527052158 L789.4812095051007,135.00325113731975 M789.4812095051007,135.00325113731975 L788.0492391501182,135.00325113731975 M789.8951036963708,136.21967527052158 L788.4614882685499,136.21967527052158 M789.4812095051007,135.00325113731975 L789.1891133838342,137.64956014081048 M789.1891133838342,137.64956014081048 L787.758304000437,137.64956014081048 M789.6023363319188,138.86803458361902 L789.8951036963708,136.21967527052158 M789.6023363319188,138.86803458361902 L788.1698845436207,138.86803458361896 M789.1891133838342,137.64956014081048 L789.6023363319188,138.86803458361902 M788.1672110203178,151.8501082227122 L787.7572705888061,150.62165461313054 M787.7572705888061,150.62165461313054 L786.3321522388679,150.62165461313063 M788.1672110203178,151.8501082227122 L786.7404633122405,151.8501082227122 M787.7572705888061,150.62165461313054 L787.4679645232698,153.24268649357433 M787.4679645232698,153.24268649357433 L786.0439960555005,153.24268649357433 M787.8772433086027,154.47314201356963 L788.1672110203178,151.8501082227122 M787.8772433086027,154.47314201356963 L786.4516481124878,154.47314201356963 M787.4679645232698,153.24268649357433 L787.8772433086027,154.47314201356963 M795.4918810614746,156.2345388196578 L795.9197089648076,157.49607897190612 M795.9197089648076,157.49607897190612 L794.4621480808083,157.49607897190623 M795.4918810614746,156.2345388196578 L794.0360206314658,156.2345388196578 M795.9197089648076,157.49607897190612 L796.2228343096608,154.81665664317129 M796.2228343096608,154.81665664317129 L794.7640686171434,154.81665664317129 M795.7942992488142,153.55720344078247 L795.4918810614746,156.2345388196578 M795.7942992488142,153.55720344078247 L794.3372368209706,153.55720344078247 M796.2228343096608,154.81665664317129 L795.7942992488142,153.55720344078247 M798.2231105951042,153.08301902460522 L798.2560945298261,153.215525651193 M798.2560945298261,153.215525651193 L798.2809540117407,153.3948581501765 M798.2809540117407,153.3948581501765 L798.296276345052,153.6105474914441 M798.296276345052,153.6105474914441 L798.3011412313368,153.85007043481733 M798.3011412313368,153.85007043481733 L798.2952641290188,154.09950072295354 M798.2952641290188,154.09950072295354 L798.2790098162425,154.34428047903378 M798.2790098162425,154.34428047903378 L798.2533129639716,154.57019065854234 M798.2533129639716,154.57019065854234 L798.2196683541073,154.76411096851527 M798.2196683541073,154.76411096851527 L798.1800491727905,154.91473215104895 M798.1800491727905,154.91473215104895 L798.1367406421431,155.01333420414062 M798.1367406421431,155.01333420414062 L798.0922621666164,155.05419201328522 M798.0922621666164,155.05419201328522 L798.0492208802755,155.03497122941218 M798.0492208802755,155.03497122941218 L798.0100885016273,154.956783875508 M798.0100885016273,154.956783875508 L797.977173596149,154.8242062860698 M797.977173596149,154.8242062860698 L797.9523400406994,154.64493275964688 M797.9523400406994,154.64493275964688 L797.9370462412462,154.42940152192654 M797.9370462412462,154.42940152192654 L797.9321909479286,154.19010721748828 M797.9321909479286,154.19010721748828 L797.9380539041255,153.94094659750485 M797.9380539041255,153.94094659750485 L797.9542807960461,153.69635237499295 M797.9542807960461,153.69635237499295 L797.979936020127,153.47056446709666 M797.979936020127,153.47056446709666 L798.0135343279462,153.27667516507321 M798.0135343279462,153.27667516507321 L798.0531203516284,153.12592324069462 M798.0531203516284,153.12592324069462 L798.0964092522922,153.0271220266443 M798.0964092522922,153.0271220266443 L798.1408887278473,152.9860193917792 M798.1408887278473,152.9860193917792 L798.1839664081673,153.00499815746 M798.1839664081673,153.00499815746 L798.2231105951042,153.08301902460522 M798.2231105951042,153.08301902460522 L790.4556944340289,153.08302282118126 M793.7100848688361,172.0089405726221 L794.1337581906762,173.28267175762738 M794.1337581906762,173.28267175762738 L792.683295785053,173.28267175762738 M793.7100848688361,172.0089405726221 L792.2613064043146,172.0089405726221 M794.1337581906762,173.28267175762738 L794.4339344173725,170.6293176319433 M794.4339344173725,170.6293176319433 L792.9822789248598,170.62931763194348 M794.4339344173725,170.6293176319433 L794.0095642238714,169.3576229401329 M794.0095642238714,169.3576229401329 L792.5595954422613,169.3576229401329 M794.0095642238714,169.3576229401329 L793.7100848688361,172.0089405726221" stroke="black"  stroke-width="4"  fill="red"/>
<path d="M294.3150436016514,410.30631731023107 L295.868587310612,444.72830138904595 M200.59140730436275,410.30631731023107 L294.3150436016514,410.30631731023107 M295.868587310612,444.72830138904595 L203.22439484432562,444.72830138904595 M203.22439484432562,444.72830138904595 L200.59140730436275,410.30631731023107 M276.8907981027512,417.04436096854 L273.26400148349205,417.04436096854 M277.0471442250167,420.10532147167544 L276.8907981027512,417.04436096854 M273.26400148349205,417.04436096854 L273.4240704611429,420.10532147167544 M273.4240704611429,420.10532147167544 L277.0471442250167,420.10532147167544 M277.81257069765365,435.09091987889667 L274.2077229826547,435.09091987889667 M277.9670298007272,438.1149361257174 L277.81257069765365,435.09091987889667 M274.2077229826547,435.09091987889667 L274.3658600081185,438.1149361257174 M274.3658600081185,438.1149361257174 L277.9670298007272,438.1149361257174 M219.05109797792755,420.10530956394354 L222.67417170969998,420.1053095639435 M218.83515856547905,417.0443490757212 L219.05109797792755,420.10530956394354 M222.67417170969998,420.1053095639435 L222.46195515257088,417.0443490757212 M222.46195515257088,417.0443490757212 L218.83515856547905,417.0443490757212 M248.44049615793037,426.5409491291528 L248.13649232409762,426.57222800768363 M248.13649232409762,426.57222800768363 L247.8540099490603,426.66424992425135 M247.8540099490603,426.66424992425135 L247.60942241613128,426.81164702653473 M247.60942241613128,426.81164702653473 L247.41699015380706,427.0058346815573 M247.41699015380706,427.0058346815573 L247.28789076422598,427.2355257150441 M247.28789076422598,427.2355257150441 L247.22958476416136,427.4873333128538 M247.22958476416136,427.4873333128538 L247.24546404512057,427.74663451254554 M247.24546404512057,427.74663451254554 L247.33458818824562,427.99838176052236 M247.33458818824562,427.99838176052236 L247.49173976278925,428.22791703666184 M247.49173976278925,428.22791703666184 L247.70780529369443,428.42191967960343 M247.70780529369443,428.42191967960343 L247.97022925358667,428.56911864183905 M247.97022925358667,428.56911864183905 L248.26373119430656,428.6610288970803 M248.26373119430656,428.6610288970803 L248.5713208784924,428.6922512379175 M248.5713208784924,428.6922512379175 L248.87508881185533,428.6610288970803 M248.87508881185533,428.6610288970803 L249.15741301329942,428.56913059051664 M249.15741301329942,428.56913059051664 L249.40193261550067,428.4219077316344 M249.40193261550067,428.4219077316344 L249.59440281310435,428.22790508962674 M249.59440281310435,428.22790508962674 L249.72366255725183,427.9983817605223 M249.72366255725183,427.9983817605223 L249.78214461231047,427.74664645726284 M249.78214461231047,427.74664645726284 L249.76648670542323,427.4873452563217 M249.76648670542323,427.4873452563217 L249.6775785643128,427.2355257150441 M249.6775785643128,427.2355257150441 L249.52051816716886,427.0058227404104 M249.52051816716886,427.0058227404104 L249.3044680732881,426.8116350863243 M249.3044680732881,426.8116350863243 L249.04195501497196,426.6642618637509 M249.04195501497196,426.6642618637509 L248.7482798568077,426.57222800768363 M248.7482798568077,426.57222800768363 L248.44049615793037,426.5409491291528 M220.3216095062788,438.11492413137097 L223.92277926717315,438.11492413137097 M220.10827637408897,435.09090789895913 L220.3216095062788,438.11492413137097 M223.71312405730873,435.09090789895913 L220.10827637408897,435.09090789895913 M223.92277926717315,438.11492413137097 L223.71312405730873,435.09090789895913 M283.952158275,415.5618283120821 L294.3150436016514,410.30631731023107 M285.63156821368335,450.05707520399045 L295.868587310612,444.72830138904595 M283.952158275,415.5618283120821 L285.63156821368335,450.05707520399045 M200.59140730436275,410.30631731023107 L209.52238105206496,415.56182233537453 M209.52238105206496,415.56182233537453 L283.952158275,415.5618283120821 M285.63156821368335,450.05707520399045 L212.06235929731525,450.05706914424127 M203.22439484432562,444.72830138904595 L212.06235929731525,450.05706914424127 M212.06235929731525,450.05706914424127 L209.52238105206496,415.56182233537453 M273.15061754992246,418.0193290883883 L276.78005123223977,418.0193290883883 M276.78005123223977,418.0193290883883 L276.8907981027512,417.04436096854 M273.15061754992246,418.0193290883883 L273.26400148349205,417.04436096854 M276.78005123223977,418.0193290883883 L276.9366246804914,421.0815114279871 M276.9366246804914,421.0815114279871 L277.0471442250167,420.10532147167544 M273.31091926656086,421.0815114279871 L273.15061754992246,418.0193290883883 M273.31091926656086,421.0815114279871 L273.4240704611429,420.10532147167544 M276.9366246804914,421.0815114279871 L273.31091926656086,421.0815114279871 M274.09570775910356,436.0730256336974 L277.70316070395006,436.0730256336974 M277.70316070395006,436.0730256336974 L277.81257069765365,435.09091987889667 M274.09570775910356,436.0730256336974 L274.2077229826547,435.09091987889667 M277.70316070395006,436.0730256336974 L277.8578430293784,439.0982223733995 M277.8578430293784,439.0982223733995 L277.9670298007272,438.1149361257174 M274.25407332220925,439.0982223733995 L274.09570775910356,436.0730256336974 M274.25407332220925,439.0982223733995 L274.3658600081185,438.1149361257174 M277.8578430293784,439.0982223733995 L274.25407332220925,439.0982223733995 M222.52415790126753,421.0814995029503 L218.89845251948503,421.0814995029504 M218.89845251948503,421.0814995029504 L219.05109797792755,420.10530956394354 M222.52415790126753,421.0814995029503 L222.67417170969998,420.1053095639435 M218.89845251948503,421.0814995029504 L218.68219913289536,418.01931717826847 M218.68219913289536,418.01931717826847 L218.83515856547905,417.0443490757212 M222.31163278299852,418.01931717826847 L222.52415790126753,421.0814995029503 M222.31163278299852,418.01931717826847 L222.46195515257088,417.0443490757212 M218.68219913289536,418.01931717826847 L222.31163278299852,418.01931717826847 M247.73230730403978,431.83139741611586 L247.42713022413886,431.86274899758644 M247.42713022413886,431.86274899758644 L247.14356325571507,431.9549669554522 M247.14356325571507,431.9549669554522 L246.8980664429205,432.1026600944738 M246.8980664429205,432.1026600944738 L246.70492706123247,432.297261363883 M246.70492706123247,432.297261363883 L246.5753637668557,432.52745949006044 M246.5753637668557,432.52745949006044 L246.51689002319142,432.77980313185515 M246.51689002319142,432.77980313185515 L246.53289392406697,433.0396561527442 M246.53289392406697,433.0396561527442 L246.62242767026115,433.29193897635844 M246.62242767026115,433.29193897635844 L246.78026329539406,433.521944434894 M246.78026329539406,433.521944434894 L246.99722141648914,433.71635957239334 M246.99722141648914,433.71635957239334 L247.2606946444544,433.8638894426691 M247.2606946444544,433.8638894426691 L247.55536765967406,433.95599508479194 M247.55536765967406,433.95599508479194 L247.8641587384124,433.987277727094 M247.8641587384124,433.987277727094 L248.1691084332106,433.9559890633606 M248.1691084332106,433.9559890633606 L248.452539754979,433.86388342145915 M248.452539754979,433.86388342145915 L248.69796817444262,433.7163655932487 M248.69796817444262,433.7163655932487 L248.89114583521885,433.5219504552816 M248.89114583521885,433.5219504552816 L249.0208469176503,433.291932956524 M249.0208469176503,433.291932956524 L249.0795219455761,433.039650133517 M249.0795219455761,433.039650133517 L249.06374115749577,432.7797971132534 M249.06374115749577,432.7797971132534 L248.97440125706467,432.52745347206616 M248.97440125706467,432.52745347206616 L248.8166813457255,432.2972673813229 M248.8166813457255,432.2972673813229 L248.5997387346253,432.1026661114449 M248.5997387346253,432.1026661114449 L248.3361756573525,431.9549609388371 M248.3361756573525,431.9549609388371 L248.0413042801131,431.86274298119355 M248.0413042801131,431.86274298119355 L247.73230730403978,431.83139741611586 M247.73230730403978,431.83139741611586 L248.44049615793037,426.5409491291528 M223.77457449965812,439.0982103617279 L220.17080482424927,439.0982103617279 M220.17080482424927,439.0982103617279 L220.3216095062788,438.11492413137097 M223.77457449965812,439.0982103617279 L223.92277926717315,438.11492413137097 M220.17080482424927,439.0982103617279 L219.9571633857004,436.0730136364377 M219.9571633857004,436.0730136364377 L220.10827637408897,435.09090789895913 M219.9571633857004,436.0730136364377 L223.56461629872175,436.0730136364377 M223.56461629872175,436.0730136364377 L223.71312405730873,435.09090789895913 M223.56461629872175,436.0730136364377 L223.77457449965812,439.0982103617279" stroke="black"  stroke-width="4"  fill="red"/>
<path d="M528.0232892040289,53.57098273066208 L527.1868934964829,81.88619658382083 M596.686409400774,53.57098273066208 L528.0232892040289,53.57098273066208 M527.1868934964829,81.88619658382083 L595.2688635256598,81.88619658382083 M595.2688635256598,81.88619658382083 L596.686409400774,53.57098273066208 M540.8558176912054,59.09989253503346 L543.5144573878546,59.09989253503346 M540.7717791123503,61.61377485552828 L540.8558176912054,59.09989253503346 M543.5144573878546,59.09989253503346 L543.4284177137926,61.61377485552828 M543.4284177137926,61.61377485552828 L540.7717791123503,61.61377485552828 M540.3596842099677,73.94094772754289 L543.0065101617298,73.94094772754289 M540.2763912674861,76.43252550502137 L540.3596842099677,73.94094772754289 M543.0065101617298,73.94094772754289 L542.9212338788559,76.43252550502137 M542.9212338788559,76.43252550502137 L540.2763912674861,76.43252550502137 M583.2976987613399,61.613781257881726 L580.6410601426378,61.613781257881726 M583.4137697046781,59.09989892586498 L583.2976987613399,61.613781257881726 M580.6410601426378,61.613781257881726 L580.7551299907433,59.09989892586498 M580.7551299907433,59.09989892586498 L583.4137697046781,59.09989892586498 M561.8241880551469,66.90369145403645 L562.0476002627894,66.92940856434507 M562.0476002627894,66.92940856434507 L562.2559501069841,67.00510071218883 M562.2559501069841,67.00510071218883 L562.4371579934905,67.1263147717213 M562.4371579934905,67.1263147717213 L562.5806653985939,67.28603398627962 M562.5806653985939,67.28603398627962 L562.6781358938028,67.47497813296224 M562.6781358938028,67.47497813296224 L562.723928942043,67.68210651581592 M562.723928942043,67.68210651581592 L562.7153797340427,67.89540864960634 M562.7153797340427,67.89540864960634 L562.6529945797661,68.10250635788793 M562.6529945797661,68.10250635788793 L562.540421137832,68.29132346052347 M562.540421137832,68.29132346052347 L562.3841898753136,68.45093100463521 M562.3841898753136,68.45093100463521 L562.1933790772035,68.57205274951929 M562.1933790772035,68.57205274951929 L561.9790964374471,68.64766386048927 M561.9790964374471,68.64766386048927 L561.753753651734,68.67336048533309 M561.753753651734,68.67336048533309 L561.5304714283384,68.64766386048927 M561.5304714283384,68.64766386048927 L561.3222078269349,68.57204631540185 M561.3222078269349,68.57204631540185 L561.1410380169945,68.45093743820144 M561.1410380169945,68.45093743820144 L560.9975117990411,68.2913298933633 M560.9975117990411,68.2913298933633 L560.8999537289874,68.10250635788793 M560.8999537289874,68.10250635788793 L560.85406925176,67.8954022185693 M560.85406925176,67.8954022185693 L560.8624992744461,67.68210008575016 M560.8624992744461,67.68210008575016 L560.9247647793371,67.47497813296224 M560.9247647793371,67.47497813296224 L561.0372903756642,67.28604041454076 M561.0372903756642,67.28604041454076 L561.1935117164434,67.12632119925468 M561.1935117164434,67.12632119925468 L561.3843689770107,67.00509428520797 M561.3843689770107,67.00509428520797 L561.5987437927042,66.92940856434507 M561.5987437927042,66.92940856434507 L561.8241880551469,66.90369145403645 M582.6134875900773,76.43253197479476 L579.9686449616008,76.43253197479476 M582.7285286883252,73.94095418604024 L582.6134875900773,76.43253197479476 M580.0817027194306,73.94095418604024 L582.7285286883252,73.94095418604024 M579.9686449616008,76.43253197479476 L580.0817027194306,73.94095418604024 M534.8939139815092,50.76935962477944 L528.0232892040289,53.57098273066208 M534.0019092050884,79.02774194185804 L527.1868934964829,81.88619658382083 M534.8939139815092,50.76935962477944 L534.0019092050884,79.02774194185804 M596.686409400774,53.57098273066208 L589.0524710668501,50.769362789262175 M589.0524710668501,50.769362789262175 L534.8939139815092,50.76935962477944 M534.0019092050884,79.02774194185804 L587.7033824915509,79.02774517061107 M595.2688635256598,81.88619658382083 L587.7033824915509,79.02774517061107 M587.7033824915509,79.02774517061107 L589.0524710668501,50.769362789262175 M543.4536050637716,58.57663430847748 L540.7963806594905,58.57663430847748 M540.7963806594905,58.57663430847748 L540.8558176912054,59.09989253503346 M543.4536050637716,58.57663430847748 L543.5144573878546,59.09989253503346 M540.7963806594905,58.57663430847748 L540.7124314968792,61.08957303762537 M540.7124314968792,61.08957303762537 L540.7717791123503,61.61377485552828 M543.3676569350997,61.08957303762537 L543.4536050637716,58.57663430847748 M543.3676569350997,61.08957303762537 L543.4284177137926,61.61377485552828 M540.7124314968792,61.08957303762537 L543.3676569350997,61.08957303762537 M542.9461972916915,73.41214802625802 L540.3007740857727,73.41214802625802 M540.3007740857727,73.41214802625802 L540.3596842099677,73.94094772754289 M542.9461972916915,73.41214802625802 L543.0065101617298,73.94094772754289 M540.3007740857727,73.41214802625802 L540.217569372847,75.90280235864799 M540.217569372847,75.90280235864799 L540.2763912674861,76.43252550502137 M542.8610113392627,75.90280235864799 L542.9461972916915,73.41214802625802 M542.8610113392627,75.90280235864799 L542.9212338788559,76.43252550502137 M540.217569372847,75.90280235864799 L542.8610113392627,75.90280235864799 M580.5605045980966,61.08957943316955 L583.2157300535586,61.08957943316955 M583.2157300535586,61.08957943316955 L583.2976987613399,61.613781257881726 M580.5605045980966,61.08957943316955 L580.6410601426378,61.613781257881726 M583.2157300535586,61.08957943316955 L583.3316774985227,58.57664069250677 M583.3316774985227,58.57664069250677 L583.4137697046781,59.09989892586498 M580.6744530769743,58.57664069250677 L580.5605045980966,61.08957943316955 M580.6744530769743,58.57664069250677 L580.7551299907433,59.09989892586498 M583.3316774985227,58.57664069250677 L580.6744530769743,58.57664069250677 M561.445567181989,64.07514060960159 L561.6683359769052,64.10080288424592 M561.6683359769052,64.10080288424592 L561.8760995968892,64.17634299976072 M561.8760995968892,64.17634299976072 L562.056797175823,64.2973232428912 M562.056797175823,64.2973232428912 L562.1999131016838,64.45672174298778 M562.1999131016838,64.45672174298778 L562.2971336773671,64.64527693573928 M562.2971336773671,64.64527693573928 L562.3428196384962,64.85198953751882 M562.3428196384962,64.85198953751882 L562.3343191632965,65.06486357398137 M562.3343191632965,65.06486357398137 L562.2721356756291,65.2715457116625 M562.2721356756291,65.2715457116625 L562.1598982457618,65.45999360824186 M562.1598982457618,65.45999360824186 L562.0041309924507,65.61928098010327 M562.0041309924507,65.61928098010327 L561.8138852389413,65.74015016427103 M561.8138852389413,65.74015016427103 L561.600222641942,65.81560964181716 M561.600222641942,65.81560964181716 L561.375534269049,65.84125791892393 M561.375534269049,65.84125791892393 L561.1528862667523,65.81561284071358 M561.1528862667523,65.81561284071358 L560.9451931227289,65.74015336299624 M560.9451931227289,65.74015336299624 L560.7645334230414,65.6192777816529 M560.7645334230414,65.6192777816529 L560.6213988058947,65.45999041015347 M560.6213988058947,65.45999041015347 L560.5241063924058,65.27154890932223 M560.5241063924058,65.27154890932223 L560.4783142865203,65.06486677117124 M560.4783142865203,65.06486677117124 L560.4866962554421,64.85199273422427 M560.4866962554421,64.85199273422427 L560.5487760147244,64.64528013197469 M560.5487760147244,64.64528013197469 L560.6609506338541,64.45671854718114 M560.6609506338541,64.45671854718114 L560.8167080081824,64.29732004744727 M560.8167080081824,64.29732004744727 L561.0069999348138,64.17634619492912 M561.0069999348138,64.17634619492912 L561.2207694647187,64.10080607924237 M561.2207694647187,64.10080607924237 L561.445567181989,64.07514060960159 M561.445567181989,64.07514060960159 L561.8241880551469,66.90369145403645 M579.8888030047552,75.90280882157043 L582.5322449882597,75.90280882157043 M582.5322449882597,75.90280882157043 L582.6134875900773,76.43253197479476 M579.8888030047552,75.90280882157043 L579.9686449616008,76.43253197479476 M582.5322449882597,75.90280882157043 L582.6471642271425,73.41215447791149 M582.6471642271425,73.41215447791149 L582.7285286883252,73.94095418604024 M582.6471642271425,73.41215447791149 L580.0017410041094,73.41215447791149 M580.0017410041094,73.41215447791149 L580.0817027194306,73.94095418604024 M580.0017410041094,73.41215447791149 L579.8888030047552,75.90280882157043" stroke="black"  stroke-width="4"  fill="red"/>
<path d="M11.692942850480392,299.1474608154745 L16.105123789908305,331.9064923317415 M25.586856646584863,258.4486414996236 L11.692942850480392,299.1474608154745 M16.105123789908305,331.9064923317415 L29.711716833453806,290.54458987235853 M29.711716833453806,290.54458987235853 L25.586856646584863,258.4486414996236 M15.251875295119362,297.60019417073727 L15.799101727899881,295.9854922601734 M15.638974784255026,300.5004408146384 L15.251875295119362,297.60019417073727 M15.799101727899881,295.9854922601734 L16.185178910979403,298.88341644360764 M16.185178910979403,298.88341644360764 L15.638974784255026,300.5004408146384 M17.535126788423554,314.70688809953936 L18.076337083347596,313.07859099054735 M17.917966436632526,317.575218944795 L17.535126788423554,314.70688809953936 M18.076337083347596,313.07859099054735 L18.458171238635373,315.94466669034296 M18.458171238635373,315.94466669034296 L17.917966436632526,317.575218944795 M24.212341345301695,275.1191339128035 L23.687175812436067,276.67387394963777 M23.841132217778352,272.25580176501427 L24.212341345301695,275.1191339128035 M23.687175812436067,276.67387394963777 L23.315002898223383,273.8082523142133 M23.315002898223383,273.8082523142133 L23.841132217778352,272.25580176501427 M20.767723633438777,293.73755269675274 L20.81671711961451,293.6324717414753 M20.81671711961451,293.6324717414753 L20.87059981285887,293.5924569446589 M20.87059981285887,293.5924569446589 L20.926266330150327,293.6197599613089 M20.926266330150327,293.6197599613089 L20.980430919126547,293.7128066748074 M20.980430919126547,293.7128066748074 L21.02997351428968,293.8661690669801 M21.02997351428968,293.8661690669801 L21.071987438755514,294.07089344432467 M21.071987438755514,294.07089344432467 L21.10408570873051,294.3150887790784 M21.10408570873051,294.3150887790784 L21.124410645393937,294.5845957458715 M21.124410645393937,294.5845957458715 L21.131733231797682,294.8637500878996 M21.131733231797682,294.8637500878996 L21.125658721309094,295.13636459930217 M21.125658721309094,295.13636459930217 L21.106513841125434,295.3866210880135 M21.106513841125434,295.3866210880135 L21.075464586568046,295.60000287235687 M21.075464586568046,295.60000287235687 L21.03427223245245,295.7640923938109 M21.03427223245245,295.7640923938109 L20.985307801656916,295.8693827273103 M20.985307801656916,295.8693827273103 L20.931455380907494,295.90968671229587 M20.931455380907494,295.90968671229587 L20.87579027845436,295.88269614753096 M20.87579027845436,295.88269614753096 L20.821597918432985,295.78991356797945 M20.821597918432985,295.78991356797945 L20.772031132998563,295.63672151524713 M20.772031132998563,295.63672151524713 L20.729928999101503,295.43199301227116 M20.729928999101503,295.43199301227116 L20.697771841015992,295.18766169128384 M20.697771841015992,295.18766169128384 L20.677430817881486,294.9179180167963 M20.677430817881486,294.9179180167963 L20.67006550257622,294.6384388245774 M20.67006550257622,294.6384388245774 L20.676153583878772,294.3655273937934 M20.676153583878772,294.3655273937934 L20.695338842103524,294.1150549110049 M20.695338842103524,294.1150549110049 L20.726445969347992,293.9015875072764 M20.726445969347992,293.9015875072764 L20.767723633438777,293.73755269675274 M26.39807291610134,291.97883646069874 L25.878564353842307,293.5469191822786 M26.030864792904595,289.1463661734147 L26.39807291610134,291.97883646069874 M25.510407989744976,290.71222379771916 L26.030864792904595,289.1463661734147 M25.878564353842307,293.5469191822786 L25.510407989744976,290.71222379771916 M4.24443083330857,294.7643225998729 L11.692942850480392,299.1474608154745 M8.719400887117615,327.453339995302 L16.105123789908305,331.9064923317415 M4.24443083330857,294.7643225998729 L8.719400887117615,327.453339995302 M15.469958982065918,262.5739918388924 L4.24443083330857,294.7643225998729 M25.586856646584863,258.4486414996236 L15.469958982065918,262.5739918388924 M8.719400887117615,327.453339995302 L19.712813726752756,294.7384776375469 M29.711716833453806,290.54458987235853 L19.712813726752756,294.7384776375469 M19.712813726752756,294.7384776375469 L15.469958982065918,262.5739918388924 M14.149421525573644,295.98549226017326 L13.600011395361719,297.60019417073727 M13.600011395361719,297.60019417073727 L15.251875295119362,297.60019417073727 M14.149421525573644,295.98549226017326 L15.799101727899881,295.9854922601734 M13.600011395361719,297.60019417073727 L13.988655598183527,300.5004408146384 M13.988655598183527,300.5004408146384 L15.638974784255026,300.5004408146384 M14.537039342845048,298.88341644360764 L14.149421525573644,295.98549226017326 M14.537039342845048,298.88341644360764 L16.185178910979403,298.88341644360764 M13.988655598183527,300.5004408146384 L14.537039342845048,298.88341644360764 M16.435744148555727,313.07859099054735 L15.892374163492377,314.70688809953947 M15.892374163492377,314.70688809953947 L17.535126788423554,314.70688809953936 M16.435744148555727,313.07859099054735 L18.076337083347596,313.07859099054735 M15.892374163492377,314.70688809953947 L16.276741526567378,317.575218944795 M16.276741526567378,317.575218944795 L17.917966436632526,317.575218944795 M16.819102006307844,315.94466669034296 L16.435744148555727,313.07859099054735 M16.819102006307844,315.94466669034296 L18.458171238635373,315.94466669034296 M16.276741526567378,317.575218944795 L16.819102006307844,315.94466669034296 M22.068972909490014,276.67387394963777 L22.59623410605292,275.1191339128035 M22.59623410605292,275.1191339128035 L24.212341345301695,275.1191339128035 M22.068972909490014,276.67387394963777 L23.687175812436067,276.67387394963777 M22.59623410605292,275.1191339128035 L22.22354367512338,272.25580176501427 M22.22354367512338,272.25580176501427 L23.841132217778352,272.25580176501427 M21.695314845897485,273.8082523142133 L22.068972909490014,276.67387394963777 M21.695314845897485,273.8082523142133 L23.315002898223383,273.8082523142133 M22.22354367512338,272.25580176501427 L21.695314845897485,273.8082523142133 M11.985824492108407,293.7375575498113 L12.035871617655744,293.6324765935329 M12.035871617655744,293.6324765935329 L12.090936289585557,293.5924520934011 M12.090936289585557,293.5924520934011 L12.147767786614054,293.6197599613089 M12.147767786614054,293.6197599613089 L12.203096987603146,293.7128066748074 M12.203096987603146,293.7128066748074 L12.253713096284969,293.8661739174349 M12.253713096284969,293.8661739174349 L12.296654005594121,294.07088859355406 M12.296654005594121,294.07088859355406 L12.329442429200924,294.31508392771667 M12.329442429200924,294.31508392771667 L12.350180752063523,294.5846005980651 M12.350180752063523,294.5846005980651 L12.357652504891007,294.8637500878996 M12.357652504891007,294.8637500878996 L12.351447384200753,295.13636459930217 M12.351447384200753,295.13636459930217 L12.33192276953082,295.3866162324133 M12.33192276953082,295.3866162324133 L12.30018250121418,295.6000077291764 M12.30018250121418,295.6000077291764 L12.258104242639888,295.76409725177456 M12.258104242639888,295.76409725177456 L12.20807894349025,295.8693827273103 M12.20807894349025,295.8693827273103 L12.153068408989668,295.90968671229587 M12.153068408989668,295.90968671229587 L12.096238356793322,295.8826912872088 M12.096238356793322,295.8826912872088 L12.040880792101746,295.789908707382 M12.040880792101746,295.789908707382 L11.99021632385751,295.6367215152471 M11.99021632385751,295.6367215152471 L11.947208937066932,295.43199301227116 M11.947208937066932,295.43199301227116 L11.914360356535155,295.18766169128384 M11.914360356535155,295.18766169128384 L11.893581973857408,294.9179180167962 M11.893581973857408,294.9179180167962 L11.886090236563177,294.6384339667671 M11.886090236563177,294.6384339667671 L11.892309219357344,294.36552253714353 M11.892309219357344,294.36552253714353 L11.9118750448514,294.1150549110049 M11.9118750448514,294.1150549110049 L11.943651231370495,293.9015875072764 M11.943651231370495,293.9015875072764 L11.985824492108407,293.7375575498113 M11.985824492108407,293.7375575498113 L20.767723633438777,293.73755269675274 M24.26910614780695,293.5469191822786 L24.790687799722832,291.97883646069874 M24.790687799722832,291.97883646069874 L26.39807291610134,291.97883646069874 M24.26910614780695,293.5469191822786 L25.878564353842307,293.5469191822786 M24.790687799722832,291.97883646069874 L24.42201433905626,289.1463661734147 M24.42201433905626,289.1463661734147 L26.030864792904595,289.1463661734147 M24.42201433905626,289.1463661734147 L23.89948066230147,290.71222379771916 M23.89948066230147,290.71222379771916 L25.510407989744976,290.71222379771916 M23.89948066230147,290.71222379771916 L24.26910614780695,293.5469191822786" stroke="black"  stroke-width="4"  fill="red"/>
<path d="M-68.64909701407714,267.4966644517946 L-67.40757185907523,275.3059560658118 M553.7338791262448,19.816383650259866 L553.4877640650233,26.494829702109655 M-68.64909701407714,267.4966644517946 L553.7338791262448,19.816383650259866 M-67.40757185907523,275.3059560658118 L553.4877640650233,26.494829702109655 M563.7584065726318,19.69708646318054 L563.4925132430764,26.374925639536514 M553.7338791262448,19.816383650259866 L554.45850085973,19.56674890520742 M554.45850085973,19.56674890520742 L555.271385497054,19.35870119285346 M555.271385497054,19.35870119285346 L556.1573454744827,19.196084063355613 M556.1573454744827,19.196084063355613 L557.0998291863033,19.08191121872619 M557.0998291863033,19.08191121872619 L558.0812938084769,19.018269334123943 M558.0812938084769,19.018269334123943 L559.0834828841012,19.006357235613848 M559.0834828841012,19.006357235613848 L560.0877372612362,19.046377222186152 M560.0877372612362,19.046377222186152 L561.075391043409,19.137592211419815 M561.075391043409,19.137592211419815 L562.0280729552046,19.278324531041278 M562.0280729552046,19.278324531041278 L562.9279972130566,19.46598312389375 M562.9279972130566,19.46598312389375 L563.7584065726318,19.69708646318054 M553.4877640650233,26.494829702109655 L554.2110190598468,26.24392497422332 M554.2110190598468,26.24392497422332 L555.0223524113622,26.034818646975282 M555.0223524113622,26.034818646975282 L555.9066054349466,25.871373941386594 M555.9066054349466,25.871373941386594 L556.8472582273356,25.75661999232915 M556.8472582273356,25.75661999232915 L557.826801797675,25.692654166418606 M557.826801797675,25.692654166418606 L558.8270151180817,25.680681432662368 M558.8270151180817,25.680681432662368 L559.8292755044205,25.72090512755136 M559.8292755044205,25.72090512755136 L560.8149537994484,25.81258439089072 M560.8149537994484,25.81258439089072 L561.7657151731656,25.954032953586534 M561.7657151731656,25.954032953586534 L562.66380943904,26.14264648637021 M562.66380943904,26.14264648637021 L563.4925132430764,26.374925639536514 M564.1114683564182,19.816383650259866 L563.8448437067616,26.494829702109485 M563.7584065726318,19.69708646318054 L564.1114683564182,19.816383650259866 M563.4925132430764,26.374925639536514 L563.8448437067616,26.494829702109485 M869.299272283212,129.289918436089 L868.3288146197846,136.50001745406547 M564.1114683564182,19.816383650259866 L869.299272283212,129.289918436089 M563.8448437067616,26.494829702109485 L868.3288146197846,136.50001745406547 M870.1156594481466,129.61553415422554 L869.1431016212533,136.82713928597207 M869.299272283212,129.289918436089 L870.1156594481466,129.61553415422554 M868.3288146197846,136.50001745406547 L869.1431016212533,136.82713928597207 M871.3510040497343,134.19964060224146 L870.3714868074286,141.4324018693806 M870.1156594481466,129.61553415422554 L870.8753307482134,129.99183577753251 M870.8753307482134,129.99183577753251 L871.5261161586903,130.39849383383284 M871.5261161586903,130.39849383383284 L872.056767068693,130.82855578295425 M872.056767068693,130.82855578295425 L872.4580029997238,131.27466832515347 M872.4580029997238,131.27466832515347 L872.7227407058223,131.72915175341842 M872.7227407058223,131.72915175341842 L872.8462516187479,132.1842143276117 M872.8462516187479,132.1842143276117 L872.8262144456226,132.63197748625964 M872.8262144456226,132.63197748625964 L872.6627900109264,133.06470137884384 M872.6627900109264,133.06470137884384 L872.3586663957002,133.47489990601696 M872.3586663957002,133.47489990601696 L871.918891840103,133.85541968724613 M871.918891840103,133.85541968724613 L871.3510040497343,134.19964060224146 M869.1431016212533,136.82713928597207 L869.9007500184412,137.20518091171056 M869.9007500184412,137.20518091171056 L870.5497236292242,137.61371866752057 M870.5497236292242,137.61371866752057 L871.0788052698371,138.04576773926226 M871.0788052698371,138.04576773926226 L871.4787420204575,138.4939407444404 M871.4787420204575,138.4939407444404 L871.7424737282432,138.95052243737467 M871.7424737282432,138.95052243737467 L871.865289877435,139.40768507940635 M871.865289877435,139.40768507940635 L871.8448820144321,139.85751376948542 M871.8448820144321,139.85751376948542 L871.68141818048,140.2922330159222 M871.68141818048,140.2922330159222 L871.3775878098961,140.70432230184576 M871.3775878098961,140.70432230184576 L870.9384348976967,141.08659540845986 M870.9384348976967,141.08659540845986 L870.3714868074286,141.4324018693806 M247.1376258822156,455.7939040690588 L247.66320752051527,464.2903556789552 M871.3510040497343,134.19964060224146 L247.1376258822156,455.7939040690588 M870.3714868074286,141.4324018693806 L247.66320752051527,464.2903556789552 M232.42045821834623,456.04897663647824 L232.9886297653144,464.5462580911512 M247.1376258822156,455.7939040690588 L245.95887864720783,456.3278365418993 M245.95887864720783,456.3278365418993 L244.66943280414833,456.7733523761162 M244.66943280414833,456.7733523761162 L243.2936360248278,457.1219199283291 M243.2936360248278,457.1219199283291 L241.85758942607052,457.3668248984282 M241.85758942607052,457.3668248984282 L240.3885161529244,457.5034025557172 M240.3885161529244,457.5034025557172 L238.91432607137756,457.5289713756311 M238.91432607137756,457.5289713756311 L237.46305291189566,457.4430764648016 M237.46305291189566,457.4430764648016 L236.06224636992778,457.24736885273154 M236.06224636992778,457.24736885273154 L234.73847664371243,456.945601612741 M234.73847664371243,456.945601612741 L233.51687481356862,456.5435571270488 M233.51687481356862,456.5435571270488 L232.42045821834623,456.04897663647824 M247.66320752051527,464.2903556789552 L246.48806719665205,464.82602491774077 M246.48806719665205,464.82602491774077 L245.2025166585867,465.27298900183735 M245.2025166585867,465.27298900183735 L243.8308295099859,465.6226890705905 M243.8308295099859,465.6226890705905 L242.39902816283245,465.86838944627743 M242.39902816283245,465.86838944627743 L240.9342544007822,466.0054105729082 M240.9342544007822,466.0054105729082 L239.46433538670365,466.03106240639346 M239.46433538670365,466.03106240639346 L238.0172226220126,465.94488861208595 M238.0172226220126,465.94488861208595 L236.62038585395138,465.74854546112005 M236.62038585395138,465.74854546112005 L235.30031913648327,465.44579795014795 M235.30031913648327,465.44579795014795 L234.08208259045463,465.0424468554539 M234.08208259045463,465.0424468554539 L232.9886297653144,464.5462580911512 M231.96552734205324,455.7939040690588 L232.53490745021125,464.29035567895534 M232.42045821834623,456.04897663647824 L231.96552734205324,455.7939040690588 M232.9886297653144,464.5462580911512 L232.53490745021125,464.29035567895534 M-71.27628384984621,273.78343041831374 L-70.0216374647548,281.6180684703661 M231.96552734205324,455.7939040690588 L-71.27628384984621,273.78343041831374 M232.53490745021125,464.29035567895534 L-70.0216374647548,281.6180684703661 M-71.87357299231172,273.3626121388406 L-70.61786954150796,281.19555876015903 M-71.27628384984621,273.78343041831374 L-71.87357299231172,273.3626121388406 M-70.0216374647548,281.6180684703661 L-70.61786954150796,281.19555876015903 M-71.87357299231172,273.3626121388406 L-72.35413914320316,272.8769803178594 M-72.35413914320316,272.8769803178594 L-72.67956719464888,272.35300434836154 M-72.67956719464888,272.35300434836154 L-72.844489501228,271.799810627534 M-72.844489501228,271.799810627534 L-72.846251618748,271.2269870828481 M-72.846251618748,271.2269870828481 L-72.68506230160529,270.64447634656017 M-72.68506230160529,270.64447634656017 L-72.36391660261529,270.0622936058213 M-72.36391660261529,270.0622936058213 L-71.8885914687944,269.4904918243865 M-71.8885914687944,269.4904918243865 L-71.26746555286218,268.93887535445384 M-71.26746555286218,268.93887535445384 L-70.51142208871937,268.4168601271847 M-70.51142208871937,268.4168601271847 L-69.63355523674488,267.93338374263 M-69.63355523674488,267.93338374263 L-68.64909701407714,267.4966644517946 M-70.61786954150796,281.19555876015903 L-71.09773995887144,280.70797407272016 M-71.09773995887144,280.70797407272016 L-71.42290189727447,280.18188993203137 M-71.42290189727447,280.18188993203137 L-71.58799114742004,279.6264692326281 M-71.58799114742004,279.6264692326281 L-71.59034932876,279.0513383304765 M-71.59034932876,279.0513383304765 L-71.43017366940342,278.46647980190176 M-71.43017366940342,278.46647980190176 L-71.11044064433747,277.88194916578834 M-71.11044064433747,277.88194916578834 L-70.63690166942348,277.3078399677494 M-70.63690166942348,277.3078399677494 L-70.01790371112804,276.75399623347585 M-70.01790371112804,276.75399623347585 L-69.26429259236738,276.22987208504355 M-69.26429259236738,276.22987208504355 L-68.38912019768168,275.7444414530481 M-68.38912019768168,275.7444414530481 L-67.40757185907523,275.3059560658118" stroke="black"  stroke-width="4"  fill="red"/>
<path d="M567.4628000733169,39.17728784600001 L566.3096856664365,67.19904812888808 M831.3327157343897,135.6488010262853 L827.6459833621469,165.5674740535664 M567.4628000733169,39.17728784600001 L831.3327157343897,135.6488010262853 M566.3096856664365,67.19904812888808 L827.6459833621469,165.5674740535664 M567.4628000733169,39.17728784600001 L568.0188162404316,43.050109079764866 M566.3096856664365,67.19904812888808 L566.8564476113883,71.15118713013374 M568.0188162404316,43.050109079764866 L566.8564476113883,71.15118713013374 M831.3327157343897,135.6488010262853 L820.3345189079859,135.6488010262853 M827.6459833621469,165.5674740535664 L816.74861815143,165.5674740535664 M820.3345189079859,135.6488010262853 L816.74861815143,165.5674740535664 M820.3345189079859,135.6488010262853 L568.0188162404316,43.050109079764866 M816.74861815143,165.5674740535664 L566.8564476113883,71.15118713013374" stroke="black"  stroke-width="4"  fill="red"/>
<path d="M233.6711476037513,438.09183226617415 L235.96949525483186,472.8956735105417 M-28.747855785132288,282.72011264057767 L-23.97263008514858,315.2150044658746 M233.6711476037513,438.09183226617415 L-28.747855785132288,282.72011264057767 M235.96949525483186,472.8956735105417 L-23.97263008514858,315.2150044658746 M233.6711476037513,438.09183226617415 L234.77251537068184,430.4204717442569 M235.96949525483186,472.8956735105417 L237.04519468717842,465.12023537069325 M234.77251537068184,430.4204717442569 L237.04519468717842,465.12023537069325 M-28.747855785132288,282.72011264057767 L-16.22296905379227,282.72011264057767 M-23.97263008514858,315.2150044658746 L-11.578345110047906,315.2150044658746 M-16.22296905379227,282.72011264057767 L-11.578345110047906,315.2150044658746 M-16.22296905379227,282.72011264057767 L234.77251537068184,430.4204717442569 M-11.578345110047906,315.2150044658746 L237.04519468717842,465.12023537069325" stroke="black"  stroke-width="4"  fill="red"/>
<path d="M254.65370287736712,430.4204656342091 L822.7873172364499,142.29294451741964 M822.7873172364499,142.29294451741964 L819.1565095502168,172.33621622201363 M256.6939926587403,465.1202291773402 L819.1565095502168,172.33621622201363 M254.65370287736712,430.4204656342091 L256.6939926587403,465.1202291773402 M833.8544843241749,142.29294451741964 L253.66495387793063,438.09182608670864 M833.8544843241749,142.29294451741964 L822.7873172364499,142.29294451741964 M253.66495387793063,438.09182608670864 L254.65370287736712,430.4204656342091 M833.8544843241749,142.29294451741964 L830.1215822861035,172.33621622201363 M830.1215822861035,172.33621622201363 L819.1565095502168,172.33621622201363 M830.1215822861035,172.33621622201363 L255.72828731537055,472.8956672476538 M255.72828731537055,472.8956672476538 L256.6939926587403,465.1202291773402 M253.66495387793063,438.09182608670864 L255.72828731537055,472.8956672476538" stroke="black"  stroke-width="4"  fill="red"/>
<path d="M-25.520651667652942,274.2174031695852 L-20.812145299856752,306.57371616694326 M553.3252261839085,39.17729093565367 L552.2900218063385,67.19905128192534 M-25.520651667652942,274.2174031695852 L553.3252261839085,39.17729093565367 M-20.812145299856752,306.57371616694326 L552.2900218063385,67.19905128192534 M-25.520651667652942,274.2174031695852 L-13.08402824593793,274.2174031695852 M-20.812145299856752,306.57371616694326 L-8.504298872781419,306.57371616694326 M-13.08402824593793,274.2174031695852 L-8.504298872781419,306.57371616694326 M553.3252261839085,39.17729093565367 L553.8243877300531,43.05011219431867 M552.2900218063385,67.19905128192534 L552.7808754072627,71.151190308369 M553.8243877300531,43.05011219431867 L552.7808754072627,71.151190308369 M553.8243877300531,43.05011219431867 L-13.08402824593793,274.2174031695852 M552.7808754072627,71.151190308369 L-8.504298872781419,306.57371616694326" stroke="black"  stroke-width="4"  fill="red"/>
<path d="M799.8286542864925,138.96048700734428 L798.2231105951042,153.08301902460522 M798.2231105951042,153.08301902460522 L798.3738981622113,153.5230434592102 M798.3738981622113,153.5230434592102 L798.160702000102,155.39731935947185 M798.160702000102,155.39731935947185 L798.0100885016273,154.956783875508 M798.0100885016273,154.956783875508 L796.4202283416602,168.94136189262247 M796.4202283416602,168.94136189262247 L797.5610268882481,172.33621622201363 M800.990761872264,142.29294451741964 L797.5610268882481,172.33621622201363 M799.8286542864925,138.96048700734428 L800.990761872264,142.29294451741964 M814.7380775657107,142.73849370097315 L815.1853835546334,138.96048324425396 M814.7380775657107,142.73849370097315 L816.7832707291554,142.7384974730639 M817.2329495950559,138.96048700734428 L816.7832707291554,142.7384974730639 M832.5896537190108,138.96048700734428 L817.2329495950559,138.96048700734428 M795.1829541043257,441.271384171452 L832.5896537190108,138.96048700734428 M780.3214509013073,441.2713797861824 L795.1829541043257,441.271384171452 M796.4202283416602,168.94136189262247 L780.3214509013073,441.2713797861824 M822.8474059305287,154.95678767649434 L798.0100885016273,154.956783875508 M822.8474059305287,154.95678767649434 L823.0747739925795,153.08302282118126 M798.2231105951042,153.08301902460522 L823.0747739925795,153.08302282118126 M815.1853835546334,138.96048324425396 L799.8286542864925,138.96048700734428 M798.3738981622113,153.5230434592102 L823.2357055606132,153.5230434592102 M823.0747739925795,153.08302282118126 L823.2357055606132,153.5230434592102 M798.160702000102,155.39731935947185 L823.0081517143109,155.39731935947185 M823.2357055606132,153.5230434592102 L823.0081517143109,155.39731935947185 M823.0081517143109,155.39731935947185 L822.8474059305287,154.95678767649434 M780.3214509013073,441.2713797861824 L781.3200106538064,445.15368791424135 M797.5610268882481,172.33621622201363 L781.3200106538064,445.15368791424135 M817.2329495950559,138.96048700734428 L817.5515498352429,139.8331260174562 M817.5515498352429,139.8331260174562 L815.5022978593893,139.8331335560012 M815.5022978593893,139.8331335560012 L815.1853835546334,138.96048324425396 M833.8544843241749,142.29294451741964 L800.990761872264,142.29294451741964 M832.5896537190108,138.96048700734428 L833.8544843241749,142.29294451741964 M815.0542574561484,143.61323034634194 L814.7380775657107,142.73849370097315 M815.5022978593893,139.8331335560012 L815.0542574561484,143.61323034634194 M817.1011326583463,143.61322278978082 L815.0542574561484,143.61323034634194 M816.7832707291554,142.7384974730639 L817.1011326583463,143.61322278978082 M817.5515498352429,139.8331260174562 L817.1011326583463,143.61322278978082 M795.1829541043257,441.271384171452 L796.2237790582116,445.15369232448916 M796.2237790582116,445.15369232448916 L833.8544843241749,142.29294451741964 M781.3200106538064,445.15368791424135 L796.2237790582116,445.15369232448916" stroke="black"  stroke-width="4"  fill="red"/>
<path d="M798.2231105951042,153.08301902460522 L799.8286542864925,138.96048700734428 M798.0724562435352,152.6433576708518 L798.2231105951042,153.08301902460522 M797.859607999024,154.51661168652478 L798.0724562435352,152.6433576708518 M798.0100885016273,154.956783875508 L797.859607999024,154.51661168652478 M796.4202283416602,168.94136189262247 L798.0100885016273,154.956783875508 M796.4202283416602,168.94136189262247 L795.2864840518558,165.56747405356649 M798.673799038778,135.6488010262853 L795.2864840518558,165.56747405356649 M799.8286542864925,138.96048700734428 L798.673799038778,135.6488010262853 M822.8474059305287,154.95678767649434 L798.0100885016273,154.956783875508 M822.8474059305287,154.95678767649434 L823.0747739925795,153.08302282118126 M798.2231105951042,153.08301902460522 L823.0747739925795,153.08302282118126 M815.1853835546334,138.96048324425396 L799.8286542864925,138.96048700734428 M814.7380775657107,142.73849370097315 L815.1853835546334,138.96048324425396 M814.7380775657107,142.73849370097315 L816.7832707291554,142.7384974730639 M817.2329495950559,138.96048700734428 L816.7832707291554,142.7384974730639 M832.5896537190108,138.96048700734428 L817.2329495950559,138.96048700734428 M795.1829541043257,441.271384171452 L832.5896537190108,138.96048700734428 M780.3214509013073,441.2713797861824 L795.1829541043257,441.271384171452 M796.4202283416602,168.94136189262247 L780.3214509013073,441.2713797861824 M822.9139886420736,152.64335387737515 L823.0747739925795,153.08302282118126 M798.0724562435352,152.6433576708518 L822.9139886420736,152.64335387737515 M797.859607999024,154.51661168652478 L822.6868061298956,154.51660788863967 M822.6868061298956,154.51660788863967 L822.9139886420736,152.64335387737515 M822.8474059305287,154.95678767649434 L822.6868061298956,154.51660788863967 M780.3214509013073,441.2713797861824 L779.3285340806617,437.41104193928265 M795.2864840518558,165.56747405356649 L779.3285340806617,437.41104193928265 M816.91486148252,138.08927488790067 L817.2329495950559,138.96048700734428 M814.8689840851354,138.08927488790067 L816.91486148252,138.08927488790067 M815.1853835546334,138.96048324425396 L814.8689840851354,138.08927488790067 M831.3327157343897,135.6488010262853 L798.673799038778,135.6488010262853 M832.5896537190108,138.96048700734428 L831.3327157343897,135.6488010262853 M814.8689840851354,138.08927488790067 L814.4224107069982,141.86520079787033 M814.7380775657107,142.73849370097315 L814.4224107069982,141.86520079787033 M816.4659191271737,141.86520079787033 L816.7832707291554,142.7384974730639 M814.4224107069982,141.86520079787033 L816.4659191271737,141.86520079787033 M816.91486148252,138.08927488790067 L816.4659191271737,141.86520079787033 M795.1829541043257,441.271384171452 L794.1480249159147,437.4110375787799 M794.1480249159147,437.4110375787799 L831.3327157343897,135.6488010262853 M779.3285340806617,437.41104193928265 L794.1480249159147,437.4110375787799" stroke="black"  stroke-width="4"  fill="red"/>
<path d="M246.73727637020585,415.5618163586669 L247.73230730403978,431.83139741611586 M247.73230730403978,431.83139741611586 L246.44912123904845,431.83139741611586 M246.44912123904845,431.83139741611586 L246.5819050008366,433.987277727094 M246.5819050008366,433.987277727094 L247.8641587384124,433.987277727094 M247.8641587384124,433.987277727094 L248.84697037162047,450.05706308449214 M248.84697037162047,450.05706308449214 L239.12912090042875,450.05706914424127 M236.90575333705155,415.56182233537453 L239.12912090042875,450.05706914424127 M246.73727637020585,415.5618163586669 L236.90575333705155,415.56182233537453 M245.58188863124587,430.4037933668863 L245.31130455505118,426.02922907104727 M245.58188863124587,430.4037933668863 L245.39065035328136,431.8143052729609 M245.11950193281814,427.4372586499125 L245.39065035328136,431.8143052729609 M243.6680455223585,438.0918260867087 L245.11950193281814,427.4372586499125 M265.1545873498492,780.9936359249008 L243.6680455223585,438.0918260867087 M266.3655061618531,768.4092952004758 L265.1545873498492,780.9936359249008 M248.84697037162047,450.05706308449214 L266.3655061618531,768.4092952004758 M245.563988702646,451.21064110157295 L247.8641587384124,433.987277727094 M245.563988702646,451.21064110157295 L245.4287698889856,449.04007657933835 M247.73230730403978,431.83139741611586 L245.4287698889856,449.04007657933835 M245.31130455505118,426.02922907104727 L246.73727637020585,415.5618163586669 M246.44912123904845,431.83139741611586 L244.1292712312679,449.0400889193914 M245.4287698889856,449.04007657933835 L244.1292712312679,449.0400889193914 M246.5819050008366,433.987277727094 L244.26544620224556,451.21065345204187 M244.1292712312679,449.0400889193914 L244.26544620224556,451.21065345204187 M244.26544620224556,451.21065345204187 L245.563988702646,451.21064110157295 M266.3655061618531,768.4092952004758 L257.5916041505899,768.4092884615895 M239.12912090042875,450.05706914424127 L257.5916041505899,768.4092884615895 M245.11950193281814,427.4372586499125 L242.5161688793977,427.4372525667539 M242.5161688793977,427.4372525667539 L242.71069454540913,426.02922907104727 M242.71069454540913,426.02922907104727 L245.31130455505118,426.02922907104727 M233.6711476037513,438.09183226617415 L236.90575333705155,415.56182233537453 M243.6680455223585,438.0918260867087 L233.6711476037513,438.09183226617415 M242.98510524568607,430.4037933668863 L245.58188863124587,430.4037933668863 M242.71069454540913,426.02922907104727 L242.98510524568607,430.4037933668863 M242.7911519192596,431.81429917908713 L242.98510524568607,430.4037933668863 M245.39065035328136,431.8143052729609 L242.7911519192596,431.81429917908713 M242.5161688793977,427.4372525667539 L242.7911519192596,431.81429917908713 M265.1545873498492,780.9936359249008 L256.31541738927035,780.9936427643862 M256.31541738927035,780.9936427643862 L233.6711476037513,438.09183226617415 M257.5916041505899,768.4092884615895 L256.31541738927035,780.9936427643862" stroke="black"  stroke-width="4"  fill="red"/>
<path d="M247.73230730403978,431.83139741611586 L246.73727637020585,415.5618163586669 M249.01550364546372,431.83140343243315 L247.73230730403978,431.83139741611586 M249.14642274553495,433.9872837486007 L249.01550364546372,431.83140343243315 M247.8641587384124,433.987277727094 L249.14642274553495,433.9872837486007 M248.84697037162047,450.05706308449214 L247.8641587384124,433.987277727094 M248.84697037162047,450.05706308449214 L258.5648300125181,450.05706308449226 M256.56880968210396,415.561816358667 L258.5648300125181,450.05706308449226 M246.73727637020585,415.5618163586669 L256.56880968210396,415.561816358667 M245.563988702646,451.21064110157295 L247.8641587384124,433.987277727094 M245.563988702646,451.21064110157295 L245.4287698889856,449.04007657933835 M247.73230730403978,431.83139741611586 L245.4287698889856,449.04007657933835 M245.31130455505118,426.02922907104727 L246.73727637020585,415.5618163586669 M245.58188863124587,430.4037933668863 L245.31130455505118,426.02922907104727 M245.58188863124587,430.4037933668863 L245.39065035328136,431.8143052729609 M245.11950193281814,427.4372586499125 L245.39065035328136,431.8143052729609 M243.6680455223585,438.0918260867087 L245.11950193281814,427.4372586499125 M265.1545873498492,780.9936359249008 L243.6680455223585,438.0918260867087 M266.3655061618531,768.4092952004758 L265.1545873498492,780.9936359249008 M248.84697037162047,450.05706308449214 L266.3655061618531,768.4092952004758 M246.72824444983158,449.04007657933835 L245.4287698889856,449.04007657933835 M249.01550364546372,431.83140343243315 L246.72824444983158,449.04007657933835 M249.14642274553495,433.9872837486007 L246.86250712512793,451.21064110157295 M246.86250712512793,451.21064110157295 L246.72824444983158,449.04007657933835 M245.563988702646,451.21064110157295 L246.86250712512793,451.21064110157295 M266.3655061618531,768.4092952004758 L275.1394386729039,768.4092952004758 M258.5648300125181,450.05706308449226 L275.1394386729039,768.4092952004758 M247.72282459110474,427.4372586499125 L245.11950193281814,427.4372586499125 M247.91194905151,426.02922300055934 L247.72282459110474,427.4372586499125 M245.31130455505118,426.02922907104727 L247.91194905151,426.02922300055934 M253.66495387793063,438.09182608670864 L256.56880968210396,415.561816358667 M243.6680455223585,438.0918260867087 L253.66495387793063,438.09182608670864 M247.91194905151,426.02922300055934 L248.17870645167943,430.40378728568675 M245.58188863124587,430.4037933668863 L248.17870645167943,430.40378728568675 M247.99013840624474,431.8143052729609 L245.39065035328136,431.8143052729609 M248.17870645167943,430.40378728568675 L247.99013840624474,431.8143052729609 M247.72282459110474,427.4372586499125 L247.99013840624474,431.8143052729609 M265.1545873498492,780.9936359249008 L273.9937666295459,780.9936359249008 M273.9937666295459,780.9936359249008 L253.66495387793063,438.09182608670864 M275.1394386729039,768.4092952004758 L273.9937666295459,780.9936359249008" stroke="black"  stroke-width="4"  fill="red"/>
<path d="M561.9731890750267,50.76936595374491 L561.445567181989,64.07514060960159 M561.445567181989,64.07514060960159 L562.3806616701826,64.07514060960159 M562.3806616701826,64.07514060960159 L562.3101335513693,65.84125791892393 M562.3101335513693,65.84125791892393 L561.375534269049,65.84125791892393 M561.375534269049,65.84125791892393 L560.8526424232331,79.02774839936455 M560.8526424232331,79.02774839936455 L567.9461365601774,79.02774517061107 M569.1270599732231,50.769362789262175 L567.9461365601774,79.02774517061107 M561.9731890750267,50.76936595374491 L569.1270599732231,50.769362789262175 M561.0887205282633,48.84543481736546 L561.2282527333,45.301023750416334 M561.0887205282633,48.84543481736546 L560.9902260840897,48.119073479402516 M561.1295498557508,44.57654411677868 L560.9902260840897,48.119073479402516 M560.3940173540395,39.17729093565367 L561.1295498557508,44.57654411677868 M549.2738173348309,323.9690421159361 L560.3940173540395,39.17729093565367 M549.9309373067574,330.79795660684704 L549.2738173348309,323.9690421159361 M560.8526424232331,79.02774839936455 L549.9309373067574,330.79795660684704 M560.1797665137138,56.88761353693053 L561.375534269049,65.84125791892393 M560.1797665137138,56.88761353693053 L560.2485376565717,55.13278136169936 M561.445567181989,64.07514060960159 L560.2485376565717,55.13278136169936 M561.2282527333,45.301023750416334 L561.9731890750267,50.76936595374491 M562.3806616701826,64.07514060960159 L561.1751831026978,55.13277508697797 M560.2485376565717,55.13278136169936 L561.1751831026978,55.13277508697797 M562.3101335513693,65.84125791892393 L561.1059256684624,56.88760725426016 M561.1751831026978,55.13277508697797 L561.1059256684624,56.88760725426016 M561.1059256684624,56.88760725426016 L560.1797665137138,56.88761353693053 M549.9309373067574,330.79795660684704 L556.4359389414731,330.7979603110713 M567.9461365601774,79.02774517061107 L556.4359389414731,330.7979603110713 M561.1295498557508,44.57654411677868 L562.9952781705387,44.57654724117435 M562.9952781705387,44.57654724117435 L563.0953683152696,45.301023750416334 M563.0953683152696,45.301023750416334 L561.2282527333,45.301023750416334 M567.4628000733169,39.17728784600001 L569.1270599732231,50.769362789262175 M560.3940173540395,39.17729093565367 L567.4628000733169,39.17728784600001 M562.9538628333736,48.84543481736546 L561.0887205282633,48.84543481736546 M563.0953683152696,45.301023750416334 L562.9538628333736,48.84543481736546 M562.8539840601665,48.11907661191526 L562.9538628333736,48.84543481736546 M560.9902260840897,48.119073479402516 L562.8539840601665,48.11907661191526 M562.9952781705387,44.57654724117435 L562.8539840601665,48.11907661191526 M549.2738173348309,323.9690421159361 L555.743426726708,323.9690384519257 M555.743426726708,323.9690384519257 L567.4628000733169,39.17728784600001 M556.4359389414731,330.7979603110713 L555.743426726708,323.9690384519257" stroke="black"  stroke-width="4"  fill="red"/>
<path d="M561.445567181989,64.07514060960159 L561.9731890750267,50.76936595374491 M560.5104641976886,64.0751374146634 L561.445567181989,64.07514060960159 M560.4409264953463,65.84125471996907 L560.5104641976886,64.0751374146634 M561.375534269049,65.84125791892393 L560.4409264953463,65.84125471996907 M560.8526424232331,79.02774839936455 L561.375534269049,65.84125791892393 M560.8526424232331,79.02774839936455 L553.7591398043359,79.02774839936455 M554.8193096188483,50.76936595374491 L553.7591398043359,79.02774839936455 M561.9731890750267,50.76936595374491 L554.8193096188483,50.76936595374491 M560.1797665137138,56.88761353693053 L561.375534269049,65.84125791892393 M560.1797665137138,56.88761353693053 L560.2485376565717,55.13278136169936 M561.445567181989,64.07514060960159 L560.2485376565717,55.13278136169936 M561.2282527333,45.301023750416334 L561.9731890750267,50.76936595374491 M561.0887205282633,48.84543481736546 L561.2282527333,45.301023750416334 M561.0887205282633,48.84543481736546 L560.9902260840897,48.119073479402516 M561.1295498557508,44.57654411677868 L560.9902260840897,48.119073479402516 M560.3940173540395,39.17729093565367 L561.1295498557508,44.57654411677868 M549.2738173348309,323.9690421159361 L560.3940173540395,39.17729093565367 M549.9309373067574,330.79795660684704 L549.2738173348309,323.9690421159361 M560.8526424232331,79.02774839936455 L549.9309373067574,330.79795660684704 M559.3219073613682,55.13278136169936 L560.2485376565717,55.13278136169936 M560.5104641976886,64.0751374146634 L559.3219073613682,55.13278136169936 M560.4409264953463,65.84125471996907 L559.2536225023805,56.88761353693053 M559.2536225023805,56.88761353693053 L559.3219073613682,55.13278136169936 M560.1797665137138,56.88761353693053 L559.2536225023805,56.88761353693053 M549.9309373067574,330.79795660684704 L543.4259139417072,330.79795660684704 M553.7591398043359,79.02774839936455 L543.4259139417072,330.79795660684704 M559.2638300247837,44.57654411677868 L561.1295498557508,44.57654411677868 M559.3611133969915,45.30102687948829 L559.2638300247837,44.57654411677868 M561.2282527333,45.301023750416334 L559.3611133969915,45.30102687948829 M553.3252261839085,39.17729093565367 L554.8193096188483,50.76936595374491 M560.3940173540395,39.17729093565367 L553.3252261839085,39.17729093565367 M559.3611133969915,45.30102687948829 L559.2235544934754,48.84543795456193 M561.0887205282633,48.84543481736546 L559.2235544934754,48.84543795456193 M559.1264765824188,48.119073479402516 L560.9902260840897,48.119073479402516 M559.2235544934754,48.84543795456193 L559.1264765824188,48.119073479402516 M559.2638300247837,44.57654411677868 L559.1264765824188,48.119073479402516 M549.2738173348309,323.9690421159361 L542.8042002428346,323.9690421159362 M542.8042002428346,323.9690421159362 L553.3252261839085,39.17729093565367 M543.4259139417072,330.79795660684704 L542.8042002428346,323.9690421159362" stroke="black"  stroke-width="4"  fill="red"/>
<path d="M9.932335288038473,278.45372762313366 L11.985824492108407,293.7375575498113 M11.985824492108407,293.7375575498113 L12.178383253506297,293.17557565887546 M12.178383253506297,293.17557565887546 L12.45041180615101,295.2015471963998 M12.45041180615101,295.2015471963998 L12.258104242639888,295.76409725177456 M12.258104242639888,295.76409725177456 L14.288929659976702,310.8792438168664 M14.288929659976702,310.8792438168664 L15.735748642105762,306.57371616694326 M11.40964288112076,274.2174031695852 L15.735748642105762,306.57371616694326 M9.932335288038473,278.45372762313366 L11.40964288112076,274.2174031695852 M-6.86762509660889,282.5441118286327 L-7.439967364878612,278.45373243886 M-6.86762509660889,282.5441118286327 L-9.180894638279028,282.54410700285644 M-9.756273069585859,278.4537276231337 L-9.180894638279028,282.54410700285644 M-27.128543983174666,278.45372762313366 L-9.756273069585859,278.4537276231337 M20.166174889865204,601.8733689214566 L-27.128543983174666,278.45372762313366 M36.77608756486177,601.8733743992501 L20.166174889865204,601.8733689214566 M14.288929659976702,310.8792438168664 L36.77608756486177,601.8733743992501 M-15.82102350849982,295.7640923938109 L12.258104242639888,295.76409725177456 M-15.82102350849982,295.7640923938109 L-16.111639928955753,293.73755269675274 M11.985824492108407,293.7375575498113 L-16.111639928955753,293.73755269675274 M-7.439967364878612,278.45373243886 L9.932335288038473,278.45372762313366 M12.178383253506297,293.17557565887546 L-15.90610446518832,293.17557565887546 M-16.111639928955753,293.73755269675274 L-15.90610446518832,293.17557565887546 M12.45041180615101,295.2015471963998 L-15.615756164140862,295.2015471963998 M-15.90610446518832,293.17557565887546 L-15.615756164140862,295.2015471963998 M-15.615756164140862,295.2015471963998 L-15.82102350849982,295.7640923938109 M36.77608756486177,601.8733743992501 L38.01595640892242,597.0528788014879 M15.735748642105762,306.57371616694326 L38.01595640892242,597.0528788014879 M-9.756273069585859,278.4537276231337 L-9.349264136686998,277.33893915937415 M-9.349264136686998,277.33893915937415 L-7.03509091642502,277.338929545774 M-7.03509091642502,277.338929545774 L-7.439967364878612,278.45373243886 M-25.520651667652942,274.2174031695852 L11.40964288112076,274.2174031695852 M-27.128543983174666,278.45372762313366 L-25.520651667652942,274.2174031695852 M-6.463808855906564,281.42698110421065 L-6.86762509660889,282.5441118286327 M-7.03509091642502,277.338929545774 L-6.463808855906564,281.42698110421065 M-8.774951510391588,281.42699073789686 L-6.463808855906564,281.42698110421065 M-9.180894638279028,282.54410700285644 L-8.774951510391588,281.42699073789686 M-9.349264136686998,277.33893915937415 L-8.774951510391588,281.42699073789686 M20.166174889865204,601.8733689214566 L21.458522605322003,597.0528733582538 M21.458522605322003,597.0528733582538 L-25.520651667652942,274.2174031695852 M38.01595640892242,597.0528788014879 L21.458522605322003,597.0528733582538" stroke="black"  stroke-width="4"  fill="red"/>
<path d="M11.985824492108407,293.7375575498113 L9.932335288038473,278.45372762313366 M11.793079525501298,294.3000538339549 L11.985824492108407,293.7375575498113 M12.065610826355055,296.32716188104644 L11.793079525501298,294.3000538339549 M12.258104242639888,295.76409725177456 L12.065610826355055,296.32716188104644 M14.288929659976702,310.8792438168664 L12.258104242639888,295.76409725177456 M14.288929659976702,310.8792438168664 L12.831941327112531,315.2150044658745 M8.444534825552523,282.72011264057767 L12.831941327112531,315.2150044658745 M9.932335288038473,278.45372762313366 L8.444534825552523,282.72011264057767 M-15.82102350849982,295.7640923938109 L12.258104242639888,295.76409725177456 M-15.82102350849982,295.7640923938109 L-16.111639928955753,293.73755269675274 M11.985824492108407,293.7375575498113 L-16.111639928955753,293.73755269675274 M-7.439967364878612,278.45373243886 L9.932335288038473,278.45372762313366 M-6.86762509660889,282.5441118286327 L-7.439967364878612,278.45373243886 M-6.86762509660889,282.5441118286327 L-9.180894638279028,282.54410700285644 M-9.756273069585859,278.4537276231337 L-9.180894638279028,282.54410700285644 M-27.128543983174666,278.45372762313366 L-9.756273069585859,278.4537276231337 M20.166174889865204,601.8733689214566 L-27.128543983174666,278.45372762313366 M36.77608756486177,601.8733743992501 L20.166174889865204,601.8733689214566 M14.288929659976702,310.8792438168664 L36.77608756486177,601.8733743992501 M-16.317388756366825,294.30005869149863 L-16.111639928955753,293.73755269675274 M11.793079525501298,294.3000538339549 L-16.317388756366825,294.30005869149863 M12.065610826355055,296.32716188104644 L-16.026503827307977,296.3271667434967 M-16.026503827307977,296.3271667434967 L-16.317388756366825,294.30005869149863 M-15.82102350849982,295.7640923938109 L-16.026503827307977,296.3271667434967 M36.77608756486177,601.8733743992501 L35.52834743163436,606.7245077918006 M12.831941327112531,315.2150044658745 L35.52834743163436,606.7245077918006 M-10.164029928781929,279.5705920469127 L-9.756273069585859,278.4537276231337 M-7.845580769427329,279.5705920469127 L-10.164029928781929,279.5705920469127 M-7.439967364878612,278.45373243886 L-7.845580769427329,279.5705920469127 M-28.747855785132288,282.72011264057767 L8.444534825552523,282.72011264057767 M-27.128543983174666,278.45372762313366 L-28.747855785132288,282.72011264057767 M-7.845580769427329,279.5705920469127 L-7.2721753662383435,283.6633008396575 M-6.86762509660889,282.5441118286327 L-7.2721753662383435,283.6633008396575 M-9.587582731347595,283.6633008396575 L-9.180894638279028,282.54410700285644 M-7.2721753662383435,283.6633008396575 L-9.587582731347595,283.6633008396575 M-10.164029928781929,279.5705920469127 L-9.587582731347595,283.6633008396575 M20.166174889865204,601.8733689214566 L18.86560140919522,606.7245133044836 M18.86560140919522,606.7245133044836 L-28.747855785132288,282.72011264057767 M35.52834743163436,606.7245077918006 L18.86560140919522,606.7245133044836" stroke="black"  stroke-width="4"  fill="red"/></svg>