<svg viewBox="0 0 800 800" xmlns="http://www.w3.org/2000/svg"><path d="M731.5270023423732,191.87884798850166 L744.0558158234851,185.2720933938301 M731.5270023423732,191.87884798850166 L719.5665595354096,117.3606626106731 M733.7320878206597,123.53126901233105 L719.5665595354096,117.3606626106731 M744.0558158234851,185.2720933938301 L733.7320878206597,123.53126901233105 M740.4168233529533,241.2945132310462 L744.0558158234851,185.2720933938301 M728.0112827193334,248.01078598942632 L740.4168233529533,241.2945132310462 M728.0112827193334,248.01078598942632 L731.5270023423732,191.87884798850166 M733.7320878206597,123.53126901233105 L730.3103790152998,178.5074798353801 M740.4168233529533,241.2945132310462 L730.3103790152998,178.5074798353801 M737.2071641433961,182.8340986264918 L737.2304844734017,182.36174653397728 M737.2304844734017,182.36174653397728 L737.2428026530597,181.85783046266783 M737.2428026530597,181.85783046266783 L737.2433607631579,181.35166908824928 M737.2433607631579,181.35166908824928 L737.2321366434517,180.87276818494166 M737.2321366434517,180.87276818494166 L737.2097888693472,180.44894390415166 M737.2097888693472,180.44894390415166 L737.1776172870336,180.10493668953143 M737.1776172870336,180.10493668953143 L737.1374971560422,179.8606515767592 M737.1374971560422,179.8606515767592 L737.0917699303955,179.73029264434817 M737.0917699303955,179.73029264434817 L737.0430886559561,179.72143675420915 M737.0430886559561,179.72143675420915 L736.9942901181887,179.83448238249997 M736.9942901181887,179.83448238249997 L736.9482054282146,180.06287135705202 M736.9482054282146,180.06287135705202 L736.9074957749858,180.3932369501121 M736.9074957749858,180.3932369501121 L736.8745672964437,180.80641483560245 M736.8745672964437,180.80641483560245 L736.8512668302101,181.27836971274508 M736.8512668302101,181.27836971274508 L736.8390078025525,181.78171294210412 M736.8390078025525,181.78171294210412 L736.8384510512301,182.2872570687562 M736.8384510512301,182.2872570687562 L736.8496461741315,182.76567537636475 M736.8496461741315,182.76567537636475 L736.8719478692135,183.18915798674536 M736.8719478692135,183.18915798674536 L736.9040578281035,183.53318464104888 M736.9040578281035,183.53318464104888 L736.9441215329236,183.7777415711901 M736.9441215329236,183.7777415711901 L736.9898104621334,183.9085623999599 M736.9898104621334,183.9085623999599 L737.0384737090271,183.918068775835 M737.0384737090271,183.918068775835 L737.0872876411729,183.80557126890972 M737.0872876411729,183.80557126890972 L737.1334109916993,183.57760676006367 M737.1334109916993,183.57760676006367 L737.1741459581156,183.2474071216455 M737.1741459581156,183.2474071216455 L737.2071641433961,182.8340986264918 M719.5665595354096,117.3606626106731 L716.3025983826876,172.23005131915843 M730.3103790152998,178.5074798353801 L716.3025983826876,172.23005131915843 M716.3025983826876,172.23005131915843 L728.0112827193334,248.01078598942632 M729.0701169494296,189.45264140817184 L728.7404043062588,194.75924350836914 M728.6040299473632,186.53019737216712 L729.0701169494296,189.45264140817184 M728.7404043062588,194.75924350836914 L728.2752653467537,191.83214023456918 M728.2752653467537,191.83214023456918 L728.6040299473632,186.53019737216712 M721.2271193069896,140.27567780046746 L720.9131781086089,145.5027346158657 M720.7833225408856,137.49299736558942 L721.2271193069896,140.27567780046746 M720.9131781086089,145.5027346158657 L720.4702622282439,142.71548047114885 M720.4702622282439,142.71548047114885 L720.7833225408856,137.49299736558942 M726.2788498449675,224.02806674388552 L726.6035585466116,218.79153282311165 M726.738252593047,226.98312908359068 L726.2788498449675,224.02806674388552 M727.063891838679,221.74208679853015 L726.738252593047,226.98312908359068 M726.6035585466116,218.79153282311165 L727.063891838679,221.74208679853015 M723.892656791189,182.8341059264787 L723.8609763591041,183.2474071216455 M723.8609763591041,183.2474071216455 L723.8218620283453,183.5776140611101 M723.8218620283453,183.5776140611101 L723.7775725538615,183.80557126890972 M723.7775725538615,183.80557126890972 L723.7307166503281,183.918068775835 M723.7307166503281,183.918068775835 L723.6840053877468,183.9085623999599 M723.6840053877468,183.9085623999599 L723.6401630594817,183.77773427358676 M723.6401630594817,183.77773427358676 L723.6017086864126,183.53319193688944 M723.6017086864126,183.53319193688944 L723.5708705092127,183.18915798674536 M723.5708705092127,183.18915798674536 L723.5494633816272,182.76567537636475 M723.5494633816272,182.76567537636475 L723.5387173184508,182.2872570687562 M723.5387173184508,182.2872570687562 L723.5392656559852,181.78170565400598 M723.5392656559852,181.78170565400598 L723.5510485575794,181.27836971274508 M723.5510485575794,181.27836971274508 L723.5733987857925,180.80640755023734 M723.5733987857925,180.80640755023734 L723.6050220471311,180.3932369501121 M723.6050220471311,180.3932369501121 L723.6440831413738,180.06286407274925 M723.6440831413738,180.06286407274925 L723.6883053554559,179.83448238249997 M723.6883053554559,179.83448238249997 L723.735146482112,179.72143675420915 M723.735146482112,179.72143675420915 L723.7818750491163,179.73029264434817 M723.7818750491163,179.73029264434817 L723.8257842883295,179.86065886448998 M723.8257842883295,179.86065886448998 L723.8642928209688,180.10492940003843 M723.8642928209688,180.10492940003843 L723.8951600023167,180.44894390415166 M723.8951600023167,180.44894390415166 L723.9166113605988,180.87276818494166 M723.9166113605988,180.87276818494166 L723.9273852574577,181.35166908824928 M723.9273852574577,181.35166908824928 L723.9268657677774,181.85783775991652 M723.9268657677774,181.85783775991652 L723.9150550240743,182.36174653397728 M723.9150550240743,182.36174653397728 L723.892656791189,182.8341059264787 M718.5688799195975,174.43440677107935 L718.8781705470401,169.27480968610706 M719.0064645348075,177.2491260814061 L718.5688799195975,174.43440677107935 M718.8781705470401,169.27480968610706 L719.3166201774302,172.08509799599432 M719.3166201774302,172.08509799599432 L719.0064645348075,177.2491260814061 M737.2071641433961,182.8340986264918 L723.892656791189,182.8341059264787 M731.7508059603304,194.75924350836914 L732.0835871388165,189.45264140817184 M732.0835871388165,189.45264140817184 L729.0701169494296,189.45264140817184 M731.7508059603304,194.75924350836914 L728.7404043062588,194.75924350836914 M732.0835871388165,189.45264140817184 L731.6131624067434,186.53019737216712 M731.6131624067434,186.53019737216712 L728.6040299473632,186.53019737216712 M731.2813380939626,191.83214023456918 L731.7508059603304,194.75924350836914 M731.2813380939626,191.83214023456918 L728.2752653467537,191.83214023456918 M731.6131624067434,186.53019737216712 L731.2813380939626,191.83214023456918 M723.8507340789326,145.5027346158657 L724.1675970325184,140.27567780046746 M724.1675970325184,140.27567780046746 L721.2271193069896,140.27567780046746 M723.8507340789326,145.5027346158657 L720.9131781086089,145.5027346158657 M724.1675970325184,140.27567780046746 L723.7196699849542,137.49299736558942 M723.7196699849542,137.49299736558942 L720.7833225408856,137.49299736558942 M723.4036961152428,142.71548047114885 L723.8507340789326,145.5027346158657 M723.4036961152428,142.71548047114885 L720.4702622282439,142.71548047114885 M723.7196699849542,137.49299736558942 L723.4036961152428,142.71548047114885 M729.5940732269421,218.79153282311165 L729.2663425601452,224.02806674388552 M729.2663425601452,224.02806674388552 L726.2788498449675,224.02806674388552 M729.5940732269421,218.79153282311165 L726.6035585466116,218.79153282311165 M729.2663425601452,224.02806674388552 L729.7300208299116,226.98312908359068 M729.7300208299116,226.98312908359068 L726.738252593047,226.98312908359068 M729.7300208299116,226.98312908359068 L730.0586907009867,221.74208679853024 M730.0586907009867,221.74208679853024 L727.063891838679,221.74208679853015 M730.0586907009867,221.74208679853024 L729.5940732269421,218.79153282311165 M721.7967873212151,169.27480968610706 L721.484618220016,174.43440677107935 M721.484618220016,174.43440677107935 L718.5688799195975,174.43440677107935 M721.7967873212151,169.27480968610706 L718.8781705470401,169.27480968610706 M721.484618220016,174.43440677107935 L721.9262753020882,177.2491260814061 M721.9262753020882,177.2491260814061 L719.0064645348075,177.2491260814061 M722.2393174689007,172.08509799599432 L721.7967873212151,169.27480968610706 M722.2393174689007,172.08509799599432 L719.3166201774302,172.08509799599432 M721.9262753020882,177.2491260814061 L722.2393174689007,172.08509799599432" stroke="black"  stroke-width="4"  fill="red"/>
<path d="M279.38637605086325,355.1955907584829 L421.8189718274802,355.19558637683474 M265.1510748271403,347.48655005087363 L279.38637605086325,355.1955907584829 M265.1510748271403,347.48655005087363 L436.4381130204919,347.48655005087363 M421.8189718274802,355.19558637683474 L436.4381130204919,347.48655005087363 M421.8189718274802,355.19558637683474 L421.6265263576263,413.88534587425386 M280.8506774960027,413.8853503206765 L421.6265263576263,413.88534587425386 M280.8506774960027,413.8853503206765 L279.38637605086325,355.1955907584829 M348.6165606894188,384.712131341853 L348.67827281946023,384.24390931561345 M348.67827281946023,384.24390931561345 L348.87046670131485,383.80285087006905 M348.87046670131485,383.80285087006905 L349.18196284794084,383.4145487520665 M349.18196284794084,383.4145487520665 L349.59469550523687,383.10165743315036 M349.59469550523687,383.10165743315036 L350.08467181024747,382.88232750187524 M350.08467181024747,382.88232750187524 L350.6233741378409,382.7694091202468 M350.6233741378409,382.7694091202468 L351.17951339942766,382.7694091202468 M351.17951339942766,382.7694091202468 L351.72066276258454,382.88232750187524 M351.72066276258454,382.88232750187524 L352.21539213024255,383.10165743315036 M352.21539213024255,383.10165743315036 L352.63490540353587,383.4145487520665 M352.63490540353587,383.4145487520665 L352.9548163811076,383.80285087006905 M352.9548163811076,383.80285087006905 L353.1565689901967,384.24390931561345 M353.1565689901967,384.24390931561345 L353.22842725964665,384.712131341853 M353.22842725964665,384.712131341853 L353.1662966797519,385.18024831842513 M353.1662966797519,385.18024831842513 L352.9737775678133,385.6210822792041 M352.9737775678133,385.6210822792041 L352.6621250759274,386.0090429542534 M352.6621250759274,386.0090429542534 L352.2494408056048,386.3216115713143 M352.2494408056048,386.3216115713143 L351.7597053344387,386.54060118489684 M351.7597053344387,386.54060118489684 L351.2213827233327,386.6533896797881 M351.2213827233327,386.6533896797881 L350.6656739139487,386.6533896797881 M350.6656739139487,386.6533896797881 L350.1249070820333,386.54060118489684 M350.1249070820333,386.54060118489684 L349.63042592318806,386.3216115713143 M349.63042592318806,386.3216115713143 L349.21096803008675,386.0090429542534 M349.21096803008675,386.0090429542534 L348.8909081066088,385.6210822792041 M348.8909081066088,385.6210822792041 L348.68883637738026,385.18024831842513 M348.68883637738026,385.18024831842513 L348.6165606894188,384.712131341853 M436.4381130204919,347.48655005087363 L436.0768784576822,406.06202651841807 M421.6265263576263,413.88534587425386 L436.0768784576822,406.06202651841807 M266.7753030177717,406.06202651841807 L265.1510748271403,347.48655005087363 M436.0768784576822,406.06202651841807 L266.7753030177717,406.06202651841807 M291.4563570970286,357.21800745444887 L291.5818211002017,362.77769322807444 M297.98131957881213,357.21800745444887 L291.4563570970286,357.21800745444887 M291.5818211002017,362.77769322807444 L298.09959096676647,362.77769322807444 M298.09959096676647,362.77769322807444 L297.98131957881213,357.21800745444887 M403.8177041497477,357.21800309257736 L403.81930967295403,362.7776888599904 M410.34266661858277,357.21800309257736 L403.8177041497477,357.21800309257736 M403.81930967295403,362.7776888599904 L410.33707952659887,362.7776888599904 M410.33707952659887,362.7776888599904 L410.34266661858277,357.21800309257736 M298.8173566779874,396.51832891769305 L298.70066585338185,391.0329420570688 M292.3432373736367,396.51832891769305 L298.8173566779874,396.51832891769305 M292.2194500549807,391.0329420570688 L292.3432373736367,396.51832891769305 M298.70066585338185,391.0329420570688 L292.2194500549807,391.0329420570688 M348.8142809474207,376.94502127767043 L348.88630233058126,377.41223579483506 M348.88630233058126,377.41223579483506 L349.0876353539563,377.8522030597092 M349.0876353539563,377.8522030597092 L349.406580127195,378.23940019846145 M349.406580127195,378.23940019846145 L349.8245624167424,378.5513608740374 M349.8245624167424,378.5513608740374 L350.317309998332,378.7699246367904 M350.317309998332,378.7699246367904 L350.8562022588399,378.88250259917766 M350.8562022588399,378.88250259917766 L351.4099393311979,378.88250259917754 M351.4099393311979,378.88250259917754 L351.94640482349763,378.7699246367904 M351.94640482349763,378.7699246367904 L352.434439773544,378.5513608740374 M352.434439773544,378.5513608740374 L352.845695624539,378.23940019846145 M352.845695624539,378.23940019846145 L353.15629110730123,377.8522030597092 M353.15629110730123,377.8522030597092 L353.34813763759945,377.41223579483494 M353.34813763759945,377.41223579483494 L353.410085027451,376.9450212776703 M353.410085027451,376.9450212776703 L353.3384777293193,376.4777198436551 M353.3384777293193,376.4777198436551 L353.1374620458003,376.03751175064826 M353.1374620458003,376.03751175064826 L352.81866561572195,375.64995748784196 M352.81866561572195,375.64995748784196 L352.400628345478,375.33767600139396 M352.400628345478,375.33767600139396 L351.9076342958514,375.11877363032266 M351.9076342958514,375.11877363032266 L351.3683617349096,375.0060841603601 M351.3683617349096,375.0060841603601 L350.814197235195,375.0060841603601 M350.814197235195,375.0060841603601 L350.2773550813519,375.11877363032266 M350.2773550813519,375.11877363032266 L349.7890809642785,375.3376760013939 M349.7890809642785,375.3376760013939 L349.3777770498519,375.64995748784196 M349.3777770498519,375.64995748784196 L349.0673363759086,376.03751175064826 M349.0673363759086,376.03751175064826 L348.8758123781583,376.47771984365517 M348.8758123781583,376.47771984365517 L348.8142809474207,376.94502127767043 M410.3031725680274,396.5183245124276 L410.3086849948454,391.0329376577872 M403.8290532764241,396.5183245124276 L410.3031725680274,396.5183245124276 M410.3086849948454,391.0329376577872 L403.8274692092197,391.0329376577872 M403.8274692092197,391.0329376577872 L403.8290532764241,396.5183245124276 M266.7753030177717,406.06202651841807 L280.8506774960027,413.8853503206765 M348.6165606894188,384.712131341853 L348.8142809474207,376.94502127767043 M291.49313341409754,364.49663362898536 L291.3674734857119,358.9345045370671 M291.3674734857119,358.9345045370671 L291.4563570970286,357.21800745444887 M291.49313341409754,364.49663362898536 L291.5818211002017,362.77769322807444 M291.3674734857119,358.9345045370671 L297.8975314976817,358.9345045370671 M297.8975314976817,358.9345045370671 L297.98131957881213,357.21800745444887 M298.0159875788248,364.49663362898536 L291.49313341409754,364.49663362898536 M298.0159875788248,364.49663362898536 L298.09959096676647,362.77769322807444 M297.8975314976817,358.9345045370671 L298.0159875788248,364.49663362898536 M403.8181747646572,364.4966292540838 L403.81656673425783,358.93450016838034 M403.81656673425783,358.93450016838034 L403.8177041497477,357.21800309257736 M403.8181747646572,364.4966292540838 L403.81930967295403,362.7776888599904 M403.81656673425783,358.93450016838034 L410.346624733259,358.93450016838034 M410.346624733259,358.93450016838034 L410.34266661858277,357.21800309257736 M410.3410289164444,364.4966292540838 L403.8181747646572,364.4966292540838 M410.3410289164444,364.4966292540838 L410.33707952659887,362.7776888599904 M410.346624733259,358.93450016838034 L410.3410289164444,364.4966292540838 M298.61799795500576,392.7641518068598 L298.7348697821042,398.25189193178267 M298.7348697821042,398.25189193178267 L298.8173566779874,396.51832891769305 M298.61799795500576,392.7641518068598 L298.70066585338185,391.0329420570688 M298.7348697821042,398.25189193178267 L292.2557340784963,398.25189193178267 M292.2557340784963,398.25189193178267 L292.3432373736367,396.51832891769305 M292.2557340784963,398.25189193178267 L292.13175474977146,392.7641518068598 M292.13175474977146,392.7641518068598 L292.2194500549807,391.0329420570688 M292.13175474977146,392.7641518068598 L298.61799795500576,392.7641518068598 M410.3125901925466,392.76414740075063 L410.3070692152449,398.25188751968795 M410.3070692152449,398.25188751968795 L410.3031725680274,396.5183245124276 M410.3125901925466,392.76414740075063 L410.3086849948454,391.0329376577872 M410.3070692152449,398.25188751968795 L403.82793352440416,398.25188751968795 M403.82793352440416,398.25188751968795 L403.8290532764241,396.5183245124276 M403.8263470001076,392.76414740075063 L410.3125901925466,392.76414740075063 M403.8263470001076,392.76414740075063 L403.8274692092197,391.0329376577872 M403.82793352440416,398.25188751968795 L403.8263470001076,392.76414740075063" stroke="black"  stroke-width="4"  fill="red"/>
<path d="M512.3534355282832,27.097129634122496 L391.2013312214886,27.097132804278544 M525.241242158196,32.71115125707013 L512.3534355282832,27.097129634122496 M525.241242158196,32.71115125707013 L378.59306487463164,32.71115125707013 M391.2013312214886,27.097132804278544 L378.59306487463164,32.71115125707013 M391.2013312214886,27.097132804278544 L391.3408093936666,80.35694349029137 M511.2921578180803,80.35694026205965 L391.3408093936666,80.35694349029137 M511.2921578180803,80.35694026205965 L512.3534355282832,27.097129634122496 M453.50891489728315,53.859661779063515 L453.4557088629902,53.43477573687835 M453.4557088629902,53.43477573687835 L453.2914614148499,53.03452197094441 M453.2914614148499,53.03452197094441 L453.0257309616508,52.68216510866728 M453.0257309616508,52.68216510866728 L452.67393051123236,52.39824414292741 M452.67393051123236,52.39824414292741 L452.2565102557382,52.19922493102433 M452.2565102557382,52.19922493102433 L451.7977624116883,52.096764195662786 M451.7977624116883,52.096764195662786 L451.32432794256016,52.096764195662786 M451.32432794256016,52.096764195662786 L450.86380674887056,52.19922493102433 M450.86380674887056,52.19922493102433 L450.44294194804394,52.39824414292741 M450.44294194804394,52.39824414292741 L450.08622750651915,52.68216510866728 M450.08622750651915,52.68216510866728 L449.8143986009462,53.03452197094441 M449.8143986009462,53.03452197094441 L449.6432241432282,53.43477573687835 M449.6432241432282,53.43477573687835 L449.58266392702694,53.859661779063515 M449.58266392702694,53.859661779063515 L449.63617376601724,54.28449310276363 M449.63617376601724,54.28449310276363 L449.80065602466084,54.68454699591791 M449.80065602466084,54.68454699591791 L450.06649939421237,55.03664006666651 M450.06649939421237,55.03664006666651 L450.41826435178587,55.32031708931129 M450.41826435178587,55.32031708931129 L450.8355097063052,55.51906800959085 M450.8355097063052,55.51906800959085 L451.2939821435942,55.621433766697464 M451.2939821435942,55.621433766697464 L451.76710463214107,55.621433766697464 M451.76710463214107,55.621433766697464 L452.227348775224,55.51906800959085 M452.227348775224,55.51906800959085 L452.64803403159107,55.32031708931129 M452.64803403159107,55.32031708931129 L453.0047087582009,55.03664006666651 M453.0047087582009,55.03664006666651 L453.2766460145275,54.68454699591791 M453.2766460145275,54.68454699591791 L453.4480526700572,54.28449310276363 M453.4480526700572,54.28449310276363 L453.50891489728315,53.859661779063515 M378.59306487463164,32.71115125707013 L378.8582922650338,86.07363748645923 M391.3408093936666,80.35694349029137 L378.8582922650338,86.07363748645923 M524.0486934688674,86.07363748645923 L525.241242158196,32.71115125707013 M378.8582922650338,86.07363748645923 L524.0486934688674,86.07363748645923 M502.7468555557229,41.56420997004898 L502.654824824466,46.62426373610151 M497.15893134203355,41.56420997004898 L502.7468555557229,41.56420997004898 M502.654824824466,46.62426373610151 L497.07217655942713,46.62426373610151 M497.07217655942713,46.62426373610151 L497.15893134203355,41.56420997004898 M406.5215219079741,41.56421316907546 L406.5203442197761,46.62426694069865 M400.9335976847882,41.56421316907546 L406.5215219079741,41.56421316907546 M406.5203442197761,46.62426694069865 L400.93769594525867,46.62426694069865 M400.93769594525867,46.62426694069865 L400.9335976847882,41.56421316907546 M496.54508908972565,77.36713295868952 L496.6308493890124,72.36508336157783 M502.0956827943017,77.36713295868952 L496.54508908972565,77.36713295868952 M502.18665856323406,72.36508336157783 L502.0956827943017,77.36713295868952 M496.6308493890124,72.36508336157783 L502.18665856323406,72.36508336157783 M453.6531755639895,59.52567105571666 L453.5921055207958,59.9513148026935 M453.5921055207958,59.9513148026935 L453.4201898639873,60.35214600203534 M453.4201898639873,60.35214600203534 L453.1474160757114,60.70492383891434 M453.1474160757114,60.70492383891434 L452.789667404652,60.98914728004672 M452.789667404652,60.98914728004672 L452.3677191923898,61.188280980483455 M452.3677191923898,61.188280980483455 L451.90608212436723,61.29083742818989 M451.90608212436723,61.29083742818989 L451.43157354200815,61.29083742818989 M451.43157354200815,61.29083742818989 L450.9717191030648,61.188280980483455 M450.9717191030648,61.188280980483455 L450.5532313915335,60.98914728004672 M450.5532313915335,60.98914728004672 L450.20042189161194,60.70492383891434 M450.20042189161194,60.70492383891434 L449.9337781711344,60.35214600203534 M449.9337781711344,60.35214600203534 L449.7688280688697,59.9513148026935 M449.7688280688697,59.9513148026935 L449.71515476709897,59.52567105571666 M449.71515476709897,59.52567105571666 L449.77592067755955,59.09995945955575 M449.77592067755955,59.09995945955575 L449.9476030606159,58.69894026453778 M449.9476030606159,58.69894026453778 L450.2202681747998,58.34591021214186 M450.2202681747998,58.34591021214186 L450.5780568059565,58.061441518528454 M450.5780568059565,58.061441518528454 L451.0001856441894,57.8620383136315 M451.0001856441894,57.8620383136315 L451.46210112069065,57.75937343687622 M451.46210112069065,57.75937343687622 L451.9369235336563,57.75937343687622 M451.9369235336563,57.75937343687622 L452.39705534942436,57.8620383136315 M452.39705534942436,57.8620383136315 L452.8157190035383,58.061441518528625 M452.8157190035383,58.061441518528625 L453.1685642016147,58.34591021214186 M453.1685642016147,58.34591021214186 L453.4350940124539,58.69894026453778 M453.4350940124539,58.69894026453778 L453.59980757401974,59.09995945955575 M453.59980757401974,59.09995945955575 L453.6531755639895,59.52567105571666 M400.9625953418869,77.36713619678426 L400.9585440604021,72.36508659426329 M406.5131890558331,77.36713619678426 L400.9625953418869,77.36713619678426 M400.9585440604021,72.36508659426329 L406.5143532440115,72.36508659426329 M406.5143532440115,72.36508659426329 L406.5131890558331,77.36713619678426 M524.0486934688674,86.07363748645923 L511.2921578180803,80.35694026205965 M453.50891489728315,53.859661779063515 L453.6531755639895,59.52567105571666 M502.58985415905295,45.365005471976815 L502.6817620707131,40.30714159195611 M502.6817620707131,40.30714159195611 L502.7468555557229,41.56420997004898 M502.58985415905295,45.365005471976815 L502.654824824466,46.62426373610151 M502.6817620707131,40.30714159195611 L497.0975695440342,40.30714159195611 M497.0975695440342,40.30714159195611 L497.15893134203355,41.56420997004898 M497.0109305400082,45.365005471976815 L502.58985415905295,45.365005471976815 M497.0109305400082,45.365005471976815 L497.07217655942713,46.62426373610151 M497.0975695440342,40.30714159195611 L497.0109305400082,45.365005471976815 M406.5195128106932,45.365008672299666 L406.52068892720763,40.30714478671149 M406.52068892720763,40.30714478671149 L406.5215219079741,41.56421316907546 M406.5195128106932,45.365008672299666 L406.5203442197761,46.62426694069865 M406.52068892720763,40.30714478671149 L400.9364963910449,40.30714478671149 M400.9364963910449,40.30714478671149 L400.9335976847882,41.56421316907546 M400.94058918218246,45.365008672299666 L406.5195128106932,45.365008672299666 M400.94058918218246,45.365008672299666 L400.93769594525867,46.62426694069865 M400.9364963910449,40.30714478671149 L400.94058918218246,45.365008672299666 M496.57019065110404,71.09478375871015 L496.484544146396,76.09470691667741 M496.484544146396,76.09470691667741 L496.54508908972565,77.36713295868952 M496.57019065110404,71.09478375871015 L496.6308493890124,72.36508336157783 M496.484544146396,76.09470691667741 L502.0314558405692,76.09470691667741 M502.0314558405692,76.09470691667741 L502.0956827943017,77.36713295868952 M502.0314558405692,76.09470691667741 L502.1223108945625,71.09478375871015 M502.1223108945625,71.09478375871015 L502.18665856323406,72.36508336157783 M502.1223108945625,71.09478375871015 L496.57019065110404,71.09478375871015 M400.9614095543874,71.09478698710404 L400.9654554602628,76.09471015047745 M400.9654554602628,76.09471015047745 L400.9625953418869,77.36713619678426 M400.9614095543874,71.09478698710404 L400.9585440604021,72.36508659426329 M400.9654554602628,76.09471015047745 L406.5123671637936,76.09471015047745 M406.5123671637936,76.09471015047745 L406.5131890558331,77.36713619678426 M406.51352980722106,71.09478698710404 L400.9614095543874,71.09478698710404 M406.51352980722106,71.09478698710404 L406.5143532440115,72.36508659426329 M406.5123671637936,76.09471015047745 L406.51352980722106,71.09478698710404" stroke="black"  stroke-width="4"  fill="red"/>
<path d="M83.4774639413971,164.1157697642639 L68.94840747784804,170.58504863608488 M83.4774639413971,164.1157697642639 L70.9276394348463,242.3060311226378 M58.115993783476085,235.36796242246248 L70.9276394348463,242.3060311226378 M68.94840747784804,170.58504863608488 L58.115993783476085,235.36796242246248 M72.53511222377551,226.36232014422615 L68.94840747784804,170.58504863608488 M86.89830503199875,219.78432171278615 L72.53511222377551,226.36232014422615 M86.89830503199875,219.78432171278615 L83.4774639413971,164.1157697642639 M58.115993783476085,235.36796242246248 L61.93614887995102,292.20906774425885 M72.53511222377551,226.36232014422615 L61.93614887995102,292.20906774425885 M65.65281079697661,229.70668623711163 L65.61826959558994,229.28848868672696 M65.61826959558994,229.28848868672696 L65.57556673006104,228.95627521141154 M65.57556673006104,228.95627521141154 L65.52722492834545,228.72931765899006 M65.52722492834545,228.72931765899006 L65.4760360071279,228.62090304656448 M65.4760360071279,228.62090304656448 L65.42496973023054,228.6373221083259 M65.42496973023054,228.6373221083259 L65.37700189711444,228.7777397823738 M65.37700189711444,228.7777397823738 L65.33491563947575,229.03399632838756 M65.33491563947575,229.03399632838756 L65.30116727902276,229.39119083750907 M65.30116727902276,229.39119083750907 L65.27772411331415,229.82865309701936 M65.27772411331415,229.82865309701936 L65.26594980678237,230.32084660463394 M65.26594980678237,230.32084660463394 L65.26653527492243,230.8391810148009 M65.26653527492243,230.8391810148009 L65.27945689414622,231.35344034973753 M65.27945689414622,231.35344034973753 L65.30392065271587,231.83370246351586 M65.30392065271587,231.83370246351586 L65.33855672006928,232.25202780411806 M65.33855672006928,232.25202780411806 L65.38128829415473,232.5840586109891 M65.38128829415473,232.5840586109891 L65.4296716317973,232.81056492039167 M65.4296716317973,232.81056492039167 L65.48087703161298,232.91840125331265 M65.48087703161298,232.91840125331265 L65.53192400090353,232.901303553987 M65.53192400090353,232.901303553987 L65.57985062855352,232.76040635922226 M65.57985062855352,232.76040635922226 L65.62187626332957,232.5038734131493 M65.62187626332957,232.5038734131493 L65.65555847785708,232.1466689736479 M65.65555847785708,232.1466689736479 L65.67895207668391,231.7095713299347 M65.67895207668391,231.7095713299347 L65.6906952905108,231.2178894714482 M65.6906952905108,231.2178894714482 L65.69011128220552,230.70020233656572 M65.69011128220552,230.70020233656572 L65.6772517017045,230.1865394172632 M65.6772517017045,230.1865394172632 L65.65281079697661,229.70668623711163 M70.9276394348463,242.3060311226378 L74.61897340178871,299.25838945964324 M61.93614887995102,292.20906774425885 L74.61897340178871,299.25838945964324 M74.61897340178871,299.25838945964324 L86.89830503199875,219.78432171278615 M82.20179238178628,184.91605407716744 L82.53003393791403,190.2154198404909 M81.73644780660896,187.83384297148288 L82.20179238178628,184.91605407716744 M82.53003393791403,190.2154198404909 L82.06563514215401,193.1378652896202 M82.06563514215401,193.1378652896202 L81.73644780660896,187.83384297148288 M73.99674882627039,236.36301051144397 L74.34186583428851,241.74322727540016 M73.50744957803704,239.43099916943535 L73.99674882627039,236.36301051144397 M74.34186583428851,241.74322727540016 L73.85358628710844,244.81595338884807 M73.85358628710844,244.81595338884807 L73.50744957803704,239.43099916943535 M84.06460844830895,225.3462703051165 L83.7394848113214,220.10772422350357 M84.52328467681144,222.39588123010068 L84.06460844830895,225.3462703051165 M84.19908937616503,217.16184110080133 L84.52328467681144,222.39588123010068 M83.7394848113214,220.10772422350357 L84.19908937616503,217.16184110080133 M79.27571851848705,229.7066785950355 L79.29916303392997,230.18653941726313 M79.29916303392997,230.18653941726313 L79.31152280489982,230.70019469166252 M79.31152280489982,230.70019469166252 L79.31209761431313,231.2178894714482 M79.31209761431313,231.2178894714482 L79.30082544528148,231.7095713299347 M79.30082544528148,231.7095713299347 L79.27837021248729,232.1466689736479 M79.27837021248729,232.1466689736479 L79.24602242540254,232.50388106624666 M79.24602242540254,232.50388106624666 L79.20568493176825,232.76039870423094 M79.20568493176825,232.76039870423094 L79.15969497222454,232.901303553987 M79.15969497222454,232.901303553987 L79.11069560332265,232.91840125331265 M79.11069560332265,232.91840125331265 L79.06154415887437,232.81056492039167 M79.06154415887437,232.81056492039167 L79.0150849287424,232.5840662698035 M79.0150849287424,232.5840662698035 L78.97405378414163,232.25202780411806 M78.97405378414163,232.25202780411806 L78.94082066067568,231.8337101213014 M78.94082066067568,231.8337101213014 L78.91732457021675,231.35344034973753 M78.91732457021675,231.35344034973753 L78.90493488638288,230.83918866975355 M78.90493488638288,230.83918866975355 L78.9043895576769,230.32084660463394 M78.9043895576769,230.32084660463394 L78.91569157222023,229.82865309701936 M78.91569157222023,229.82865309701936 L78.93819438366523,229.39119083750907 M78.93819438366523,229.39119083750907 L78.97057478648304,229.03398868164345 M78.97057478648304,229.03398868164345 L79.01097046780092,228.77774742722468 M79.01097046780092,228.77774742722468 L79.05703086038454,228.6373221083259 M79.05703086038454,228.6373221083259 L79.1060487624249,228.62090304656448 M79.1060487624249,228.62090304656448 L79.15518438926603,228.72931765899006 M79.15518438926603,228.72931765899006 L79.20157286921358,228.95626757036774 M79.20157286921358,228.95626757036774 L79.24254681783714,229.28848868672696 M79.24254681783714,229.28848868672696 L79.27571851848705,229.7066785950355 M75.95509917090607,277.5098294620194 L75.61334292185086,272.19302339340595 M76.43721056742504,274.4086960803994 L75.95509917090607,277.5098294620194 M75.61334292185086,272.19302339340595 L76.0964547415042,269.0964681564163 M76.0964547415042,269.0964681564163 L76.43721056742504,274.4086960803994 M65.65281079697661,229.70668623711163 L79.27571851848705,229.7066785950355 M79.52635216613521,190.2154198404909 L79.19505576565206,184.91605407716744 M79.19505576565206,184.91605407716744 L82.20179238178628,184.91605407716744 M79.52635216613521,190.2154198404909 L82.53003393791403,190.2154198404909 M79.19505576565206,184.91605407716744 L78.72538037000942,187.83384297148288 M78.72538037000942,187.83384297148288 L81.73644780660896,187.83384297148288 M79.05763135199135,193.1378652896202 L79.52635216613521,190.2154198404909 M79.05763135199135,193.1378652896202 L82.06563514215401,193.1378652896202 M78.72538037000942,187.83384297148288 L79.05763135199135,193.1378652896202 M71.26197934461516,241.7432272754001 L70.91365043761812,236.3630105114439 M70.91365043761812,236.3630105114439 L73.99674882627039,236.36301051144397 M71.26197934461516,241.7432272754001 L74.34186583428851,241.74322727540016 M70.91365043761812,236.3630105114439 L70.4197974301689,239.43099916943535 M70.4197974301689,239.43099916943535 L73.50744957803704,239.43099916943535 M70.76915552826671,244.81595338884807 L71.26197934461516,241.7432272754001 M70.76915552826671,244.81595338884807 L73.85358628710844,244.81595338884807 M70.4197974301689,239.43099916943535 L70.76915552826671,244.81595338884807 M80.74705903106752,220.10772422350357 L81.07520849488515,225.3462703051165 M81.07520849488515,225.3462703051165 L84.06460844830895,225.3462703051165 M80.74705903106752,220.10772422350357 L83.7394848113214,220.10772422350357 M81.07520849488515,225.3462703051165 L81.53815348357801,222.39588123010068 M81.53815348357801,222.39588123010068 L84.52328467681144,222.39588123010068 M81.53815348357801,222.39588123010068 L81.21094099584559,217.16184110080124 M81.21094099584559,217.16184110080124 L84.19908937616503,217.16184110080133 M81.21094099584559,217.16184110080124 L80.74705903106752,220.10772422350357 M72.54528968253732,272.19302339340595 L72.8902265530105,277.5098294620194 M72.8902265530105,277.5098294620194 L75.95509917090607,277.5098294620194 M72.54528968253732,272.19302339340595 L75.61334292185086,272.19302339340595 M72.8902265530105,277.5098294620194 L73.37682481359656,274.4086960803994 M73.37682481359656,274.4086960803994 L76.43721056742504,274.4086960803994 M73.03289767689154,269.0964681564163 L72.54528968253732,272.19302339340595 M73.03289767689154,269.0964681564163 L76.0964547415042,269.0964681564163 M73.37682481359656,274.4086960803994 L73.03289767689154,269.0964681564163" stroke="black"  stroke-width="4"  fill="red"/>
<path d="M-19.90785607108552,175.63206358010873 L-18.929517626961115,187.65517081539377 M423.571599159498,-18.510417927185472 L423.53354222945023,-7.238690198881216 M-19.90785607108552,175.63206358010873 L423.571599159498,-18.510417927185472 M-18.929517626961115,187.65517081539377 L423.53354222945023,-7.238690198881216 M476.65779578979715,-19.237652188121842 L476.5093835455762,-7.968901413011906 M423.571599159498,-18.510417927185472 L425.8237394314078,-19.42073314557979 M425.8237394314078,-19.42073314557979 L428.2330480036306,-20.249252553286055 M428.2330480036306,-20.249252553286055 L430.7844673074726,-20.99098580587804 M430.7844673074726,-20.99098580587804 L433.4621618690127,-21.641481235246943 M433.4621618690127,-21.641481235246943 L436.24955331980294,-22.196837392795146 M436.24955331980294,-22.196837392795146 L439.1294223304947,-22.653745440451928 M439.1294223304947,-22.653745440451928 L442.0840650830326,-23.009471607484272 M442.0840650830326,-23.009471607484272 L445.0953356898904,-23.261888962159958 M445.0953356898904,-23.261888962159958 L448.14477048017005,-23.409510057233433 M448.14477048017005,-23.409510057233433 L451.2136848317575,-23.45144796442753 M451.2136848317575,-23.45144796442753 L454.283323385132,-23.387451030577267 M454.283323385132,-23.387451030577267 L457.33484350867684,-23.217902426175556 M457.33484350867684,-23.217902426175556 L460.3495913242092,-22.943814778133515 M460.3495913242092,-22.943814778133515 L463.309071881972,-22.566825917767858 M463.309071881972,-22.566825917767858 L466.19511626889476,-22.089159342945777 M466.19511626889476,-22.089159342945777 L468.9899212367476,-21.513688663505604 M468.9899212367476,-21.513688663505604 L471.6762904952742,-20.843845454984375 M471.6762904952742,-20.843845454984375 L474.23755371775775,-20.083642992369334 M474.23755371775775,-20.083642992369334 L476.65779578979715,-19.237652188121842 M423.53354222945023,-7.238690198881216 L425.7810195619221,-8.152732008341843 M425.7810195619221,-8.152732008341843 L428.1853411562336,-8.984644807637892 M428.1853411562336,-8.984644807637892 L430.7314803459897,-9.729417333993524 M430.7314803459897,-9.729417333993524 L433.4036339976886,-10.382579225376332 M433.4036339976886,-10.382579225376332 L436.18525746291954,-10.940212624665264 M436.18525746291954,-10.940212624665264 L439.05916632004914,-11.398994756975583 M439.05916632004914,-11.398994756975583 L442.00769254354265,-11.756180325579066 M442.00769254354265,-11.756180325579066 L445.0127268622867,-12.009633423193975 M445.0127268622867,-12.009633423193975 L448.0558428182731,-12.157860318889163 M448.0558428182731,-12.157860318889163 L451.1183934273842,-12.199970338037645 M451.1183934273842,-12.199970338037645 L454.1816611158337,-12.135710764245573 M454.1816611158337,-12.135710764245573 L457.22684125334695,-11.965466386956905 M457.22684125334695,-11.965466386956905 L460.2353176393592,-11.69025411080446 M460.2353176393592,-11.69025411080446 L463.18863277231594,-11.311718682498793 M463.18863277231594,-11.311718682498793 L466.0686546397155,-10.83209298498673 M466.0686546397155,-10.83209298498673 L468.85761629720207,-10.25426273936796 M468.85761629720207,-10.25426273936796 L471.5383566805628,-9.581673970928989 M471.5383566805628,-9.581673970928989 L474.09423980324084,-8.818356828897208 M474.09423980324084,-8.818356828897208 L476.5093835455762,-7.968901413011906 M478.4638114502765,-18.510417927185472 L478.3115837300855,-7.238690198881216 M476.65779578979715,-19.237652188121842 L478.4638114502765,-18.510417927185472 M476.5093835455762,-7.968901413011906 L478.3115837300855,-7.238690198881216 M820.4046610630458,127.96221936732502 L819.4719822462935,139.80883141755191 M478.4638114502765,-18.510417927185472 L820.4046610630458,127.96221936732502 M478.3115837300855,-7.238690198881216 L819.4719822462935,139.80883141755191 M824.283131725558,129.82408935919187 L823.3408508228138,141.67769257838768 M820.4046610630458,127.96221936732502 L824.283131725558,129.82408935919187 M819.4719822462935,139.80883141755191 L823.3408508228138,141.67769257838768 M826.3777612932686,156.28976707938222 L825.418080730527,168.24188801030684 M824.283131725558,129.82408935919187 L826.5158705782369,131.11769227628207 M826.5158705782369,131.11769227628207 L828.5399633398404,132.4829677007438 M828.5399633398404,132.4829677007438 L830.3421600901193,133.91139315328826 M830.3421600901193,133.91139315328826 L831.9104981131588,135.39402245944586 M831.9104981131588,135.39402245944586 L833.2344424888329,136.92152052537244 M833.2344424888329,136.92152052537244 L834.3050056620705,138.48422774207222 M834.3050056620705,138.48422774207222 L835.1146678802465,140.07220417539446 M835.1146678802465,140.07220417539446 L835.6576425578796,141.675318262921 M835.6576425578796,141.675318262921 L835.9297534626594,143.28328685878114 M835.9297534626594,143.28328685878114 L835.928622742294,144.88574561312205 M835.928622742294,144.88574561312205 L835.6535663991822,146.47229940875468 M835.6535663991822,146.47229940875468 L835.1057455637028,148.03263234958277 M835.1057455637028,148.03263234958277 L834.288055134781,149.55653273774118 M834.288055134781,149.55653273774118 L833.2051959668654,151.03399922721138 M833.2051959668654,151.03399922721138 L831.8636827829707,152.4552687371131 M831.8636827829707,152.4552687371131 L830.2716992772259,153.81092554704296 M830.2716992772259,153.81092554704296 L828.4392097729335,155.0919389002902 M828.4392097729335,155.0919389002902 L826.3777612932686,156.28976707938222 M823.3408508228138,141.67769257838768 L825.5679481699574,142.97614819254767 M825.5679481699574,142.97614819254767 L827.5868281341088,144.34654102128826 M827.5868281341088,144.34654102128826 L829.3842752562284,145.78031600967898 M829.3842752562284,145.78031600967898 L830.9483588385419,147.2684929044972 M830.9483588385419,147.2684929044972 L832.2685731804299,148.80170117889108 M832.2685731804299,148.80170117889108 L833.3359568181522,150.37024469417503 M833.3359568181522,150.37024469417503 L834.1430130862334,151.96414606912597 M834.1430130862334,151.96414606912597 L834.6839748005573,153.57323571919167 M834.6839748005573,153.57323571919167 L834.9546816590341,155.18719205850203 M834.9546816590341,155.18719205850203 L834.9527677627361,156.7956121461487 M834.9527677627361,156.7956121461487 L834.6775572545525,158.38806231159012 M834.6775572545525,158.38806231159012 L834.1302151475129,159.95418854926558 M834.1302151475129,159.95418854926558 L833.3136361578256,161.4837415819299 M833.3136361578256,161.4837415819299 L832.232516630575,162.96668339830006 M832.232516630575,162.96668339830006 L830.8933623783769,164.3932152565123 M830.8933623783769,164.3932152565123 L829.3043440219544,165.753887167395 M829.3043440219544,165.753887167395 L827.4754083433863,167.03963561786765 M827.4754083433863,167.03963561786765 L825.418080730527,168.24188801030684 M382.8561959411369,391.8716786150429 L382.9132971251513,404.6300562082519 M826.3777612932686,156.28976707938222 L382.8561959411369,391.8716786150429 M825.418080730527,168.24188801030684 L382.9132971251513,404.6300562082519 M317.73719577691327,392.96431310048524 L317.96027127138035,405.72613410328285 M382.8561959411369,391.8716786150429 L380.06885335703794,393.2396895345597 M380.06885335703794,393.2396895345597 L377.08513022111737,394.4874279916273 M377.08513022111737,394.4874279916273 L373.9240217873696,395.60661609157165 M373.9240217873696,395.60661609157165 L370.6057184571445,396.58981210405295 M370.6057184571445,396.58981210405295 L367.1515442678622,397.43045074962197 M367.1515442678622,397.43045074962197 L363.5838051936073,398.12292843527746 M363.5838051936073,398.12292843527746 L359.92556675203963,398.6625954909258 M359.92556675203963,398.6625954909258 L356.20056456290035,399.0458202635347 M356.20056456290035,399.0458202635347 L352.43300918713004,399.2700515240855 M352.43300918713004,399.2700515240855 L348.64742572410336,399.3337685673944 M348.64742572410336,399.3337685673944 L344.8684211898739,399.236539468887 M344.8684211898739,399.236539468887 L341.12065831799856,398.9790219827036 M341.12065831799856,398.9790219827036 L337.428469396911,398.56295298549037 M337.428469396911,398.56295298549037 L333.81584849992345,397.99113570601776 M333.81584849992345,397.99113570601776 L330.3062068168981,397.26736976334644 M330.3062068168981,397.26736976334644 L326.9222794728969,396.3965353609425 M326.9222794728969,396.3965353609425 L323.6858027367412,395.38443697754724 M323.6858027367412,395.38443697754724 L320.617583188938,394.2378200684239 M320.617583188938,394.2378200684239 L317.73719577691327,392.96431310048524 M382.9132971251513,404.6300562082519 L380.1330934555484,406.00237794800756 M380.1330934555484,406.00237794800756 L377.1570148690372,407.2540444924865 M377.1570148690372,407.2540444924865 L374.0040074717436,408.3767529504024 M374.0040074717436,408.3767529504024 L370.69420912613765,409.3630391980256 M370.69420912613765,409.3630391980256 L367.24888812216767,410.2063182590728 M367.24888812216767,410.2063182590728 L363.690291902362,410.90096977704627 M363.690291902362,410.90096977704627 L360.0414252795722,411.4423301995063 M360.0414252795722,411.4423301995063 L356.32596127796853,411.8267570497214 M356.32596127796853,411.8267570497214 L352.56804653216835,412.0516915102192 M352.56804653216835,412.0516915102192 L348.7921413547617,412.11560835222383 M348.7921413547617,412.11560835222383 L345.0227877786273,412.01807436692866 M345.0227877786273,412.01807436692866 L341.2845834930074,411.7597492640423 M341.2845834930074,411.7597492640423 L337.60179673484504,411.3423750860818 M337.60179673484504,411.3423750860818 L333.99835860325146,410.7687634074044 M333.99835860325146,410.7687634074044 L330.4976190721191,410.0427251677916 M330.4976190721191,410.0427251677916 L327.1222541096034,409.1691551509891 M327.1222541096034,409.1691551509891 L323.89394374664914,408.1538752096217 M323.89394374664914,408.1538752096217 L320.83344110956534,407.00365104730446 M320.83344110956534,407.00365104730446 L317.96027127138035,405.72613410328285 M315.6021985768318,391.8716786150429 L315.83060331288954,404.6300562082519 M317.73719577691327,392.96431310048524 L315.6021985768318,391.8716786150429 M317.96027127138035,405.72613410328285 L315.83060331288954,404.6300562082519 M-26.175896136938036,205.35836938159417 L-25.168533884846966,217.48890175913192 M315.6021985768318,391.8716786150429 L-26.175896136938036,205.35836938159417 M315.83060331288954,404.6300562082519 L-25.168533884846966,217.48890175913192 M-29.36859093253713,203.35110535882123 L-28.354767486837943,215.4744475894127 M-26.175896136938036,205.35836938159417 L-29.36859093253713,203.35110535882123 M-25.168533884846966,217.48890175913192 L-28.354767486837943,215.4744475894127 M-29.36859093253713,203.35110535882123 L-31.101038048089208,201.96102809969614 M-31.101038048089208,201.96102809969614 L-32.58065245632571,200.49795491350386 M-32.58065245632571,200.49795491350386 L-33.79833868324573,198.9716106782303 M-33.79833868324573,198.9716106782303 L-34.74672183543339,197.39208755066448 M-34.74672183543339,197.39208755066448 L-35.42024679835106,195.7697906947859 M-35.42024679835106,195.7697906947859 L-35.815236994442785,194.1153548465181 M-35.815236994442785,194.1153548465181 L-35.92975346265945,192.439585241523 M-35.92975346265945,192.439585241523 L-35.763785847772056,190.75335471620608 M-35.763785847772056,190.75335471620608 L-35.31906438664214,189.06755574093864 M-35.31906438664214,189.06755574093864 L-34.59917675986719,187.39302390999148 M-34.59917675986719,187.39302390999148 L-33.609394579118884,185.7404859147657 M-33.609394579118884,185.7404859147657 L-32.35673667329496,184.1204490672768 M-32.35673667329496,184.1204490672768 L-30.84980494568481,182.5431829891142 M-30.84980494568481,182.5431829891142 L-29.098775256234035,181.0186200926108 M-29.098775256234035,181.0186200926108 L-27.1153618872342,179.55634012754493 M-27.1153618872342,179.55634012754493 L-24.912596831670214,178.16547345886903 M-24.912596831670214,178.16547345886903 L-22.504907107607153,176.85468032220712 M-22.504907107607153,176.85468032220712 L-19.90785607108552,175.63206358010873 M-28.354767486837943,215.4744475894127 L-30.08386415391817,214.07938557730319 M-30.08386415391817,214.07938557730319 L-31.560758928220082,212.6110610977093 M-31.560758928220082,212.6110610977093 L-32.77637175077831,211.07923324991077 M-32.77637175077831,211.07923324991077 L-33.723338722884876,209.4940298389034 M-33.723338722884876,209.4940298389034 L-34.39611113901856,207.8658929281524 M-34.39611113901856,207.8658929281524 L-34.791014194165314,206.20549512057846 M-34.791014194165314,206.20549512057846 L-34.90610646824888,204.523680286502 M-34.90610646824888,204.523680286502 L-34.74137057401862,202.83136030268048 M-34.74137057401862,202.83136030268048 L-34.29852565581922,201.13946691728162 M-34.29852565581922,201.13946691728162 L-33.58114406050146,199.45887496441048 M-33.58114406050146,199.45887496441048 L-32.594478303498875,197.80035014621922 M-32.594478303498875,197.80035014621922 L-31.34552431158238,196.1744381493782 M-31.34552431158238,196.1744381493782 L-29.84285771289916,194.5914462568487 M-29.84285771289916,194.5914462568487 L-28.096624828866936,193.06134345401705 M-28.096624828866936,193.06134345401705 L-26.11850726322041,191.59374490225284 M-26.11850726322041,191.59374490225284 L-23.921501774325122,190.19781484563742 M-23.921501774325122,190.19781484563742 L-21.51999744109463,188.88224576938825 M-21.51999744109463,188.88224576938825 L-18.929517626961115,187.65517081539377" stroke="black"  stroke-width="4"  fill="red"/>
<path d="M364.7845565617865,385.2712504194916 L791.3596386525796,160.32761247448292 M787.2630526487956,215.93229299859502 L791.3596386525796,160.32761247448292 M365.2618979498502,444.400760678945 L787.2630526487956,215.93229299859502 M365.2618979498502,444.400760678945 L364.7845565617865,385.2712504194916 M810.3410829071024,160.32761247448292 L364.57903349506654,396.5706714404764 M791.3596386525796,160.32761247448292 L810.3410829071024,160.32761247448292 M364.7845565617865,385.2712504194916 L364.57903349506654,396.5706714404764 M787.2630526487956,215.93229299859502 L806.0430929909057,215.93229299859496 M810.3410829071024,160.32761247448292 L806.0430929909057,215.93229299859496 M806.0430929909057,215.93229299859496 L365.0612042427791,455.86288397874546 M365.2618979498502,444.400760678945 L365.0612042427791,455.86288397874546 M364.57903349506654,396.5706714404764 L365.0612042427791,455.86288397874546" stroke="black"  stroke-width="4"  fill="red"/>
<path d="M-6.970454116238216,195.78751718724328 L-2.519631229712445,251.98402650802694 M438.72293061590415,-1.8294679616683425 L438.39649919688736,50.895900931210974 M-6.970454116238216,195.78751718724328 L438.72293061590415,-1.8294679616683425 M-2.519631229712445,251.98402650802694 L438.39649919688736,50.895900931210974 M16.58959742705315,251.98402650802694 L12.347340209661468,195.78751718724328 M16.58959742705315,251.98402650802694 L-2.519631229712445,251.98402650802694 M12.347340209661468,195.78751718724328 L-6.970454116238216,195.78751718724328 M438.53390748393844,58.74363443306822 L438.8630663880783,5.875035066472265 M438.53390748393844,58.74363443306822 L438.39649919688736,50.895900931210974 M438.8630663880783,5.875035066472265 L438.72293061590415,-1.8294679616683425 M438.8630663880783,5.875035066472265 L12.347340209661468,195.78751718724328 M438.53390748393844,58.74363443306822 L16.58959742705315,251.98402650802694" stroke="black"  stroke-width="4"  fill="red"/>
<path d="M463.39153114330816,-1.8294679616683425 L462.82435501026544,50.895900931210974 M807.7569427374312,147.5613250606989 L803.513329038896,202.94961600680801 M463.39153114330816,-1.8294679616683425 L807.7569427374312,147.5613250606989 M462.82435501026544,50.895900931210974 L803.513329038896,202.94961600680801 M463.0631025583182,58.74363443306822 L463.63501770965064,5.875035066472265 M463.0631025583182,58.74363443306822 L462.82435501026544,50.895900931210974 M463.63501770965064,5.875035066472265 L463.39153114330816,-1.8294679616683425 M784.8518334973439,202.94961600680801 L788.8965913543534,147.5613250606989 M784.8518334973439,202.94961600680801 L803.513329038896,202.94961600680801 M788.8965913543534,147.5613250606989 L807.7569427374312,147.5613250606989 M788.8965913543534,147.5613250606989 L463.63501770965064,5.875035066472265 M784.8518334973439,202.94961600680801 L463.0631025583182,58.74363443306822" stroke="black"  stroke-width="4"  fill="red"/>
<path d="M334.56615954034567,396.5706714404764 L335.40393349291946,455.86288397874546 M-9.681889247658603,209.1826729910204 L-5.1726456980977105,265.5992216610073 M334.56615954034567,396.5706714404764 L-9.681889247658603,209.1826729910204 M335.40393349291946,455.86288397874546 L-5.1726456980977105,265.5992216610073 M335.7526397573025,444.400760678945 L334.9232568399389,385.2712504194916 M335.7526397573025,444.400760678945 L335.40393349291946,455.86288397874546 M334.9232568399389,385.2712504194916 L334.56615954034567,396.5706714404764 M14.060903281432559,265.5992216610073 L9.762962994701923,209.1826729910204 M14.060903281432559,265.5992216610073 L-5.1726456980977105,265.5992216610073 M9.762962994701923,209.1826729910204 L-9.681889247658603,209.1826729910204 M9.762962994701923,209.1826729910204 L334.9232568399389,385.2712504194916 M14.060903281432559,265.5992216610073 L335.7526397573025,444.400760678945" stroke="black"  stroke-width="4"  fill="red"/>
<path d="M738.8140817788676,153.9240428552555 L771.8225462589903,153.9240428552555 M771.8225462589903,153.9240428552555 L771.4534858932366,151.9156462863553 M771.4534858932366,151.9156462863553 L775.6630954962079,151.9156462863553 M775.6630954962079,151.9156462863553 L776.0363985925001,153.9240428552555 M776.0363985925001,153.9240428552555 L809.044863072623,153.9240428552555 M809.044863072623,153.9240428552555 L807.7569427374312,147.5613250606989 M737.7501512479844,147.5613250606989 L807.7569427374312,147.5613250606989 M738.8140817788676,153.9240428552555 L737.7501512479844,147.5613250606989 M770.0030284955378,179.96926630474115 L737.1584154889515,179.96926630474115 M771.8225462589903,153.9240428552555 L770.0030284955378,179.96926630474115 M737.1584154889515,179.96926630474115 L738.8140817788676,153.9240428552555 M771.4534858932366,151.9156462863553 L769.2110044267886,184.05997404388495 M769.5755561331357,186.08825751267202 L769.2110044267886,184.05997404388495 M769.7445709449444,183.66891947253515 L769.5755561331357,186.08825751267202 M769.7445709449444,183.66891947253515 L769.5620496948488,182.6550112296522 M769.5620496948488,182.6550112296522 L769.8202483446225,178.9564936240826 M769.8202483446225,178.9564936240826 L770.0030284955378,179.96926630474115 M775.6630954962079,151.9156462863553 L773.394834386421,184.05997404388495 M769.2110044267886,184.05997404388495 L773.394834386421,184.05997404388495 M774.1959635908488,179.96926630474115 L776.0363985925001,153.9240428552555 M774.1959635908488,179.96926630474115 L774.0110820198179,178.9564936240826 M774.0110820198179,178.9564936240826 L773.7499151096924,182.6550112296522 M773.7499151096924,182.6550112296522 L773.9345348034481,183.66891947253515 M773.7635769916046,186.08825751267202 L773.9345348034481,183.66891947253515 M773.394834386421,184.05997404388495 L773.7635769916046,186.08825751267202 M736.9232325946223,183.66891947253515 L769.7445709449444,183.66891947253515 M735.2862390881405,209.4204020758528 L736.9232325946223,183.66891947253515 M745.6306287082461,556.6888432283511 L735.2862390881405,209.4204020758528 M778.0504642864039,556.6888432283511 L745.6306287082461,556.6888432283511 M809.044863072623,153.9240428552555 L778.0504642864039,556.6888432283511 M793.7280385838335,179.96926630474115 L774.1959635908488,179.96926630474115 M793.7280385838335,179.96926630474115 L793.4527687951247,183.66891947253515 M773.9345348034481,183.66891947253515 L793.4527687951247,183.66891947253515 M773.7635769916046,186.08825751267202 L769.5755561331357,186.08825751267202 M778.0504642864039,556.6888432283511 L776.9524148049977,549.6267053680908 M807.7569427374312,147.5613250606989 L776.9524148049977,549.6267053680908 M736.9232325946223,183.66891947253515 L736.7571352629425,182.6550185190967 M736.7571352629425,182.6550185190967 L736.9920825630047,178.9565009053604 M736.9920825630047,178.9565009053604 L737.1584154889515,179.96926630474115 M734.2446605648365,202.94961600680801 L737.7501512479844,147.5613250606989 M735.2862390881405,209.4204020758528 L734.2446605648365,202.94961600680801 M736.9920825630047,178.9565009053604 L769.8202483446225,178.9564936240826 M736.7571352629425,182.6550185190967 L769.5620496948488,182.6550112296522 M793.5333377597165,178.9564936240826 L793.7280385838335,179.96926630474115 M774.0110820198179,178.9564936240826 L793.5333377597165,178.9564936240826 M793.2583437349449,182.6550112296522 L793.5333377597165,178.9564936240826 M773.7499151096924,182.6550112296522 L793.2583437349449,182.6550112296522 M793.4527687951247,183.66891947253515 L793.2583437349449,182.6550112296522 M745.6306287082461,556.6888432283511 L744.6280483806054,549.6267053680908 M744.6280483806054,549.6267053680908 L734.2446605648365,202.94961600680801 M776.9524148049977,549.6267053680908 L744.6280483806054,549.6267053680908" stroke="black"  stroke-width="4"  fill="red"/>
<path d="M738.8140817788676,153.9240428552555 L771.8225462589903,153.9240428552555 M772.1923513034997,155.93649190552736 L771.8225462589903,153.9240428552555 M776.4104549284002,155.9364919055272 L772.1923513034997,155.93649190552736 M776.0363985925001,153.9240428552555 L776.4104549284002,155.9364919055272 M776.0363985925001,153.9240428552555 L809.044863072623,153.9240428552555 M809.044863072623,153.9240428552555 L810.3410829071024,160.32761247448292 M739.884812867127,160.32761247448292 L810.3410829071024,160.32761247448292 M738.8140817788676,153.9240428552555 L739.884812867127,160.32761247448292 M738.8140817788676,153.9240428552555 L737.1584154889515,179.96926630474115 M770.0030284955378,179.96926630474115 L737.1584154889515,179.96926630474115 M771.8225462589903,153.9240428552555 L770.0030284955378,179.96926630474115 M770.0030284955378,179.96926630474115 L770.1860222173627,180.9830551691777 M770.1860222173627,180.9830551691777 L769.9273053549423,184.6838443173164 M769.9273053549423,184.6838443173164 L769.7445709449444,183.66891947253515 M769.7445709449444,183.66891947253515 L769.5755561331357,186.08825751267202 M769.9408389070704,188.12060847662093 L769.5755561331357,186.08825751267202 M772.1923513034997,155.93649190552736 L769.9408389070704,188.12060847662093 M776.4104549284002,155.9364919055272 L774.1330590687535,188.12060847662093 M774.1330590687535,188.12060847662093 L769.9408389070704,188.12060847662093 M773.7635769916046,186.08825751267202 L774.1330590687535,188.12060847662093 M773.7635769916046,186.08825751267202 L773.9345348034481,183.66891947253515 M773.9345348034481,183.66891947253515 L774.1193697611247,184.6838443173164 M774.1193697611247,184.6838443173164 L774.3810608412871,180.9830551691777 M774.3810608412871,180.9830551691777 L774.1959635908488,179.96926630474115 M774.1959635908488,179.96926630474115 L776.0363985925001,153.9240428552555 M793.7280385838335,179.96926630474115 L774.1959635908488,179.96926630474115 M793.7280385838335,179.96926630474115 L793.4527687951247,183.66891947253515 M773.9345348034481,183.66891947253515 L793.4527687951247,183.66891947253515 M773.7635769916046,186.08825751267202 L769.5755561331357,186.08825751267202 M736.9232325946223,183.66891947253515 L769.7445709449444,183.66891947253515 M736.9232325946223,183.66891947253515 L735.2862390881405,209.4204020758528 M745.6306287082461,556.6888432283511 L735.2862390881405,209.4204020758528 M778.0504642864039,556.6888432283511 L745.6306287082461,556.6888432283511 M809.044863072623,153.9240428552555 L778.0504642864039,556.6888432283511 M778.0504642864039,556.6888432283511 L779.1550490799953,563.7928326313695 M810.3410829071024,160.32761247448292 L779.1550490799953,563.7928326313695 M737.0894964637071,184.683837013247 L736.9232325946223,183.66891947253515 M737.3249153068455,180.98304787328073 L737.0894964637071,184.683837013247 M737.1584154889515,179.96926630474115 L737.3249153068455,180.98304787328073 M736.3344040227282,215.93229299859502 L739.884812867127,160.32761247448292 M735.2862390881405,209.4204020758528 L736.3344040227282,215.93229299859502 M737.3249153068455,180.98304787328073 L770.1860222173627,180.9830551691777 M737.0894964637071,184.683837013247 L769.9273053549423,184.6838443173164 M793.6473586431475,184.6838443173164 L793.4527687951247,183.66891947253515 M774.1193697611247,184.6838443173164 L793.6473586431475,184.6838443173164 M793.9229045894012,180.9830551691777 L793.6473586431475,184.6838443173164 M774.3810608412871,180.9830551691777 L793.9229045894012,180.9830551691777 M793.7280385838335,179.96926630474115 L793.9229045894012,180.9830551691777 M745.6306287082461,556.6888432283511 L746.6391224467391,563.7928326313695 M746.6391224467391,563.7928326313695 L736.3344040227282,215.93229299859502 M779.1550490799953,563.7928326313695 L746.6391224467391,563.7928326313695" stroke="black"  stroke-width="4"  fill="red"/>
<path d="M350.6026698936566,355.19558637683474 L350.12332222244993,374.4496037451922 M350.12332222244993,374.4496037451922 L354.8030340113002,374.4496037451922 M354.8030340113002,374.4496037451922 L354.74647873962266,376.93189607367174 M354.74647873962266,376.93189607367174 L350.06152311714396,376.93189607367174 M350.06152311714396,376.93189607367174 L349.5725967441756,396.5706623438484 M349.5725967441756,396.5706623438484 L364.57903349506654,396.5706714404764 M365.33159737894545,355.1955776135385 L364.57903349506654,396.5706714404764 M350.6026698936566,355.19558637683474 L365.33159737894545,355.1955776135385 M350.42718600937945,402.14334797967166 L350.90128882894487,382.7551097457358 M350.12332222244993,374.4496037451922 L350.42718600937945,402.14334797967166 M350.90128882894487,382.7551097457358 L350.6026698936566,355.19558637683474 M354.8030340113002,374.4496037451922 L355.1464011712391,408.6452315952305 M350.4985265605476,408.6452315952305 L355.1464011712391,408.6452315952305 M350.470321999152,406.074705118782 L350.4985265605476,408.6452315952305 M350.470321999152,406.074705118782 L352.7954557140586,406.0747141068209 M352.7954557140586,406.0747141068209 L352.75414983098244,402.14335695904623 M352.75414983098244,402.14335695904623 L350.42718600937945,402.14334797967166 M354.74647873962266,376.93189607367174 L355.09061322483393,411.14867432017286 M355.1464011712391,408.6452315952305 L355.09061322483393,411.14867432017286 M350.3660663922775,404.64280937968147 L350.06152311714396,376.93189607367174 M350.3660663922775,404.64280937968147 L352.69562330195174,404.64281837907987 M352.69562330195174,404.64281837907987 L352.73702125974586,408.5765850850711 M352.73702125974586,408.5765850850711 L350.4092985362485,408.57657607700486 M350.43756592730455,411.14867432017286 L350.4092985362485,408.57657607700486 M355.09061322483393,411.14867432017286 L350.43756592730455,411.14867432017286 M350.9436825867794,386.6676270769236 L350.470321999152,406.074705118782 M351.2385979269121,413.88534587425386 L350.9436825867794,386.6676270769236 M354.7594232927891,800.6898256629565 L351.2385979269121,413.88534587425386 M354.3241399074272,823.4514380562306 L354.7594232927891,800.6898256629565 M349.5725967441756,396.5706623438484 L354.3241399074272,823.4514380562306 M350.07954642573026,416.3599246149142 L350.3660663922775,404.64280937968147 M350.07954642573026,416.3599246149142 L350.123230752783,420.30492850871667 M350.4092985362485,408.57657607700486 L350.123230752783,420.30492850871667 M350.43756592730455,411.14867432017286 L350.4985265605476,408.6452315952305 M354.3241399074272,823.4514380562306 L368.0504745897604,823.4514479644275 M364.57903349506654,396.5706714404764 L368.0504745897604,823.4514479644275 M350.9436825867794,386.6676270769236 L353.24871692070565,386.6676270769236 M353.24871692070565,386.6676270769236 L353.2081217666924,382.7551097457358 M353.2081217666924,382.7551097457358 L350.90128882894487,382.7551097457358 M365.79620152908404,413.88533698140884 L365.33159737894545,355.1955776135385 M351.2385979269121,413.88534587425386 L365.79620152908404,413.88533698140884 M353.2081217666924,382.7551097457358 L352.75414983098244,402.14335695904623 M353.24871692070565,386.6676270769236 L352.7954557140586,406.0747141068209 M352.42125978485336,416.3599155213501 L350.07954642573026,416.3599246149142 M352.69562330195174,404.64281837907987 L352.42125978485336,416.3599155213501 M352.46309074053653,420.30491940646874 L352.42125978485336,416.3599155213501 M352.73702125974586,408.5765850850711 L352.46309074053653,420.30491940646874 M350.123230752783,420.30492850871667 L352.46309074053653,420.30491940646874 M354.7594232927891,800.6898256629565 L368.3684895740404,800.6898159233345 M368.3684895740404,800.6898159233345 L365.79620152908404,413.88533698140884 M368.0504745897604,823.4514479644275 L368.3684895740404,800.6898159233345" stroke="black"  stroke-width="4"  fill="red"/>
<path d="M350.6026698936566,355.19558637683474 L350.12332222244993,374.4496037451922 M345.4436104335997,374.4496037451922 L350.12332222244993,374.4496037451922 M345.3765674946652,376.93189607367174 L345.4436104335997,374.4496037451922 M350.06152311714396,376.93189607367174 L345.3765674946652,376.93189607367174 M350.06152311714396,376.93189607367174 L349.5725967441756,396.5706623438484 M349.5725967441756,396.5706623438484 L334.56615954034567,396.5706714404764 M335.87374284470934,355.1955776135385 L334.56615954034567,396.5706714404764 M350.6026698936566,355.19558637683474 L335.87374284470934,355.1955776135385 M350.6026698936566,355.19558637683474 L350.90128882894487,382.7551097457358 M350.42718600937945,402.14334797967166 L350.90128882894487,382.7551097457358 M350.12332222244993,374.4496037451922 L350.42718600937945,402.14334797967166 M350.42718600937945,402.14334797967166 L348.10022174862905,402.14335695904623 M348.10022174862905,402.14335695904623 L348.14518784578854,406.0747141068209 M348.14518784578854,406.0747141068209 L350.470321999152,406.074705118782 M350.470321999152,406.074705118782 L350.4985265605476,408.6452315952305 M345.8506519498561,408.6452315952305 L350.4985265605476,408.6452315952305 M345.4436104335997,374.4496037451922 L345.8506519498561,408.6452315952305 M345.3765674946652,376.93189607367174 L345.78451862977505,411.14867432017286 M345.78451862977505,411.14867432017286 L345.8506519498561,408.6452315952305 M350.43756592730455,411.14867432017286 L345.78451862977505,411.14867432017286 M350.43756592730455,411.14867432017286 L350.4092985362485,408.57657607700486 M350.4092985362485,408.57657607700486 L348.0815753733172,408.57658508507114 M348.0815753733172,408.57658508507114 L348.0365090424765,404.64281837907987 M348.0365090424765,404.64281837907987 L350.3660663922775,404.64280937968147 M350.3660663922775,404.64280937968147 L350.06152311714396,376.93189607367174 M350.07954642573026,416.3599246149142 L350.3660663922775,404.64280937968147 M350.07954642573026,416.3599246149142 L350.123230752783,420.30492850871667 M350.4092985362485,408.57657607700486 L350.123230752783,420.30492850871667 M350.43756592730455,411.14867432017286 L350.4985265605476,408.6452315952305 M350.9436825867794,386.6676270769236 L350.470321999152,406.074705118782 M350.9436825867794,386.6676270769236 L351.2385979269121,413.88534587425386 M354.7594232927891,800.6898256629565 L351.2385979269121,413.88534587425386 M354.3241399074272,823.4514380562306 L354.7594232927891,800.6898256629565 M349.5725967441756,396.5706623438484 L354.3241399074272,823.4514380562306 M354.3241399074272,823.4514380562306 L340.5978048461337,823.4514479644275 M334.56615954034567,396.5706714404764 L340.5978048461337,823.4514479644275 M348.63864825285316,386.6676270769236 L350.9436825867794,386.6676270769236 M348.59445589119736,382.7551097457358 L348.63864825285316,386.6676270769236 M350.90128882894487,382.7551097457358 L348.59445589119736,382.7551097457358 M336.68099475099007,413.88533698140884 L335.87374284470934,355.1955776135385 M351.2385979269121,413.88534587425386 L336.68099475099007,413.88533698140884 M348.59445589119736,382.7551097457358 L348.10022174862905,402.14335695904623 M348.63864825285316,386.6676270769236 L348.14518784578854,406.0747141068209 M347.7833712090578,420.3049194064688 L350.123230752783,420.30492850871667 M348.0815753733172,408.57658508507114 L347.7833712090578,420.3049194064688 M347.73783351133915,416.3599155213501 L347.7833712090578,420.3049194064688 M348.0365090424765,404.64281837907987 L347.73783351133915,416.3599155213501 M350.07954642573026,416.3599246149142 L347.73783351133915,416.3599155213501 M354.7594232927891,800.6898256629565 L341.1503573840506,800.6898159233347 M341.1503573840506,800.6898159233347 L336.68099475099007,413.88533698140884 M340.5978048461337,823.4514479644275 L341.1503573840506,800.6898159233347" stroke="black"  stroke-width="4"  fill="red"/>
<path d="M451.77738701366405,27.097132804278544 L451.4361126644419,13.389123686890343 M451.4361126644419,13.389123686890343 L447.51913984293014,13.389123686890343 M447.51913984293014,13.389123686890343 L447.4795992717913,11.65363107071937 M447.4795992717913,11.65363107071937 L451.3929058713845,11.65363107071937 M451.3929058713845,11.65363107071937 L451.05723103260345,-1.8294618162098004 M451.05723103260345,-1.8294618162098004 L438.72293061590415,-1.8294679616683425 M439.24907129083243,27.097139144590642 L438.72293061590415,-1.8294679616683425 M451.77738701366405,27.097132804278544 L439.24907129083243,27.097139144590642 M451.2230378953051,38.25652974567987 L451.5611574604154,52.08378916996054 M451.4361126644419,13.389123686890343 L451.2230378953051,38.25652974567987 M451.5611574604154,52.08378916996054 L451.77738701366405,27.097132804278544 M447.51913984293014,13.389123686890343 L447.2783137760039,44.10133216181157 M451.1729570817887,44.10133216181157 L447.2783137760039,44.10133216181157 M451.192759110349,41.790288545554006 L451.1729570817887,44.10133216181157 M451.192759110349,41.790288545554006 L449.2445971802551,41.790282235703955 M449.2445971802551,41.790282235703955 L449.27359134358085,38.256523443521246 M449.27359134358085,38.256523443521246 L451.2230378953051,38.25652974567987 M447.4795992717913,11.65363107071937 L447.2392225297398,42.34714147412262 M447.2783137760039,44.10133216181157 L447.2392225297398,42.34714147412262 M451.1802288656816,36.50587222868046 L451.3929058713845,11.65363107071937 M451.1802288656816,36.50587222868046 L449.23259854950004,36.50586593825909 M449.23259854950004,36.50586593825909 L449.2036583690614,40.03748716275237 M449.2036583690614,40.03748716275237 L451.1500064553902,40.03749346085823 M451.1302412752374,42.34714147412262 L451.1500064553902,40.03749346085823 M447.2392225297398,42.34714147412262 L451.1302412752374,42.34714147412262 M451.53043156540735,55.63435554054928 L451.192759110349,41.790288545554006 M451.3164872076955,80.35694349029137 L451.53043156540735,55.63435554054928 M448.1057299674431,398.9219996306275 L451.3164872076955,80.35694349029137 M447.7976938325808,382.8143342782535 L448.1057299674431,398.9219996306275 M451.05723103260345,-1.8294618162098004 L447.7976938325808,382.8143342782535 M450.98185701050295,28.393537459955667 L451.1802288656816,36.50587222868046 M450.98185701050295,28.393537459955667 L450.9518951483374,31.91522536874936 M451.1500064553902,40.03749346085823 L450.9518951483374,31.91522536874936 M451.1302412752374,42.34714147412262 L451.1729570817887,44.10133216181157 M447.7976938325808,382.8143342782535 L436.34153770079115,382.8143273764388 M438.72293061590415,-1.8294679616683425 L436.34153770079115,382.8143273764388 M451.53043156540735,55.63435554054928 L449.5679576545502,55.63435554054928 M449.5679576545502,55.63435554054928 L449.59737996820564,52.08378916996054 M449.59737996820564,52.08378916996054 L451.5611574604154,52.08378916996054 M438.91234141795604,80.35694994675481 L439.24907129083243,27.097139144590642 M451.3164872076955,80.35694349029137 L438.91234141795604,80.35694994675481 M449.59737996820564,52.08378916996054 L449.27359134358085,38.256523443521246 M449.5679576545502,55.63435554054928 L449.2445971802551,41.790282235703955 M449.0426432017581,28.39354369612954 L450.98185701050295,28.393537459955667 M449.23259854950004,36.50586593825909 L449.0426432017581,28.39354369612954 M449.0139525149272,31.91523161257669 L449.0426432017581,28.39354369612954 M449.2036583690614,40.03748716275237 L449.0139525149272,31.91523161257669 M450.9518951483374,31.91522536874936 L449.0139525149272,31.91523161257669 M448.1057299674431,398.9219996306275 L436.5665867375319,398.92200663279664 M436.5665867375319,398.92200663279664 L438.91234141795604,80.35694994675481 M436.34153770079115,382.8143273764388 L436.5665867375319,398.92200663279664" stroke="black"  stroke-width="4"  fill="red"/>
<path d="M451.77738701366405,27.097132804278544 L451.4361126644419,13.389123686890343 M455.3530854859536,13.389123686890343 L451.4361126644419,13.389123686890343 M455.3062124709777,11.65363107071937 L455.3530854859536,13.389123686890343 M451.3929058713845,11.65363107071937 L455.3062124709777,11.65363107071937 M451.3929058713845,11.65363107071937 L451.05723103260345,-1.8294618162098004 M451.05723103260345,-1.8294618162098004 L463.39153114330816,-1.8294679616683425 M464.3057030521924,27.097139144590642 L463.39153114330816,-1.8294679616683425 M451.77738701366405,27.097132804278544 L464.3057030521924,27.097139144590642 M451.77738701366405,27.097132804278544 L451.5611574604154,52.08378916996054 M451.2230378953051,38.25652974567987 L451.5611574604154,52.08378916996054 M451.4361126644419,13.389123686890343 L451.2230378953051,38.25652974567987 M451.2230378953051,38.25652974567987 L453.1724841388144,38.256523443521246 M453.1724841388144,38.256523443521246 L453.14092073263424,41.790282235703955 M453.14092073263424,41.790282235703955 L451.192759110349,41.790288545554006 M451.192759110349,41.790288545554006 L451.1729570817887,44.10133216181157 M455.06760038757324,44.10133216181157 L451.1729570817887,44.10133216181157 M455.3530854859536,13.389123686890343 L455.06760038757324,44.10133216181157 M455.3062124709777,11.65363107071937 L455.02126002073504,42.34714147412262 M455.02126002073504,42.34714147412262 L455.06760038757324,44.10133216181157 M451.1302412752374,42.34714147412262 L455.02126002073504,42.34714147412262 M451.1302412752374,42.34714147412262 L451.1500064553902,40.03749346085823 M451.1500064553902,40.03749346085823 L453.0963542344833,40.0374871627522 M453.0963542344833,40.0374871627522 L453.1278588742224,36.50586593825909 M453.1278588742224,36.50586593825909 L451.1802288656816,36.50587222868046 M451.1802288656816,36.50587222868046 L451.3929058713845,11.65363107071937 M450.98185701050295,28.393537459955667 L451.1802288656816,36.50587222868046 M450.98185701050295,28.393537459955667 L450.9518951483374,31.91522536874936 M451.1500064553902,40.03749346085823 L450.9518951483374,31.91522536874936 M451.1302412752374,42.34714147412262 L451.1729570817887,44.10133216181157 M451.53043156540735,55.63435554054928 L451.192759110349,41.790288545554006 M451.53043156540735,55.63435554054928 L451.3164872076955,80.35694349029137 M448.1057299674431,398.9219996306275 L451.3164872076955,80.35694349029137 M447.7976938325808,382.8143342782535 L448.1057299674431,398.9219996306275 M451.05723103260345,-1.8294618162098004 L447.7976938325808,382.8143342782535 M447.7976938325808,382.8143342782535 L459.25384970039573,382.8143273764388 M463.39153114330816,-1.8294679616683425 L459.25384970039573,382.8143273764388 M453.49290547626464,55.63435554054928 L451.53043156540735,55.63435554054928 M453.5249349526252,52.08378916996054 L453.49290547626464,55.63435554054928 M451.5611574604154,52.08378916996054 L453.5249349526252,52.08378916996054 M463.72063330690474,80.35694994675481 L464.3057030521924,27.097139144590642 M451.3164872076955,80.35694349029137 L463.72063330690474,80.35694994675481 M453.5249349526252,52.08378916996054 L453.1724841388144,38.256523443521246 M453.49290547626464,55.63435554054928 L453.14092073263424,41.790282235703955 M452.8898380863357,31.91523161257669 L450.9518951483374,31.91522536874936 M453.0963542344833,40.0374871627522 L452.8898380863357,31.91523161257669 M452.9210711242357,28.39354369612937 L452.8898380863357,31.91523161257669 M453.1278588742224,36.50586593825909 L452.9210711242357,28.39354369612937 M450.98185701050295,28.393537459955667 L452.9210711242357,28.39354369612937 M448.1057299674431,398.9219996306275 L459.6448734651672,398.92200663279664 M459.6448734651672,398.92200663279664 L463.72063330690474,80.35694994675481 M459.25384970039573,382.8143273764388 L459.6448734651672,398.92200663279664" stroke="black"  stroke-width="4"  fill="red"/>
<path d="M63.618044612348854,202.46314147221221 L29.80636164519541,202.46314147221221 M29.80636164519541,202.46314147221221 L29.418330642738283,204.57477470698058 M29.418330642738283,204.57477470698058 L25.097478820108904,204.57477470698058 M25.097478820108904,204.57477470698058 L25.489970640190336,202.46314147221221 M25.489970640190336,202.46314147221221 L-8.321712326963166,202.46314147221221 M-8.321712326963166,202.46314147221221 L-9.681889247658603,209.1826729910204 M62.49448163880493,209.1826729910204 L-9.681889247658603,209.1826729910204 M63.618044612348854,202.46314147221221 L62.49448163880493,209.1826729910204 M31.71527746422953,228.89214211136147 L65.35505847137563,228.89214211136147 M29.80636164519541,202.46314147221221 L31.71527746422953,228.89214211136147 M65.35505847137563,228.89214211136147 L63.618044612348854,202.46314147221221 M29.418330642738283,204.57477470698058 L31.780514453775766,237.23225007828063 M32.16368586463608,235.1003707732929 L31.780514453775766,237.23225007828063 M31.986396365034523,232.64579197439485 L32.16368586463608,235.1003707732929 M31.986396365034523,232.64579197439485 L31.79471147657597,233.71043072972458 M31.79471147657597,233.71043072972458 L31.523313972849053,229.95562575044767 M31.523313972849053,229.95562575044767 L31.71527746422953,228.89214211136147 M25.097478820108904,204.57477470698058 L27.486818376716712,237.23225007828063 M31.780514453775766,237.23225007828063 L27.486818376716712,237.23225007828063 M27.420831420516095,228.89214211136147 L25.489970640190336,202.46314147221221 M27.420831420516095,228.89214211136147 L27.22666128794708,229.95562575044767 M27.22666128794708,229.95562575044767 L27.501178786494165,233.71043072972458 M27.501178786494165,233.71043072972458 L27.695067113441667,232.64579197439485 M27.874394739170782,235.1003707732929 L27.695067113441667,232.64579197439485 M27.486818376716712,237.23225007828063 L27.874394739170782,235.1003707732929 M65.60176253419843,232.64579197439485 L31.986396365034523,232.64579197439485 M67.31871479554599,258.76955153839157 L65.60176253419843,232.64579197439485 M57.28563840660411,610.4499767583591 L67.31871479554599,258.76955153839157 M24.13882326042227,610.4499767583591 L57.28563840660411,610.4499767583591 M-8.321712326963166,202.46314147221221 L24.13882326042227,610.4499767583591 M7.41588493972165,228.89214211136147 L27.420831420516095,228.89214211136147 M7.41588493972165,228.89214211136147 L7.704639678626393,232.64579197439485 M27.695067113441667,232.64579197439485 L7.704639678626393,232.64579197439485 M27.874394739170782,235.1003707732929 L32.16368586463608,235.1003707732929 M24.13882326042227,610.4499767583591 L22.984068415120873,617.8766302099385 M-9.681889247658603,209.1826729910204 L22.984068415120873,617.8766302099385 M65.60176253419843,232.64579197439485 L65.42735458711411,233.71042306778807 M65.42735458711411,233.71042306778807 L65.18039702219517,229.9556180968214 M65.18039702219517,229.9556180968214 L65.35505847137563,228.89214211136147 M66.21939921471136,265.5992216610073 L62.49448163880493,209.1826729910204 M67.31871479554599,258.76955153839157 L66.21939921471136,265.5992216610073 M65.18039702219517,229.9556180968214 L31.523313972849053,229.95562575044767 M65.42735458711411,233.71042306778807 L31.79471147657597,233.71043072972458 M7.211466450545458,229.95562575044767 L7.41588493972165,228.89214211136147 M27.22666128794708,229.95562575044767 L7.211466450545458,229.95562575044767 M7.500517891861193,233.71043072972458 L7.211466450545458,229.95562575044767 M27.501178786494165,233.71043072972458 L7.500517891861193,233.71043072972458 M7.704639678626393,232.64579197439485 L7.500517891861193,233.71043072972458 M57.28563840660411,610.4499767583591 L56.23133844009885,617.8766302099385 M56.23133844009885,617.8766302099385 L66.21939921471136,265.5992216610073 M22.984068415120873,617.8766302099385 L56.23133844009885,617.8766302099385" stroke="black"  stroke-width="4"  fill="red"/>
<path d="M63.618044612348854,202.46314147221221 L29.80636164519541,202.46314147221221 M30.19359227289192,200.35586381195736 L29.80636164519541,202.46314147221221 M25.881652884375626,200.35586381195745 L30.19359227289192,200.35586381195736 M25.489970640190336,202.46314147221221 L25.881652884375626,200.35586381195745 M25.489970640190336,202.46314147221221 L-8.321712326963166,202.46314147221221 M-8.321712326963166,202.46314147221221 L-6.970454116238216,195.78751718724328 M64.73429686855485,195.78751718724328 L-6.970454116238216,195.78751718724328 M63.618044612348854,202.46314147221221 L64.73429686855485,195.78751718724328 M63.618044612348854,202.46314147221221 L65.35505847137563,228.89214211136147 M31.71527746422953,228.89214211136147 L65.35505847137563,228.89214211136147 M29.80636164519541,202.46314147221221 L31.71527746422953,228.89214211136147 M31.71527746422953,228.89214211136147 L31.907013008284707,227.82975026273556 M31.907013008284707,227.82975026273556 L32.177853757331945,231.58224540254193 M32.177853757331945,231.58224540254193 L31.986396365034523,232.64579197439485 M31.986396365034523,232.64579197439485 L32.16368586463608,235.1003707732929 M32.5460718814324,232.97286122372935 L32.16368586463608,235.1003707732929 M30.19359227289192,200.35586381195736 L32.5460718814324,232.97286122372935 M25.881652884375626,200.35586381195745 L28.261176678644063,232.97286122372944 M28.261176678644063,232.97286122372944 L32.5460718814324,232.97286122372935 M27.874394739170782,235.1003707732929 L28.261176678644063,232.97286122372944 M27.874394739170782,235.1003707732929 L27.695067113441667,232.64579197439485 M27.695067113441667,232.64579197439485 L27.88872568378116,231.58224540254193 M27.88872568378116,231.58224540254193 L27.614771340384095,227.82975026273556 M27.614771340384095,227.82975026273556 L27.420831420516095,228.89214211136147 M27.420831420516095,228.89214211136147 L25.489970640190336,202.46314147221221 M7.41588493972165,228.89214211136147 L27.420831420516095,228.89214211136147 M7.41588493972165,228.89214211136147 L7.704639678626393,232.64579197439485 M27.695067113441667,232.64579197439485 L7.704639678626393,232.64579197439485 M27.874394739170782,235.1003707732929 L32.16368586463608,235.1003707732929 M65.60176253419843,232.64579197439485 L31.986396365034523,232.64579197439485 M65.60176253419843,232.64579197439485 L67.31871479554599,258.76955153839157 M57.28563840660411,610.4499767583591 L67.31871479554599,258.76955153839157 M24.13882326042227,610.4499767583591 L57.28563840660411,610.4499767583591 M-8.321712326963166,202.46314147221221 L24.13882326042227,610.4499767583591 M24.13882326042227,610.4499767583591 L25.286594514334297,603.0680538980507 M-6.970454116238216,195.78751718724328 L25.286594514334297,603.0680538980507 M65.77599156227609,231.58225304876638 L65.60176253419843,232.64579197439485 M65.52954061141969,227.82975790065535 L65.77599156227609,231.58225304876638 M65.35505847137563,228.89214211136147 L65.52954061141969,227.82975790065535 M68.41095531803694,251.98402650802694 L64.73429686855485,195.78751718724328 M67.31871479554599,258.76955153839157 L68.41095531803694,251.98402650802694 M65.52954061141969,227.82975790065535 L31.907013008284707,227.82975026273556 M65.77599156227609,231.58225304876638 L32.177853757331945,231.58224540254193 M7.908582914422993,231.58224540254193 L7.704639678626393,232.64579197439485 M27.88872568378116,231.58224540254193 L7.908582914422993,231.58224540254193 M7.620124443714587,227.82975026273556 L7.908582914422993,231.58224540254193 M27.614771340384095,227.82975026273556 L7.620124443714587,227.82975026273556 M7.41588493972165,228.89214211136147 L7.620124443714587,227.82975026273556 M57.28563840660411,610.4499767583591 L58.333616869744105,603.0680538980507 M58.333616869744105,603.0680538980507 L68.41095531803694,251.98402650802694 M25.286594514334297,603.0680538980507 L58.333616869744105,603.0680538980507" stroke="black"  stroke-width="4"  fill="red"/></svg>