<svg viewBox="0 0 800 800" xmlns="http://www.w3.org/2000/svg"><path d="M-92.0593805474706,289.3145674480452 L-90.93600387317207,317.66685866863475 M259.8687237201869,141.15826535009842 L260.1675075998939,168.84498936732416 M-92.0593805474706,289.3145674480452 L259.8687237201869,141.15826535009842 M-90.93600387317207,317.66685866863475 L260.1675075998939,168.84498936732416 M303.0787938678822,140.57879766733754 L303.281150457979,168.26287094574968 M259.8687237201869,141.15826535009842 L263.16755519651457,139.94576306848307 M263.16755519651457,139.94576306848307 L266.81559691125443,138.9353154589885 M266.81559691125443,138.9353154589885 L270.74469153880403,138.14558293463347 M270.74469153880403,138.14558293463347 L274.8816325662936,137.59109151624443 M274.8816325662936,137.59109151624443 L279.1494831303837,137.28208307215482 M279.1494831303837,137.28208307215482 L283.468851688849,137.2241995705474 M283.468851688849,137.2241995705474 L287.75958942497044,137.41855158131898 M287.75958942497044,137.41855158131898 L291.9418786213298,137.86151707123372 M291.9418786213298,137.86151707123372 L295.9380079378961,138.54498877018614 M295.9380079378961,138.54498877018614 L299.67354936821374,139.45635217519884 M299.67354936821374,139.45635217519884 L303.0787938678822,140.57879766733754 M260.1675075998939,168.84498936732416 L263.45889277796897,167.6269401458144 M263.45889277796897,167.6269401458144 L267.09872805173194,166.6118687134948 M267.09872805173194,166.6118687134948 L271.01900866329277,165.81852157686262 M271.01900866329277,165.81852157686262 L275.1466911600864,165.2614918351827 M275.1466911600864,165.2614918351827 L279.40500938784766,164.9510686802672 M279.40500938784766,164.9510686802672 L283.7147474339256,164.89292016312095 M283.7147474339256,164.89292016312095 L287.99593340841085,165.0881619862546 M287.99593340841085,165.0881619862546 L292.16892554366837,165.53315537326375 M292.16892554366837,165.53315537326375 L296.15618369043835,166.21975558228723 M296.15618369043835,166.21975558228723 L299.883443793914,167.13528984200832 M299.883443793914,167.13528984200832 L303.281150457979,168.26287094574968 M304.51145546525083,141.15826535009842 L304.71064471838883,168.84498936732416 M303.0787938678822,140.57879766733754 L304.51145546525083,141.15826535009842 M303.281150457979,168.26287094574968 L304.71064471838883,168.84498936732416 M891.769335652813,394.24322030544397 L890.5892996443633,423.052228264159 M304.51145546525083,141.15826535009842 L891.769335652813,394.24322030544397 M304.71064471838883,168.84498936732416 L890.5892996443633,423.052228264159 M894.7208015380022,395.67639790040005 L893.5333779499008,424.4915598412938 M891.769335652813,394.24322030544397 L894.7208015380022,395.67639790040005 M890.5892996443633,423.052228264159 L893.5333779499008,424.4915598412938 M894.2654379921485,415.86010066854703 L893.0735565571074,444.7616894977954 M894.7208015380022,395.67639790040005 L897.3790747997189,397.3327489862111 M897.3790747997189,397.3327489862111 L899.5551904897329,399.122810053565 M899.5551904897329,399.122810053565 L901.2112171344711,401.01602176873473 M901.2112171344711,401.01602176873473 L902.3180152173818,402.97998014982795 M902.3180152173818,402.97998014982795 L902.8557716539844,404.98098479446355 M902.8557716539844,404.98098479446355 L902.8144360993608,406.98459452941927 M902.8144360993608,406.98459452941927 L902.1939135624007,408.95622435905807 M902.1939135624007,408.95622435905807 L901.0041898452157,410.86178426511276 M901.0041898452157,410.86178426511276 L899.2650023381855,412.6681943579707 M899.2650023381855,412.6681943579707 L897.0059369529713,414.3440481976502 M897.0059369529713,414.3440481976502 L894.2654379921485,415.86010066854703 M893.5333779499008,424.4915598412938 L896.1848926210957,426.15502037945816 M896.1848926210957,426.15502037945816 L898.3553516378811,427.9527614097126 M898.3553516378811,427.9527614097126 L900.0069229949233,429.85409179060355 M900.0069229949233,429.85409179060355 L901.1105467385512,431.82646804022806 M901.1105467385512,431.82646804022806 L901.6464679014227,433.8360449619429 M901.6464679014227,433.8360449619429 L901.6046714750864,435.84823370641675 M901.6046714750864,435.84823370641675 L900.985074241029,437.82830128967385 M900.985074241029,437.82830128967385 L899.7976495705393,439.74201212058585 M899.7976495705393,439.74201212058585 L898.062098703137,441.5561453303849 M898.062098703137,441.5561453303849 L895.8079471265598,443.23916088710837 M895.8079471265598,443.23916088710837 L893.0735565571074,444.7616894977954 M542.3735105444198,585.1641831998825 L542.0058830760204,614.77303278882 M894.2654379921485,415.86010066854703 L542.3735105444198,585.1641831998825 M893.0735565571074,444.7616894977954 L542.0058830760204,614.77303278882 M494.46765104109295,585.8775563441857 L494.2185191023336,615.489319103889 M542.3735105444198,585.1641831998825 L538.8052298948605,586.657366147442 M538.8052298948605,586.657366147442 L534.8297275412779,587.9031600286191 M534.8297275412779,587.9031600286191 L530.5220186995089,588.8777436403831 M530.5220186995089,588.8777436403831 L525.9635439727701,589.5625025828274 M525.9635439727701,589.5625025828274 L521.2406061063834,589.9442784244178 M521.2406061063834,589.9442784244178 L516.4428321257351,590.0158063859524 M516.4428321257351,590.0158063859524 L511.6611172034516,589.7756582424514 M511.6611172034516,589.7756582424514 L506.98625280126936,589.2284961567161 M506.98625280126936,589.2284961567161 L502.50676570082675,588.3847495875945 M502.50676570082675,588.3847495875945 L498.3074552011622,587.2606036366686 M498.3074552011622,587.2606036366686 L494.46765104109295,585.8775563441857 M542.0058830760204,614.77303278882 L538.4463128599,616.272312740033 M538.4463128599,616.272312740033 L534.4805541694218,617.5231915969588 M534.4805541694218,617.5231915969588 L530.1834374563873,618.5017519876325 M530.1834374563873,618.5017519876325 L525.6362015756633,619.189304455424 M525.6362015756633,619.189304455424 L520.9249345335334,619.5726375555034 M520.9249345335334,619.5726375555034 L516.1390395886433,619.6444572607377 M516.1390395886433,619.6444572607377 L511.3691844328807,619.4033295939257 M511.3691844328807,619.4033295939257 L506.70593294469774,618.8539354897327 M506.70593294469774,618.8539354897327 L502.2375898204929,618.006746408403 M502.2375898204929,618.006746408403 L498.0487416008484,616.8780126866872 M498.0487416008484,616.8780126866872 L494.2185191023336,615.489319103889 M492.84798001473945,585.1641831998825 L492.6028950358066,614.77303278882 M494.46765104109295,585.8775563441857 L492.84798001473945,585.1641831998825 M494.2185191023336,615.489319103889 L492.6028950358066,614.77303278882 M-94.43520597291246,309.889819181941 L-93.30082869336587,338.3326249567241 M492.84798001473945,585.1641831998825 L-94.43520597291246,309.889819181941 M492.6028950358066,614.77303278882 L-93.30082869336587,338.3326249567241 M-97.00591890470486,308.51306500775036 L-95.86593918037386,336.9498287601034 M-94.43520597291246,309.889819181941 L-97.00591890470486,308.51306500775036 M-93.30082869336587,338.3326249567241 L-95.86593918037386,336.9498287601034 M-97.00591890470486,308.51306500775036 L-99.23570956189133,306.9241778581031 M-99.23570956189133,306.9241778581031 L-100.96010338241439,305.2097384191932 M-100.96010338241439,305.2097384191932 L-102.14989073830628,303.3995634464525 M-102.14989073830628,303.3995634464525 L-102.78519691754047,301.52505768157107 M-102.78519691754047,301.52505768157107 L-102.8557716539845,299.6186534426845 M-102.8557716539845,299.6186534426845 L-102.36116440723652,297.71325733219646 M-102.36116440723652,297.71325733219646 L-101.31064457751961,295.841673393801 M-101.31064457751961,295.841673393801 L-99.72304837652052,294.036003110621 M-99.72304837652052,294.036003110621 L-97.62622181663937,292.32717856359125 M-97.62622181663937,292.32717856359125 L-95.05686425201793,290.74436935320523 M-95.05686425201793,290.74436935320523 L-92.0593805474706,289.3145674480452 M-95.86593918037386,336.9498287601034 L-98.09098021013142,335.35396602070557 M-98.09098021013142,335.35396602070557 L-99.81183534026167,333.6319966621212 M-99.81183534026167,333.6319966621212 L-100.99935352930811,331.81386777219734 M-100.99935352930811,331.81386777219734 L-101.63369619753234,329.9311216082132 M-101.63369619753234,329.9311216082132 L-101.70462636382854,328.0163327650521 M-101.70462636382854,328.0163327650521 L-101.21168381360559,326.1025524755124 M-101.21168381360559,326.1025524755124 L-100.16410580713625,324.2227292378012 M-100.16410580713625,324.2227292378012 L-98.58067461687995,322.4091061631044 M-98.58067461687995,322.4091061631044 L-96.48916206861605,320.69275205168685 M-96.48916206861605,320.69275205168685 L-93.92617371844358,319.1029656605381 M-93.92617371844358,319.1029656605381 L-90.93600387317207,317.66685866863475" stroke="black"  stroke-width="4"  fill="red"/>
<path d="M289.44191815327576,239.93813741315444 L290.4272057392628,356.18081463623105 M311.21203165585086,230.52136545210692 L311.9900234139557,346.5919910021903 M289.44191815327576,239.93813741315444 L311.21203165585086,230.52136545210692 M290.4272057392628,356.18081463623105 L311.9900234139557,346.5919910021903 M740.1397855015139,419.30719827154314 L736.730056132468,538.7488260730961 M311.21203165585086,230.52136545210692 L740.1397855015139,419.30719827154314 M311.9900234139557,346.5919910021903 L736.730056132468,538.7488260730961 M718.3946671241406,429.6015181111861 L715.1915081701161,549.2222292231644 M740.1397855015139,419.30719827154314 L718.3946671241406,429.6015181111861 M736.730056132468,538.7488260730961 L715.1915081701161,549.2222292231644 M718.3946671241406,429.6015181111861 L289.44191815327576,239.93813741315444 M715.1915081701161,549.2222292231644 L290.4272057392628,356.18081463623105" stroke="black"  stroke-width="4"  fill="red"/>
<path d="M53.63159327416133,341.9390780689946 L56.92134989158694,460.0191210680921 M76.48156546745469,332.05520780644133 L79.54328791044804,449.9593145439362 M53.63159327416133,341.9390780689946 L76.48156546745469,332.05520780644133 M56.92134989158694,460.0191210680921 L79.54328791044804,449.9593145439362 M505.4416801216472,530.4152327558518 L504.31467255562484,651.7638730824316 M76.48156546745469,332.05520780644133 L505.4416801216472,530.4152327558518 M79.54328791044804,449.9593145439362 L504.31467255562484,651.7638730824316 M482.56690527340277,541.2443413613344 L481.6686498709928,662.7758004294525 M505.4416801216472,530.4152327558518 L482.56690527340277,541.2443413613344 M504.31467255562484,651.7638730824316 L481.6686498709928,662.7758004294525 M482.56690527340277,541.2443413613344 L53.63159327416133,341.9390780689946 M481.6686498709928,662.7758004294525 L56.92134989158694,460.0191210680921" stroke="black"  stroke-width="4"  fill="red"/>
<path d="M524.5703212423123,530.4152327558518 L523.2502179766304,651.7638730824316 M719.0341060895328,438.16668307034683 L715.8183771382537,557.9360235655569 M524.5703212423123,530.4152327558518 L719.0341060895328,438.16668307034683 M523.2502179766304,651.7638730824316 L715.8183771382537,557.9360235655569 M742.4747740882033,448.5508215185379 L739.0191433921793,568.499901309403 M719.0341060895328,438.16668307034683 L742.4747740882033,448.5508215185379 M715.8183771382537,557.9360235655569 L739.0191433921793,568.499901309403 M548.035189651773,541.2443413613344 L546.4744666455185,662.7758004294525 M742.4747740882033,448.5508215185379 L548.035189651773,541.2443413613344 M739.0191433921793,568.499901309403 L546.4744666455185,662.7758004294525 M548.035189651773,541.2443413613344 L524.5703212423123,530.4152327558518 M546.4744666455185,662.7758004294525 L523.2502179766304,651.7638730824316" stroke="black"  stroke-width="4"  fill="red"/>
<path d="M55.854325388274844,314.1013657586783 L59.101435346337496,431.68473315399865 M250.30528703034958,230.52136545210692 L251.65705138633626,346.5919910021903 M55.854325388274844,314.1013657586783 L250.30528703034958,230.52136545210692 M59.101435346337496,431.68473315399865 L251.65705138633626,346.5919910021903 M271.5622672082814,239.93813741315444 L272.7163689189627,356.18081463623105 M250.30528703034958,230.52136545210692 L271.5622672082814,239.93813741315444 M251.65705138633626,346.5919910021903 L272.7163689189627,356.18081463623105 M77.09026318725068,323.90181606385306 L80.14030690654386,441.6604498450906 M271.5622672082814,239.93813741315444 L77.09026318725068,323.90181606385306 M272.7163689189627,356.18081463623105 L80.14030690654386,441.6604498450906 M77.09026318725068,323.90181606385306 L55.854325388274844,314.1013657586783 M80.14030690654386,441.6604498450906 L59.101435346337496,431.68473315399865" stroke="black"  stroke-width="4"  fill="red"/></svg>