<svg viewBox="0 0 800 800" xmlns="http://www.w3.org/2000/svg"><path d="M503.25443433122234,116.70640372787972 L500.86826123218066,59.45788692125922 M503.25443433122234,116.70640372787972 L502.19170199115194,187.05904619879806 M499.8522238760907,128.8118303422998 L502.19170199115194,187.05904619879806 M500.86826123218066,59.45788692125922 L499.8522238760907,128.8118303422998 M501.29795903059414,88.19830921634434 L501.4274271366186,91.3272268460297 M501.20660318815504,94.38363055323634 L501.29795903059414,88.19830921634434 M501.4274271366186,91.3272268460297 L501.33584581156936,97.51744585409415 M501.33584581156936,97.51744585409415 L501.20660318815504,94.38363055323634 M500.75893911120096,124.69308962029476 L500.88707966380724,127.85071234223687 M500.6685198250007,130.81500065815175 L500.75893911120096,124.69308962029476 M500.88707966380724,127.85071234223687 L500.7964383546299,133.97739324235334 M500.7964383546299,133.97739324235334 L500.6685198250007,130.81500065815175 M502.0540268136622,132.77751689409604 L502.0641714584468,133.1121936434398 M502.0641714584468,133.1121936434398 L502.07182370644875,133.55484228107747 M502.07182370644875,133.55484228107747 L502.07653613638047,134.07964327002503 M502.07653613638047,134.07964327002503 L502.0780347059543,134.65611540285477 M502.0780347059543,134.65611540285477 L502.0762329267577,135.2507319859019 M502.0762329267577,135.2507319859019 L502.07122154315795,135.82878005674638 M502.07122154315795,135.82878005674638 L502.0633139287008,136.35669159045636 M502.0633139287008,136.35669159045636 L502.05297014760316,136.80380633104846 M502.05297014760316,136.80380633104846 L502.0407717974473,137.14403640463559 M502.0407717974473,137.14403640463559 L502.0274436815655,137.35769809589908 M502.0274436815655,137.35769809589908 L502.01375999925614,137.43239646305364 M502.01375999925614,137.43239646305364 L502.0005137727178,137.36389385096078 M502.0005137727178,137.36389385096078 L501.98847812319025,137.15614522727014 M501.98847812319025,137.15614522727014 L501.9783439297208,136.82131712162777 M501.9783439297208,136.82131712162777 L501.97070521011415,136.3788236600542 M501.97070521011415,136.3788236600542 L501.96600221118837,135.85444567410673 M501.96600221118837,135.85444567410673 L501.9645068149467,135.27856753522053 M501.9645068149467,135.27856753522053 L501.96630935015537,134.68463575090942 M501.96630935015537,134.68463575090942 L501.9713008659813,134.10704905677773 M501.9713008659813,134.10704905677773 L501.97919471751476,133.579428993048 M501.97919471751476,133.579428993048 L501.9895339906179,133.132369067862 M501.9895339906179,133.132369067862 L502.00171594729017,132.79178536617417 M502.00171594729017,132.79178536617417 L502.01503757309246,132.5775999442215 M502.01503757309246,132.5775999442215 L502.0287215862119,132.50227184607286 M502.0287215862119,132.50227184607286 L502.04197488852606,132.5701829394959 M502.04197488852606,132.5701829394959 L502.0540268136622,132.77751689409604 M522.0774417952925,116.70640311388183 L519.6787671967613,67.77503644983159 M503.25443433122234,116.70640372787972 L522.0774417952925,116.70640311388183 M519.6787671967613,67.77503644983159 L500.86826123218066,59.45788692125922 M520.8275571117679,187.05904557422764 L502.19170199115194,187.05904619879806 M521.068001862587,173.52505815216477 L520.8275571117679,187.05904557422764 M514.2169508274089,173.52505690703953 L521.068001862587,173.52505815216477 M514.320809289285,167.3392929917338 L514.2169508274089,173.52505690703953 M521.1778981124728,167.33929423501553 L514.320809289285,167.3392929917338 M521.7220387461864,136.71108352373483 L521.1778981124728,167.33929423501553 M514.8350544006547,136.71108228965818 L521.7220387461864,136.71108352373483 M514.940006572979,130.46017746525308 L514.8350544006547,136.71108228965818 M521.8330922891284,130.46017869743525 L514.940006572979,130.46017746525308 M522.0774417952925,116.70640311388183 L521.8330922891284,130.46017869743525 M518.4758979787205,137.27567811152926 L520.8275571117679,187.05904557422764 M518.4758979787205,137.27567811152926 L499.8522238760907,128.8118303422998 M519.6787671967613,67.77503644983159 L518.4758979787205,137.27567811152926 M504.86111990202704,91.3272268460297 L504.7274202970823,88.19830921634434 M504.7274202970823,88.19830921634434 L501.29795903059414,88.19830921634434 M504.86111990202704,91.3272268460297 L501.4274271366186,91.3272268460297 M504.7274202970823,88.19830921634434 L504.6330786061549,94.38363055323634 M504.6330786061549,94.38363055323634 L501.20660318815504,94.38363055323634 M504.76654535887997,97.51744585409415 L504.86111990202704,91.3272268460297 M504.76654535887997,97.51744585409415 L501.33584581156936,97.51744585409415 M504.6330786061549,94.38363055323634 L504.76654535887997,97.51744585409415 M504.30311186540564,127.85071234223687 L504.170783203259,124.69308962029476 M504.170783203259,124.69308962029476 L500.75893911120096,124.69308962029476 M504.30311186540564,127.85071234223687 L500.88707966380724,127.85071234223687 M504.170783203259,124.69308962029476 L504.07740867870956,130.81500065815175 M504.07740867870956,130.81500065815175 L500.6685198250007,130.81500065815175 M504.2095080613428,133.97739324235334 L504.30311186540564,127.85071234223687 M504.2095080613428,133.97739324235334 L500.7964383546299,133.97739324235334 M504.07740867870956,130.81500065815175 L504.2095080613428,133.97739324235334 M520.6656384170019,132.77751567228188 L520.6775674707555,133.1121936434398 M520.6775674707555,133.1121936434398 L520.6865673168936,133.55484228107747 M520.6865673168936,133.55484228107747 L520.6921096286839,134.0796432700252 M520.6921096286839,134.0796432700252 L520.6938785496848,134.65611723732673 M520.6938785496848,134.65611723732673 L520.6917520939882,135.2507319859019 M520.6917520939882,135.2507319859019 L520.6858718729111,135.82878433884912 M520.6858718729111,135.82878433884912 L520.6765716880711,136.35669587311344 M520.6765716880711,136.35669587311344 L520.6643926263491,136.80380633104846 M520.6643926263491,136.80380633104846 L520.6500534592321,137.1440382402277 M520.6500534592321,137.1440382402277 L520.6343717535169,137.35769809589908 M520.6343717535169,137.35769809589908 L520.6182783081192,137.43239646305364 M520.6182783081192,137.43239646305364 L520.6026993565841,137.36389385096078 M520.6026993565841,137.36389385096078 L520.5885462816705,137.15614400414188 M520.5885462816705,137.15614400414188 L520.5766317361433,136.82131895590646 M520.5766317361433,136.82131895590646 L520.5676478003446,136.3788254938861 M520.5676478003446,136.3788254938861 L520.5621165801157,135.8544475074849 M520.5621165801157,135.8544475074849 L520.5603513982112,135.27856753522053 M520.5603513982112,135.27856753522053 L520.5624724239843,134.68463514005828 M520.5624724239843,134.68463514005828 L520.568341914717,134.10704905677773 M520.568341914717,134.10704905677773 L520.5776259119453,133.579428993048 M520.5776259119453,133.579428993048 L520.589787036952,133.13236845724373 M520.589787036952,133.13236845724373 L520.6041132399528,132.79178536617417 M520.6041132399528,132.79178536617417 L520.6197873110631,132.57760177612465 M520.6197873110631,132.57760177612465 L520.635881146374,132.50227367815984 M520.635881146374,132.50227367815984 L520.6514684205828,132.5701847718609 M520.6514684205828,132.5701847718609 L520.6656384170019,132.77751567228188 M520.6656384170019,132.77751567228188 L502.0540268136622,132.77751689409604 M521.1456904444575,175.15808545910693 L521.068001862587,173.52505815216477 M521.2557237303248,168.96990442516508 L521.1456904444575,175.15808545910693 M521.1778981124728,167.33929423501553 L521.2557237303248,168.96990442516508 M521.8005446647061,138.3296254726912 L521.7220387461864,136.71108352373483 M521.9117374140443,132.07623717165853 L521.8005446647061,138.3296254726912 M521.8330922891284,130.46017869743525 L521.9117374140443,132.07623717165853 M521.1456904444575,175.15808545910693 L514.2903714600344,175.15808405659504 M514.2903714600344,175.15808405659504 L514.2169508274089,173.52505690703953 M514.2903714600344,175.15808405659504 L514.3943594293047,168.96990302472852 M514.3943594293047,168.96990302472852 L514.320809289285,167.3392929917338 M514.3943594293047,168.96990302472852 L521.2557237303248,168.96990442516508 M521.8005446647061,138.3296254726912 L514.9092474664606,138.32962408261557 M514.9092474664606,138.32962408261557 L514.8350544006547,136.71108228965818 M514.9092474664606,138.32962408261557 L515.014331197352,132.0762357837151 M515.014331197352,132.0762357837151 L514.940006572979,130.46017746525308 M515.014331197352,132.0762357837151 L521.9117374140443,132.07623717165853" stroke="black"  stroke-width="4"  fill="red"/>
<path d="M522.8554082389464,132.57655386336666 L522.5040208175367,125.40838247622514 M503.61713904971424,125.40838309439732 L522.5040208175367,125.40838247622514 M504.28312761118593,141.38675959709315 L503.61713904971424,125.40838309439732 M504.28312761118593,141.38675959709315 L522.8554082389464,132.57655386336666 M521.5900832483003,203.20147333568835 L522.8554082389464,132.57655386336666 M521.2456814522133,195.9105668623082 L521.5900832483003,203.20147333568835 M522.5040208175367,125.40838247622514 L521.2456814522133,195.9105668623082 M503.61713904971424,125.40838309439732 L503.40796633123074,139.1917678945449 M503.40796633123074,139.1917678945449 L506.90639034806276,139.1917678945449 M506.90639034806276,139.1917678945449 L506.808218005171,145.45606960997407 M506.808218005171,145.45606960997407 L503.3129010741683,145.45606960997407 M503.3129010741683,145.45606960997407 L502.84710815151294,176.1493796013085 M502.84710815151294,176.1493796013085 L506.32720123908325,176.1493796013085 M506.32720123908325,176.1493796013085 L506.2300553871091,182.34818172055012 M506.2300553871091,182.34818172055012 L502.75303689765013,182.34818172055012 M502.75303689765013,182.34818172055012 L502.54721799743965,195.9105674910822 M521.2456814522133,195.9105668623082 L502.54721799743965,195.9105674910822 M503.1999443640836,212.16197434133232 L504.28312761118593,141.38675959709315 M502.54721799743965,195.9105674910822 L503.1999443640836,212.16197434133232 M502.7545619534021,182.38594961864672 L502.75303689765013,182.34818172055012 M502.8486359079248,176.18709180096812 L502.7545619534021,182.38594961864672 M502.84710815151294,176.1493796013085 L502.8486359079248,176.18709180096812 M503.3144422380746,145.49350369971603 L503.3129010741683,145.45606960997407 M503.40951023871554,139.22914474962772 L503.3144422380746,145.49350369971603 M503.40796633123074,139.1917678945449 L503.40951023871554,139.22914474962772 M503.1999443640836,212.16197434133232 L521.5900832483003,203.20147333568835 M506.9079848034177,139.2291447496279 L506.90639034806276,139.1917678945449 M506.9079848034177,139.2291447496279 L503.40951023871554,139.22914474962772 M506.8098096271996,145.49350369971603 L506.9079848034177,139.2291447496279 M506.808218005171,145.45606960997407 L506.8098096271996,145.49350369971603 M506.8098096271996,145.49350369971603 L503.3144422380746,145.49350369971603 M506.32877901503105,176.18709180096812 L506.32720123908325,176.1493796013085 M506.32877901503105,176.18709180096812 L502.8486359079248,176.18709180096812 M506.23163037405266,182.38594961864672 L506.32877901503105,176.18709180096812 M506.2300553871091,182.34818172055012 L506.23163037405266,182.38594961864672 M506.23163037405266,182.38594961864672 L502.7545619534021,182.38594961864672" stroke="black"  stroke-width="4"  fill="red"/>
<path d="M556.3103508864275,116.7064012718879 L554.7200971540551,187.05904370051633 M376.1643238395185,116.7064012718879 L556.3103508864275,116.7064012718879 M554.7200971540551,187.05904370051633 L376.3652159275771,187.05904370051633 M376.3652159275771,187.05904370051633 L376.1643238395185,116.7064012718879 M521.9132376759037,130.46017746525308 L514.940006572979,130.46017746525308 M521.8021131928401,136.71108228965818 L521.9132376759037,130.46017746525308 M514.940006572979,130.46017746525308 L514.8350544006547,136.71108228965818 M514.8350544006547,136.71108228965818 L521.8021131928401,136.71108228965818 M521.2576249664088,167.3392929917338 L514.320809289285,167.3392929917338 M521.1476585156705,173.52505690703953 L521.2576249664088,167.3392929917338 M514.320809289285,167.3392929917338 L514.2169508274089,173.52505690703953 M514.2169508274089,173.52505690703953 L521.1476585156705,173.52505690703953 M410.27749709660384,136.71108167261968 L417.2445558871259,136.71108167261968 M410.2898188271446,130.46017684916194 L410.27749709660384,136.71108167261968 M417.2445558871259,136.71108167261968 L417.26304992840306,130.46017684916194 M417.26304992840306,130.46017684916194 L410.2898188271446,130.46017684916194 M465.90997926676977,149.85932010158334 L465.32095997561026,149.9232302360362 M465.32095997561026,149.9232302360362 L464.7649430644192,150.11130372391776 M464.7649430644192,150.11130372391776 L464.2742647967243,150.41251186329492 M464.2742647967243,150.41251186329492 L463.87744733623674,150.8093749781637 M463.87744733623674,150.8093749781637 L463.5975585350162,151.27883163673067 M463.5975585350162,151.27883163673067 L463.45083617482777,151.7934748948012 M463.45083617482777,151.7934748948012 L463.4457867598792,152.32344670578476 M463.4457867598792,152.32344670578476 L463.58267191018047,152.8379921784723 M463.58267191018047,152.8379921784723 L463.85350152853,153.30712350328253 M463.85350152853,153.30712350328253 L464.2425290083804,153.70366167492767 M464.2425290083804,153.70366167492767 L464.7271316214244,154.00456260295906 M464.7271316214244,154.00456260295906 L465.27916154952123,154.19241817073748 M465.27916154952123,154.19241817073748 L465.86656279324774,154.25625092401245 M465.86656279324774,154.25625092401245 L466.45521795052935,154.19241755106464 M466.45521795052935,154.19241755106464 L467.0109577507758,154.00456198331426 M467.0109577507758,154.00456198331426 L467.5015027162545,153.70366105532798 M467.5015027162545,153.70366105532798 L467.89836123275677,153.30712412282287 M467.89836123275677,153.30712412282287 L468.1784608904835,152.83799403688084 M468.1784608904835,152.83799403688084 L468.3254968050609,152.32344484760785 M468.3254968050609,152.32344484760785 L468.3309135566368,151.7934730368634 M468.3309135566368,151.7934730368634 L468.1943654035997,151.27883349443647 M468.1943654035997,151.27883349443647 L467.9237422995767,150.80937559732848 M467.9237422995767,150.80937559732848 L467.53476231561586,150.41251124418983 M467.53476231561586,150.41251124418983 L467.0500324675622,150.11130310485794 M467.0500324675622,150.11130310485794 L466.4977297323874,149.92322961700464 M466.4977297323874,149.92322961700464 L465.90997926676977,149.85932010158334 M410.2049297022644,173.52505628447693 L417.13563738887984,173.52505628447693 M410.21712302759795,167.33929237009312 L410.2049297022644,173.52505628447693 M417.15393870307264,167.33929237009312 L410.21712302759795,167.33929237009312 M417.13563738887984,173.52505628447693 L417.15393870307264,167.33929237009312 M537.9662159835196,125.40838062170877 L556.3103508864275,116.7064012718879 M536.5536234836702,195.91056497598598 L554.7200971540551,187.05904370051633 M537.9662159835196,125.40838062170877 L536.5536234836702,195.91056497598598 M376.1643238395185,116.7064012718879 L394.9826406621665,125.40838000353676 M394.9826406621665,125.40838000353676 L537.9662159835196,125.40838062170877 M536.5536234836702,195.91056497598598 L394.9964733607189,195.91056434721196 M376.3652159275771,187.05904370051633 L394.9964733607189,195.91056434721196 M394.9964733607189,195.91056434721196 L394.9826406621665,125.40838000353676 M515.014331197352,132.0762357837151 L521.991933038701,132.0762359379309 M521.991933038701,132.0762359379309 L521.9132376759037,130.46017746525308 M515.014331197352,132.0762357837151 L514.940006572979,130.46017746525308 M521.991933038701,132.0762359379309 L521.8806692603173,138.32962423706834 M521.8806692603173,138.32962423706834 L521.8021131928401,136.71108228965818 M514.9092474664606,138.32962408261557 L515.014331197352,132.0762357837151 M514.9092474664606,138.32962408261557 L514.8350544006547,136.71108228965818 M521.8806692603173,138.32962423706834 L514.9092474664606,138.32962408261557 M514.3943594293047,168.96990302472852 L521.3355002986478,168.96990318033258 M521.3355002986478,168.96990318033258 L521.2576249664088,167.3392929917338 M514.3943594293047,168.96990302472852 L514.320809289285,167.3392929917338 M521.3355002986478,168.96990318033258 L521.2253967243906,175.15808421242986 M521.2253967243906,175.15808421242986 L521.1476585156705,173.52505690703953 M514.2903714600344,175.15808405659504 L514.3943594293047,168.96990302472852 M514.2903714600344,175.15808405659504 L514.2169508274089,173.52505690703953 M521.2253967243906,175.15808421242986 L514.2903714600344,175.15808405659504 M417.25762968611633,138.32962361925678 L410.28620756858186,138.32962361925678 M410.28620756858186,138.32962361925678 L410.27749709660384,136.71108167261968 M417.25762968611633,138.32962361925678 L417.2445558871259,136.71108167261968 M410.28620756858186,138.32962361925678 L410.29854474449843,132.0762353210672 M410.29854474449843,132.0762353210672 L410.2898188271446,130.46017684916194 M417.27614690980425,132.0762353210672 L417.25762968611633,138.32962361925678 M417.27614690980425,132.0762353210672 L417.26304992840306,130.46017684916194 M410.29854474449843,132.0762353210672 L417.27614690980425,132.0762353210672 M466.14484798678006,158.63236279561124 L465.55384388783034,158.69641076687702 M465.55384388783034,158.69641076687702 L464.9959428766157,158.88488436198293 M464.9959428766157,158.88488436198293 L464.50359757783343,159.18673322022562 M464.50359757783343,159.18673322022562 L464.1054230209605,159.5844372749181 M464.1054230209605,159.5844372749181 L463.82457253237675,160.05489281739398 M463.82457253237675,160.05489281739398 L463.67733942516986,160.5706295486421 M463.67733942516986,160.5706295486421 L463.67225585491985,161.1017277805829 M463.67225585491985,161.1017277805829 L463.809585211577,161.61736725477618 M463.809585211577,161.61736725477618 L464.08131523878467,162.0874946041966 M464.08131523878467,162.0874946041966 L464.4716471200029,162.48487816252006 M464.4716471200029,162.48487816252006 L464.95787566676734,162.78641811698338 M464.95787566676734,162.78641811698338 L465.5117627258684,162.9746725914601 M465.5117627258684,162.9746725914601 L466.1011378367249,163.03863901555792 M466.1011378367249,163.03863901555792 L466.69178468890715,162.97466884828026 M466.69178468890715,162.97466884828026 L467.2494067066499,162.78641437397323 M467.2494067066499,162.78641437397323 L467.7416177904569,162.48487441978168 M467.7416177904569,162.48487441978168 L468.13983367277297,162.0874983465765 M468.13983367277297,162.0874983465765 L468.42089102622833,161.61736850209505 M468.42089102622833,161.61736850209505 L468.5684506221557,161.10173152207392 M468.5684506221557,161.10173152207392 L468.5739040145019,160.57063328965407 M468.5739040145019,160.57063328965407 L468.4369031208069,160.05489406424283 M468.4369031208069,160.05489406424283 L468.1653864239378,159.58444101504026 M468.1653864239378,159.58444101504026 L467.77510236473415,159.18672948046262 M467.77510236473415,159.18672948046262 L467.2887457330335,158.8848806224926 M467.2887457330335,158.8848806224926 L466.7345840293976,158.6964070275569 M466.7345840293976,158.6964070275569 L466.14484798678006,158.63236279561124 M466.14484798678006,158.63236279561124 L465.90997926676977,149.85932010158334 M417.14857507462875,175.1580835890913 L410.2135494882392,175.1580835890913 M410.2135494882392,175.1580835890913 L410.2049297022644,173.52505628447693 M417.14857507462875,175.1580835890913 L417.13563738887984,173.52505628447693 M410.2135494882392,175.1580835890913 L410.22575801813446,168.96990255791633 M410.22575801813446,168.96990255791633 L410.21712302759795,167.33929237009312 M410.22575801813446,168.96990255791633 L417.16689920978735,168.96990255791633 M417.16689920978735,168.96990255791633 L417.15393870307264,167.33929237009312 M417.16689920978735,168.96990255791633 L417.14857507462875,175.1580835890913" stroke="black"  stroke-width="4"  fill="red"/>
<path d="M275.3106421785516,21.856413535124034 L242.34392675199393,21.85641524337609 M275.5372664546985,35.279983243209074 L275.3106421785516,21.856413535124034 M275.4600797923106,35.2799843860908 L275.5372664546985,35.279983243209074 M275.56315403107084,41.38145315412845 L275.4600797923106,35.2799843860908 M275.64027489229335,41.38145200941517 L275.56315403107084,41.38145315412845 M276.14509340984597,71.28322014966784 L275.64027489229335,41.38145200941517 M276.0682950236307,71.283221303289 L276.14509340984597,71.28322014966784 M276.17033442927504,77.323433233414 L276.0682950236307,71.283221303289 M276.24706767494854,77.32343207800773 L276.17033442927504,77.323433233414 M276.4702027246757,90.54032545436826 L276.24706767494854,77.32343207800773 M243.81925924935726,90.5403271933136 L276.4702027246757,90.54032545436826 M242.34392675199393,21.85641524337609 L243.81925924935726,90.5403271933136 M275.70363319939725,13.839662303283319 L260.9118802409463,13.839664000462221 M260.9118802409463,13.839664000462221 L242.34392675199393,21.85641524337609 M275.70363319939725,13.839662303283319 L275.3106421785516,21.856413535124034 M276.8557132656404,82.37927762276809 L275.70363319939725,13.839662303283319 M276.4702027246757,90.54032545436826 L276.8557132656404,82.37927762276809 M276.24706767494854,77.32343207800773 L276.31907025648405,75.80992547270074 M276.31907025648405,75.80992547270074 L276.2172182556365,69.77205311039489 M276.2172182556365,69.77205311039489 L276.14509340984597,71.28322014966784 M275.64027489229335,41.38145200941517 L275.7130065278907,39.88195737957983 M275.7130065278907,39.88195737957983 L275.610122218074,33.78288887245168 M275.610122218074,33.78288887245168 L275.5372664546985,35.279983243209074 M275.610122218074,33.78288887245168 L275.532982095506,33.78289001395524 M275.532982095506,33.78289001395524 L275.4600797923106,35.2799843860908 M275.532982095506,33.78289001395524 L275.635932127196,39.88195852291449 M275.635932127196,39.88195852291449 L275.56315403107084,41.38145315412845 M275.635932127196,39.88195852291449 L275.7130065278907,39.88195737957983 M276.2172182556365,69.77205311039489 L276.1404659423351,69.77205426263231 M276.1404659423351,69.77205426263231 L276.0682950236307,71.283221303289 M276.1404659423351,69.77205426263231 L276.24238300562274,75.80992662672236 M276.24238300562274,75.80992662672236 L276.17033442927504,77.323433233414 M276.24238300562274,75.80992662672236 L276.31907025648405,75.80992547270074 M262.20518768265566,82.37927935054904 L276.8557132656404,82.37927762276809 M262.20518768265566,82.37927935054904 L243.81925924935726,90.5403271933136 M260.9118802409463,13.839664000462221 L262.20518768265566,82.37927935054904" stroke="black"  stroke-width="4"  fill="red"/>
<path d="M397.69567298476045,13.83966456618856 L293.77157784787516,13.83966173755698 M415.82678099378927,21.85641524337609 L397.69567298476045,13.83966456618856 M415.82678099378927,21.85641524337609 L293.4374314168292,21.85641296570668 M293.77157784787516,13.83966173755698 L293.4374314168292,21.85641296570668 M397.6830083755436,82.37927992647587 L294.75115040961356,82.37927704684125 M397.6830083755436,82.37927992647587 L397.69567298476045,13.83966456618856 M293.96302051959316,27.234695026410463 L293.77157784787516,13.83966173755698 M290.616005484728,27.234695026410463 L293.96302051959316,27.234695026410463 M290.70586752693316,33.32324683883388 L290.616005484728,27.234695026410463 M294.0500384911598,33.32324683883388 L290.70586752693316,33.32324683883388 M294.476498696271,63.16219858648685 L294.0500384911598,33.32324683883388 M291.1462660361211,63.16219858648685 L294.476498696271,63.16219858648685 M291.23522878913104,69.18981956844112 L291.1462660361211,63.16219858648685 M294.562645840515,69.18981956844112 L291.23522878913104,69.18981956844112 M294.75115040961356,82.37927704684125 L294.562645840515,69.18981956844112 M329.6054568777147,46.13139780928714 L329.0411502367024,46.19366242042315 M329.0411502367024,46.19366242042315 L328.5108302592738,46.37688526550596 M328.5108302592738,46.37688526550596 L328.0453399559655,46.67032569664832 M328.0453399559655,46.67032569664832 L327.67173378611466,47.056953013599355 M327.67173378611466,47.056953013599355 L327.4117364549883,47.51430768069372 M327.4117364549883,47.51430768069372 L327.28042946784785,48.01568576400564 M327.28042946784785,48.01568576400564 L327.2854223641278,48.53200091207168 M327.2854223641278,48.53200091207168 L327.4263964542111,49.03329074538624 M327.4263964542111,49.03329074538624 L327.69512880847986,49.490337902793044 M327.69512880847986,49.490337902793044 L328.0759970214967,49.87666697984389 M328.0759970214967,49.87666697984389 L328.5468474144436,50.169820064342844 M328.5468474144436,50.169820064342844 L329.0803355096308,50.35283908033256 M329.0803355096308,50.35283908033256 L329.64547604933756,50.415025588146705 M329.64547604933756,50.415025588146705 L330.20945203286277,50.35283565314478 M330.20945203286277,50.35283565314478 L330.7395204699981,50.16981663731849 M330.7395204699981,50.16981663731849 L331.20489338179874,49.876663553081016 M331.20489338179874,49.876663553081016 L331.57854321670146,49.490341329211276 M331.57854321670146,49.490341329211276 L331.8387357541673,49.03329188738968 M331.8387357541673,49.03329188738968 L331.97034341239436,48.532004337634476 M331.97034341239436,48.532004337634476 L331.96568910961895,48.015689189107434 M331.96568910961895,48.015689189107434 L331.825013994618,47.51430882224497 M331.825013994618,47.51430882224497 L331.5564711469384,47.05695643784475 M331.5564711469384,47.05695643784475 L331.1756408888193,46.670322272748194 M331.1756408888193,46.670322272748194 L330.70466773666095,46.376881841868226 M330.70466773666095,46.376881841868226 L330.1709242941529,46.19365899694901 M330.1709242941529,46.19365899694901 L329.6054568777147,46.13139780928714 M293.84112774911307,30.180597576099217 L293.96302051959316,27.234695026410463 M293.9283529106458,36.273884290284855 L293.84112774911307,30.180597576099217 M294.0500384911598,33.32324683883388 L293.9283529106458,36.273884290284855 M294.3558259670448,66.13586275448432 L294.476498696271,63.16219858648685 M294.4421771979307,72.16809930944845 L294.3558259670448,66.13586275448432 M294.562645840515,69.18981956844112 L294.4421771979307,72.16809930944845 M294.4233643654658,90.54032487471989 L294.75115040961356,82.37927704684125 M294.4233643654658,90.54032487471989 L293.4374314168292,21.85641296570668 M415.6404065681599,90.5403271933136 L415.82678099378927,21.85641524337609 M294.4233643654658,90.54032487471989 L415.6404065681599,90.5403271933136 M329.38899601753616,54.21666562852647 L329.9563049836991,54.27905972286317 M329.9563049836991,54.27905972286317 L330.49178436509584,54.46266861120682 M330.49178436509584,54.46266861120682 L330.96429313887387,54.75672724609723 M330.96429313887387,54.75672724609723 L331.3463656610752,55.144172974004505 M331.3463656610752,55.144172974004505 L331.615791196149,55.60248913525788 M331.615791196149,55.60248913525788 L331.7569383018482,56.104924646658844 M331.7569383018482,56.104924646658844 L331.7616228243569,56.622326717209546 M331.7616228243569,56.622326717209546 L331.6296020494325,57.12466989138858 M331.6296020494325,57.12466989138858 L331.3685810416869,57.58268051161622 M331.3685810416869,57.58268051161622 L330.9937355625276,57.969818366572326 M330.9937355625276,57.969818366572326 L330.52686339038394,58.26358811660913 M330.52686339038394,58.26358811660913 L329.9950828754697,58.44699208473122 M329.9950828754697,58.44699208473122 L329.42927502960845,58.509311100012724 M329.42927502960845,58.509311100012724 L328.8623039995564,58.446992659636635 M328.8623039995564,58.446992659636635 L328.32708163014485,58.26358869148743 M328.32708163014485,58.26358869148743 L327.85469642178145,57.969818941407084 M327.85469642178145,57.969818941407084 L327.47258570205133,57.58267993683933 M327.47258570205133,57.58267993683933 L327.20296439370145,57.124668167262314 M327.20296439370145,57.124668167262314 L327.06152646490835,56.62232844111128 M327.06152646490835,56.62232844111128 L327.0565011510826,56.10492637032968 M327.0565011510826,56.10492637032968 L327.188209209165,55.60248741181192 M327.188209209165,55.60248741181192 L327.44903878034745,55.144172399590616 M327.44903878034745,55.144172399590616 L327.82384030422566,54.75672782045325 M327.82384030422566,54.75672782045325 L328.29083062063575,54.46266918551896 M328.29083062063575,54.46266918551896 L328.82286430214054,54.279060297147964 M328.82286430214054,54.279060297147964 L329.38899601753616,54.21666562852647 M382.9739720658499,41.38145372648523 L376.263906516419,41.38145372648523 M382.9625429643425,35.27998495753127 L382.9739720658499,41.38145372648523 M376.263906516419,41.38145372648523 L376.24675224784124,35.27998495753127 M376.24675224784124,35.27998495753127 L382.9625429643425,35.27998495753127 M383.0412975827573,77.32343381111735 L376.36495732941756,77.32343381111735 M383.0299832258541,71.2832218800994 L383.0412975827573,77.32343381111735 M376.36495732941756,77.32343381111735 L376.3479752843306,71.2832218800994 M376.3479752843306,71.2832218800994 L383.0299832258541,71.2832218800994 M415.6404065681599,90.5403271933136 L397.6830083755436,82.37927992647587 M291.11082302433005,72.16809916561152 L291.23522878913104,69.18981956844112 M291.11082302433005,72.16809916561152 L294.4421771979307,72.16809930944845 M291.1462660361211,63.16219858648685 L291.0216495145774,66.1358626108705 M291.0216495145774,66.1358626108705 L291.11082302433005,72.16809916561152 M291.0216495145774,66.1358626108705 L294.3558259670448,66.13586275448432 M290.5802050513928,36.273884147782155 L290.70586752693316,33.32324683883388 M290.5802050513928,36.273884147782155 L293.9283529106458,36.273884290284855 M290.616005484728,27.234695026410463 L290.4901290476947,30.18059743382514 M290.4901290476947,30.18059743382514 L290.5802050513928,36.273884147782155 M290.4901290476947,30.18059743382514 L293.84112774911307,30.180597576099217 M329.6054568777147,46.13139780928714 L329.38899601753616,54.21666562852647 M376.27601870878175,39.8819590945817 L382.9820418634845,39.8819590945817 M382.9820418634845,39.8819590945817 L382.9739720658499,41.38145372648523 M376.27601870878175,39.8819590945817 L376.263906516419,41.38145372648523 M382.9820418634845,39.8819590945817 L382.9706265343341,33.782890584707275 M382.9706265343341,33.782890584707275 L382.9625429643425,35.27998495753127 M376.25888511153244,33.782890584707275 L376.27601870878175,39.8819590945817 M376.25888511153244,33.782890584707275 L376.24675224784124,35.27998495753127 M382.9706265343341,33.782890584707275 L376.25888511153244,33.782890584707275 M376.3769481104718,75.80992720373348 L383.0492864896117,75.80992720373348 M383.0492864896117,75.80992720373348 L383.0412975827573,77.32343381111735 M376.3769481104718,75.80992720373348 L376.36495732941756,77.32343381111735 M383.0492864896117,75.80992720373348 L383.03798569830184,69.77205483875088 M383.03798569830184,69.77205483875088 L383.0299832258541,71.2832218800994 M376.35998642637577,69.77205483875088 L376.3769481104718,75.80992720373348 M376.35998642637577,69.77205483875088 L376.3479752843306,71.2832218800994 M383.03798569830184,69.77205483875088 L376.35998642637577,69.77205483875088" stroke="black"  stroke-width="4"  fill="red"/>
<path d="M291.1230994492091,77.38158104847633 L292.1536446256961,147.0509838718041 M294.37375471684726,-0.6075675673304204 L291.1230994492091,77.38158104847633 M292.1536446256961,147.0509838718041 L295.3419164929706,67.67072491693546 M295.3419164929706,67.67072491693546 L294.37375471684726,-0.6075675673304204 M291.9542240904306,75.78233150247837 L292.08211268594835,72.6915866585282 M292.0446879238489,81.94815183397816 L291.9542240904306,75.78233150247837 M292.08211268594835,72.6915866585282 L292.1723551487071,78.85253606799591 M292.1723551487071,78.85253606799591 L292.0446879238489,81.94815183397816 M292.48799210674076,112.16281155632015 L292.61457730737936,109.04351561394975 M292.57753302879723,118.26572823423339 L292.48799210674076,112.16281155632015 M292.61457730737936,109.04351561394975 L292.70390023476824,115.14168736065608 M292.70390023476824,115.14168736065608 L292.57753302879723,118.26572823423339 M294.0514542021348,33.28898120009609 L293.9283529106458,36.273884290284855 M293.9644386374039,27.20048440890787 L294.0514542021348,33.28898120009609 M293.9283529106458,36.273884290284855 L293.84112774911307,30.180597576099217 M293.84112774911307,30.180597576099217 L293.9644386374039,27.20048440890787 M293.244432534963,70.27096457809836 L293.25590888884534,70.0756098863526 M293.25590888884534,70.0756098863526 L293.26852800100994,70.01699158181583 M293.26852800100994,70.01699158181583 L293.2815572942741,70.09839219289648 M293.2815572942741,70.09839219289648 L293.2942390782422,70.3150788005479 M293.2942390782422,70.3150788005479 L293.3058358158508,70.654446459378 M293.3058358158508,70.654446459378 L293.31568811989246,71.09665651515627 M293.31568811989246,71.09665651515627 L293.3232044458344,71.61606295061313 M293.3232044458344,71.61606295061313 L293.3279497060614,72.18254837264345 M293.3279497060614,72.18254837264345 L293.3296685477217,72.7631477742325 M293.3296685477217,72.7631477742325 L293.32824720092395,73.3242245145949 M293.32824720092395,73.3242245145949 L293.3237691099397,73.83319264232784 M293.3237691099397,73.83319264232784 L293.3164957115873,74.26056024541981 M293.3164957115873,74.26056024541981 L293.30684502744856,74.58142253900138 M293.30684502744856,74.58142253900138 L293.29538374497116,74.77718475550756 M293.29538374497116,74.77718475550756 L293.28277120658106,74.8363702653258 M293.28277120658106,74.8363702653258 L293.26974222035074,74.7555694419209 M293.26974222035074,74.7555694419209 L293.25705440706986,74.53937784909255 M293.25705440706986,74.53937784909255 L293.2454424007095,74.20033730401792 M293.2454424007095,74.20033730401792 L293.2355860003234,73.7580744985101 M293.2355860003234,73.7580744985101 L293.2280568867285,73.23838278121576 M293.2280568867285,73.23838278121576 L293.2232930775739,72.67144487597545 M293.2232930775739,72.67144487597545 L293.22157497516855,72.09019422102511 M293.22157497516855,72.09019422102511 L293.2229992676732,71.52855369434195 M293.2229992676732,71.52855369434195 L293.2274861210913,71.01918811792882 M293.2274861210913,71.01918811792882 L293.23477208882014,70.59168038824635 M293.23477208882014,70.59168038824635 L293.244432534963,70.27096457809836 M294.56404741473875,69.15523271239334 L294.4421771979307,72.16809930944845 M294.4779026413128,63.12766536621342 L294.56404741473875,69.15523271239334 M294.3558259670448,66.13586275448432 L294.4779026413128,63.12766536621342 M294.4421771979307,72.16809930944845 L294.3558259670448,66.13586275448432 M272.9995759718208,69.00088912320473 L291.1230994492091,77.38158104847633 M274.2036121434821,138.52310626100234 L292.1536446256961,147.0509838718041 M272.9995759718208,69.00088912320473 L274.2036121434821,138.52310626100234 M276.02347299227137,7.315203453764639 L272.9995759718208,69.00088912320473 M294.37375471684726,-0.6075675673304204 L276.02347299227137,7.315203453764639 M274.2036121434821,138.52310626100234 L277.1694827160422,75.73700789040691 M295.3419164929706,67.67072491693546 L277.1694827160422,75.73700789040691 M277.1694827160422,75.73700789040691 L276.02347299227137,7.315203453764639 M288.6736224668087,72.6915866585282 L288.54155399664484,75.78233150247837 M288.54155399664484,75.78233150247837 L291.9542240904306,75.78233150247837 M288.6736224668087,72.6915866585282 L292.08211268594835,72.6915866585282 M288.54155399664484,75.78233150247837 L288.63497452438116,81.94815183397816 M288.63497452438116,81.94815183397816 L292.0446879238489,81.94815183397816 M288.7668143886695,78.85253606799591 L288.6736224668087,72.6915866585282 M288.7668143886695,78.85253606799591 L292.1723551487071,78.85253606799591 M288.63497452438116,81.94815183397816 L288.7668143886695,78.85253606799591 M289.2234900111673,109.04351561394975 L289.0927675356717,112.16281155632015 M289.0927675356717,112.16281155632015 L292.48799210674076,112.16281155632015 M289.2234900111673,109.04351561394975 L292.61457730737936,109.04351561394975 M289.0927675356717,112.16281155632015 L289.1852349878725,118.26572823423339 M289.1852349878725,118.26572823423339 L292.57753302879723,118.26572823423339 M289.31573234382455,115.14168736065608 L289.2234900111673,109.04351561394975 M289.31573234382455,115.14168736065608 L292.70390023476824,115.14168736065608 M289.1852349878725,118.26572823423339 L289.31573234382455,115.14168736065608 M290.5802050513928,36.273884147782155 L290.707329425215,33.28898120009609 M290.707329425215,33.28898120009609 L294.0514542021348,33.28898120009609 M290.5802050513928,36.273884147782155 L293.9283529106458,36.273884290284855 M290.707329425215,33.28898120009609 L290.617469868439,27.20048440890787 M290.617469868439,27.20048440890787 L293.9644386374039,27.20048440890787 M290.4901290476947,30.18059743382514 L290.5802050513928,36.273884147782155 M290.4901290476947,30.18059743382514 L293.84112774911307,30.180597576099217 M290.617469868439,27.20048440890787 L290.4901290476947,30.18059743382514 M275.08365348633754,70.27096574143673 L275.0971530566966,70.0756098863526 M275.0971530566966,70.0756098863526 L275.11199445596304,70.01699158181583 M275.11199445596304,70.01699158181583 L275.127318271218,70.09839219289631 M275.127318271218,70.09839219289631 L275.1422272637716,70.31507705635255 M275.1422272637716,70.31507705635255 L275.1558732638342,70.654446459378 M275.1558732638342,70.654446459378 L275.1674476547761,71.0966524449504 M275.1674476547761,71.0966524449504 L275.176287643182,71.6160588798648 M275.176287643182,71.6160588798648 L275.1818815176018,72.18254837264345 M275.1818815176018,72.18254837264345 L275.18389603742577,72.76314602894126 M275.18389603742577,72.76314602894126 L275.1822304977886,73.32422451459456 M275.1822304977886,73.32422451459456 L275.17696379317556,73.83319264232784 M275.17696379317556,73.83319264232784 L275.16840951395505,74.26056024541981 M275.16840951395505,74.26056024541981 L275.15705712402166,74.5814237036264 M275.15705712402166,74.5814237036264 L275.1435735119526,74.77718300824051 M275.1435735119526,74.77718300824051 L275.12873984339626,74.83636851780386 M275.12873984339626,74.83636851780386 L275.113416388483,74.75556769423412 M275.113416388483,74.75556769423412 L275.09850030625853,74.53937784909255 M275.09850030625853,74.53937784909255 L275.08484228170715,74.20033788658924 M275.08484228170715,74.20033788658924 L275.0732512085423,73.7580744985101 M275.0732512085423,73.7580744985101 L275.0643961813798,73.23838278121576 M275.0643961813798,73.23838278121576 L275.0587923546701,72.67144545831889 M275.0587923546701,72.67144545831889 L275.05677277363,72.09019422102511 M275.05677277363,72.09019422102511 L275.0584417714858,71.52855194809968 M275.0584417714858,71.52855194809968 L275.06371878190237,71.01918637211537 M275.06371878190237,71.01918637211537 L275.07228784445425,70.5916786428528 M275.07228784445425,70.5916786428528 L275.08365348633754,70.27096574143673 M275.08365348633754,70.27096574143673 L293.244432534963,70.27096457809836 M291.11082302433005,72.16809916561152 L291.2366760890378,69.15523271239317 M291.2366760890378,69.15523271239317 L294.56404741473875,69.15523271239334 M291.11082302433005,72.16809916561152 L294.4421771979307,72.16809930944845 M291.2366760890378,69.15523271239317 L291.1477157842629,63.12766536621342 M291.1477157842629,63.12766536621342 L294.4779026413128,63.12766536621342 M291.1477157842629,63.12766536621342 L291.0216495145774,66.1358626108705 M291.0216495145774,66.1358626108705 L294.3558259670448,66.13586275448432 M291.0216495145774,66.1358626108705 L291.11082302433005,72.16809916561152" stroke="black"  stroke-width="4"  fill="red"/>
<path d="M111.98822268955962,15.146907291573825 L112.64575656726731,31.74204622822009 M317.97848078167925,-71.57181320003878 L318.15336470753874,-55.36624349169813 M111.98822268955962,15.146907291573825 L317.97848078167925,-71.57181320003878 M112.64575656726731,31.74204622822009 L318.15336470753874,-55.36624349169813 M343.2701622187857,-71.91098673031513 L343.3886054056616,-55.70696855015808 M317.97848078167925,-71.57181320003878 L319.90935001028265,-72.28151400227205 M319.90935001028265,-72.28151400227205 L322.0446186780517,-72.87294833600197 M322.0446186780517,-72.87294833600197 L324.34439299724545,-73.33519390418172 M324.34439299724545,-73.33519390418172 L326.7658237941344,-73.65974834867967 M326.7658237941344,-73.65974834867967 L329.263878449431,-73.84061690785069 M329.263878449431,-73.84061690785069 L331.7920875732938,-73.87449722968563 M331.7920875732938,-73.87449722968563 L334.3035385286204,-73.76073927635923 M334.3035385286204,-73.76073927635923 L336.75151247706845,-73.50146309327823 M336.75151247706845,-73.50146309327823 L339.0905234833134,-73.10141402087226 M339.0905234833134,-73.10141402087226 L341.277007410041,-72.5679755692745 M341.277007410041,-72.5679755692745 L343.2701622187857,-71.91098673031513 M318.15336470753874,-55.36624349169813 L320.07987547519434,-56.07919102406379 M320.07987547519434,-56.07919102406379 L322.21034075592394,-56.6733317698293 M322.21034075592394,-56.6733317698293 L324.5049560627901,-57.13769303978711 M324.5049560627901,-57.13769303978711 L326.9209676643818,-57.46373321351041 M326.9209676643818,-57.46373321351041 L329.4134428607014,-57.64542983001627 M329.4134428607014,-57.64542983001627 L331.93601506126043,-57.679465270520836 M331.93601506126043,-57.679465270520836 L334.44187518760566,-57.565186492980956 M334.44187518760566,-57.565186492980956 L336.8844073881722,-57.304723342900616 M336.8844073881722,-57.304723342900616 L339.21822592887156,-56.902843093646084 M339.21822592887156,-56.902843093646084 L341.39986263642896,-56.36696336092456 M341.39986263642896,-56.36696336092456 L343.3886054056616,-55.70696855015808 M344.10872648410555,-71.57181320003878 L344.22531576801185,-55.36624349169813 M343.2701622187857,-71.91098673031513 L344.10872648410555,-71.57181320003878 M343.3886054056616,-55.70696855015808 L344.22531576801185,-55.36624349169813 M687.8420084798629,76.56365696643206 L687.1513108089724,93.42612095504319 M344.10872648410555,-71.57181320003878 L687.8420084798629,76.56365696643206 M344.22531576801185,-55.36624349169813 L687.1513108089724,93.42612095504319 M689.569557976671,77.40252325502001 L688.8745362139542,94.26858928723607 M687.8420084798629,76.56365696643206 L689.569557976671,77.40252325502001 M687.1513108089724,93.42612095504319 L688.8745362139542,94.26858928723607 M689.3030249740528,89.21643095959803 L688.6053939481642,106.13308430445659 M689.569557976671,77.40252325502001 L691.1254962169542,78.37201726109629 M691.1254962169542,78.37201726109629 L692.3992183982419,79.41977427962786 M692.3992183982419,79.41977427962786 L693.3685225027461,80.52790734743832 M693.3685225027461,80.52790734743832 L694.0163526134704,81.67744979345991 M694.0163526134704,81.67744979345991 L694.33111175269,82.84867612688902 M694.33111175269,82.84867612688902 L694.306917261082,84.02142726956401 M694.306917261082,84.02142726956401 L693.9437135385309,85.1754599613111 M693.9437135385309,85.1754599613111 L693.2473454662188,86.29082066168758 M693.2473454662188,86.29082066168758 L692.229365716664,87.34814707789519 M692.229365716664,87.34814707789519 L690.9070914904676,88.3290564192468 M690.9070914904676,88.3290564192468 L689.3030249740528,89.21643095959803 M688.8745362139542,94.26858928723607 L690.4265185217926,95.24224459190572 M690.4265185217926,95.24224459190572 L691.6969297439267,96.29449683977748 M691.6969297439267,96.29449683977748 L692.6636260832332,97.40738191808947 M692.6636260832332,97.40738191808947 L693.3095981923933,98.5618515037466 M693.3095981923933,98.5618515037466 L693.6232831107566,99.73809535509059 M693.6232831107566,99.73809535509059 L693.5988188621104,100.91586795630616 M693.5988188621104,100.91586795630616 L693.2361567370659,102.07483942681074 M693.2361567370659,102.07483942681074 L692.5411343408066,103.19497101957899 M692.5411343408066,103.19497101957899 L691.5252831860596,104.25681792401315 M691.5252831860596,104.25681792401315 L690.2058851061473,105.24191915548192 M690.2058851061473,105.24191915548192 L688.6053939481642,106.13308430445659 M483.33394186734563,188.3133522732628 L483.1187624708183,205.64397888328583 M689.3030249740528,89.21643095959803 L483.33394186734563,188.3133522732628 M688.6053939481642,106.13308430445659 L483.1187624708183,205.64397888328583 M455.2937250061485,188.7309032341808 L455.14790331205324,206.06323497883392 M483.33394186734563,188.3133522732628 L481.24535887827915,189.18734084370288 M481.24535887827915,189.18734084370288 L478.9184212284304,189.9165278566221 M478.9184212284304,189.9165278566221 L476.3970367600084,190.4869703057621 M476.3970367600084,190.4869703057621 L473.72887421748754,190.8877728264319 M473.72887421748754,190.8877728264319 L470.9644482502163,191.1112335366987 M470.9644482502163,191.1112335366987 L468.1562192723176,191.15310022219103 M468.1562192723176,191.15310022219103 L465.35738996877615,191.01253691548092 M465.35738996877615,191.01253691548092 L462.62110232060695,190.69227246972605 M462.62110232060695,190.69227246972605 L459.9991727482,190.19841144689207 M459.9991727482,190.19841144689207 L457.5412359050061,189.5404272968442 M457.5412359050061,189.5404272968442 L455.2937250061485,188.7309032341808 M483.1187624708183,205.64397888328583 L481.03527786522955,206.5215361467088 M481.03527786522955,206.5215361467088 L478.7140433679661,207.25369949329982 M478.7140433679661,207.25369949329982 L476.19885867530854,207.82646962728256 M476.19885867530854,207.82646962728256 L473.53727444456,208.22890725182793 M473.53727444456,208.22890725182793 L470.7796796341973,208.4532794553065 M470.7796796341973,208.4532794553065 L467.97840368338575,208.4953169039727 M467.97840368338575,208.4953169039727 L465.18651612827796,208.3541802635129 M465.18651612827796,208.3541802635129 L462.45702574103484,208.03260937461627 M462.45702574103484,208.03260937461627 L459.84161895130296,207.53673338347008 M459.84161895130296,207.53673338347008 L457.3898058809349,206.87606392333328 M457.3898058809349,206.87606392333328 L455.14790331205324,206.06323497883392 M454.3457005412165,188.3133522732628 L454.2022476101983,205.64397888328583 M455.2937250061485,188.7309032341808 L454.3457005412165,188.3133522732628 M455.14790331205324,206.06323497883392 L454.2022476101983,205.64397888328583 M110.59760657611514,27.18999610312295 L111.26157931871234,43.83811494149694 M454.3457005412165,188.3133522732628 L110.59760657611514,27.18999610312295 M454.2022476101983,205.64397888328583 L111.26157931871234,43.83811494149694 M109.09291907352821,26.384155523096126 L109.76017103433247,43.02873785004988 M110.59760657611514,27.18999610312295 L109.09291907352821,26.384155523096126 M111.26157931871234,43.83811494149694 L109.76017103433247,43.02873785004988 M109.09291907352821,26.384155523096126 L107.78777990619437,25.45414945064482 M107.78777990619437,25.45414945064482 L106.7784591846193,24.450655219233113 M106.7784591846193,24.450655219233113 L106.08205386335362,23.39112514674065 M106.08205386335362,23.39112514674065 L105.71019699190458,22.293941029812856 M105.71019699190458,22.293941029812856 L105.66888824730995,21.17808612526227 M105.66888824730995,21.17808612526227 L105.95839133949363,20.062821297567325 M105.95839133949363,20.062821297567325 L106.5732807110162,18.967347381627803 M106.5732807110162,18.967347381627803 L107.50253116650458,17.910453990190547 M107.50253116650458,17.910453990190547 L108.72984390170984,16.910246262509133 M108.72984390170984,16.910246262509133 L110.23373808193924,15.983797724287342 M110.23373808193924,15.983797724287342 L111.98822268955962,15.146907291573825 M109.76017103433247,43.02873785004988 L108.457811914878,42.0946488313503 M108.457811914878,42.0946488313503 L107.45056245654803,41.0867471937712 M107.45056245654803,41.0867471937712 L106.75548532208671,40.02256154125132 M106.75548532208671,40.02256154125132 L106.38419241208095,38.920554160942515 M106.38419241208095,38.920554160942515 L106.34267562758805,37.79979158696318 M106.34267562758805,37.79979158696318 L106.63120434102035,36.67961933873022 M106.63120434102035,36.67961933873022 L107.2443718070665,35.57932280313668 M107.2443718070665,35.57932280313668 L108.1711844020162,34.51777449054566 M108.1711844020162,34.51777449054566 L109.39538674446999,33.51315956465322 M109.39538674446999,33.51315956465322 L110.89555290152566,32.58262714893306 M110.89555290152566,32.58262714893306 L112.64575656726731,31.74204622822009" stroke="black"  stroke-width="4"  fill="red"/>
<path d="M348.03070203004796,-19.265879599678442 L348.4860755029311,48.67248003695693 M599.090329397413,91.23408319111701 L597.0945495087462,161.1455549929611 M348.03070203004796,-19.265879599678442 L599.090329397413,91.23408319111701 M348.4860755029311,48.67248003695693 L597.0945495087462,161.1455549929611 M348.03070203004796,-19.265879599678442 L347.81077180287883,-8.21716809578271 M348.4860755029311,48.67248003695693 L348.2702787169939,59.92281836108606 M347.81077180287883,-8.21716809578271 L348.2702787169939,59.92281836108606 M599.090329397413,91.23408319111701 L572.7349900209853,91.23408319111701 M597.0945495087462,161.1455549929611 L570.9986772193677,161.1455549929611 M572.7349900209853,91.23408319111701 L570.9986772193677,161.1455549929611 M572.7349900209853,91.23408319111701 L347.81077180287883,-8.21716809578271 M570.9986772193677,161.1455549929611 L348.2702787169939,59.92281836108606" stroke="black"  stroke-width="4"  fill="red"/>
<path d="M448.3279906347021,162.60622787490325 L447.80222454801765,233.74091793282994 M197.2639393353252,45.9490410039088 L199.18949687524926,115.06355114946314 M448.3279906347021,162.60622787490325 L197.2639393353252,45.9490410039088 M447.80222454801765,233.74091793282994 L199.18949687524926,115.06355114946314 M448.3279906347021,162.60622787490325 L448.0762603814101,149.95996737117287 M447.80222454801765,233.74091793282994 L447.5555508975002,220.88084676951001 M448.0762603814101,149.95996737117287 L447.5555508975002,220.88084676951001 M197.2639393353252,45.9490410039088 L223.14919198056006,45.9490410039088 M199.18949687524926,115.06355114946314 L224.82441189123614,115.06355114946314 M223.14919198056006,45.9490410039088 L224.82441189123614,115.06355114946314 M223.14919198056006,45.9490410039088 L448.0762603814101,149.95996737117287 M224.82441189123614,115.06355114946314 L447.5555508975002,220.88084676951001" stroke="black"  stroke-width="4"  fill="red"/>
<path d="M486.21044855321765,149.95996737117287 L573.9240200394687,108.35093582990402 M573.9240200394687,108.35093582990402 L572.164333223958,178.5594289977038 M485.3057133643923,220.88084676951001 L572.164333223958,178.5594289977038 M486.21044855321765,149.95996737117287 L485.3057133643923,220.88084676951001 M600.4570429271984,108.35093582990402 L486.6478310578248,162.60622787490325 M600.4570429271984,108.35093582990402 L573.9240200394687,108.35093582990402 M486.6478310578248,162.60622787490325 L486.21044855321765,149.95996737117287 M600.4570429271984,108.35093582990402 L598.4343961129398,178.5594289977038 M598.4343961129398,178.5594289977038 L572.164333223958,178.5594289977038 M598.4343961129398,178.5594289977038 L485.7343099977844,233.74091793282994 M485.7343099977844,233.74091793282994 L485.3057133643923,220.88084676951001 M486.6478310578248,162.60622787490325 L485.7343099977844,233.74091793282994" stroke="black"  stroke-width="4"  fill="red"/>
<path d="M198.5649470022425,29.655094956522305 L200.46554263584983,98.47889136091908 M312.38081816792857,-19.265879599678442 L313.1720317288599,48.67248003695693 M198.5649470022425,29.655094956522305 L312.38081816792857,-19.265879599678442 M200.46554263584983,98.47889136091908 L313.1720317288599,48.67248003695693 M198.5649470022425,29.655094956522305 L224.28105841528003,29.655094956522305 M200.46554263584983,98.47889136091908 L225.93456166384493,98.47889136091908 M224.28105841528003,29.655094956522305 L225.93456166384493,98.47889136091908 M312.38081816792857,-19.265879599678442 L311.9986883589759,-8.21716809578271 M313.1720317288599,48.67248003695693 L312.79708379357965,59.92281836108606 M311.9986883589759,-8.21716809578271 L312.79708379357965,59.92281836108606 M311.9986883589759,-8.21716809578271 L224.28105841528003,29.655094956522305 M312.79708379357965,59.92281836108606 L225.93456166384493,98.47889136091908" stroke="black"  stroke-width="4"  fill="red"/>
<path d="M521.2468937747933,99.76375665875747 L520.6656384170019,132.77751567228188 M520.6656384170019,132.77751567228188 L520.7202032354263,133.91041209772345 M520.7202032354263,133.91041209772345 L520.6430434177074,138.2902586316784 M520.6430434177074,138.2902586316784 L520.5885462816705,137.15614400414188 M520.5885462816705,137.15614400414188 L520.0133893408257,169.82352914816894 M520.0133893408257,169.82352914816894 L520.4260507362098,178.55943023879814 M521.6678439044871,108.3509370499105 L520.4260507362098,178.55943023879814 M521.2468937747933,99.76375665875747 L521.6678439044871,108.3509370499105 M557.8538780521457,108.59758127701372 L558.0552543505383,99.76375908240311 M557.8538780521457,108.59758127701372 L562.755540958283,108.5975764189709 M562.9630297794829,99.76375423511149 L562.755540958283,108.5975764189709 M599.7713903598973,99.76375665875747 L562.9630297794829,99.76375423511149 M579.6380031327951,801.8235055747161 L599.7713903598973,99.76375665875747 M544.2620557517711,801.8235055747161 L579.6380031327951,801.8235055747161 M520.0133893408257,169.82352914816894 L544.2620557517711,801.8235055747161 M580.0990009338708,137.15614400414188 L520.5885462816705,137.15614400414188 M580.0990009338708,137.15614400414188 L580.2130260335247,132.77751567228188 M520.6656384170019,132.77751567228188 L580.2130260335247,132.77751567228188 M558.0552543505383,99.76375908240311 L521.2468937747933,99.76375665875747 M520.7202032354263,133.91041209772345 L580.2937340535817,133.91041209772345 M580.2130260335247,132.77751567228188 L580.2937340535817,133.91041209772345 M520.6430434177074,138.2902586316784 L580.1796088449897,138.2902586316784 M580.2937340535817,133.91041209772345 L580.1796088449897,138.2902586316784 M580.1796088449897,138.2902586316784 L580.0990009338708,137.15614400414188 M544.2620557517711,801.8235055747161 L544.7110920396258,811.6897434691963 M520.4260507362098,178.55943023879814 L544.7110920396258,811.6897434691963 M562.9630297794829,99.76375423511149 L563.1100592990797,102.01202015580157 M563.1100592990797,102.01202015580157 L558.19794411463,102.01201894183856 M558.19794411463,102.01201894183856 L558.0552543505383,99.76375908240311 M600.4570429271984,108.35093582990402 L521.6678439044871,108.3509370499105 M599.7713903598973,99.76375665875747 L600.4570429271984,108.35093582990402 M557.9962124374928,110.85082517548096 L557.8538780521457,108.59758127701372 M558.19794411463,102.01201894183856 L557.9962124374928,110.85082517548096 M562.9022043008638,110.85082639213374 L557.9962124374928,110.85082517548096 M562.755540958283,108.5975764189709 L562.9022043008638,110.85082639213374 M563.1100592990797,102.01202015580157 L562.9022043008638,110.85082639213374 M579.6380031327951,801.8235055747161 L580.1944517278439,811.6897420679376 M580.1944517278439,811.6897420679376 L600.4570429271984,108.35093582990402 M544.7110920396258,811.6897434691963 L580.1944517278439,811.6897420679376" stroke="black"  stroke-width="4"  fill="red"/>
<path d="M520.6656384170019,132.77751567228188 L521.2468937747933,99.76375665875747 M520.6111188925682,131.64561435018936 L520.6656384170019,132.77751567228188 M520.5340943521669,136.02302493316222 L520.6111188925682,131.64561435018936 M520.5885462816705,137.15614400414188 L520.5340943521669,136.02302493316222 M520.0133893408257,169.82352914816894 L520.5885462816705,137.15614400414188 M520.0133893408257,169.82352914816894 L519.6034616513937,161.1455549929611 M520.8287600395513,91.23408319111701 L519.6034616513937,161.1455549929611 M521.2468937747933,99.76375665875747 L520.8287600395513,91.23408319111701 M580.0990009338708,137.15614400414188 L520.5885462816705,137.15614400414188 M580.0990009338708,137.15614400414188 L580.2130260335247,132.77751567228188 M520.6656384170019,132.77751567228188 L580.2130260335247,132.77751567228188 M558.0552543505383,99.76375908240311 L521.2468937747933,99.76375665875747 M557.8538780521457,108.59758127701372 L558.0552543505383,99.76375908240311 M557.8538780521457,108.59758127701372 L562.755540958283,108.5975764189709 M562.9630297794829,99.76375423511149 L562.755540958283,108.5975764189709 M599.7713903598973,99.76375665875747 L562.9630297794829,99.76375423511149 M579.6380031327951,801.8235055747161 L599.7713903598973,99.76375665875747 M544.2620557517711,801.8235055747161 L579.6380031327951,801.8235055747161 M520.0133893408257,169.82352914816894 L544.2620557517711,801.8235055747161 M580.1323728391308,131.64561068796206 L580.2130260335247,132.77751567228188 M520.6111188925682,131.64561435018936 L580.1323728391308,131.64561068796206 M520.5340943521669,136.02302493316222 L580.0184477267628,136.02302126699402 M580.0184477267628,136.02302126699402 L580.1323728391308,131.64561068796206 M580.0990009338708,137.15614400414188 L580.0184477267628,136.02302126699402 M544.2620557517711,801.8235055747161 L543.815727457332,792.0168200451542 M519.6034616513937,161.1455549929611 L543.815727457332,792.0168200451542 M562.8162650934896,97.51945705227496 L562.9630297794829,99.76375423511149 M557.9128076875234,97.51945463289792 L562.8162650934896,97.51945705227496 M558.0552543505383,99.76375908240311 L557.9128076875234,97.51945463289792 M599.090329397413,91.23408319111701 L520.8287600395513,91.23408319111701 M599.7713903598973,99.76375665875747 L599.090329397413,91.23408319111701 M557.9128076875234,97.51945463289792 L557.7117858404395,106.34829661648558 M557.8538780521457,108.59758127701372 L557.7117858404395,106.34829661648558 M562.609141474755,106.34829904123433 L562.755540958283,108.5975764189709 M557.7117858404395,106.34829661648558 L562.609141474755,106.34829904123433 M562.8162650934896,97.51945705227496 L562.609141474755,106.34829904123433 M579.6380031327951,801.8235055747161 L579.0849131689816,792.0168200451542 M579.0849131689816,792.0168200451542 L599.090329397413,91.23408319111701 M543.815727457332,792.0168200451542 L579.0849131689816,792.0168200451542" stroke="black"  stroke-width="4"  fill="red"/>
<path d="M466.4744290417795,125.40838247622514 L466.14484798678006,158.63236279561124 M466.14484798678006,158.63236279561124 L463.67791228287115,158.632364042032 M463.67791228287115,158.632364042032 L463.635747516616,163.03864026330382 M463.635747516616,163.03864026330382 L466.1011378367249,163.03863901555792 M466.1011378367249,163.03863901555792 L465.7750491334615,195.9105668623082 M465.7750491334615,195.9105668623082 L447.0765869772446,195.9105668623082 M447.5875485853419,125.40838247622514 L447.0765869772446,195.9105668623082 M466.4744290417795,125.40838247622514 L447.5875485853419,125.40838247622514 M466.856501566233,151.64015626016652 L466.94588330109013,142.71198109864372 M466.856501566233,151.64015626016652 L466.91966969871356,153.96995548492146 M467.00921182208947,145.03672466259485 L466.91966969871356,153.96995548492146 M467.4879108462635,162.60622787490325 L467.00921182208947,145.03672466259485 M460.2922705959022,873.8744972296856 L467.4879108462635,162.60622787490325 M459.8796466349405,852.433927285509 L460.2922705959022,873.8744972296856 M465.7750491334615,195.9105668623082 L459.8796466349405,852.433927285509 M466.8624179317551,191.54031413262982 L466.1011378367249,163.03863901555792 M466.8624179317551,191.54031413262982 L466.90708798552663,187.10396396589465 M466.14484798678006,158.63236279561124 L466.90708798552663,187.10396396589465 M466.94588330109013,142.71198109864372 L466.4744290417795,125.40838247622514 M463.67791228287115,158.632364042032 L464.4131948499849,187.1039588706879 M466.90708798552663,187.10396396589465 L464.4131948499849,187.1039588706879 M463.635747516616,163.03864026330382 L464.37010412298054,191.54030903207587 M464.4131948499849,187.1039588706879 L464.37010412298054,191.54030903207587 M464.37010412298054,191.54030903207587 L466.8624179317551,191.54031413262982 M459.8796466349405,852.433927285509 L442.7694510341076,852.433927285509 M447.0765869772446,195.9105668623082 L442.7694510341076,852.433927285509 M467.00921182208947,145.03672466259485 L462.0142204113417,145.03672717315231 M462.0142204113417,145.03672717315231 L461.95535442789503,142.71198109864372 M461.95535442789503,142.71198109864372 L466.94588330109013,142.71198109864372 M448.3279906347021,162.60622787490325 L447.5875485853419,125.40838247622514 M467.4879108462635,162.60622787490325 L448.3279906347021,162.60622787490325 M461.87229294245657,151.64015626016652 L466.856501566233,151.64015626016652 M461.95535442789503,142.71198109864372 L461.87229294245657,151.64015626016652 M461.93100985888725,153.9699580009359 L461.87229294245657,151.64015626016652 M466.91966969871356,153.96995548492146 L461.93100985888725,153.9699580009359 M462.0142204113417,145.03672717315231 L461.93100985888725,153.9699580009359 M460.2922705959022,873.8744972296856 L443.0709109418413,873.8744972296856 M443.0709109418413,873.8744972296856 L448.3279906347021,162.60622787490325 M442.7694510341076,852.433927285509 L443.0709109418413,873.8744972296856" stroke="black"  stroke-width="4"  fill="red"/>
<path d="M466.14484798678006,158.63236279561124 L466.4744290417795,125.40838247622514 M468.6117863155095,158.63236030276977 L466.14484798678006,158.63236279561124 M468.5665307800332,163.03863652006646 L468.6117863155095,158.63236030276977 M466.1011378367249,163.03863901555792 L468.5665307800332,163.03863652006646 M465.7750491334615,195.9105668623082 L466.1011378367249,163.03863901555792 M465.7750491334615,195.9105668623082 L484.47351389538943,195.91056560476 M485.36131212975863,125.40838123988095 L484.47351389538943,195.91056560476 M466.4744290417795,125.40838247622514 L485.36131212975863,125.40838123988095 M466.8624179317551,191.54031413262982 L466.1011378367249,163.03863901555792 M466.8624179317551,191.54031413262982 L466.90708798552663,187.10396396589465 M466.14484798678006,158.63236279561124 L466.90708798552663,187.10396396589465 M466.94588330109013,142.71198109864372 L466.4744290417795,125.40838247622514 M466.856501566233,151.64015626016652 L466.94588330109013,142.71198109864372 M466.856501566233,151.64015626016652 L466.91966969871356,153.96995548492146 M467.00921182208947,145.03672466259485 L466.91966969871356,153.96995548492146 M467.4879108462635,162.60622787490325 L467.00921182208947,145.03672466259485 M460.2922705959022,873.8744972296856 L467.4879108462635,162.60622787490325 M459.8796466349405,852.433927285509 L460.2922705959022,873.8744972296856 M465.7750491334615,195.9105668623082 L459.8796466349405,852.433927285509 M469.4009755372544,187.10396141829125 L466.90708798552663,187.10396396589465 M468.6117863155095,158.63236030276977 L469.4009755372544,187.10396141829125 M468.5665307800332,163.03863652006646 L469.3547261603799,191.54031158235284 M469.3547261603799,191.54031158235284 L469.4009755372544,187.10396141829125 M466.8624179317551,191.54031413262982 L469.3547261603799,191.54031158235284 M459.8796466349405,852.433927285509 L476.9898446234105,852.4339258489979 M484.47351389538943,195.91056560476 L476.9898446234105,852.4339258489979 M472.00421946461506,145.03672466259485 L467.00921182208947,145.03672466259485 M471.9363986031946,142.7119773395575 L472.00421946461506,145.03672466259485 M466.94588330109013,142.71198109864372 L471.9363986031946,142.7119773395575 M486.6478310578248,162.60622787490325 L485.36131212975863,125.40838123988095 M467.4879108462635,162.60622787490325 L486.6478310578248,162.60622787490325 M471.9363986031946,142.7119773395575 L471.8406966362447,151.64015249290128 M466.856501566233,151.64015626016652 L471.8406966362447,151.64015249290128 M471.9083457496622,153.96995548492166 L466.91966969871356,153.96995548492146 M471.8406966362447,151.64015249290128 L471.9083457496622,153.96995548492166 M472.00421946461506,145.03672466259485 L471.9083457496622,153.96995548492166 M460.2922705959022,873.8744972296856 L477.51363024996306,873.8744972296856 M477.51363024996306,873.8744972296856 L486.6478310578248,162.60622787490325 M476.9898446234105,852.4339258489979 L477.51363024996306,873.8744972296856" stroke="black"  stroke-width="4"  fill="red"/>
<path d="M329.30377601935595,13.839662303283319 L329.6054568777147,46.13139780928714 M329.6054568777147,46.13139780928714 L331.9659072203396,46.131396668147715 M331.9659072203396,46.131396668147715 L332.00451150359913,50.41502444573234 M332.00451150359913,50.41502444573234 L329.64547604933756,50.415025588146705 M329.64547604933756,50.415025588146705 L329.9440974408329,82.37927762276809 M329.9440974408329,82.37927762276809 L347.8395332947155,82.37927762276809 M347.37171936508213,13.839662303283319 L347.8395332947155,82.37927762276809 M329.30377601935595,13.839662303283319 L347.37171936508213,13.839662303283319 M329.8093119870243,6.813290959724611 L329.7296186622384,-1.7902363739478346 M329.8093119870243,6.813290959724611 L329.8655588194018,4.739494337824567 M329.7860001966561,-3.8592360431326824 L329.8655588194018,4.739494337824567 M330.2057600989882,-19.265879599678442 L329.7860001966561,-3.8592360431326824 M336.4778280452034,664.3831496887133 L330.2057600989882,-19.265879599678442 M336.11102546362616,683.4427709178904 L336.4778280452034,664.3831496887133 M329.9440974408329,82.37927762276809 L336.11102546362616,683.4427709178904 M330.3279116487575,24.865220897379857 L329.64547604933756,50.415025588146705 M330.3279116487575,24.865220897379857 L330.2887071457089,20.610263833361728 M329.6054568777147,46.13139780928714 L330.2887071457089,20.610263833361728 M329.7296186622384,-1.7902363739478346 L329.30377601935595,13.839662303283319 M331.9659072203396,46.131396668147715 L332.6250084129433,20.610268304971612 M330.2887071457089,20.610263833361728 L332.6250084129433,20.610268304971612 M332.00451150359913,50.41502444573234 L332.66282682613576,24.865225374040847 M332.6250084129433,20.610268304971612 L332.66282682613576,24.865225374040847 M332.66282682613576,24.865225374040847 L330.3279116487575,24.865220897379857 M336.11102546362616,683.4427709178904 L352.3450437076816,683.4427709178904 M347.8395332947155,82.37927762276809 L352.3450437076816,683.4427709178904 M329.7860001966561,-3.8592360431326824 L334.494134925681,-3.8592382736129593 M334.494134925681,-3.8592382736129593 L334.44175463660156,-1.7902363739478346 M334.44175463660156,-1.7902363739478346 L329.7296186622384,-1.7902363739478346 M348.03070203004796,-19.265879599678442 L347.37171936508213,13.839662303283319 M330.2057600989882,-19.265879599678442 L348.03070203004796,-19.265879599678442 M334.51581278670153,6.813290959724611 L329.8093119870243,6.813290959724611 M334.44175463660156,-1.7902363739478346 L334.51581278670153,6.813290959724611 M334.5680679158392,4.739492102170459 L334.51581278670153,6.813290959724611 M329.8655588194018,4.739494337824567 L334.5680679158392,4.739492102170459 M334.494134925681,-3.8592382736129593 L334.5680679158392,4.739492102170459 M336.4778280452034,664.3831496887133 L352.61302686634525,664.3831496887133 M352.61302686634525,664.3831496887133 L348.03070203004796,-19.265879599678442 M352.3450437076816,683.4427709178904 L352.61302686634525,664.3831496887133" stroke="black"  stroke-width="4"  fill="red"/>
<path d="M329.6054568777147,46.13139780928714 L329.30377601935595,13.839662303283319 M327.2450039544635,46.131400091565695 L329.6054568777147,46.13139780928714 M327.28643801601686,50.41502787297554 L327.2450039544635,46.131400091565695 M329.64547604933756,50.415025588146705 L327.28643801601686,50.41502787297554 M329.9440974408329,82.37927762276809 L329.64547604933756,50.415025588146705 M329.9440974408329,82.37927762276809 L312.0486590146443,82.37927877462181 M311.23583007615383,13.83966343473594 L312.0486590146443,82.37927877462181 M329.30377601935595,13.839662303283319 L311.23583007615383,13.83966343473594 M330.3279116487575,24.865220897379857 L329.64547604933756,50.415025588146705 M330.3279116487575,24.865220897379857 L330.2887071457089,20.610263833361728 M329.6054568777147,46.13139780928714 L330.2887071457089,20.610263833361728 M329.7296186622384,-1.7902363739478346 L329.30377601935595,13.839662303283319 M329.8093119870243,6.813290959724611 L329.7296186622384,-1.7902363739478346 M329.8093119870243,6.813290959724611 L329.8655588194018,4.739494337824567 M329.7860001966561,-3.8592360431326824 L329.8655588194018,4.739494337824567 M330.2057600989882,-19.265879599678442 L329.7860001966561,-3.8592360431326824 M336.4778280452034,664.3831496887133 L330.2057600989882,-19.265879599678442 M336.11102546362616,683.4427709178904 L336.4778280452034,664.3831496887133 M329.9440974408329,82.37927762276809 L336.11102546362616,683.4427709178904 M327.95241074256313,20.61026606916664 L330.2887071457089,20.610263833361728 M327.2450039544635,46.131400091565695 L327.95241074256313,20.61026606916664 M327.28643801601686,50.41502787297554 L327.9930013326873,24.865223135710607 M327.9930013326873,24.865223135710607 L327.95241074256313,20.61026606916664 M330.3279116487575,24.865220897379857 L327.9930013326873,24.865223135710607 M336.11102546362616,683.4427709178904 L319.8770048893116,683.4427722110468 M312.0486590146443,82.37927877462181 L319.8770048893116,683.4427722110468 M325.0778502844148,-3.8592360431326824 L329.7860001966561,-3.8592360431326824 M325.0174953006016,-1.7902330225595051 L325.0778502844148,-3.8592360431326824 M329.7296186622384,-1.7902363739478346 L325.0174953006016,-1.7902330225595051 M312.38081816792857,-19.265879599678442 L311.23583007615383,13.83966343473594 M330.2057600989882,-19.265879599678442 L312.38081816792857,-19.265879599678442 M325.0174953006016,-1.7902330225595051 L325.1028237851067,6.813294318879684 M329.8093119870243,6.813290959724611 L325.1028237851067,6.813294318879684 M325.16303455782264,4.739494337824567 L329.8655588194018,4.739494337824567 M325.1028237851067,6.813294318879684 L325.16303455782264,4.739494337824567 M325.0778502844148,-3.8592360431326824 L325.16303455782264,4.739494337824567 M336.4778280452034,664.3831496887133 L320.3426292240616,664.3831496887133 M320.3426292240616,664.3831496887133 L312.38081816792857,-19.265879599678442 M319.8770048893116,683.4427722110468 L320.3426292240616,664.3831496887133" stroke="black"  stroke-width="4"  fill="red"/>
<path d="M274.530279474517,37.77536347189391 L275.08365348633754,70.27096574143673 M275.08365348633754,70.27096574143673 L275.135571983402,69.19322417498893 M275.135571983402,69.19322417498893 L275.2089128131147,73.50249025041865 M275.2089128131147,73.50249025041865 L275.15705712402166,74.5814237036264 M275.15705712402166,74.5814237036264 L275.7047651189573,106.7443023048931 M275.7047651189573,106.7443023048931 L276.09520686921724,98.47889019435905 M274.9283463711716,29.655093810483322 L276.09520686921724,98.47889019435905 M274.530279474517,37.77536347189391 L274.9283463711716,29.655093810483322 M238.8093041442107,46.46981361497319 L238.6176032617091,37.7753611647654 M238.8093041442107,46.46981361497319 L234.02677134915092,46.46981823974454 M233.82925162736842,37.77536577902231 L234.02677134915092,46.46981823974454 M197.91657541900526,37.77536347189391 L233.82925162736842,37.77536577902231 M217.12831803509573,730.4061811737283 L197.91657541900526,37.77536347189391 M251.72677206708627,730.4061811737283 L217.12831803509573,730.4061811737283 M275.7047651189573,106.7443023048931 L251.72677206708627,730.4061811737283 M217.0872632374193,74.5814237036264 L275.15705712402166,74.5814237036264 M217.0872632374193,74.5814237036264 L216.97869370479575,70.27096574143673 M275.08365348633754,70.27096574143673 L216.97869370479575,70.27096574143673 M238.6176032617091,37.7753611647654 L274.530279474517,37.77536347189391 M275.135571983402,69.19322417498893 L217.055482626417,69.19322417498893 M216.97869370479575,70.27096574143673 L217.055482626417,69.19322417498893 M275.2089128131147,73.50249025041865 L217.16395926278975,73.50249025041865 M217.055482626417,69.19322417498893 L217.16395926278975,73.50249025041865 M217.16395926278975,73.50249025041865 L217.0872632374193,74.5814237036264 M251.72677206708627,730.4061811737283 L252.15372783232385,721.0251982425523 M276.09520686921724,98.47889019435905 L252.15372783232385,721.0251982425523 M233.82925162736842,37.77536577902231 L233.96896904163856,35.63891112765634 M233.96896904163856,35.63891112765634 L238.75321204338087,35.63891227923847 M238.75321204338087,35.63891227923847 L238.6176032617091,37.7753611647654 M198.5649470022425,29.655094956522305 L274.9283463711716,29.655093810483322 M197.91657541900526,37.77536347189391 L198.5649470022425,29.655094956522305 M238.9445836913381,44.328494175184176 L238.8093041442107,46.46981361497319 M238.75321204338087,35.63891227923847 L238.9445836913381,44.328494175184176 M234.16614954414808,44.32849302097571 L238.9445836913381,44.328494175184176 M234.02677134915092,46.46981823974454 L234.16614954414808,44.32849302097571 M233.96896904163856,35.63891112765634 L234.16614954414808,44.32849302097571 M217.12831803509573,730.4061811737283 L217.65739860587507,721.0251995669383 M217.65739860587507,721.0251995669383 L198.5649470022425,29.655094956522305 M252.15372783232385,721.0251982425523 L217.65739860587507,721.0251995669383" stroke="black"  stroke-width="4"  fill="red"/>
<path d="M275.08365348633754,70.27096574143673 L274.530279474517,37.77536347189391 M275.03169313495044,71.3496295365124 L275.08365348633754,70.27096574143673 M275.10515965969404,75.66127984565833 L275.03169313495044,71.3496295365124 M275.15705712402166,74.5814237036264 L275.10515965969404,75.66127984565833 M275.7047651189573,106.7443023048931 L275.15705712402166,74.5814237036264 M275.7047651189573,106.7443023048931 L275.3117827943189,115.06355114946314 M274.12959704158555,45.9490410039088 L275.3117827943189,115.06355114946314 M274.530279474517,37.77536347189391 L274.12959704158555,45.9490410039088 M217.0872632374193,74.5814237036264 L275.15705712402166,74.5814237036264 M217.0872632374193,74.5814237036264 L216.97869370479575,70.27096574143673 M275.08365348633754,70.27096574143673 L216.97869370479575,70.27096574143673 M238.6176032617091,37.7753611647654 L274.530279474517,37.77536347189391 M238.8093041442107,46.46981361497319 L238.6176032617091,37.7753611647654 M238.8093041442107,46.46981361497319 L234.02677134915092,46.46981823974454 M233.82925162736842,37.77536577902231 L234.02677134915092,46.46981823974454 M197.91657541900526,37.77536347189391 L233.82925162736842,37.77536577902231 M217.12831803509573,730.4061811737283 L197.91657541900526,37.77536347189391 M251.72677206708627,730.4061811737283 L217.12831803509573,730.4061811737283 M275.7047651189573,106.7443023048931 L251.72677206708627,730.4061811737283 M216.9018542612006,71.34963302951883 L216.97869370479575,70.27096574143673 M275.03169313495044,71.3496295365124 L216.9018542612006,71.34963302951883 M275.10515965969404,75.66127984565833 L217.01051680030898,75.66128334252517 M217.01051680030898,75.66128334252517 L216.9018542612006,71.34963302951883 M217.0872632374193,74.5814237036264 L217.01051680030898,75.66128334252517 M251.72677206708627,730.4061811737283 L251.29728317075765,739.8428729479438 M275.3117827943189,115.06355114946314 L251.29728317075765,739.8428729479438 M233.68928888312703,39.91549276420449 L233.82925162736842,37.77536577902231 M238.48176833341785,39.915495075307604 L233.68928888312703,39.91549276420449 M238.6176032617091,37.7753611647654 L238.48176833341785,39.915495075307604 M197.2639393353252,45.9490410039088 L274.12959704158555,45.9490410039088 M197.91657541900526,37.77536347189391 L197.2639393353252,45.9490410039088 M238.48176833341785,39.915495075307604 L238.6737992922565,48.61482199557486 M238.8093041442107,46.46981361497319 L238.6737992922565,48.61482199557486 M233.88714870548617,48.61481967921014 L234.02677134915092,46.46981823974454 M238.6737992922565,48.61482199557486 L233.88714870548617,48.61481967921014 M233.68928888312703,39.91549276420449 L233.88714870548617,48.61481967921014 M217.12831803509573,730.4061811737283 L216.59609545120782,739.8428729479438 M216.59609545120782,739.8428729479438 L197.2639393353252,45.9490410039088 M251.29728317075765,739.8428729479438 L216.59609545120782,739.8428729479438" stroke="black"  stroke-width="4"  fill="red"/></svg>