<svg viewBox="0 0 800 800" xmlns="http://www.w3.org/2000/svg"><path d="M731.659516446032,194.3396222498751 L744.1883299271439,187.73286765520353 M731.659516446032,194.3396222498751 L719.6990736390684,119.82143687204655 M733.8646019243183,125.9920432737045 L719.6990736390684,119.82143687204655 M744.1883299271439,187.73286765520353 L733.8646019243183,125.9920432737045 M740.5493374566121,243.75528749241965 L744.1883299271439,187.73286765520353 M728.1437968229922,250.47156025079977 L740.5493374566121,243.75528749241965 M728.1437968229922,250.47156025079977 L731.659516446032,194.3396222498751 M733.8646019243183,125.9920432737045 L730.4428931189584,180.96825409675355 M740.5493374566121,243.75528749241965 L730.4428931189584,180.96825409675355 M737.3396782470548,185.29487288786524 L737.3629985770605,184.82252079535073 M737.3629985770605,184.82252079535073 L737.3753167567185,184.31860472404128 M737.3753167567185,184.31860472404128 L737.3758748668166,183.81244334962273 M737.3758748668166,183.81244334962273 L737.3646507471103,183.3335424463151 M737.3646507471103,183.3335424463151 L737.3423029730059,182.9097181655251 M737.3423029730059,182.9097181655251 L737.3101313906923,182.56571095090487 M737.3101313906923,182.56571095090487 L737.2700112597009,182.32142583813265 M737.2700112597009,182.32142583813265 L737.2242840340541,182.1910669057216 M737.2242840340541,182.1910669057216 L737.1756027596149,182.1822110155826 M737.1756027596149,182.1822110155826 L737.1268042218474,182.29525664387342 M737.1268042218474,182.29525664387342 L737.0807195318733,182.52364561842546 M737.0807195318733,182.52364561842546 L737.0400098786446,182.85401121148556 M737.0400098786446,182.85401121148556 L737.0070814001025,183.2671890969759 M737.0070814001025,183.2671890969759 L736.9837809338687,183.73914397411852 M736.9837809338687,183.73914397411852 L736.9715219062113,184.24248720347757 M736.9715219062113,184.24248720347757 L736.9709651548889,184.74803133012963 M736.9709651548889,184.74803133012963 L736.9821602777902,185.2264496377382 M736.9821602777902,185.2264496377382 L737.0044619728723,185.6499322481188 M737.0044619728723,185.6499322481188 L737.0365719317623,185.99395890242232 M737.0365719317623,185.99395890242232 L737.0766356365823,186.23851583256354 M737.0766356365823,186.23851583256354 L737.1223245657922,186.36933666133334 M737.1223245657922,186.36933666133334 L737.1709878126859,186.37884303720844 M737.1709878126859,186.37884303720844 L737.2198017448317,186.26634553028316 M737.2198017448317,186.26634553028316 L737.2659250953579,186.03838102143712 M737.2659250953579,186.03838102143712 L737.3066600617742,185.70818138301894 M737.3066600617742,185.70818138301894 L737.3396782470548,185.29487288786524 M719.6990736390684,119.82143687204655 L716.4351124863463,174.69082558053188 M730.4428931189584,180.96825409675355 L716.4351124863463,174.69082558053188 M716.4351124863463,174.69082558053188 L728.1437968229922,250.47156025079977 M729.2026310530883,191.9134156695453 L728.8729184099175,197.22001776974258 M728.7365440510218,188.99097163354057 L729.2026310530883,191.9134156695453 M728.8729184099175,197.22001776974258 L728.4077794504125,194.29291449594263 M728.4077794504125,194.29291449594263 L728.7365440510218,188.99097163354057 M721.3596334106483,142.7364520618409 L721.0456922122676,147.96350887723915 M720.9158366445444,139.95377162696286 L721.3596334106483,142.7364520618409 M721.0456922122676,147.96350887723915 L720.6027763319026,145.17625473252232 M720.6027763319026,145.17625473252232 L720.9158366445444,139.95377162696286 M726.4113639486262,226.48884100525896 L726.7360726502702,221.2523070844851 M726.8707666967057,229.44390334496413 L726.4113639486262,226.48884100525896 M727.1964059423377,224.2028610599036 L726.8707666967057,229.44390334496413 M726.7360726502702,221.2523070844851 L727.1964059423377,224.2028610599036 M724.0251708948476,185.29488018785216 L723.9934904627628,185.70818138301894 M723.9934904627628,185.70818138301894 L723.954376132004,186.03838832248354 M723.954376132004,186.03838832248354 L723.9100866575203,186.26634553028316 M723.9100866575203,186.26634553028316 L723.8632307539867,186.37884303720844 M723.8632307539867,186.37884303720844 L723.8165194914055,186.36933666133334 M723.8165194914055,186.36933666133334 L723.7726771631404,186.2385085349602 M723.7726771631404,186.2385085349602 L723.7342227900714,185.99396619826288 M723.7342227900714,185.99396619826288 L723.7033846128714,185.6499322481188 M723.7033846128714,185.6499322481188 L723.6819774852859,185.2264496377382 M723.6819774852859,185.2264496377382 L723.6712314221096,184.74803133012963 M723.6712314221096,184.74803133012963 L723.6717797596439,184.24247991537942 M723.6717797596439,184.24247991537942 L723.6835626612382,183.73914397411852 M723.6835626612382,183.73914397411852 L723.7059128894513,183.26718181161078 M723.7059128894513,183.26718181161078 L723.7375361507898,182.85401121148556 M723.7375361507898,182.85401121148556 L723.7765972450325,182.5236383341227 M723.7765972450325,182.5236383341227 L723.8208194591147,182.29525664387342 M723.8208194591147,182.29525664387342 L723.8676605857708,182.1822110155826 M723.8676605857708,182.1822110155826 L723.9143891527749,182.1910669057216 M723.9143891527749,182.1910669057216 L723.9582983919881,182.32143312586342 M723.9582983919881,182.32143312586342 L723.9968069246275,182.56570366141187 M723.9968069246275,182.56570366141187 L724.0276741059754,182.9097181655251 M724.0276741059754,182.9097181655251 L724.0491254642576,183.3335424463151 M724.0491254642576,183.3335424463151 L724.0598993611164,183.81244334962273 M724.0598993611164,183.81244334962273 L724.0593798714361,184.31861202128997 M724.0593798714361,184.31861202128997 L724.0475691277329,184.82252079535073 M724.0475691277329,184.82252079535073 L724.0251708948476,185.29488018785216 M718.7013940232563,176.8951810324528 L719.0106846506989,171.7355839474805 M719.1389786384661,179.70990034277955 L718.7013940232563,176.8951810324528 M719.0106846506989,171.7355839474805 L719.4491342810888,174.54587225736776 M719.4491342810888,174.54587225736776 L719.1389786384661,179.70990034277955 M737.3396782470548,185.29487288786524 L724.0251708948476,185.29488018785216 M731.8833200639891,197.22001776974258 L732.2161012424752,191.9134156695453 M732.2161012424752,191.9134156695453 L729.2026310530883,191.9134156695453 M731.8833200639891,197.22001776974258 L728.8729184099175,197.22001776974258 M732.2161012424752,191.9134156695453 L731.7456765104022,188.99097163354057 M731.7456765104022,188.99097163354057 L728.7365440510218,188.99097163354057 M731.4138521976214,194.29291449594263 L731.8833200639891,197.22001776974258 M731.4138521976214,194.29291449594263 L728.4077794504125,194.29291449594263 M731.7456765104022,188.99097163354057 L731.4138521976214,194.29291449594263 M723.9832481825914,147.96350887723915 L724.3001111361772,142.7364520618409 M724.3001111361772,142.7364520618409 L721.3596334106483,142.7364520618409 M723.9832481825914,147.96350887723915 L721.0456922122676,147.96350887723915 M724.3001111361772,142.7364520618409 L723.8521840886128,139.95377162696286 M723.8521840886128,139.95377162696286 L720.9158366445444,139.95377162696286 M723.5362102189015,145.17625473252232 L723.9832481825914,147.96350887723915 M723.5362102189015,145.17625473252232 L720.6027763319026,145.17625473252232 M723.8521840886128,139.95377162696286 L723.5362102189015,145.17625473252232 M729.7265873306008,221.2523070844851 L729.3988566638039,226.48884100525896 M729.3988566638039,226.48884100525896 L726.4113639486262,226.48884100525896 M729.7265873306008,221.2523070844851 L726.7360726502702,221.2523070844851 M729.3988566638039,226.48884100525896 L729.8625349335704,229.44390334496413 M729.8625349335704,229.44390334496413 L726.8707666967057,229.44390334496413 M729.8625349335704,229.44390334496413 L730.1912048046454,224.20286105990368 M730.1912048046454,224.20286105990368 L727.1964059423377,224.2028610599036 M730.1912048046454,224.20286105990368 L729.7265873306008,221.2523070844851 M721.9293014248739,171.7355839474805 L721.6171323236748,176.8951810324528 M721.6171323236748,176.8951810324528 L718.7013940232563,176.8951810324528 M721.9293014248739,171.7355839474805 L719.0106846506989,171.7355839474805 M721.6171323236748,176.8951810324528 L722.058789405747,179.70990034277955 M722.058789405747,179.70990034277955 L719.1389786384661,179.70990034277955 M722.3718315725594,174.54587225736776 L721.9293014248739,171.7355839474805 M722.3718315725594,174.54587225736776 L719.4491342810888,174.54587225736776 M722.058789405747,179.70990034277955 L722.3718315725594,174.54587225736776" stroke="black"  stroke-width="4"  fill="red"/>
<path d="M279.51889015452196,357.65636501985637 L421.9514859311389,357.6563606382082 M265.283588930799,349.9473243122471 L279.51889015452196,357.65636501985637 M265.283588930799,349.9473243122471 L436.57062712415063,349.9473243122471 M421.9514859311389,357.6563606382082 L436.57062712415063,349.9473243122471 M421.9514859311389,357.6563606382082 L421.759040461285,416.3461201356273 M280.9831915996614,416.3461245820499 L421.759040461285,416.3461201356273 M280.9831915996614,416.3461245820499 L279.51889015452196,357.65636501985637 M348.7490747930775,387.17290560322647 L348.81078692311894,386.7046835769869 M348.81078692311894,386.7046835769869 L349.00298080497356,386.2636251314425 M349.00298080497356,386.2636251314425 L349.31447695159954,385.8753230134399 M349.31447695159954,385.8753230134399 L349.7272096088956,385.5624316945238 M349.7272096088956,385.5624316945238 L350.2171859139062,385.3431017632487 M350.2171859139062,385.3431017632487 L350.75588824149963,385.23018338162024 M350.75588824149963,385.23018338162024 L351.31202750308637,385.23018338162024 M351.31202750308637,385.23018338162024 L351.85317686624325,385.3431017632487 M351.85317686624325,385.3431017632487 L352.34790623390126,385.5624316945238 M352.34790623390126,385.5624316945238 L352.7674195071946,385.8753230134399 M352.7674195071946,385.8753230134399 L353.0873304847663,386.2636251314425 M353.0873304847663,386.2636251314425 L353.2890830938554,386.7046835769869 M353.2890830938554,386.7046835769869 L353.36094136330536,387.17290560322647 M353.36094136330536,387.17290560322647 L353.2988107834106,387.6410225797986 M353.2988107834106,387.6410225797986 L353.106291671472,388.0818565405775 M353.106291671472,388.0818565405775 L352.7946391795861,388.46981721562685 M352.7946391795861,388.46981721562685 L352.3819549092635,388.78238583268774 M352.3819549092635,388.78238583268774 L351.8922194380974,389.0013754462703 M351.8922194380974,389.0013754462703 L351.3538968269914,389.11416394116156 M351.3538968269914,389.11416394116156 L350.7981880176074,389.11416394116156 M350.7981880176074,389.11416394116156 L350.257421185692,389.0013754462703 M350.257421185692,389.0013754462703 L349.76294002684676,388.78238583268774 M349.76294002684676,388.78238583268774 L349.34348213374545,388.46981721562685 M349.34348213374545,388.46981721562685 L349.0234222102675,388.0818565405775 M349.0234222102675,388.0818565405775 L348.82135048103896,387.6410225797986 M348.82135048103896,387.6410225797986 L348.7490747930775,387.17290560322647 M436.57062712415063,349.9473243122471 L436.2093925613409,408.5228007797915 M421.759040461285,416.3461201356273 L436.2093925613409,408.5228007797915 M266.9078171214304,408.5228007797915 L265.283588930799,349.9473243122471 M436.2093925613409,408.5228007797915 L266.9078171214304,408.5228007797915 M291.5888712006873,359.6787817158223 L291.7143352038604,365.2384674894479 M298.11383368247084,359.6787817158223 L291.5888712006873,359.6787817158223 M291.7143352038604,365.2384674894479 L298.2321050704252,365.2384674894479 M298.2321050704252,365.2384674894479 L298.11383368247084,359.6787817158223 M403.95021825340643,359.6787773539508 L403.95182377661274,365.23846312136385 M410.4751807222415,359.6787773539508 L403.95021825340643,359.6787773539508 M403.95182377661274,365.23846312136385 L410.4695936302576,365.23846312136385 M410.4695936302576,365.23846312136385 L410.4751807222415,359.6787773539508 M298.9498707816461,398.9791031790665 L298.83317995704056,393.49371631844224 M292.47575147729543,398.9791031790665 L298.9498707816461,398.9791031790665 M292.3519641586394,393.49371631844224 L292.47575147729543,398.9791031790665 M298.83317995704056,393.49371631844224 L292.3519641586394,393.49371631844224 M348.9467950510794,379.4057955390439 L349.01881643423997,379.8730100562085 M349.01881643423997,379.8730100562085 L349.220149457615,380.31297732108266 M349.220149457615,380.31297732108266 L349.5390942308537,380.7001744598349 M349.5390942308537,380.7001744598349 L349.95707652040113,381.01213513541086 M349.95707652040113,381.01213513541086 L350.4498241019907,381.23069889816384 M350.4498241019907,381.23069889816384 L350.9887163624986,381.3432768605511 M350.9887163624986,381.3432768605511 L351.5424534348566,381.343276860551 M351.5424534348566,381.343276860551 L352.07891892715634,381.23069889816384 M352.07891892715634,381.23069889816384 L352.5669538772027,381.01213513541086 M352.5669538772027,381.01213513541086 L352.9782097281977,380.7001744598349 M352.9782097281977,380.7001744598349 L353.28880521095994,380.31297732108266 M353.28880521095994,380.31297732108266 L353.48065174125816,379.8730100562084 M353.48065174125816,379.8730100562084 L353.5425991311097,379.40579553904377 M353.5425991311097,379.40579553904377 L353.47099183297803,378.93849410502855 M353.47099183297803,378.93849410502855 L353.269976149459,378.4982860120217 M353.269976149459,378.4982860120217 L352.95117971938066,378.1107317492154 M352.95117971938066,378.1107317492154 L352.53314244913673,377.7984502627674 M352.53314244913673,377.7984502627674 L352.0401483995101,377.5795478916961 M352.0401483995101,377.5795478916961 L351.50087583856833,377.46685842173355 M351.50087583856833,377.46685842173355 L350.94671133885373,377.46685842173355 M350.94671133885373,377.46685842173355 L350.4098691850106,377.5795478916961 M350.4098691850106,377.5795478916961 L349.92159506793723,377.79845026276735 M349.92159506793723,377.79845026276735 L349.5102911535106,378.1107317492154 M349.5102911535106,378.1107317492154 L349.1998504795673,378.4982860120217 M349.1998504795673,378.4982860120217 L349.008326481817,378.9384941050286 M349.008326481817,378.9384941050286 L348.9467950510794,379.4057955390439 M410.4356866716861,398.97909877380107 L410.4411990985041,393.49371191916066 M403.9615673800828,398.97909877380107 L410.4356866716861,398.97909877380107 M410.4411990985041,393.49371191916066 L403.9599833128784,393.49371191916066 M403.9599833128784,393.49371191916066 L403.9615673800828,398.97909877380107 M266.9078171214304,408.5228007797915 L280.9831915996614,416.3461245820499 M348.7490747930775,387.17290560322647 L348.9467950510794,379.4057955390439 M291.62564751775625,366.9574078903588 L291.4999875893706,361.39527879844053 M291.4999875893706,361.39527879844053 L291.5888712006873,359.6787817158223 M291.62564751775625,366.9574078903588 L291.7143352038604,365.2384674894479 M291.4999875893706,361.39527879844053 L298.0300456013404,361.39527879844053 M298.0300456013404,361.39527879844053 L298.11383368247084,359.6787817158223 M298.1485016824835,366.9574078903588 L291.62564751775625,366.9574078903588 M298.1485016824835,366.9574078903588 L298.2321050704252,365.2384674894479 M298.0300456013404,361.39527879844053 L298.1485016824835,366.9574078903588 M403.9506888683159,366.95740351545726 L403.94908083791654,361.3952744297538 M403.94908083791654,361.3952744297538 L403.95021825340643,359.6787773539508 M403.9506888683159,366.95740351545726 L403.95182377661274,365.23846312136385 M403.94908083791654,361.3952744297538 L410.4791388369177,361.3952744297538 M410.4791388369177,361.3952744297538 L410.4751807222415,359.6787773539508 M410.4735430201031,366.95740351545726 L403.9506888683159,366.95740351545726 M410.4735430201031,366.95740351545726 L410.4695936302576,365.23846312136385 M410.4791388369177,361.3952744297538 L410.4735430201031,366.95740351545726 M298.75051205866447,395.22492606823323 L298.86738388576293,400.7126661931561 M298.86738388576293,400.7126661931561 L298.9498707816461,398.9791031790665 M298.75051205866447,395.22492606823323 L298.83317995704056,393.49371631844224 M298.86738388576293,400.7126661931561 L292.388248182155,400.7126661931561 M292.388248182155,400.7126661931561 L292.47575147729543,398.9791031790665 M292.388248182155,400.7126661931561 L292.26426885343017,395.22492606823323 M292.26426885343017,395.22492606823323 L292.3519641586394,393.49371631844224 M292.26426885343017,395.22492606823323 L298.75051205866447,395.22492606823323 M410.44510429620533,395.2249216621241 L410.4395833189036,400.7126617810614 M410.4395833189036,400.7126617810614 L410.4356866716861,398.97909877380107 M410.44510429620533,395.2249216621241 L410.4411990985041,393.49371191916066 M410.4395833189036,400.7126617810614 L403.96044762806287,400.7126617810614 M403.96044762806287,400.7126617810614 L403.9615673800828,398.97909877380107 M403.9588611037663,395.2249216621241 L410.44510429620533,395.2249216621241 M403.9588611037663,395.2249216621241 L403.9599833128784,393.49371191916066 M403.96044762806287,400.7126617810614 L403.9588611037663,395.2249216621241" stroke="black"  stroke-width="4"  fill="red"/>
<path d="M512.4859496319418,29.55790389549594 L391.3338453251473,29.55790706565199 M525.3737562618546,35.17192551844357 L512.4859496319418,29.55790389549594 M525.3737562618546,35.17192551844357 L378.72557897829034,35.17192551844357 M391.3338453251473,29.55790706565199 L378.72557897829034,35.17192551844357 M391.3338453251473,29.55790706565199 L391.4733234973253,82.81771775166482 M511.424671921739,82.8177145234331 L391.4733234973253,82.81771775166482 M511.424671921739,82.8177145234331 L512.4859496319418,29.55790389549594 M453.64142900094186,56.32043604043696 L453.5882229666489,55.895549998251795 M453.5882229666489,55.895549998251795 L453.4239755185086,55.495296232317855 M453.4239755185086,55.495296232317855 L453.15824506530953,55.14293937004072 M453.15824506530953,55.14293937004072 L452.80644461489106,54.859018404300855 M452.80644461489106,54.859018404300855 L452.3890243593969,54.65999919239778 M452.3890243593969,54.65999919239778 L451.93027651534703,54.55753845703623 M451.93027651534703,54.55753845703623 L451.45684204621887,54.55753845703623 M451.45684204621887,54.55753845703623 L450.99632085252927,54.65999919239778 M450.99632085252927,54.65999919239778 L450.57545605170264,54.859018404300855 M450.57545605170264,54.859018404300855 L450.21874161017786,55.14293937004072 M450.21874161017786,55.14293937004072 L449.9469127046049,55.495296232317855 M449.9469127046049,55.495296232317855 L449.77573824688693,55.895549998251795 M449.77573824688693,55.895549998251795 L449.71517803068565,56.32043604043696 M449.71517803068565,56.32043604043696 L449.76868786967594,56.74526736413708 M449.76868786967594,56.74526736413708 L449.93317012831955,57.14532125729136 M449.93317012831955,57.14532125729136 L450.1990134978711,57.49741432803995 M450.1990134978711,57.49741432803995 L450.5507784554446,57.78109135068473 M450.5507784554446,57.78109135068473 L450.9680238099639,57.9798422709643 M450.9680238099639,57.9798422709643 L451.4264962472529,58.08220802807091 M451.4264962472529,58.08220802807091 L451.8996187357998,58.08220802807091 M451.8996187357998,58.08220802807091 L452.3598628788827,57.9798422709643 M452.3598628788827,57.9798422709643 L452.7805481352498,57.78109135068473 M452.7805481352498,57.78109135068473 L453.1372228618596,57.49741432803995 M453.1372228618596,57.49741432803995 L453.4091601181862,57.14532125729136 M453.4091601181862,57.14532125729136 L453.58056677371593,56.74526736413708 M453.58056677371593,56.74526736413708 L453.64142900094186,56.32043604043696 M378.72557897829034,35.17192551844357 L378.9908063686925,88.53441174783268 M391.4733234973253,82.81771775166482 L378.9908063686925,88.53441174783268 M524.1812075725262,88.53441174783268 L525.3737562618546,35.17192551844357 M378.9908063686925,88.53441174783268 L524.1812075725262,88.53441174783268 M502.8793696593816,44.02498423142242 L502.7873389281247,49.085037997474956 M497.29144544569226,44.02498423142242 L502.8793696593816,44.02498423142242 M502.7873389281247,49.085037997474956 L497.20469066308584,49.085037997474956 M497.20469066308584,49.085037997474956 L497.29144544569226,44.02498423142242 M406.6540360116328,44.0249874304489 L406.6528583234348,49.08504120207209 M401.0661117884469,44.0249874304489 L406.6540360116328,44.0249874304489 M406.6528583234348,49.08504120207209 L401.0702100489174,49.08504120207209 M401.0702100489174,49.08504120207209 L401.0661117884469,44.0249874304489 M496.67760319338436,79.82790722006297 L496.7633634926711,74.82585762295128 M502.2281968979604,79.82790722006297 L496.67760319338436,79.82790722006297 M502.31917266689277,74.82585762295128 L502.2281968979604,79.82790722006297 M496.7633634926711,74.82585762295128 L502.31917266689277,74.82585762295128 M453.7856896676482,61.9864453170901 L453.72461962445453,62.41208906406695 M453.72461962445453,62.41208906406695 L453.552703967646,62.812920263408785 M453.552703967646,62.812920263408785 L453.2799301793701,63.165698100287784 M453.2799301793701,63.165698100287784 L452.9221815083107,63.44992154142017 M452.9221815083107,63.44992154142017 L452.5002332960485,63.6490552418569 M452.5002332960485,63.6490552418569 L452.03859622802594,63.75161168956333 M452.03859622802594,63.75161168956333 L451.56408764566686,63.75161168956333 M451.56408764566686,63.75161168956333 L451.1042332067235,63.6490552418569 M451.1042332067235,63.6490552418569 L450.6857454951922,63.44992154142017 M450.6857454951922,63.44992154142017 L450.33293599527065,63.165698100287784 M450.33293599527065,63.165698100287784 L450.0662922747931,62.812920263408785 M450.0662922747931,62.812920263408785 L449.9013421725284,62.41208906406695 M449.9013421725284,62.41208906406695 L449.8476688707577,61.9864453170901 M449.8476688707577,61.9864453170901 L449.90843478121826,61.56073372092919 M449.90843478121826,61.56073372092919 L450.0801171642746,61.15971452591123 M450.0801171642746,61.15971452591123 L450.3527822784585,60.806684473515304 M450.3527822784585,60.806684473515304 L450.7105709096152,60.5222157799019 M450.7105709096152,60.5222157799019 L451.1326997478481,60.322812575004946 M451.1326997478481,60.322812575004946 L451.59461522434935,60.22014769824966 M451.59461522434935,60.22014769824966 L452.069437637315,60.22014769824966 M452.069437637315,60.22014769824966 L452.52956945308307,60.322812575004946 M452.52956945308307,60.322812575004946 L452.948233107197,60.52221577990207 M452.948233107197,60.52221577990207 L453.3010783052734,60.806684473515304 M453.3010783052734,60.806684473515304 L453.5676081161126,61.15971452591123 M453.5676081161126,61.15971452591123 L453.73232167767844,61.56073372092919 M453.73232167767844,61.56073372092919 L453.7856896676482,61.9864453170901 M401.09510944554563,79.8279104581577 L401.0910581640608,74.82586085563673 M406.6457031594918,79.8279104581577 L401.09510944554563,79.8279104581577 M401.0910581640608,74.82586085563673 L406.6468673476702,74.82586085563673 M406.6468673476702,74.82586085563673 L406.6457031594918,79.8279104581577 M524.1812075725262,88.53441174783268 L511.424671921739,82.8177145234331 M453.64142900094186,56.32043604043696 L453.7856896676482,61.9864453170901 M502.72236826271165,47.82577973335026 L502.8142761743718,42.767915853329555 M502.8142761743718,42.767915853329555 L502.8793696593816,44.02498423142242 M502.72236826271165,47.82577973335026 L502.7873389281247,49.085037997474956 M502.8142761743718,42.767915853329555 L497.2300836476929,42.767915853329555 M497.2300836476929,42.767915853329555 L497.29144544569226,44.02498423142242 M497.1434446436669,47.82577973335026 L502.72236826271165,47.82577973335026 M497.1434446436669,47.82577973335026 L497.20469066308584,49.085037997474956 M497.2300836476929,42.767915853329555 L497.1434446436669,47.82577973335026 M406.6520269143519,47.82578293367311 L406.65320303086634,42.767919048084934 M406.65320303086634,42.767919048084934 L406.6540360116328,44.0249874304489 M406.6520269143519,47.82578293367311 L406.6528583234348,49.08504120207209 M406.65320303086634,42.767919048084934 L401.0690104947036,42.767919048084934 M401.0690104947036,42.767919048084934 L401.0661117884469,44.0249874304489 M401.07310328584117,47.82578293367311 L406.6520269143519,47.82578293367311 M401.07310328584117,47.82578293367311 L401.0702100489174,49.08504120207209 M401.0690104947036,42.767919048084934 L401.07310328584117,47.82578293367311 M496.70270475476275,73.5555580200836 L496.6170582500547,78.55548117805085 M496.6170582500547,78.55548117805085 L496.67760319338436,79.82790722006297 M496.70270475476275,73.5555580200836 L496.7633634926711,74.82585762295128 M496.6170582500547,78.55548117805085 L502.1639699442279,78.55548117805085 M502.1639699442279,78.55548117805085 L502.2281968979604,79.82790722006297 M502.1639699442279,78.55548117805085 L502.2548249982212,73.5555580200836 M502.2548249982212,73.5555580200836 L502.31917266689277,74.82585762295128 M502.2548249982212,73.5555580200836 L496.70270475476275,73.5555580200836 M401.0939236580461,73.55556124847749 L401.0979695639215,78.5554844118509 M401.0979695639215,78.5554844118509 L401.09510944554563,79.8279104581577 M401.0939236580461,73.55556124847749 L401.0910581640608,74.82586085563673 M401.0979695639215,78.5554844118509 L406.6448812674523,78.5554844118509 M406.6448812674523,78.5554844118509 L406.6457031594918,79.8279104581577 M406.64604391087977,73.55556124847749 L401.0939236580461,73.55556124847749 M406.64604391087977,73.55556124847749 L406.6468673476702,74.82586085563673 M406.6448812674523,78.5554844118509 L406.64604391087977,73.55556124847749" stroke="black"  stroke-width="4"  fill="red"/>
<path d="M83.60997804505575,166.57654402563733 L69.08092158150674,173.04582289745832 M83.60997804505575,166.57654402563733 L71.060153538505,244.76680538401123 M58.24850788713479,237.82873668383593 L71.060153538505,244.76680538401123 M69.08092158150674,173.04582289745832 L58.24850788713479,237.82873668383593 M72.66762632743422,228.8230944055996 L69.08092158150674,173.04582289745832 M87.03081913565745,222.2450959741596 L72.66762632743422,228.8230944055996 M87.03081913565745,222.2450959741596 L83.60997804505575,166.57654402563733 M58.24850788713479,237.82873668383593 L62.068662983609784,294.6698420056323 M72.66762632743422,228.8230944055996 L62.068662983609784,294.6698420056323 M65.78532490063532,232.16746049848507 L65.7507836992487,231.7492629481004 M65.7507836992487,231.7492629481004 L65.70808083371975,231.41704947278498 M65.70808083371975,231.41704947278498 L65.65973903200415,231.1900919203635 M65.65973903200415,231.1900919203635 L65.60855011078661,231.08167730793792 M65.60855011078661,231.08167730793792 L65.55748383388925,231.09809636969933 M65.55748383388925,231.09809636969933 L65.50951600077315,231.23851404374724 M65.50951600077315,231.23851404374724 L65.46742974313446,231.494770589761 M65.46742974313446,231.494770589761 L65.43368138268147,231.85196509888252 M65.43368138268147,231.85196509888252 L65.41023821697286,232.2894273583928 M65.41023821697286,232.2894273583928 L65.39846391044114,232.7816208660074 M65.39846391044114,232.7816208660074 L65.39904937858114,233.29995527617433 M65.39904937858114,233.29995527617433 L65.41197099780493,233.81421461111097 M65.41197099780493,233.81421461111097 L65.43643475637458,234.2944767248893 M65.43643475637458,234.2944767248893 L65.47107082372793,234.7128020654915 M65.47107082372793,234.7128020654915 L65.51380239781344,235.04483287236255 M65.51380239781344,235.04483287236255 L65.56218573545601,235.27133918176511 M65.56218573545601,235.27133918176511 L65.61339113527168,235.3791755146861 M65.61339113527168,235.3791755146861 L65.66443810456224,235.36207781536044 M65.66443810456224,235.36207781536044 L65.71236473221222,235.2211806205957 M65.71236473221222,235.2211806205957 L65.75439036698822,234.96464767452275 M65.75439036698822,234.96464767452275 L65.78807258151585,234.60744323502135 M65.78807258151585,234.60744323502135 L65.81146618034262,234.17034559130815 M65.81146618034262,234.17034559130815 L65.82320939416945,233.67866373282163 M65.82320939416945,233.67866373282163 L65.82262538586423,233.16097659793917 M65.82262538586423,233.16097659793917 L65.80976580536321,232.64731367863664 M65.80976580536321,232.64731367863664 L65.78532490063532,232.16746049848507 M71.060153538505,244.76680538401123 L74.75148750544747,301.7191637210167 M62.068662983609784,294.6698420056323 L74.75148750544747,301.7191637210167 M74.75148750544747,301.7191637210167 L87.03081913565745,222.2450959741596 M82.33430648544504,187.3768283385409 L82.66254804157268,192.67619410186435 M81.86896191026767,190.29461723285633 L82.33430648544504,187.3768283385409 M82.66254804157268,192.67619410186435 L82.19814924581271,195.59863955099365 M82.19814924581271,195.59863955099365 L81.86896191026767,190.29461723285633 M74.1292629299291,238.82378477281742 L74.47437993794722,244.2040015367736 M73.63996368169575,241.8917734308088 L74.1292629299291,238.82378477281742 M74.47437993794722,244.2040015367736 L73.98610039076715,247.27672765022152 M73.98610039076715,247.27672765022152 L73.63996368169575,241.8917734308088 M84.19712255196765,227.80704456648994 L83.87199891498017,222.568498484877 M84.65579878047015,224.85665549147413 L84.19712255196765,227.80704456648994 M84.33160347982374,219.62261536217477 L84.65579878047015,224.85665549147413 M83.87199891498017,222.568498484877 L84.33160347982374,219.62261536217477 M79.40823262214576,232.16745285640894 L79.43167713758868,232.64731367863658 M79.43167713758868,232.64731367863658 L79.44403690855847,233.16096895303596 M79.44403690855847,233.16096895303596 L79.44461171797184,233.67866373282163 M79.44461171797184,233.67866373282163 L79.43333954894013,234.17034559130815 M79.43333954894013,234.17034559130815 L79.410884316146,234.60744323502135 M79.410884316146,234.60744323502135 L79.37853652906125,234.9646553276201 M79.37853652906125,234.9646553276201 L79.33819903542695,235.22117296560438 M79.33819903542695,235.22117296560438 L79.29220907588325,235.36207781536044 M79.29220907588325,235.36207781536044 L79.24320970698136,235.3791755146861 M79.24320970698136,235.3791755146861 L79.19405826253308,235.27133918176511 M79.19405826253308,235.27133918176511 L79.1475990324011,235.04484053117693 M79.1475990324011,235.04484053117693 L79.10656788780034,234.7128020654915 M79.10656788780034,234.7128020654915 L79.07333476433439,234.29448438267485 M79.07333476433439,234.29448438267485 L79.04983867387546,233.81421461111097 M79.04983867387546,233.81421461111097 L79.03744899004158,233.299962931127 M79.03744899004158,233.299962931127 L79.0369036613356,232.7816208660074 M79.0369036613356,232.7816208660074 L79.04820567587899,232.2894273583928 M79.04820567587899,232.2894273583928 L79.07070848732394,231.85196509888252 M79.07070848732394,231.85196509888252 L79.10308889014175,231.4947629430169 M79.10308889014175,231.4947629430169 L79.14348457145962,231.23852168859813 M79.14348457145962,231.23852168859813 L79.18954496404325,231.09809636969933 M79.18954496404325,231.09809636969933 L79.23856286608361,231.08167730793792 M79.23856286608361,231.08167730793792 L79.28769849292473,231.1900919203635 M79.28769849292473,231.1900919203635 L79.33408697287223,231.4170418317412 M79.33408697287223,231.4170418317412 L79.37506092149579,231.7492629481004 M79.37506092149579,231.7492629481004 L79.40823262214576,232.16745285640894 M76.08761327456477,279.97060372339286 L75.74585702550951,274.6537976547794 M76.5697246710838,276.86947034177285 L76.08761327456477,279.97060372339286 M75.74585702550951,274.6537976547794 L76.22896884516297,271.5572424177897 M76.22896884516297,271.5572424177897 L76.5697246710838,276.86947034177285 M65.78532490063532,232.16746049848507 L79.40823262214576,232.16745285640894 M79.65886626979398,192.67619410186435 L79.32756986931076,187.3768283385409 M79.32756986931076,187.3768283385409 L82.33430648544504,187.3768283385409 M79.65886626979398,192.67619410186435 L82.66254804157268,192.67619410186435 M79.32756986931076,187.3768283385409 L78.85789447366813,190.29461723285633 M78.85789447366813,190.29461723285633 L81.86896191026767,190.29461723285633 M79.19014545565005,195.59863955099365 L79.65886626979398,192.67619410186435 M79.19014545565005,195.59863955099365 L82.19814924581271,195.59863955099365 M78.85789447366813,190.29461723285633 L79.19014545565005,195.59863955099365 M71.39449344827392,244.20400153677355 L71.04616454127688,238.82378477281733 M71.04616454127688,238.82378477281733 L74.1292629299291,238.82378477281742 M71.39449344827392,244.20400153677355 L74.47437993794722,244.2040015367736 M71.04616454127688,238.82378477281733 L70.5523115338276,241.8917734308088 M70.5523115338276,241.8917734308088 L73.63996368169575,241.8917734308088 M70.90166963192542,247.27672765022152 L71.39449344827392,244.20400153677355 M70.90166963192542,247.27672765022152 L73.98610039076715,247.27672765022152 M70.5523115338276,241.8917734308088 L70.90166963192542,247.27672765022152 M80.87957313472623,222.568498484877 L81.20772259854385,227.80704456648994 M81.20772259854385,227.80704456648994 L84.19712255196765,227.80704456648994 M80.87957313472623,222.568498484877 L83.87199891498017,222.568498484877 M81.20772259854385,227.80704456648994 L81.67066758723672,224.85665549147413 M81.67066758723672,224.85665549147413 L84.65579878047015,224.85665549147413 M81.67066758723672,224.85665549147413 L81.3434550995043,219.62261536217468 M81.3434550995043,219.62261536217468 L84.33160347982374,219.62261536217477 M81.3434550995043,219.62261536217468 L80.87957313472623,222.568498484877 M72.67780378619602,274.6537976547794 L73.02274065666921,279.97060372339286 M73.02274065666921,279.97060372339286 L76.08761327456477,279.97060372339286 M72.67780378619602,274.6537976547794 L75.74585702550951,274.6537976547794 M73.02274065666921,279.97060372339286 L73.50933891725526,276.86947034177285 M73.50933891725526,276.86947034177285 L76.5697246710838,276.86947034177285 M73.16541178055024,271.5572424177897 L72.67780378619602,274.6537976547794 M73.16541178055024,271.5572424177897 L76.22896884516297,271.5572424177897 M73.50933891725526,276.86947034177285 L73.16541178055024,271.5572424177897" stroke="black"  stroke-width="4"  fill="red"/>
<path d="M-43.59778221196035,188.521613312554 L-42.55929764106361,200.58263860971473 M442.97043788740444,-24.483883466462203 L442.892669622868,-13.246756024374179 M-43.59778221196035,188.521613312554 L442.97043788740444,-24.483883466462203 M-42.55929764106361,200.58263860971473 L442.892669622868,-13.246756024374179 M458.3843709867159,-24.694094845111408 L458.2747039095833,-13.457831848312935 M442.97043788740444,-24.483883466462203 L444.24758988273055,-24.96382938235928 M444.24758988273055,-24.96382938235928 L445.67759283037935,-25.35427260321819 M445.67759283037935,-25.35427260321819 L447.22813156295575,-25.64644231385978 M447.22813156295575,-25.64644231385978 L448.86420729266183,-25.833824293624616 M448.86420729266183,-25.833824293624616 L450.54897341634114,-25.912222225800974 M450.54897341634114,-25.912222225800974 L452.24448006393163,-25.87988277202294 M452.24448006393163,-25.87988277202294 L453.9125414691066,-25.737546568217226 M453.9125414691066,-25.737546568217226 L455.5156197116295,-25.488377313153762 M455.5156197116295,-25.488377313153762 L457.0175430089112,-25.137943364479895 M457.0175430089112,-25.137943364479895 L458.3843709867159,-24.694094845111408 M442.892669622868,-13.246756024374179 L444.1671987608354,-13.728675754332812 M444.1671987608354,-13.728675754332812 L445.59425986155145,-14.120725092095881 M445.59425986155145,-14.120725092095881 L447.1416039654358,-14.414096892902478 M447.1416039654358,-14.414096892902478 L448.77430396588045,-14.602249931802078 M448.77430396588045,-14.602249931802078 L450.4555887363778,-14.680970487939362 M450.4555887363778,-14.680970487939362 L452.1475862062267,-14.648497948807972 M452.1475862062267,-14.648497948807972 L453.81218900883533,-14.50557602260244 M453.81218900883533,-14.50557602260244 L455.4119364629428,-14.255381532238744 M455.4119364629428,-14.255381532238744 L456.9107314432252,-13.903505923955947 M456.9107314432252,-13.903505923955947 L458.2747039095833,-13.457831848312935 M458.9065652236601,-24.483883466462203 L458.7958043620474,-13.246756024374179 M458.3843709867159,-24.694094845111408 L458.9065652236601,-24.483883466462203 M458.2747039095833,-13.457831848312935 L458.7958043620474,-13.246756024374179 M843.7428431609184,140.3632958626738 L842.7530667696329,152.24714094967234 M458.9065652236601,-24.483883466462203 L843.7428431609184,140.3632958626738 M458.7958043620474,-13.246756024374179 L842.7530667696329,152.24714094967234 M844.8854399957838,140.91147414718762 L843.8928092855061,152.79736594033164 M843.7428431609184,140.3632958626738 L844.8854399957838,140.91147414718762 M842.7530667696329,152.24714094967234 L843.8928092855061,152.79736594033164 M845.5730566640277,148.62511159637722 L844.5750070709297,160.53973042031066 M844.8854399957838,140.91147414718762 L846.0252165977931,141.61127255503817 M846.0252165977931,141.61127255503817 L846.9559262928378,142.37145748542457 M846.9559262928378,142.37145748542457 L847.6579589951298,143.17628261165993 M847.6579589951298,143.17628261165993 L848.1164899306646,144.0090649819811 M848.1164899306646,144.0090649819811 L848.3216197341748,144.85248517133704 M848.3216197341748,144.85248517133704 L848.26873491133,145.68897092157596 M848.26873491133,145.68897092157596 L847.9586626828304,146.50103520547026 M847.9586626828304,146.50103520547026 L847.3975346764161,147.27167684361373 M847.3975346764161,147.27167684361373 L846.59684119442,147.98469910621156 M846.59684119442,147.98469910621156 L845.5730566640277,148.62511159637722 M843.8928092855061,152.79736594033164 L845.0296604491544,153.49977615054632 M845.0296604491544,153.49977615054632 L845.9578850744397,154.26279698789315 M845.9578850744397,154.26279698789315 L846.6579256988521,155.0706231107932 M846.6579256988521,155.0706231107932 L847.1150000159469,155.90650916144045 M847.1150000159469,155.90650916144045 L847.3192404473369,156.75307105768266 M847.3192404473369,156.75307105768266 L847.2660535272628,157.5926710747461 M847.2660535272628,157.5926710747461 L846.9562741499906,158.40775717007062 M846.9562741499906,158.40775717007062 L846.3960292925965,159.1812650827991 M846.3960292925965,159.1812650827991 L845.596791929418,159.89693810250725 M845.596791929418,159.89693810250725 L844.5750070709297,160.53973042031066 M358.90466144365837,407.12499026401554 L359.02378434916125,419.923511924988 M845.5730566640277,148.62511159637722 L358.90466144365837,407.12499026401554 M844.5750070709297,160.53973042031066 L359.02378434916125,419.923511924988 M339.80595652223855,407.44722743635896 L339.97402806317626,420.24675546861545 M358.90466144365837,407.12499026401554 L357.29512032459996,407.8609538261624 M357.29512032459996,407.8609538261624 L355.4997421232381,408.4603149020195 M355.4997421232381,408.4603149020195 L353.5594778885093,408.90919668255185 M353.5594778885093,408.90919668255185 L351.51871087951423,409.1972559980953 M351.51871087951423,409.1972559980953 L349.4241496130312,409.31781547405205 M349.4241496130312,409.31781547405205 L347.3238119472403,409.26808138752665 M347.3238119472403,409.26808138752665 L345.2658510532442,409.04923313081787 M345.2658510532442,409.04923313081787 L343.2973683443771,408.6663095840771 M343.2973683443771,408.6663095840771 L341.46343534304634,408.12816109666534 M341.46343534304634,408.12816109666534 L339.80595652223855,407.44722743635896 M359.02378434916125,419.923511924988 L357.4184066344957,420.66177360906227 M357.4184066344957,420.66177360906227 L355.6276631403448,421.26300533563756 M355.6276631403448,421.26300533563756 L353.692398653135,421.71328757128765 M353.692398653135,421.71328757128765 L351.6568812226386,422.0022453530038 M351.6568812226386,422.0022453530038 L349.56769815003304,422.1231808014277 M349.56769815003304,422.1231808014277 L347.4727428101932,422.073291619991 M347.4727428101932,422.073291619991 L345.42004377505623,421.85376082141374 M345.42004377505623,421.85376082141374 L343.4565809170299,421.4696427526443 M343.4565809170299,421.4696427526443 L341.6273099074966,420.92981495499737 M341.6273099074966,420.92981495499737 L339.97402806317626,420.24675546861545 M339.17651998559745,407.12499026401554 L339.3461798813136,419.923511924988 M339.80595652223855,407.44722743635896 L339.17651998559745,407.12499026401554 M339.97402806317626,420.24675546861545 L339.3461798813136,419.923511924988 M-45.518363598851465,197.19136112783232 L-44.47098631717864,209.28371919693654 M339.17651998559745,407.12499026401554 L-45.518363598851465,197.19136112783232 M339.3461798813136,419.923511924988 L-44.47098631717864,209.28371919693654 M-46.43982233601503,196.6115693800208 L-45.39060299986619,208.70183743308934 M-45.518363598851465,197.19136112783232 L-46.43982233601503,196.6115693800208 M-44.47098631717864,209.28371919693654 L-45.39060299986619,208.70183743308934 M-46.43982233601503,196.6115693800208 L-47.28705508823407,195.87235940529823 M-47.28705508823407,195.87235940529823 L-47.890422875963054,195.07056155865598 M-47.890422875963054,195.07056155865598 L-48.237570172949574,194.22303806021202 M-48.237570172949574,194.22303806021202 L-48.32161973417476,193.34754104230706 M-48.32161973417476,193.34754104230706 L-48.141115052524015,192.46237741787192 M-48.141115052524015,192.46237741787192 L-47.70014332700117,191.58599527067707 M-47.70014332700117,191.58599527067707 L-47.00826730047231,190.7366284170576 M-47.00826730047231,190.7366284170576 L-46.080135248668114,189.9318857520573 M-46.080135248668114,189.9318857520573 L-44.93533429130633,189.18843596829709 M-44.93533429130633,189.18843596829709 L-43.59778221196035,188.521613312554 M-45.39060299986619,208.70183743308934 L-46.236249382252424,207.95996165965295 M-46.236249382252424,207.95996165965295 L-46.838630386637135,207.15527088986357 M-46.838630386637135,207.15527088986357 L-47.18540989617435,206.30468788721538 M-47.18540989617435,206.30468788721538 L-47.26971675247404,205.42602865497906 M-47.26971675247404,205.42602865497906 L-47.09008759239288,204.53766611652927 M-47.09008759239288,204.53766611652927 L-46.65058982562357,203.65811502293002 M-46.65058982562357,203.65811502293002 L-45.96075389597655,202.80567522995582 M-45.96075389597655,202.80567522995582 L-45.035184461478764,201.99801954778894 M-45.035184461478764,201.99801954778894 L-43.893414271060806,201.25187729740327 M-43.893414271060806,201.25187729740327 L-42.55929764106361,200.58263860971473" stroke="black"  stroke-width="4"  fill="red"/>
<path d="M364.9170706654452,387.73202468086504 L791.4921527562383,162.78838673585636 M787.3955667524543,218.39306725996846 L791.4921527562383,162.78838673585636 M365.3944120535089,446.86153494031845 L787.3955667524543,218.39306725996846 M365.3944120535089,446.86153494031845 L364.9170706654452,387.73202468086504 M810.4735970107612,162.78838673585636 L364.71154759872525,399.03144570184986 M791.4921527562383,162.78838673585636 L810.4735970107612,162.78838673585636 M364.9170706654452,387.73202468086504 L364.71154759872525,399.03144570184986 M787.3955667524543,218.39306725996846 L806.1756070945644,218.3930672599684 M810.4735970107612,162.78838673585636 L806.1756070945644,218.3930672599684 M806.1756070945644,218.3930672599684 L365.19371834643783,458.3236582401189 M365.3944120535089,446.86153494031845 L365.19371834643783,458.3236582401189 M364.71154759872525,399.03144570184986 L365.19371834643783,458.3236582401189" stroke="black"  stroke-width="4"  fill="red"/>
<path d="M-6.8379400125795655,198.24829144861673 L-2.387117126053738,254.4448007694004 M438.85544471956285,0.631306299705102 L438.52901330054607,53.35667519258442 M-6.8379400125795655,198.24829144861673 L438.85544471956285,0.631306299705102 M-2.387117126053738,254.4448007694004 L438.52901330054607,53.35667519258442 M16.722111530711857,254.4448007694004 L12.479854313320175,198.24829144861673 M16.722111530711857,254.4448007694004 L-2.387117126053738,254.4448007694004 M12.479854313320175,198.24829144861673 L-6.8379400125795655,198.24829144861673 M438.66642158759714,61.20440869444167 L438.99558049173703,8.335809327845709 M438.66642158759714,61.20440869444167 L438.52901330054607,53.35667519258442 M438.99558049173703,8.335809327845709 L438.85544471956285,0.631306299705102 M438.99558049173703,8.335809327845709 L12.479854313320175,198.24829144861673 M438.66642158759714,61.20440869444167 L16.722111530711857,254.4448007694004" stroke="black"  stroke-width="4"  fill="red"/>
<path d="M463.52404524696686,0.631306299705102 L462.95686911392414,53.35667519258442 M807.8894568410899,150.02209932207234 L803.6458431425547,205.41039026818146 M463.52404524696686,0.631306299705102 L807.8894568410899,150.02209932207234 M462.95686911392414,53.35667519258442 L803.6458431425547,205.41039026818146 M463.1956166619769,61.20440869444167 L463.76753181330935,8.335809327845709 M463.1956166619769,61.20440869444167 L462.95686911392414,53.35667519258442 M463.76753181330935,8.335809327845709 L463.52404524696686,0.631306299705102 M784.9843476010027,205.41039026818146 L789.0291054580122,150.02209932207234 M784.9843476010027,205.41039026818146 L803.6458431425547,205.41039026818146 M789.0291054580122,150.02209932207234 L807.8894568410899,150.02209932207234 M789.0291054580122,150.02209932207234 L463.76753181330935,8.335809327845709 M784.9843476010027,205.41039026818146 L463.1956166619769,61.20440869444167" stroke="black"  stroke-width="4"  fill="red"/>
<path d="M334.6986736440044,399.03144570184986 L335.53644759657817,458.3236582401189 M-9.549375143999896,211.64344725239386 L-5.0401315944390035,268.0599959223807 M334.6986736440044,399.03144570184986 L-9.549375143999896,211.64344725239386 M335.53644759657817,458.3236582401189 L-5.0401315944390035,268.0599959223807 M335.8851538609612,446.86153494031845 L335.0557709435976,387.73202468086504 M335.8851538609612,446.86153494031845 L335.53644759657817,458.3236582401189 M335.0557709435976,387.73202468086504 L334.6986736440044,399.03144570184986 M14.193417385091266,268.0599959223807 L9.89547709836063,211.64344725239386 M14.193417385091266,268.0599959223807 L-5.0401315944390035,268.0599959223807 M9.89547709836063,211.64344725239386 L-9.549375143999896,211.64344725239386 M9.89547709836063,211.64344725239386 L335.0557709435976,387.73202468086504 M14.193417385091266,268.0599959223807 L335.8851538609612,446.86153494031845" stroke="black"  stroke-width="4"  fill="red"/>
<path d="M738.9465958825263,156.38481711662894 L771.9550603626491,156.38481711662894 M771.9550603626491,156.38481711662894 L771.5859999968952,154.37642054772874 M771.5859999968952,154.37642054772874 L775.7956095998666,154.37642054772874 M775.7956095998666,154.37642054772874 L776.1689126961588,156.38481711662894 M776.1689126961588,156.38481711662894 L809.1773771762818,156.38481711662894 M809.1773771762818,156.38481711662894 L807.8894568410899,150.02209932207234 M737.8826653516431,150.02209932207234 L807.8894568410899,150.02209932207234 M738.9465958825263,156.38481711662894 L737.8826653516431,150.02209932207234 M770.1355425991965,182.4300405661146 L737.2909295926102,182.4300405661146 M771.9550603626491,156.38481711662894 L770.1355425991965,182.4300405661146 M737.2909295926102,182.4300405661146 L738.9465958825263,156.38481711662894 M771.5859999968952,154.37642054772874 L769.3435185304472,186.5207483052584 M769.7080702367945,188.54903177404546 L769.3435185304472,186.5207483052584 M769.877085048603,186.1296937339086 L769.7080702367945,188.54903177404546 M769.877085048603,186.1296937339086 L769.6945637985076,185.11578549102563 M769.6945637985076,185.11578549102563 L769.9527624482812,181.41726788545606 M769.9527624482812,181.41726788545606 L770.1355425991965,182.4300405661146 M775.7956095998666,154.37642054772874 L773.5273484900798,186.5207483052584 M769.3435185304472,186.5207483052584 L773.5273484900798,186.5207483052584 M774.3284776945075,182.4300405661146 L776.1689126961588,156.38481711662894 M774.3284776945075,182.4300405661146 L774.1435961234766,181.41726788545606 M774.1435961234766,181.41726788545606 L773.8824292133512,185.11578549102563 M773.8824292133512,185.11578549102563 L774.0670489071067,186.1296937339086 M773.8960910952634,188.54903177404546 L774.0670489071067,186.1296937339086 M773.5273484900798,186.5207483052584 L773.8960910952634,188.54903177404546 M737.055746698281,186.1296937339086 L769.877085048603,186.1296937339086 M735.4187531917993,211.88117633722624 L737.055746698281,186.1296937339086 M745.7631428119049,559.1496174897245 L735.4187531917993,211.88117633722624 M778.1829783900625,559.1496174897245 L745.7631428119049,559.1496174897245 M809.1773771762818,156.38481711662894 L778.1829783900625,559.1496174897245 M793.8605526874923,182.4300405661146 L774.3284776945075,182.4300405661146 M793.8605526874923,182.4300405661146 L793.5852828987834,186.1296937339086 M774.0670489071067,186.1296937339086 L793.5852828987834,186.1296937339086 M773.8960910952634,188.54903177404546 L769.7080702367945,188.54903177404546 M778.1829783900625,559.1496174897245 L777.0849289086565,552.0874796294643 M807.8894568410899,150.02209932207234 L777.0849289086565,552.0874796294643 M737.055746698281,186.1296937339086 L736.8896493666011,185.11579278047014 M736.8896493666011,185.11579278047014 L737.1245966666634,181.41727516673384 M737.1245966666634,181.41727516673384 L737.2909295926102,182.4300405661146 M734.3771746684952,205.41039026818146 L737.8826653516431,150.02209932207234 M735.4187531917993,211.88117633722624 L734.3771746684952,205.41039026818146 M737.1245966666634,181.41727516673384 L769.9527624482812,181.41726788545606 M736.8896493666011,185.11579278047014 L769.6945637985076,185.11578549102563 M793.6658518633752,181.41726788545606 L793.8605526874923,182.4300405661146 M774.1435961234766,181.41726788545606 L793.6658518633752,181.41726788545606 M793.3908578386037,185.11578549102563 L793.6658518633752,181.41726788545606 M773.8824292133512,185.11578549102563 L793.3908578386037,185.11578549102563 M793.5852828987834,186.1296937339086 L793.3908578386037,185.11578549102563 M745.7631428119049,559.1496174897245 L744.7605624842641,552.0874796294643 M744.7605624842641,552.0874796294643 L734.3771746684952,205.41039026818146 M777.0849289086565,552.0874796294643 L744.7605624842641,552.0874796294643" stroke="black"  stroke-width="4"  fill="red"/>
<path d="M738.9465958825263,156.38481711662894 L771.9550603626491,156.38481711662894 M772.3248654071584,158.3972661669008 L771.9550603626491,156.38481711662894 M776.542969032059,158.39726616690064 L772.3248654071584,158.3972661669008 M776.1689126961588,156.38481711662894 L776.542969032059,158.39726616690064 M776.1689126961588,156.38481711662894 L809.1773771762818,156.38481711662894 M809.1773771762818,156.38481711662894 L810.4735970107612,162.78838673585636 M740.0173269707858,162.78838673585636 L810.4735970107612,162.78838673585636 M738.9465958825263,156.38481711662894 L740.0173269707858,162.78838673585636 M738.9465958825263,156.38481711662894 L737.2909295926102,182.4300405661146 M770.1355425991965,182.4300405661146 L737.2909295926102,182.4300405661146 M771.9550603626491,156.38481711662894 L770.1355425991965,182.4300405661146 M770.1355425991965,182.4300405661146 L770.3185363210214,183.44382943055115 M770.3185363210214,183.44382943055115 L770.0598194586009,187.14461857868986 M770.0598194586009,187.14461857868986 L769.877085048603,186.1296937339086 M769.877085048603,186.1296937339086 L769.7080702367945,188.54903177404546 M770.0733530107291,190.58138273799437 L769.7080702367945,188.54903177404546 M772.3248654071584,158.3972661669008 L770.0733530107291,190.58138273799437 M776.542969032059,158.39726616690064 L774.2655731724121,190.58138273799437 M774.2655731724121,190.58138273799437 L770.0733530107291,190.58138273799437 M773.8960910952634,188.54903177404546 L774.2655731724121,190.58138273799437 M773.8960910952634,188.54903177404546 L774.0670489071067,186.1296937339086 M774.0670489071067,186.1296937339086 L774.2518838647835,187.14461857868986 M774.2518838647835,187.14461857868986 L774.5135749449457,183.44382943055115 M774.5135749449457,183.44382943055115 L774.3284776945075,182.4300405661146 M774.3284776945075,182.4300405661146 L776.1689126961588,156.38481711662894 M793.8605526874923,182.4300405661146 L774.3284776945075,182.4300405661146 M793.8605526874923,182.4300405661146 L793.5852828987834,186.1296937339086 M774.0670489071067,186.1296937339086 L793.5852828987834,186.1296937339086 M773.8960910952634,188.54903177404546 L769.7080702367945,188.54903177404546 M737.055746698281,186.1296937339086 L769.877085048603,186.1296937339086 M737.055746698281,186.1296937339086 L735.4187531917993,211.88117633722624 M745.7631428119049,559.1496174897245 L735.4187531917993,211.88117633722624 M778.1829783900625,559.1496174897245 L745.7631428119049,559.1496174897245 M809.1773771762818,156.38481711662894 L778.1829783900625,559.1496174897245 M778.1829783900625,559.1496174897245 L779.2875631836539,566.2536068927429 M810.4735970107612,162.78838673585636 L779.2875631836539,566.2536068927429 M737.2220105673657,187.14461127462044 L737.055746698281,186.1296937339086 M737.4574294105042,183.44382213465417 L737.2220105673657,187.14461127462044 M737.2909295926102,182.4300405661146 L737.4574294105042,183.44382213465417 M736.4669181263869,218.39306725996846 L740.0173269707858,162.78838673585636 M735.4187531917993,211.88117633722624 L736.4669181263869,218.39306725996846 M737.4574294105042,183.44382213465417 L770.3185363210214,183.44382943055115 M737.2220105673657,187.14461127462044 L770.0598194586009,187.14461857868986 M793.7798727468062,187.14461857868986 L793.5852828987834,186.1296937339086 M774.2518838647835,187.14461857868986 L793.7798727468062,187.14461857868986 M794.0554186930599,183.44382943055115 L793.7798727468062,187.14461857868986 M774.5135749449457,183.44382943055115 L794.0554186930599,183.44382943055115 M793.8605526874923,182.4300405661146 L794.0554186930599,183.44382943055115 M745.7631428119049,559.1496174897245 L746.7716365503978,566.2536068927429 M746.7716365503978,566.2536068927429 L736.4669181263869,218.39306725996846 M779.2875631836539,566.2536068927429 L746.7716365503978,566.2536068927429" stroke="black"  stroke-width="4"  fill="red"/>
<path d="M350.7351839973153,357.6563606382082 L350.25583632610864,376.9103780065656 M350.25583632610864,376.9103780065656 L354.9355481149589,376.9103780065656 M354.9355481149589,376.9103780065656 L354.87899284328137,379.3926703350452 M354.87899284328137,379.3926703350452 L350.19403722080267,379.3926703350452 M350.19403722080267,379.3926703350452 L349.7051108478343,399.03143660522187 M349.7051108478343,399.03143660522187 L364.71154759872525,399.03144570184986 M365.46411148260415,357.65635187491193 L364.71154759872525,399.03144570184986 M350.7351839973153,357.6563606382082 L365.46411148260415,357.65635187491193 M350.55970011303816,404.6041222410451 L351.0338029326036,385.21588400710925 M350.25583632610864,376.9103780065656 L350.55970011303816,404.6041222410451 M351.0338029326036,385.21588400710925 L350.7351839973153,357.6563606382082 M354.9355481149589,376.9103780065656 L355.2789152748978,411.10600585660393 M350.6310406642063,411.10600585660393 L355.2789152748978,411.10600585660393 M350.6028361028107,408.53547938015544 L350.6310406642063,411.10600585660393 M350.6028361028107,408.53547938015544 L352.9279698177173,408.53548836819436 M352.9279698177173,408.53548836819436 L352.88666393464115,404.6041312204197 M352.88666393464115,404.6041312204197 L350.55970011303816,404.6041222410451 M354.87899284328137,379.3926703350452 L355.22312732849264,413.6094485815463 M355.2789152748978,411.10600585660393 L355.22312732849264,413.6094485815463 M350.4985804959362,407.1035836410549 L350.19403722080267,379.3926703350452 M350.4985804959362,407.1035836410549 L352.82813740561045,407.1035926404533 M352.82813740561045,407.1035926404533 L352.86953536340457,411.03735934644453 M352.86953536340457,411.03735934644453 L350.5418126399072,411.0373503383783 M350.57008003096325,413.6094485815463 L350.5418126399072,411.0373503383783 M355.22312732849264,413.6094485815463 L350.57008003096325,413.6094485815463 M351.0761966904381,389.12840133829707 L350.6028361028107,408.53547938015544 M351.3711120305708,416.3461201356273 L351.0761966904381,389.12840133829707 M354.8919373964478,803.15059992433 L351.3711120305708,416.3461201356273 M354.4566540110859,825.912212317604 L354.8919373964478,803.15059992433 M349.7051108478343,399.03143660522187 L354.4566540110859,825.912212317604 M350.21206052938896,418.8206988762876 L350.4985804959362,407.1035836410549 M350.21206052938896,418.8206988762876 L350.2557448564417,422.7657027700901 M350.5418126399072,411.0373503383783 L350.2557448564417,422.7657027700901 M350.57008003096325,413.6094485815463 L350.6310406642063,411.10600585660393 M354.4566540110859,825.912212317604 L368.18298869341913,825.912222225801 M364.71154759872525,399.03144570184986 L368.18298869341913,825.912222225801 M351.0761966904381,389.12840133829707 L353.38123102436435,389.12840133829707 M353.38123102436435,389.12840133829707 L353.3406358703511,385.21588400710925 M353.3406358703511,385.21588400710925 L351.0338029326036,385.21588400710925 M365.92871563274275,416.3461112427823 L365.46411148260415,357.65635187491193 M351.3711120305708,416.3461201356273 L365.92871563274275,416.3461112427823 M353.3406358703511,385.21588400710925 L352.88666393464115,404.6041312204197 M353.38123102436435,389.12840133829707 L352.9279698177173,408.53548836819436 M352.55377388851207,418.82068978272355 L350.21206052938896,418.8206988762876 M352.82813740561045,407.1035926404533 L352.55377388851207,418.82068978272355 M352.59560484419524,422.7656936678422 L352.55377388851207,418.82068978272355 M352.86953536340457,411.03735934644453 L352.59560484419524,422.7656936678422 M350.2557448564417,422.7657027700901 L352.59560484419524,422.7656936678422 M354.8919373964478,803.15059992433 L368.5010036776991,803.150590184708 M368.5010036776991,803.150590184708 L365.92871563274275,416.3461112427823 M368.18298869341913,825.912222225801 L368.5010036776991,803.150590184708" stroke="black"  stroke-width="4"  fill="red"/>
<path d="M350.7351839973153,357.6563606382082 L350.25583632610864,376.9103780065656 M345.5761245372584,376.9103780065656 L350.25583632610864,376.9103780065656 M345.5090815983239,379.3926703350452 L345.5761245372584,376.9103780065656 M350.19403722080267,379.3926703350452 L345.5090815983239,379.3926703350452 M350.19403722080267,379.3926703350452 L349.7051108478343,399.03143660522187 M349.7051108478343,399.03143660522187 L334.6986736440044,399.03144570184986 M336.00625694836805,357.65635187491193 L334.6986736440044,399.03144570184986 M350.7351839973153,357.6563606382082 L336.00625694836805,357.65635187491193 M350.7351839973153,357.6563606382082 L351.0338029326036,385.21588400710925 M350.55970011303816,404.6041222410451 L351.0338029326036,385.21588400710925 M350.25583632610864,376.9103780065656 L350.55970011303816,404.6041222410451 M350.55970011303816,404.6041222410451 L348.23273585228776,404.6041312204197 M348.23273585228776,404.6041312204197 L348.27770194944725,408.53548836819436 M348.27770194944725,408.53548836819436 L350.6028361028107,408.53547938015544 M350.6028361028107,408.53547938015544 L350.6310406642063,411.10600585660393 M345.9831660535148,411.10600585660393 L350.6310406642063,411.10600585660393 M345.5761245372584,376.9103780065656 L345.9831660535148,411.10600585660393 M345.5090815983239,379.3926703350452 L345.91703273343376,413.6094485815463 M345.91703273343376,413.6094485815463 L345.9831660535148,411.10600585660393 M350.57008003096325,413.6094485815463 L345.91703273343376,413.6094485815463 M350.57008003096325,413.6094485815463 L350.5418126399072,411.0373503383783 M350.5418126399072,411.0373503383783 L348.2140894769759,411.0373593464446 M348.2140894769759,411.0373593464446 L348.1690231461352,407.1035926404533 M348.1690231461352,407.1035926404533 L350.4985804959362,407.1035836410549 M350.4985804959362,407.1035836410549 L350.19403722080267,379.3926703350452 M350.21206052938896,418.8206988762876 L350.4985804959362,407.1035836410549 M350.21206052938896,418.8206988762876 L350.2557448564417,422.7657027700901 M350.5418126399072,411.0373503383783 L350.2557448564417,422.7657027700901 M350.57008003096325,413.6094485815463 L350.6310406642063,411.10600585660393 M351.0761966904381,389.12840133829707 L350.6028361028107,408.53547938015544 M351.0761966904381,389.12840133829707 L351.3711120305708,416.3461201356273 M354.8919373964478,803.15059992433 L351.3711120305708,416.3461201356273 M354.4566540110859,825.912212317604 L354.8919373964478,803.15059992433 M349.7051108478343,399.03143660522187 L354.4566540110859,825.912212317604 M354.4566540110859,825.912212317604 L340.73031894979243,825.912222225801 M334.6986736440044,399.03144570184986 L340.73031894979243,825.912222225801 M348.77116235651187,389.12840133829707 L351.0761966904381,389.12840133829707 M348.72696999485606,385.21588400710925 L348.77116235651187,389.12840133829707 M351.0338029326036,385.21588400710925 L348.72696999485606,385.21588400710925 M336.8135088546488,416.3461112427823 L336.00625694836805,357.65635187491193 M351.3711120305708,416.3461201356273 L336.8135088546488,416.3461112427823 M348.72696999485606,385.21588400710925 L348.23273585228776,404.6041312204197 M348.77116235651187,389.12840133829707 L348.27770194944725,408.53548836819436 M347.9158853127165,422.76569366784224 L350.2557448564417,422.7657027700901 M348.2140894769759,411.0373593464446 L347.9158853127165,422.76569366784224 M347.87034761499785,418.82068978272355 L347.9158853127165,422.76569366784224 M348.1690231461352,407.1035926404533 L347.87034761499785,418.82068978272355 M350.21206052938896,418.8206988762876 L347.87034761499785,418.82068978272355 M354.8919373964478,803.15059992433 L341.2828714877093,803.1505901847081 M341.2828714877093,803.1505901847081 L336.8135088546488,416.3461112427823 M340.73031894979243,825.912222225801 L341.2828714877093,803.1505901847081" stroke="black"  stroke-width="4"  fill="red"/>
<path d="M451.90990111732276,29.55790706565199 L451.5686267681006,15.849897948263788 M451.5686267681006,15.849897948263788 L447.65165394658885,15.849897948263788 M447.65165394658885,15.849897948263788 L447.61211337545,14.114405332092815 M447.61211337545,14.114405332092815 L451.52541997504323,14.114405332092815 M451.52541997504323,14.114405332092815 L451.18974513626216,0.631312445163644 M451.18974513626216,0.631312445163644 L438.85544471956285,0.631306299705102 M439.38158539449114,29.557913405964086 L438.85544471956285,0.631306299705102 M451.90990111732276,29.55790706565199 L439.38158539449114,29.557913405964086 M451.3555519989638,40.717304007053315 L451.6936715640741,54.544563431333984 M451.5686267681006,15.849897948263788 L451.3555519989638,40.717304007053315 M451.6936715640741,54.544563431333984 L451.90990111732276,29.55790706565199 M447.65165394658885,15.849897948263788 L447.41082787966263,46.562106423185014 M451.3054711854474,46.562106423185014 L447.41082787966263,46.562106423185014 M451.3252732140077,44.25106280692745 L451.3054711854474,46.562106423185014 M451.3252732140077,44.25106280692745 L449.3771112839138,44.2510564970774 M449.3771112839138,44.2510564970774 L449.40610544723955,40.71729770489469 M449.40610544723955,40.71729770489469 L451.3555519989638,40.717304007053315 M447.61211337545,14.114405332092815 L447.3717366333985,44.80791573549607 M447.41082787966263,46.562106423185014 L447.3717366333985,44.80791573549607 M451.3127429693403,38.966646490053904 L451.52541997504323,14.114405332092815 M451.3127429693403,38.966646490053904 L449.36511265315875,38.966640199632536 M449.36511265315875,38.966640199632536 L449.3361724727201,42.498261424125815 M449.3361724727201,42.498261424125815 L451.2825205590489,42.498267722231674 M451.2627553788961,44.80791573549607 L451.2825205590489,42.498267722231674 M447.3717366333985,44.80791573549607 L451.2627553788961,44.80791573549607 M451.66294566906606,58.095129801922724 L451.3252732140077,44.25106280692745 M451.4490013113542,82.81771775166482 L451.66294566906606,58.095129801922724 M448.2382440711018,401.38277389200096 L451.4490013113542,82.81771775166482 M447.9302079362395,385.27510853962696 L448.2382440711018,401.38277389200096 M451.18974513626216,0.631312445163644 L447.9302079362395,385.27510853962696 M451.11437111416166,30.85431172132911 L451.3127429693403,38.966646490053904 M451.11437111416166,30.85431172132911 L451.08440925199614,34.375999630122806 M451.2825205590489,42.498267722231674 L451.08440925199614,34.375999630122806 M451.2627553788961,44.80791573549607 L451.3054711854474,46.562106423185014 M447.9302079362395,385.27510853962696 L436.47405180444986,385.27510163781227 M438.85544471956285,0.631306299705102 L436.47405180444986,385.27510163781227 M451.66294566906606,58.095129801922724 L449.7004717582089,58.095129801922724 M449.7004717582089,58.095129801922724 L449.72989407186435,54.544563431333984 M449.72989407186435,54.544563431333984 L451.6936715640741,54.544563431333984 M439.04485552161475,82.81772420812825 L439.38158539449114,29.557913405964086 M451.4490013113542,82.81771775166482 L439.04485552161475,82.81772420812825 M449.72989407186435,54.544563431333984 L449.40610544723955,40.71729770489469 M449.7004717582089,58.095129801922724 L449.3771112839138,44.2510564970774 M449.1751573054168,30.854317957502985 L451.11437111416166,30.85431172132911 M449.36511265315875,38.966640199632536 L449.1751573054168,30.854317957502985 M449.1464666185859,34.376005873950135 L449.1751573054168,30.854317957502985 M449.3361724727201,42.498261424125815 L449.1464666185859,34.376005873950135 M451.08440925199614,34.375999630122806 L449.1464666185859,34.376005873950135 M448.2382440711018,401.38277389200096 L436.6991008411906,401.3827808941701 M436.6991008411906,401.3827808941701 L439.04485552161475,82.81772420812825 M436.47405180444986,385.27510163781227 L436.6991008411906,401.3827808941701" stroke="black"  stroke-width="4"  fill="red"/>
<path d="M451.90990111732276,29.55790706565199 L451.5686267681006,15.849897948263788 M455.4855995896123,15.849897948263788 L451.5686267681006,15.849897948263788 M455.4387265746364,14.114405332092815 L455.4855995896123,15.849897948263788 M451.52541997504323,14.114405332092815 L455.4387265746364,14.114405332092815 M451.52541997504323,14.114405332092815 L451.18974513626216,0.631312445163644 M451.18974513626216,0.631312445163644 L463.52404524696686,0.631306299705102 M464.43821715585113,29.557913405964086 L463.52404524696686,0.631306299705102 M451.90990111732276,29.55790706565199 L464.43821715585113,29.557913405964086 M451.90990111732276,29.55790706565199 L451.6936715640741,54.544563431333984 M451.3555519989638,40.717304007053315 L451.6936715640741,54.544563431333984 M451.5686267681006,15.849897948263788 L451.3555519989638,40.717304007053315 M451.3555519989638,40.717304007053315 L453.3049982424731,40.71729770489469 M453.3049982424731,40.71729770489469 L453.27343483629295,44.2510564970774 M453.27343483629295,44.2510564970774 L451.3252732140077,44.25106280692745 M451.3252732140077,44.25106280692745 L451.3054711854474,46.562106423185014 M455.20011449123194,46.562106423185014 L451.3054711854474,46.562106423185014 M455.4855995896123,15.849897948263788 L455.20011449123194,46.562106423185014 M455.4387265746364,14.114405332092815 L455.15377412439375,44.80791573549607 M455.15377412439375,44.80791573549607 L455.20011449123194,46.562106423185014 M451.2627553788961,44.80791573549607 L455.15377412439375,44.80791573549607 M451.2627553788961,44.80791573549607 L451.2825205590489,42.498267722231674 M451.2825205590489,42.498267722231674 L453.228868338142,42.498261424125644 M453.228868338142,42.498261424125644 L453.2603729778811,38.966640199632536 M453.2603729778811,38.966640199632536 L451.3127429693403,38.966646490053904 M451.3127429693403,38.966646490053904 L451.52541997504323,14.114405332092815 M451.11437111416166,30.85431172132911 L451.3127429693403,38.966646490053904 M451.11437111416166,30.85431172132911 L451.08440925199614,34.375999630122806 M451.2825205590489,42.498267722231674 L451.08440925199614,34.375999630122806 M451.2627553788961,44.80791573549607 L451.3054711854474,46.562106423185014 M451.66294566906606,58.095129801922724 L451.3252732140077,44.25106280692745 M451.66294566906606,58.095129801922724 L451.4490013113542,82.81771775166482 M448.2382440711018,401.38277389200096 L451.4490013113542,82.81771775166482 M447.9302079362395,385.27510853962696 L448.2382440711018,401.38277389200096 M451.18974513626216,0.631312445163644 L447.9302079362395,385.27510853962696 M447.9302079362395,385.27510853962696 L459.38636380405444,385.27510163781227 M463.52404524696686,0.631306299705102 L459.38636380405444,385.27510163781227 M453.62541957992335,58.095129801922724 L451.66294566906606,58.095129801922724 M453.6574490562839,54.544563431333984 L453.62541957992335,58.095129801922724 M451.6936715640741,54.544563431333984 L453.6574490562839,54.544563431333984 M463.85314741056345,82.81772420812825 L464.43821715585113,29.557913405964086 M451.4490013113542,82.81771775166482 L463.85314741056345,82.81772420812825 M453.6574490562839,54.544563431333984 L453.3049982424731,40.71729770489469 M453.62541957992335,58.095129801922724 L453.27343483629295,44.2510564970774 M453.0223521899944,34.376005873950135 L451.08440925199614,34.375999630122806 M453.228868338142,42.498261424125644 L453.0223521899944,34.376005873950135 M453.0535852278944,30.854317957502815 L453.0223521899944,34.376005873950135 M453.2603729778811,38.966640199632536 L453.0535852278944,30.854317957502815 M451.11437111416166,30.85431172132911 L453.0535852278944,30.854317957502815 M448.2382440711018,401.38277389200096 L459.77738756882593,401.3827808941701 M459.77738756882593,401.3827808941701 L463.85314741056345,82.81772420812825 M459.38636380405444,385.27510163781227 L459.77738756882593,401.3827808941701" stroke="black"  stroke-width="4"  fill="red"/>
<path d="M63.75055871600756,204.92391573358566 L29.938875748854116,204.92391573358566 M29.938875748854116,204.92391573358566 L29.550844746397047,207.03554896835402 M29.550844746397047,207.03554896835402 L25.229992923767668,207.03554896835402 M25.229992923767668,207.03554896835402 L25.622484743849043,204.92391573358566 M25.622484743849043,204.92391573358566 L-8.189198223304459,204.92391573358566 M-8.189198223304459,204.92391573358566 L-9.549375143999896,211.64344725239386 M62.62699574246369,211.64344725239386 L-9.549375143999896,211.64344725239386 M63.75055871600756,204.92391573358566 L62.62699574246369,211.64344725239386 M31.847791567888237,231.3529163727349 L65.48757257503433,231.3529163727349 M29.938875748854116,204.92391573358566 L31.847791567888237,231.3529163727349 M65.48757257503433,231.3529163727349 L63.75055871600756,204.92391573358566 M29.550844746397047,207.03554896835402 L31.913028557434473,239.69302433965407 M32.296199968294786,237.56114503466634 L31.913028557434473,239.69302433965407 M32.11891046869323,235.1065662357683 L32.296199968294786,237.56114503466634 M32.11891046869323,235.1065662357683 L31.927225580234676,236.17120499109802 M31.927225580234676,236.17120499109802 L31.65582807650776,232.4164000118211 M31.65582807650776,232.4164000118211 L31.847791567888237,231.3529163727349 M25.229992923767668,207.03554896835402 L27.61933248037542,239.69302433965407 M31.913028557434473,239.69302433965407 L27.61933248037542,239.69302433965407 M27.5533455241748,231.3529163727349 L25.622484743849043,204.92391573358566 M27.5533455241748,231.3529163727349 L27.35917539160579,232.4164000118211 M27.35917539160579,232.4164000118211 L27.633692890152872,236.17120499109802 M27.633692890152872,236.17120499109802 L27.827581217100374,235.1065662357683 M28.00690884282949,237.56114503466634 L27.827581217100374,235.1065662357683 M27.61933248037542,239.69302433965407 L28.00690884282949,237.56114503466634 M65.73427663785714,235.1065662357683 L32.11891046869323,235.1065662357683 M67.4512288992047,261.230325799765 L65.73427663785714,235.1065662357683 M57.41815251026276,612.9107510197325 L67.4512288992047,261.230325799765 M24.271337364080978,612.9107510197325 L57.41815251026276,612.9107510197325 M-8.189198223304459,204.92391573358566 L24.271337364080978,612.9107510197325 M7.548399043380357,231.3529163727349 L27.5533455241748,231.3529163727349 M7.548399043380357,231.3529163727349 L7.8371537822851,235.1065662357683 M27.827581217100374,235.1065662357683 L7.8371537822851,235.1065662357683 M28.00690884282949,237.56114503466634 L32.296199968294786,237.56114503466634 M24.271337364080978,612.9107510197325 L23.11658251877958,620.337404471312 M-9.549375143999896,211.64344725239386 L23.11658251877958,620.337404471312 M65.73427663785714,235.1065662357683 L65.55986869077276,236.17119732916152 M65.55986869077276,236.17119732916152 L65.31291112585387,232.41639235819486 M65.31291112585387,232.41639235819486 L65.48757257503433,231.3529163727349 M66.35191331837007,268.0599959223807 L62.62699574246369,211.64344725239386 M67.4512288992047,261.230325799765 L66.35191331837007,268.0599959223807 M65.31291112585387,232.41639235819486 L31.65582807650776,232.4164000118211 M65.55986869077276,236.17119732916152 L31.927225580234676,236.17120499109802 M7.343980554204165,232.4164000118211 L7.548399043380357,231.3529163727349 M27.35917539160579,232.4164000118211 L7.343980554204165,232.4164000118211 M7.6330319955199,236.17120499109802 L7.343980554204165,232.4164000118211 M27.633692890152872,236.17120499109802 L7.6330319955199,236.17120499109802 M7.8371537822851,235.1065662357683 L7.6330319955199,236.17120499109802 M57.41815251026276,612.9107510197325 L56.36385254375756,620.337404471312 M56.36385254375756,620.337404471312 L66.35191331837007,268.0599959223807 M23.11658251877958,620.337404471312 L56.36385254375756,620.337404471312" stroke="black"  stroke-width="4"  fill="red"/>
<path d="M63.75055871600756,204.92391573358566 L29.938875748854116,204.92391573358566 M30.326106376550626,202.8166380733308 L29.938875748854116,204.92391573358566 M26.014166988034333,202.8166380733309 L30.326106376550626,202.8166380733308 M25.622484743849043,204.92391573358566 L26.014166988034333,202.8166380733309 M25.622484743849043,204.92391573358566 L-8.189198223304459,204.92391573358566 M-8.189198223304459,204.92391573358566 L-6.8379400125795655,198.24829144861673 M64.86681097221356,198.24829144861673 L-6.8379400125795655,198.24829144861673 M63.75055871600756,204.92391573358566 L64.86681097221356,198.24829144861673 M63.75055871600756,204.92391573358566 L65.48757257503433,231.3529163727349 M31.847791567888237,231.3529163727349 L65.48757257503433,231.3529163727349 M29.938875748854116,204.92391573358566 L31.847791567888237,231.3529163727349 M31.847791567888237,231.3529163727349 L32.039527111943414,230.290524524109 M32.039527111943414,230.290524524109 L32.31036786099065,234.04301966391537 M32.31036786099065,234.04301966391537 L32.11891046869323,235.1065662357683 M32.11891046869323,235.1065662357683 L32.296199968294786,237.56114503466634 M32.678585985091104,235.4336354851028 L32.296199968294786,237.56114503466634 M30.326106376550626,202.8166380733308 L32.678585985091104,235.4336354851028 M26.014166988034333,202.8166380733309 L28.39369078230277,235.43363548510288 M28.39369078230277,235.43363548510288 L32.678585985091104,235.4336354851028 M28.00690884282949,237.56114503466634 L28.39369078230277,235.43363548510288 M28.00690884282949,237.56114503466634 L27.827581217100374,235.1065662357683 M27.827581217100374,235.1065662357683 L28.021239787439868,234.04301966391537 M28.021239787439868,234.04301966391537 L27.747285444042802,230.290524524109 M27.747285444042802,230.290524524109 L27.5533455241748,231.3529163727349 M27.5533455241748,231.3529163727349 L25.622484743849043,204.92391573358566 M7.548399043380357,231.3529163727349 L27.5533455241748,231.3529163727349 M7.548399043380357,231.3529163727349 L7.8371537822851,235.1065662357683 M27.827581217100374,235.1065662357683 L7.8371537822851,235.1065662357683 M28.00690884282949,237.56114503466634 L32.296199968294786,237.56114503466634 M65.73427663785714,235.1065662357683 L32.11891046869323,235.1065662357683 M65.73427663785714,235.1065662357683 L67.4512288992047,261.230325799765 M57.41815251026276,612.9107510197325 L67.4512288992047,261.230325799765 M24.271337364080978,612.9107510197325 L57.41815251026276,612.9107510197325 M-8.189198223304459,204.92391573358566 L24.271337364080978,612.9107510197325 M24.271337364080978,612.9107510197325 L25.419108617993004,605.5288281594242 M-6.8379400125795655,198.24829144861673 L25.419108617993004,605.5288281594242 M65.9085056659348,234.04302731013982 L65.73427663785714,235.1065662357683 M65.6620547150784,230.2905321620288 L65.9085056659348,234.04302731013982 M65.48757257503433,231.3529163727349 L65.6620547150784,230.2905321620288 M68.54346942169565,254.4448007694004 L64.86681097221356,198.24829144861673 M67.4512288992047,261.230325799765 L68.54346942169565,254.4448007694004 M65.6620547150784,230.2905321620288 L32.039527111943414,230.290524524109 M65.9085056659348,234.04302731013982 L32.31036786099065,234.04301966391537 M8.0410970180817,234.04301966391537 L7.8371537822851,235.1065662357683 M28.021239787439868,234.04301966391537 L8.0410970180817,234.04301966391537 M7.752638547373294,230.290524524109 L8.0410970180817,234.04301966391537 M27.747285444042802,230.290524524109 L7.752638547373294,230.290524524109 M7.548399043380357,231.3529163727349 L7.752638547373294,230.290524524109 M57.41815251026276,612.9107510197325 L58.466130973402755,605.5288281594242 M58.466130973402755,605.5288281594242 L68.54346942169565,254.4448007694004 M25.419108617993004,605.5288281594242 L58.466130973402755,605.5288281594242" stroke="black"  stroke-width="4"  fill="red"/></svg>