<svg viewBox="0 0 800 800" xmlns="http://www.w3.org/2000/svg"><path d="M482.6486801042829,399.73069353519185 L461.8199019634017,412.8335392977535 M482.90569022023817,394.94940361374034 L482.6486801042829,399.73069353519185 M482.90569022023817,394.94940361374034 L462.03416477680776,408.02592509262973 M461.8199019634017,412.8335392977535 L462.03416477680776,408.02592509262973 M681.4348432680166,537.686133315538 L682.206610324876,532.6604063331133 M461.8199019634017,412.8335392977535 L681.4348432680166,537.686133315538 M462.03416477680776,408.02592509262973 L682.206610324876,532.6604063331133 M691.6457137432884,529.5981395109607 L692.4372663237083,524.5847473451895 M681.4348432680166,537.686133315538 L691.6457137432884,529.5981395109607 M682.206610324876,532.6604063331133 L692.4372663237083,524.5847473451895 M503.82128192227265,411.50971561565757 L504.1273625033531,406.7047314224332 M691.6457137432884,529.5981395109607 L503.82128192227265,411.50971561565757 M692.4372663237083,524.5847473451895 L504.1273625033531,406.7047314224332 M504.1273625033531,406.7047314224332 L482.90569022023817,394.94940361374034 M503.82128192227265,411.50971561565757 L482.6486801042829,399.73069353519185" stroke="black"  stroke-width="4"  fill="red"/>
<path d="M482.6486801042829,399.73069353519185 L482.39278032164316,404.4913273611763 M482.39278032164316,404.4913273611763 L461.6065754231979,417.62014546944505 M461.8199019634017,412.8335392977535 L461.6065754231979,417.62014546944505 M461.8199019634017,412.8335392977535 L482.6486801042829,399.73069353519185 M681.4348432680166,537.686133315538 L680.6668129168197,542.6875269679697 M461.8199019634017,412.8335392977535 L681.4348432680166,537.686133315538 M461.6065754231979,417.62014546944505 L680.6668129168197,542.6875269679697 M691.6457137432884,529.5981395109607 L690.8579694671611,534.587411329735 M681.4348432680166,537.686133315538 L691.6457137432884,529.5981395109607 M680.6668129168197,542.6875269679697 L690.8579694671611,534.587411329735 M503.82128192227265,411.50971561565757 L503.51653730211297,416.29372732156145 M691.6457137432884,529.5981395109607 L503.82128192227265,411.50971561565757 M690.8579694671611,534.587411329735 L503.51653730211297,416.29372732156145 M503.51653730211297,416.29372732156145 L482.39278032164316,404.4913273611763 M503.82128192227265,411.50971561565757 L482.6486801042829,399.73069353519185" stroke="black"  stroke-width="4"  fill="red"/>
<path d="M409.8218175265919,445.5441897120916 L386.73524636840136,431.6918406756458 M409.92482030486593,440.6737046756344 L409.8218175265919,445.5441897120916 M409.92482030486593,440.6737046756344 L386.7855501564299,426.84748402830803 M386.73524636840136,431.6918406756458 L386.7855501564299,426.84748402830803 M176.38316307480014,560.8905980311343 L175.91799753770772,555.8308626697208 M386.73524636840136,431.6918406756458 L176.38316307480014,560.8905980311343 M386.7855501564299,426.84748402830803 L175.91799753770772,555.8308626697208 M187.75895835345108,569.383466737654 L187.31911042928704,564.3117959983513 M176.38316307480014,560.8905980311343 L187.75895835345108,569.383466737654 M175.91799753770772,555.8308626697208 L187.31911042928704,564.3117959983513 M389.5537469799859,458.2943088252072 L389.61162477506997,453.40041879963076 M187.75895835345108,569.383466737654 L389.5537469799859,458.2943088252072 M187.31911042928704,564.3117959983513 L389.61162477506997,453.40041879963076 M389.61162477506997,453.40041879963076 L409.92482030486593,440.6737046756344 M389.5537469799859,458.2943088252072 L409.8218175265919,445.5441897120916" stroke="black"  stroke-width="4"  fill="red"/>
<path d="M409.8218175265919,445.5441897120916 L409.7192775838589,450.3927895759795 M409.7192775838589,450.3927895759795 L386.68516598206025,436.51468328810927 M386.73524636840136,431.6918406756458 L386.68516598206025,436.51468328810927 M386.73524636840136,431.6918406756458 L409.8218175265919,445.5441897120916 M176.38316307480014,560.8905980311343 L176.84603559965234,565.9253916584968 M386.73524636840136,431.6918406756458 L176.38316307480014,560.8905980311343 M386.68516598206025,436.51468328810927 L176.84603559965234,565.9253916584968 M187.75895835345108,569.383466737654 L188.1966239496915,574.4299741237492 M176.38316307480014,560.8905980311343 L187.75895835345108,569.383466737654 M176.84603559965234,565.9253916584968 L188.1966239496915,574.4299741237492 M389.5537469799859,458.2943088252072 L389.4961320446897,463.16597259125217 M187.75895835345108,569.383466737654 L389.5537469799859,458.2943088252072 M188.1966239496915,574.4299741237492 L389.4961320446897,463.16597259125217 M389.4961320446897,463.16597259125217 L409.7192775838589,450.3927895759795 M389.5537469799859,458.2943088252072 L409.8218175265919,445.5441897120916" stroke="black"  stroke-width="4"  fill="red"/>
<path d="M323.7086757277725,311.30708659664714 L343.7308934114831,322.4461117492351 M323.62769494495615,306.72049204666683 L323.7086757277725,311.30708659664714 M323.62769494495615,306.72049204666683 L343.6895397526073,317.83335624581395 M343.7308934114831,322.4461117492351 L343.6895397526073,317.83335624581395 M504.8939898358801,234.6653975001227 L505.15497505254564,230.2715720507146 M343.7308934114831,322.4461117492351 L504.8939898358801,234.6653975001227 M343.6895397526073,317.83335624581395 L505.15497505254564,230.2715720507146 M494.8781162215165,229.95126652668077 L495.1193501899413,225.5700258762509 M504.8939898358801,234.6653975001227 L494.8781162215165,229.95126652668077 M505.15497505254564,230.2715720507146 L495.1193501899413,225.5700258762509 M342.12964491126013,301.4797597330554 L342.08593492054194,296.91663663389187 M494.8781162215165,229.95126652668077 L342.12964491126013,301.4797597330554 M495.1193501899413,225.5700258762509 L342.08593492054194,296.91663663389187 M342.08593492054194,296.91663663389187 L323.62769494495615,306.72049204666683 M342.12964491126013,301.4797597330554 L323.7086757277725,311.30708659664714" stroke="black"  stroke-width="4"  fill="red"/>
<path d="M323.7086757277725,311.30708659664714 L323.7893337413072,315.87540012023146 M323.7893337413072,315.87540012023146 L343.772080502433,327.04028758792725 M343.7308934114831,322.4461117492351 L343.772080502433,327.04028758792725 M343.7308934114831,322.4461117492351 L323.7086757277725,311.30708659664714 M504.8939898358801,234.6653975001227 L504.63396916360614,239.042984329781 M343.7308934114831,322.4461117492351 L504.8939898358801,234.6653975001227 M343.772080502433,327.04028758792725 L504.63396916360614,239.042984329781 M494.8781162215165,229.95126652668077 L494.6377694979483,234.31639322244217 M504.8939898358801,234.6653975001227 L494.8781162215165,229.95126652668077 M504.63396916360614,239.042984329781 L494.6377694979483,234.31639322244217 M342.12964491126013,301.4797597330554 L342.1731823097977,306.02486499801466 M494.8781162215165,229.95126652668077 L342.12964491126013,301.4797597330554 M494.6377694979483,234.31639322244217 L342.1731823097977,306.02486499801466 M342.1731823097977,306.02486499801466 L323.7893337413072,315.87540012023146 M342.12964491126013,301.4797597330554 L323.7086757277725,311.30708659664714" stroke="black"  stroke-width="4"  fill="red"/>
<path d="M250.86575628263336,350.167755215937 L272.8430317888518,338.4431891619197 M250.630631209096,345.4919382609359 L250.86575628263336,350.167755215937 M250.630631209096,345.4919382609359 L272.65555050058896,333.79368726314635 M272.8430317888518,338.4431891619197 L272.65555050058896,333.79368726314635 M118.81870177970302,248.11204971126455 L118.35732670320402,243.682790581054 M272.8430317888518,338.4431891619197 L118.81870177970302,248.11204971126455 M272.65555050058896,333.79368726314635 L118.35732670320402,243.682790581054 M108.04675288573645,253.00476722373463 L107.56273367629171,248.5627854144489 M118.81870177970302,248.11204971126455 L108.04675288573645,253.00476722373463 M118.35732670320402,243.682790581054 L107.56273367629171,248.5627854144489 M233.26049269913034,339.6042871995619 L232.99147476658823,334.9521560014983 M108.04675288573645,253.00476722373463 L233.26049269913034,339.6042871995619 M107.56273367629171,248.5627854144489 L232.99147476658823,334.9521560014983 M232.99147476658823,334.9521560014983 L250.630631209096,345.4919382609359 M233.26049269913034,339.6042871995619 L250.86575628263336,350.167755215937" stroke="black"  stroke-width="4"  fill="red"/>
<path d="M250.86575628263336,350.167755215937 L251.0999096437987,354.8242482038411 M251.0999096437987,354.8242482038411 L273.0297465787272,343.07368203989563 M272.8430317888518,338.4431891619197 L273.0297465787272,343.07368203989563 M272.8430317888518,338.4431891619197 L250.86575628263336,350.167755215937 M118.81870177970302,248.11204971126455 L119.27834823949615,252.52471390231022 M272.8430317888518,338.4431891619197 L118.81870177970302,248.11204971126455 M273.0297465787272,343.07368203989563 L119.27834823949615,252.52471390231022 M108.04675288573645,253.00476722373463 L108.52894967794407,257.4300241922328 M118.81870177970302,248.11204971126455 L108.04675288573645,253.00476722373463 M119.27834823949615,252.52471390231022 L108.52894967794407,257.4300241922328 M233.26049269913034,339.6042871995619 L233.5284095974294,344.2373781957186 M108.04675288573645,253.00476722373463 L233.26049269913034,339.6042871995619 M108.52894967794407,257.4300241922328 L233.5284095974294,344.2373781957186 M233.5284095974294,344.2373781957186 L251.0999096437987,354.8242482038411 M233.26049269913034,339.6042871995619 L250.86575628263336,350.167755215937" stroke="black"  stroke-width="4"  fill="red"/></svg>