<svg viewBox="0 0 800 800" xmlns="http://www.w3.org/2000/svg"><path d="M539.2292136746577,354.4913289112283 L539.0591981832645,357.65035764383333 M539.5681883462009,357.75303272884 L539.2292136746577,354.4913289112283 M539.5681883462009,357.75303272884 L537.8776507322451,389.0568792682468 M537.4286985262031,384.59287483485446 L537.8776507322451,389.0568792682468 M538.939216374247,356.49194294670554 L537.4286985262031,384.59287483485446 M539.0591981832645,357.65035764383333 L538.939216374247,356.49194294670554 M539.2292136746577,354.4913289112283 L543.1487745134284,354.4913289112283 M543.1487745134284,354.4913289112283 L543.0614909090542,356.0717409401382 M541.1028287528536,356.07174344059746 L543.0614909090542,356.0717409401382 M541.1028287528536,356.07174344059746 L541.0167568071881,357.65036014560866 M541.0167568071881,357.65036014560866 L539.0591981832645,357.65035764383333 M540.8951948612544,356.4919404489446 L541.0167568071881,357.65036014560866 M538.939216374247,356.49194294670554 L540.8951948612544,356.4919404489446 M869.2779319946033,369.0518070423502 L574.3566273068091,353.3341362067494 M866.5829199313434,384.59287483485446 L869.2779319946033,369.0518070423502 M537.4286985262031,384.59287483485446 L866.5829199313434,384.59287483485446 M540.9811286544767,354.91393367504145 L540.8951948612544,356.4919404489446 M542.938226832942,354.91393617148617 L540.9811286544767,354.91393367504145 M542.938226832942,354.91393617148617 L543.0253702659526,353.3341362067494 M574.3566273068091,353.3341362067494 L543.0253702659526,353.3341362067494 M866.5829199313434,384.59287483485446 L868.0312615893657,389.05688180425796 M537.8776507322451,389.0568792682468 L868.0312615893657,389.05688180425796 M543.0253702659526,353.3341362067494 L543.1487745134284,354.4913289112283 M574.9240841345593,357.75303021836834 L539.5681883462009,357.75303272884 M574.3566273068091,353.3341362067494 L574.9240841345593,357.75303021836834 M541.1028287528536,356.07174344059746 L540.9811286544767,354.91393367504145 M543.0614909090542,356.0717409401382 L542.938226832942,354.91393617148617 M869.2779319946033,369.0518070423502 L870.7427104518681,373.4936574805043 M870.7427104518681,373.4936574805043 L574.9240841345593,357.75303021836834 M868.0312615893657,389.05688180425796 L870.7427104518681,373.4936574805043" stroke="black"  stroke-width="4"  fill="red"/>
<path d="M538.8194270097697,355.3353862861031 L538.9888972471001,352.1788016862679 M538.9888972471001,352.1788016862679 L538.6525327102962,348.942213587584 M538.6525327102962,348.942213587584 L536.982456122589,380.15581440549863 M537.4286985262031,384.59287483485446 L536.982456122589,380.15581440549863 M538.939216374247,356.49194294670554 L537.4286985262031,384.59287483485446 M538.8194270097697,355.3353862861031 L538.939216374247,356.49194294670554 M538.8194270097697,355.3353862861031 L540.7738368534432,355.3353837923467 M540.8596328319508,353.75798702232737 L540.7738368534432,355.3353837923467 M540.8596328319508,353.75798702232737 L542.8151476532053,353.75798702232737 M542.8151476532053,353.75798702232737 L542.9021512447548,352.17879919514905 M538.9888972471001,352.1788016862679 L542.9021512447548,352.17879919514905 M538.939216374247,356.49194294670554 L540.8951948612544,356.4919404489446 M540.7738368534432,355.3353837923467 L540.8951948612544,356.4919404489446 M543.0253702659526,353.3341362067494 L574.3566273068091,353.3341362067494 M869.2779319946033,369.0518070423502 L574.3566273068091,353.3341362067494 M866.5829199313434,384.59287483485446 L869.2779319946033,369.0518070423502 M537.4286985262031,384.59287483485446 L866.5829199313434,384.59287483485446 M540.9811286544767,354.91393367504145 L540.8951948612544,356.4919404489446 M542.938226832942,354.91393617148617 L540.9811286544767,354.91393367504145 M542.938226832942,354.91393617148617 L543.0253702659526,353.3341362067494 M866.5829199313434,384.59287483485446 L865.1433202327205,380.15581190000916 M536.982456122589,380.15581440549863 L865.1433202327205,380.15581190000916 M543.0253702659526,353.3341362067494 L542.9021512447548,352.17879919514905 M573.7926213999668,348.942213587584 L538.6525327102962,348.942213587584 M574.3566273068091,353.3341362067494 L573.7926213999668,348.942213587584 M542.938226832942,354.91393617148617 L542.8151476532053,353.75798702232737 M540.9811286544767,354.91393367504145 L540.8596328319508,353.75798702232737 M869.2779319946033,369.0518070423502 L867.822044505153,364.6369179163909 M867.822044505153,364.6369179163909 L573.7926213999668,348.942213587584 M865.1433202327205,380.15581190000916 L867.822044505153,364.6369179163909" stroke="black"  stroke-width="4"  fill="red"/>
<path d="M445.1411751787942,411.1654809758173 L445.0755607861796,414.38176952131903 M439.41747448226596,411.16547557640206 L445.1411751787942,411.1654809758173 M439.41747448226596,411.16547557640206 L438.83509493017414,442.99019980158454 M446.5050341609413,442.9902025264832 L438.83509493017414,442.99019980158454 M447.11005570148365,414.38176681900455 L446.5050341609413,442.9902025264832 M445.0755607861796,414.38176952131903 L447.11005570148365,414.38176681900455 M445.1411751787942,411.1654809758173 L445.23422858299693,413.6718055837897 M445.23422858299693,413.6718055837897 L445.20129201925306,415.2821095951031 M445.1547793120913,414.027295531237 L445.20129201925306,415.2821095951031 M445.1547793120913,414.027295531237 L445.12193666678894,415.63509266792283 M445.12193666678894,415.63509266792283 L445.0755607861796,414.38176952131903 M447.1581314705569,415.6350899610908 L445.12193666678894,415.63509266792283 M447.11005570148365,414.38176681900455 L447.1581314705569,415.6350899610908 M456.2605594444707,676.0150323338892 L448.0580814146826,434.02871730115754 M455.8073417640926,692.7272781690142 L456.2605594444707,676.0150323338892 M446.5050341609413,442.9902025264832 L455.8073417640926,692.7272781690142 M447.19217783530297,414.0272928257054 L447.1581314705569,415.6350899610908 M447.240399997499,415.2821150152254 L447.19217783530297,414.0272928257054 M447.240399997499,415.2821150152254 L447.27454372587664,413.67181100130216 M448.0580814146826,434.02871730115754 L447.27454372587664,413.67181100130216 M455.8073417640926,692.7272781690142 L446.88434042442645,692.7272781690142 M438.83509493017414,442.99019980158454 L446.88434042442645,692.7272781690142 M447.27454372587664,413.67181100130216 L445.23422858299693,413.6718055837897 M440.1789406521288,434.028714518346 L439.41747448226596,411.16547557640206 M448.0580814146826,434.02871730115754 L440.1789406521288,434.028714518346 M445.1547793120913,414.027295531237 L447.19217783530297,414.0272928257054 M445.20129201925306,415.2821095951031 L447.240399997499,415.2821150152254 M456.2605594444707,676.0150323338892 L447.2765078796814,676.0150323338892 M447.2765078796814,676.0150323338892 L440.1789406521288,434.028714518346 M446.88434042442645,692.7272781690142 L447.2765078796814,676.0150323338892" stroke="black"  stroke-width="4"  fill="red"/>
<path d="M449.14455060945744,414.38176411669014 L449.21497468246883,411.16547557640206 M449.21497468246883,411.16547557640206 L454.93867541433934,411.1654809758173 M454.93867541433934,411.1654809758173 L454.17497341905283,442.99020525138195 M446.5050341609413,442.9902025264832 L454.17497341905283,442.99020525138195 M447.11005570148365,414.38176681900455 L446.5050341609413,442.9902025264832 M449.14455060945744,414.38176411669014 L447.11005570148365,414.38176681900455 M449.14455060945744,414.38176411669014 L449.1943352699,415.6350926679229 M449.22958535953035,414.027295531237 L449.1943352699,415.6350926679229 M449.22958535953035,414.027295531237 L449.27950326679263,415.2821123051643 M449.27950326679263,415.2821123051643 L449.31485415683323,413.67180829254596 M449.21497468246883,411.16547557640206 L449.31485415683323,413.67180829254596 M447.11005570148365,414.38176681900455 L447.1581314705569,415.6350899610908 M449.1943352699,415.6350926679229 L447.1581314705569,415.6350899610908 M447.27454372587664,413.67181100130216 L448.0580814146826,434.02871730115754 M456.2605594444707,676.0150323338892 L448.0580814146826,434.02871730115754 M455.8073417640926,692.7272781690142 L456.2605594444707,676.0150323338892 M446.5050341609413,442.9902025264832 L455.8073417640926,692.7272781690142 M447.19217783530297,414.0272928257054 L447.1581314705569,415.6350899610908 M447.240399997499,415.2821150152254 L447.19217783530297,414.0272928257054 M447.240399997499,415.2821150152254 L447.27454372587664,413.67181100130216 M455.8073417640926,692.7272781690142 L464.73034310375874,692.7272781690142 M454.17497341905283,442.99020525138195 L464.73034310375874,692.7272781690142 M447.27454372587664,413.67181100130216 L449.31485415683323,413.67180829254596 M455.9372173788687,434.0287117355344 L454.93867541433934,411.1654809758173 M448.0580814146826,434.02871730115754 L455.9372173788687,434.0287117355344 M447.240399997499,415.2821150152254 L449.27950326679263,415.2821123051643 M447.19217783530297,414.0272928257054 L449.22958535953035,414.027295531237 M456.2605594444707,676.0150323338892 L465.24461100925987,676.0150323338892 M465.24461100925987,676.0150323338892 L455.9372173788687,434.0287117355344 M464.73034310375874,692.7272781690142 L465.24461100925987,676.0150323338892" stroke="black"  stroke-width="4"  fill="red"/>
<path d="M340.28194809282815,241.71515088878317 L340.3335542044122,244.74514745275798 M345.3576823546065,241.715155134888 L340.28194809282815,241.71515088878317 M345.3576823546065,241.715155134888 L345.8162726289811,271.7322373294258 M339.00562134308774,271.73223518088383 L345.8162726289811,271.7322373294258 M338.52913812788216,244.74514957842848 L339.00562134308774,271.73223518088383 M340.3335542044122,244.74514745275798 L338.52913812788216,244.74514957842848 M340.28194809282815,241.71515088878317 L340.3549022497296,239.75038243286707 M340.3549022497296,239.75038243286707 L340.3806424688126,241.26495950224 M340.34423252716726,242.2472224069162 L340.3806424688126,241.26495950224 M340.34423252716726,242.2472224069162 L340.36998390633914,243.76082141066132 M340.36998390633914,243.76082141066132 L340.3335542044122,244.74514745275798 M338.566902876409,243.76082353318753 L340.36998390633914,243.76082141066132 M338.52913812788216,244.74514957842848 L338.566902876409,243.76082353318753 M344.4030445205005,107.27272183098574 L339.14829257328637,224.23914197232972 M344.6113197489926,121.23724119138876 L344.4030445205005,107.27272183098574 M339.00562134308774,271.73223518088383 L344.6113197489926,121.23724119138876 M338.54020768039516,242.2472245281357 L338.566902876409,243.76082353318753 M338.5779484412204,241.26495526607528 L338.54020768039516,242.2472245281357 M338.5779484412204,241.26495526607528 L338.55126481254507,239.75037819932328 M339.14829257328637,224.23914197232972 L338.55126481254507,239.75037819932328 M344.6113197489926,121.23724119138876 L350.6668650784614,121.23724119138876 M345.8162726289811,271.7322373294258 L350.6668650784614,121.23724119138876 M338.55126481254507,239.75037819932328 L340.3549022497296,239.75038243286707 M345.93972548798814,224.23914403984594 L345.3576823546065,241.715155134888 M339.14829257328637,224.23914197232972 L345.93972548798814,224.23914403984594 M340.34423252716726,242.2472224069162 L338.54020768039516,242.2472245281357 M340.3806424688126,241.26495950224 L338.5779484412204,241.26495526607528 M344.4030445205005,107.27272183098574 L350.4866453520768,107.27272183098574 M350.4866453520768,107.27272183098574 L345.93972548798814,224.23914403984594 M350.6668650784614,121.23724119138876 L350.4866453520768,107.27272183098574" stroke="black"  stroke-width="4"  fill="red"/>
<path d="M336.724722045586,244.74515170409904 L336.66933309089706,241.715155134888 M336.66933309089706,241.715155134888 L331.59359885691197,241.71515088878317 M331.59359885691197,241.71515088878317 L332.194970078755,271.7322330323419 M339.00562134308774,271.73223518088383 L332.194970078755,271.7322330323419 M338.52913812788216,244.74514957842848 L339.00562134308774,271.73223518088383 M336.724722045586,244.74515170409904 L338.52913812788216,244.74514957842848 M336.724722045586,244.74515170409904 L336.76381422751575,243.76082141066132 M336.7361752107571,242.2472224069162 L336.76381422751575,243.76082141066132 M336.7361752107571,242.2472224069162 L336.775258062401,241.2649573841577 M336.775258062401,241.2649573841577 L336.74763102591646,239.75038031609512 M336.66933309089706,241.715155134888 L336.74763102591646,239.75038031609512 M338.52913812788216,244.74514957842848 L338.566902876409,243.76082353318753 M336.76381422751575,243.76082141066132 L338.566902876409,243.76082353318753 M338.55126481254507,239.75037819932328 L339.14829257328637,224.23914197232972 M344.4030445205005,107.27272183098574 L339.14829257328637,224.23914197232972 M344.6113197489926,121.23724119138876 L344.4030445205005,107.27272183098574 M339.00562134308774,271.73223518088383 L344.6113197489926,121.23724119138876 M338.54020768039516,242.2472245281357 L338.566902876409,243.76082353318753 M338.5779484412204,241.26495526607528 L338.54020768039516,242.2472245281357 M338.5779484412204,241.26495526607528 L338.55126481254507,239.75037819932328 M344.6113197489926,121.23724119138876 L338.55577441952386,121.23724119138876 M332.194970078755,271.7322330323419 L338.55577441952386,121.23724119138876 M338.55126481254507,239.75037819932328 L336.74763102591646,239.75038031609512 M332.3568632556782,224.23914610736222 L331.59359885691197,241.71515088878317 M339.14829257328637,224.23914197232972 L332.3568632556782,224.23914610736222 M338.5779484412204,241.26495526607528 L336.775258062401,241.2649573841577 M338.54020768039516,242.2472245281357 L336.7361752107571,242.2472224069162 M344.4030445205005,107.27272183098574 L338.3194436889242,107.27272183098574 M338.3194436889242,107.27272183098574 L332.3568632556782,224.23914610736222 M338.55577441952386,121.23724119138876 L338.3194436889242,107.27272183098574" stroke="black"  stroke-width="4"  fill="red"/>
<path d="M246.63434791147085,289.7127027276255 L246.78942042408318,292.8000708869903 M246.942135009129,286.7509423561623 L246.63434791147085,289.7127027276255 M246.942135009129,286.7509423561623 L248.4712928871469,317.292692311999 M248.062566159335,321.3568058860444 L248.4712928871469,317.292692311999 M246.67979855111014,293.8583850239397 L248.062566159335,321.3568058860444 M246.78942042408318,292.8000708869903 L246.67979855111014,293.8583850239397 M246.63434791147085,289.7127027276255 L242.8910923522015,289.7127027276255 M242.8910923522015,289.7127027276255 L242.97070240482913,291.25722466671516 M244.84131053142553,291.2572223860259 L242.97070240482913,291.25722466671516 M244.84131053142553,291.2572223860259 L244.91981945959716,292.80006860498406 M244.91981945959716,292.80006860498406 L246.78942042408318,292.8000708869903 M244.80876977929103,293.85838730945136 L244.91981945959716,292.80006860498406 M246.67979855111014,293.8583850239397 L244.80876977929103,293.85838730945136 M-69.40205345520559,306.14596767943874 L212.80932662154726,290.7697942749352 M-66.93448443268113,321.3568058860444 L-69.40205345520559,306.14596767943874 M248.062566159335,321.3568058860444 L-66.93448443268113,321.3568058860444 M244.73014022187928,292.31493076870777 L244.80876977929103,293.85838730945136 M242.8580875395376,292.31492848451325 L244.73014022187928,292.31493076870777 M242.8580875395376,292.31492848451325 L242.77835509540998,290.7697942749352 M212.80932662154726,290.7697942749352 L242.77835509540998,290.7697942749352 M-66.93448443268113,321.3568058860444 L-65.61588695808155,317.29269001680467 M248.4712928871469,317.292692311999 L-65.61588695808155,317.29269001680467 M242.77835509540998,290.7697942749352 L242.8910923522015,289.7127027276255 M213.3254271103214,286.750944625724 L246.942135009129,286.7509423561623 M212.80932662154726,290.7697942749352 L213.3254271103214,286.750944625724 M244.84131053142553,291.2572223860259 L244.73014022187928,292.31493076870777 M242.97070240482913,291.25722466671516 L242.8580875395376,292.31492848451325 M-69.40205345520559,306.14596767943874 L-68.0691831561864,302.1041206053387 M-68.0691831561864,302.1041206053387 L213.3254271103214,286.750944625724 M-65.61588695808155,317.29269001680467 L-68.0691831561864,302.1041206053387" stroke="black"  stroke-width="4"  fill="red"/>
<path d="M246.5700082224497,294.91832546986126 L246.41445847606525,291.82851201950945 M246.41445847606525,291.82851201950945 L246.10438716869294,294.81225249676964 M246.10438716869294,294.81225249676964 L247.6514645050064,325.444534189534 M248.062566159335,321.3568058860444 L247.6514645050064,325.444534189534 M246.67979855111014,293.8583850239397 L248.062566159335,321.3568058860444 M246.5700082224497,294.91832546986126 L246.67979855111014,293.8583850239397 M246.5700082224497,294.91832546986126 L244.69754184757727,294.91832775888645 M244.61879137881687,293.3742608446681 L244.69754184757727,294.91832775888645 M244.61879137881687,293.3742608446681 L242.7453114100864,293.3742608446681 M242.7453114100864,293.3742608446681 L242.665456298332,291.828514305896 M246.41445847606525,291.82851201950945 L242.665456298332,291.828514305896 M246.67979855111014,293.8583850239397 L244.80876977929103,293.85838730945136 M244.69754184757727,294.91832775888645 L244.80876977929103,293.85838730945136 M242.77835509540998,290.7697942749352 L212.80932662154726,290.7697942749352 M-69.40205345520559,306.14596767943874 L212.80932662154726,290.7697942749352 M-66.93448443268113,321.3568058860444 L-69.40205345520559,306.14596767943874 M248.062566159335,321.3568058860444 L-66.93448443268113,321.3568058860444 M244.73014022187928,292.31493076870777 L244.80876977929103,293.85838730945136 M242.8580875395376,292.31492848451325 L244.73014022187928,292.31493076870777 M242.8580875395376,292.31492848451325 L242.77835509540998,290.7697942749352 M-66.93448443268113,321.3568058860444 L-68.26074368634471,325.4445365114785 M247.6514645050064,325.444534189534 L-68.26074368634471,325.4445365114785 M242.77835509540998,290.7697942749352 L242.665456298332,291.828514305896 M212.29020648233123,294.81225249676964 L246.10438716869294,294.81225249676964 M212.80932662154726,290.7697942749352 L212.29020648233123,294.81225249676964 M242.8580875395376,292.31492848451325 L242.7453114100864,293.3742608446681 M244.73014022187928,292.31493076870777 L244.61879137881687,293.3742608446681 M-69.40205345520559,306.14596767943874 L-70.74271045186805,310.2114274344652 M-70.74271045186805,310.2114274344652 L212.29020648233123,294.81225249676964 M-68.26074368634471,325.4445365114785 L-70.74271045186805,310.2114274344652" stroke="black"  stroke-width="4"  fill="red"/></svg>