<svg viewBox="0 0 800 800" xmlns="http://www.w3.org/2000/svg"><path d="M731.446930121393,159.38409690456746 L763.8054846646882,159.38409690456746 M763.8054846646882,159.38409690456746 L763.4707384942823,157.02753515132656 M763.4707384942823,157.02753515132656 L767.5977752341557,157.0275351513265 M767.5977752341557,157.0275351513265 L767.9363696579412,159.38409690456746 M767.9363696579412,159.38409690456746 L800.2949242012363,159.38409690456746 M800.2949242012363,159.38409690456746 L799.1265613237613,151.91715164855157 M730.4817620830902,151.91715164855157 L799.1265613237613,151.91715164855157 M731.446930121393,159.38409690456746 L730.4817620830902,151.91715164855157 M762.1546516893012,183.0147063909776 L729.9447581929124,183.0147063909776 M763.8054846646882,159.38409690456746 L762.1546516893012,183.0147063909776 M729.9447581929124,183.0147063909776 L731.446930121393,159.38409690456746 M763.4707384942823,157.02753515132656 L761.4356724227869,186.19871528776446 M761.7666324080989,188.56895218325099 L761.4356724227869,186.19871528776446 M761.9200558357809,186.37279475262312 L761.7666324080989,188.56895218325099 M761.9200558357809,186.37279475262312 L761.7543717580704,185.1876363248668 M761.7543717580704,185.1876363248668 L761.9887501002551,181.83032819914905 M761.9887501002551,181.83032819914905 L762.1546516893012,183.0147063909776 M767.5977752341557,157.0275351513265 L765.5393139737685,186.19871528776446 M761.4356724227869,186.19871528776446 L765.5393139737685,186.19871528776446 M766.266558650426,183.0147063909776 L767.9363696579412,159.38409690456746 M766.266558650426,183.0147063909776 L766.0987496811288,181.83032819914905 M766.0987496811288,181.83032819914905 L765.8616769176487,185.1876363248668 M765.8616769176487,185.1876363248668 L766.0292658749811,186.37279475262312 M765.8740786863473,188.56895218325099 L766.0292658749811,186.37279475262312 M765.5393139737685,186.19871528776446 L765.8740786863473,188.56895218325099 M729.7312881987034,186.37279475262312 L761.9200558357809,186.37279475262312 M728.2448030181357,209.75663660410765 L729.7312881987034,186.37279475262312 M740.0568871374853,526.783811062325 L728.2448030181357,209.75663660410765 M772.0220134503467,526.783811062325 L740.0568871374853,526.783811062325 M800.2949242012363,159.38409690456746 L772.0220134503467,526.783811062325 M785.421177861843,183.0147063909776 L766.266558650426,183.0147063909776 M785.421177861843,183.0147063909776 L785.1713219343138,186.37279475262312 M766.0292658749811,186.37279475262312 L785.1713219343138,186.37279475262312 M765.8740786863473,188.56895218325099 L761.7666324080989,188.56895218325099 M772.0220134503467,526.783811062325 L771.0143870530354,518.8415227740844 M799.1265613237613,151.91715164855157 L771.0143870530354,518.8415227740844 M729.7312881987034,186.37279475262312 L729.5805119694905,185.18764484582397 M729.5805119694905,185.18764484582397 L729.7937840323308,181.83033671449402 M729.7937840323308,181.83033671449402 L729.9447581929124,183.0147063909776 M727.2984191819735,202.2153662853534 L730.4817620830902,151.91715164855157 M728.2448030181357,209.75663660410765 L727.2984191819735,202.2153662853534 M729.7937840323308,181.83033671449402 L761.9887501002551,181.83032819914905 M729.5805119694905,185.18764484582397 L761.7543717580704,185.1876363248668 M785.2444541226092,181.83032819914905 L785.421177861843,183.0147063909776 M766.0987496811288,181.83032819914905 L785.2444541226092,181.83032819914905 M784.9948298751813,185.1876363248668 L785.2444541226092,181.83032819914905 M765.8616769176487,185.1876363248668 L784.9948298751813,185.1876363248668 M785.1713219343138,186.37279475262312 L784.9948298751813,185.1876363248668 M740.0568871374853,526.783811062325 L739.1368662925455,518.8415227740844 M739.1368662925455,518.8415227740844 L727.2984191819735,202.2153662853534 M771.0143870530354,518.8415227740844 L739.1368662925455,518.8415227740844" stroke="black"  stroke-width="4"  fill="red"/>
<path d="M731.446930121393,159.38409690456746 L763.8054846646882,159.38409690456746 M764.1408556855396,161.74505750921236 L763.8054846646882,159.38409690456746 M768.2755961154744,161.74505750921236 L764.1408556855396,161.74505750921236 M767.9363696579412,159.38409690456746 L768.2755961154744,161.74505750921236 M767.9363696579412,159.38409690456746 L800.2949242012363,159.38409690456746 M800.2949242012363,159.38409690456746 L801.4702553540398,166.8953855766357 M732.4178001324834,166.8953855766357 L801.4702553540398,166.8953855766357 M731.446930121393,159.38409690456746 L732.4178001324834,166.8953855766357 M731.446930121393,159.38409690456746 L729.9447581929124,183.0147063909776 M762.1546516893012,183.0147063909776 L729.9447581929124,183.0147063909776 M763.8054846646882,159.38409690456746 L762.1546516893012,183.0147063909776 M762.1546516893012,183.0147063909776 L762.3207369249039,184.20018439238328 M762.3207369249039,184.20018439238328 L762.0859232376943,187.5590529923266 M762.0859232376943,187.5590529923266 L761.9200558357809,186.37279475262312 M761.9200558357809,186.37279475262312 L761.7666324080989,188.56895218325099 M762.0982066678488,190.94358832940662 L761.7666324080989,188.56895218325099 M764.1408556855396,161.74505750921236 L762.0982066678488,190.94358832940662 M768.2755961154744,161.74505750921236 L766.209464735084,190.94358832940662 M766.209464735084,190.94358832940662 L762.0982066678488,190.94358832940662 M765.8740786863473,188.56895218325099 L766.209464735084,190.94358832940662 M765.8740786863473,188.56895218325099 L766.0292658749811,186.37279475262312 M766.0292658749811,186.37279475262312 L766.1970399242205,187.5590529923266 M766.1970399242205,187.5590529923266 L766.4345530374668,184.20018439238328 M766.4345530374668,184.20018439238328 L766.266558650426,183.0147063909776 M766.266558650426,183.0147063909776 L767.9363696579412,159.38409690456746 M785.421177861843,183.0147063909776 L766.266558650426,183.0147063909776 M785.421177861843,183.0147063909776 L785.1713219343138,186.37279475262312 M766.0292658749811,186.37279475262312 L785.1713219343138,186.37279475262312 M765.8740786863473,188.56895218325099 L761.7666324080989,188.56895218325099 M729.7312881987034,186.37279475262312 L761.9200558357809,186.37279475262312 M729.7312881987034,186.37279475262312 L728.2448030181357,209.75663660410765 M740.0568871374853,526.783811062325 L728.2448030181357,209.75663660410765 M772.0220134503467,526.783811062325 L740.0568871374853,526.783811062325 M800.2949242012363,159.38409690456746 L772.0220134503467,526.783811062325 M772.0220134503467,526.783811062325 L773.035222833078,534.7698873437055 M801.4702553540398,166.8953855766357 L773.035222833078,534.7698873437055 M729.8822043453323,187.5590444555474 L729.7312881987034,186.37279475262312 M730.0958725465794,184.2001758612164 L729.8822043453323,187.5590444555474 M729.9447581929124,183.0147063909776 L730.0958725465794,184.2001758612164 M729.196722365309,217.34225184940425 L732.4178001324834,166.8953855766357 M728.2448030181357,209.75663660410765 L729.196722365309,217.34225184940425 M730.0958725465794,184.2001758612164 L762.3207369249039,184.20018439238328 M729.8822043453323,187.5590444555474 L762.0859232376943,187.5590529923266 M785.3479482043465,187.5590529923266 L785.1713219343138,186.37279475262312 M766.1970399242205,187.5590529923266 L785.3479482043465,187.5590529923266 M785.5980361152396,184.20018439238328 L785.3479482043465,187.5590529923266 M766.4345530374668,184.20018439238328 L785.5980361152396,184.20018439238328 M785.421177861843,183.0147063909776 L785.5980361152396,184.20018439238328 M740.0568871374853,526.783811062325 L740.9819526399663,534.7698873437055 M740.9819526399663,534.7698873437055 L729.196722365309,217.34225184940425 M773.035222833078,534.7698873437055 L740.9819526399663,534.7698873437055" stroke="black"  stroke-width="4"  fill="red"/>
<path d="M351.2807211277902,393.7595947056178 L350.85277285160106,415.9964394267473 M350.85277285160106,415.9964394267473 L355.40270449746737,415.9964394267473 M355.40270449746737,415.9964394267473 L355.3522543523089,418.86096957169934 M355.3522543523089,418.86096957169934 L350.7976449432581,418.86096957169934 M350.7976449432581,418.86096957169934 L350.3618567111045,441.50519035461514 M350.3618567111045,441.50519035461514 L364.9401289228404,441.5052008357046 M365.6114445226299,393.75958457745855 L364.9401289228404,441.5052008357046 M351.2807211277902,393.7595947056178 L365.6114445226299,393.75958457745855 M351.12398281730566,440.7141575199804 L351.54763013066366,418.3926103412839 M350.85277285160106,415.9964394267473 L351.12398281730566,440.7141575199804 M351.54763013066366,418.3926103412839 L351.2807211277902,393.7595947056178 M355.40270449746737,415.9964394267473 L355.7092053039552,446.52058016361957 M351.18769256915687,446.52058016361957 L355.7092053039552,446.52058016361957 M351.1625033015889,444.2248635843939 L351.18769256915687,446.52058016361957 M351.1625033015889,444.2248635843939 L353.4243281727781,444.22487392039284 M353.4243281727781,444.22487392039284 L353.3874419757258,440.71416785054566 M353.3874419757258,440.71416785054566 L351.12398281730566,440.7141575199804 M355.3522543523089,418.86096957169934 L355.6593837345893,449.398385663622 M355.7092053039552,446.52058016361957 L355.6593837345893,449.398385663622 M351.06941144181206,443.58946793569646 L350.7976449432581,418.86096957169934 M351.06941144181206,443.58946793569646 L353.3351858697255,443.58947828740645 M353.3351858697255,443.58947828740645 L353.3721475391164,447.10169464287696 M353.3721475391164,447.10169464287696 L351.10801074232614,447.1016842857373 M351.13325151847454,449.398385663622 L351.10801074232614,447.1016842857373 M355.6593837345893,449.398385663622 L351.13325151847454,449.398385663622 M351.5855414884511,421.89144724485084 L351.1625033015889,444.2248635843939 M351.8494078463403,446.2436573600346 L351.5855414884511,421.89144724485084 M355.01764605148844,799.2118101842144 L351.8494078463403,446.2436573600346 M354.6241357961475,824.4302611395563 L355.01764605148844,799.2118101842144 M350.3618567111045,441.50519035461514 L354.6241357961475,824.4302611395563 M350.81372158873097,457.0615069141188 L351.06941144181206,443.58946793569646 M350.81372158873097,457.0615069141188 L350.8526912485357,460.58074298896895 M351.10801074232614,447.1016842857373 L350.8526912485357,460.58074298896895 M351.13325151847454,449.398385663622 L351.18769256915687,446.52058016361957 M354.6241357961475,824.4302611395563 L368.0541174220056,824.430272110036 M364.9401289228404,441.5052008357046 L368.0541174220056,824.430272110036 M351.5855414884511,421.89144724485084 L353.8294023971896,421.89144724485084 M353.8294023971896,421.89144724485084 L353.793099472258,418.3926103412839 M353.793099472258,418.3926103412839 L351.54763013066366,418.3926103412839 M366.0269226835547,446.2436471498935 L365.6114445226299,393.75958457745855 M351.8494078463403,446.2436573600346 L366.0269226835547,446.2436471498935 M353.793099472258,418.3926103412839 L353.3874419757258,440.71416785054566 M353.8294023971896,421.89144724485084 L353.4243281727781,444.22487392039284 M353.0903444081572,457.06149646304834 L350.81372158873097,457.0615069141188 M353.3351858697255,443.58947828740645 L353.0903444081572,457.06149646304834 M353.12766072326014,460.58073253248904 L353.0903444081572,457.06149646304834 M353.3721475391164,447.10169464287696 L353.12766072326014,460.58073253248904 M350.8526912485357,460.58074298896895 L353.12766072326014,460.58073253248904 M355.01764605148844,799.2118101842144 L368.3416132508703,799.2117993862503 M368.3416132508703,799.2117993862503 L366.0269226835547,446.2436471498935 M368.0541174220056,824.430272110036 L368.3416132508703,799.2117993862503" stroke="black"  stroke-width="4"  fill="red"/>
<path d="M351.2807211277902,393.7595947056178 L350.85277285160106,415.9964394267473 M346.30284120573486,415.9964394267473 L350.85277285160106,415.9964394267473 M346.2430355342073,418.86096957169934 L346.30284120573486,415.9964394267473 M350.7976449432581,418.86096957169934 L346.2430355342073,418.86096957169934 M350.7976449432581,418.86096957169934 L350.3618567111045,441.50519035461514 M350.3618567111045,441.50519035461514 L335.78358409595137,441.5052008357046 M336.9499981227834,393.75958457745855 L335.78358409595137,441.5052008357046 M351.2807211277902,393.7595947056178 L336.9499981227834,393.75958457745855 M351.2807211277902,393.7595947056178 L351.54763013066366,418.3926103412839 M351.12398281730566,440.7141575199804 L351.54763013066366,418.3926103412839 M350.85277285160106,415.9964394267473 L351.12398281730566,440.7141575199804 M351.12398281730566,440.7141575199804 L348.8605232667518,440.71416785054566 M348.8605232667518,440.71416785054566 L348.9006780388321,444.22487392039284 M348.9006780388321,444.22487392039284 L351.1625033015889,444.2248635843939 M351.1625033015889,444.2248635843939 L351.18769256915687,446.52058016361957 M346.6661798343586,446.52058016361957 L351.18769256915687,446.52058016361957 M346.30284120573486,415.9964394267473 L346.6661798343586,446.52058016361957 M346.2430355342073,418.86096957169934 L346.6071193023597,449.398385663622 M346.6071193023597,449.398385663622 L346.6661798343586,446.52058016361957 M351.13325151847454,449.398385663622 L346.6071193023597,449.398385663622 M351.13325151847454,449.398385663622 L351.10801074232614,447.1016842857373 M351.10801074232614,447.1016842857373 L348.84387355316727,447.10169464287696 M348.84387355316727,447.10169464287696 L348.8036366209621,443.58947828740645 M348.8036366209621,443.58947828740645 L351.06941144181206,443.58946793569646 M351.06941144181206,443.58946793569646 L350.7976449432581,418.86096957169934 M350.81372158873097,457.0615069141188 L351.06941144181206,443.58946793569646 M350.81372158873097,457.0615069141188 L350.8526912485357,460.58074298896895 M351.10801074232614,447.1016842857373 L350.8526912485357,460.58074298896895 M351.13325151847454,449.398385663622 L351.18769256915687,446.52058016361957 M351.5855414884511,421.89144724485084 L351.1625033015889,444.2248635843939 M351.5855414884511,421.89144724485084 L351.8494078463403,446.2436573600346 M355.01764605148844,799.2118101842144 L351.8494078463403,446.2436573600346 M354.6241357961475,824.4302611395563 L355.01764605148844,799.2118101842144 M350.3618567111045,441.50519035461514 L354.6241357961475,824.4302611395563 M354.6241357961475,824.4302611395563 L341.19415382792147,824.430272110036 M335.78358409595137,441.5052008357046 L341.19415382792147,824.430272110036 M349.3416805797127,421.89144724485084 L351.5855414884511,421.89144724485084 M349.30216078906926,418.3926103412839 L349.3416805797127,421.89144724485084 M351.54763013066366,418.3926103412839 L349.30216078906926,418.3926103412839 M337.6718933906681,446.2436471498935 L336.9499981227834,393.75958457745855 M351.8494078463403,446.2436573600346 L337.6718933906681,446.2436471498935 M349.30216078906926,418.3926103412839 L348.8605232667518,440.71416785054566 M349.3416805797127,421.89144724485084 L348.9006780388321,444.22487392039284 M348.57772216994323,460.58073253248904 L350.8526912485357,460.58074298896895 M348.84387355316727,447.10169464287696 L348.57772216994323,460.58073253248904 M348.5370991660127,457.06149646304834 L348.57772216994323,460.58073253248904 M348.8036366209621,443.58947828740645 L348.5370991660127,457.06149646304834 M350.81372158873097,457.0615069141188 L348.5370991660127,457.06149646304834 M355.01764605148844,799.2118101842144 L341.6936791890908,799.2117993862503 M341.6936791890908,799.2117993862503 L337.6718933906681,446.2436471498935 M341.19415382792147,824.430272110036 L341.6936791890908,799.2117993862503" stroke="black"  stroke-width="4"  fill="red"/>
<path d="M450.2796867770759,9.870998807050341 L449.96703853914903,-6.374680182533098 M449.96703853914903,-6.374680182533098 L446.1068367873834,-6.374680182533098 M446.1068367873834,-6.374680182533098 L446.07059178284203,-8.432650636070434 M446.07059178284203,-8.432650636070434 L449.92743287930455,-8.432650636070434 M449.92743287930455,-8.432650636070434 L449.61955865088896,-24.430264814774034 M449.61955865088896,-24.430264814774034 L437.45704630538836,-24.430272110035844 M437.9393310700543,9.871006317218757 L437.45704630538836,-24.430272110035844 M450.2796867770759,9.870998807050341 L437.9393310700543,9.871006317218757 M449.77167252327615,16.425983014141707 L450.081632085951,32.75743793803679 M449.96703853914903,-6.374680182533098 L449.77167252327615,16.425983014141707 M450.081632085951,32.75743793803679 L450.2796867770759,9.870998807050341 M446.1068367873834,-6.374680182533098 L445.88600922099425,21.78714773965305 M449.72573572820016,21.78714773965305 L445.88600922099425,21.78714773965305 M449.7438999857729,19.667244145964503 L449.72573572820016,21.78714773965305 M449.7438999857729,19.667244145964503 L447.82326595197395,19.6672366930934 M447.82326595197395,19.6672366930934 L447.84986019906427,16.425975566812212 M447.84986019906427,16.425975566812212 L449.77167252327615,16.425983014141707 M446.07059178284203,-8.432650636070434 L445.8501475319195,19.71569621027527 M445.88600922099425,21.78714773965305 L445.8501475319195,19.71569621027527 M449.73240615384174,14.357077841771797 L449.92743287930455,-8.432650636070434 M449.73240615384174,14.357077841771797 L447.8122597626275,14.35707040734826 M447.8122597626275,14.35707040734826 L447.7857115881625,17.596790927080292 M447.7857115881625,17.596790927080292 L449.70468173026757,17.59679836704379 M449.68654892502786,19.71569621027527 L449.70468173026757,17.59679836704379 M445.8501475319195,19.71569621027527 L449.68654892502786,19.71569621027527 M450.0534782849755,36.01078300485915 L449.7438999857729,19.667244145964503 M449.8573707447365,58.67221686091608 L450.0534782849755,36.01078300485915 M446.8989531701385,348.5760425162389 L449.8573707447365,58.67221686091608 M446.613604926102,330.2892492249317 L446.8989531701385,348.5760425162389 M449.61955865088896,-24.430264814774034 L446.613604926102,330.2892492249317 M449.5503840348146,4.7665170396130065 L449.73240615384174,14.357077841771797 M449.5503840348146,4.7665170396130065 L449.5228821023412,7.999067223737882 M449.70468173026757,17.59679836704379 L449.5228821023412,7.999067223737882 M449.68654892502786,19.71569621027527 L449.72573572820016,21.78714773965305 M446.613604926102,330.2892492249317 L435.26091953425816,330.28924138572756 M437.45704630538836,-24.430272110035844 L435.26091953425816,330.28924138572756 M450.0534782849755,36.01078300485915 L448.11972398701033,36.01078300485915 M448.11972398701033,36.01078300485915 L448.14668333067414,32.75743793803679 M448.14668333067414,32.75743793803679 L450.081632085951,32.75743793803679 M437.6307902072151,58.67222445440859 L437.9393310700543,9.871006317218757 M449.8573707447365,58.67221686091608 L437.6307902072151,58.67222445440859 M448.14668333067414,32.75743793803679 L447.84986019906427,16.425975566812212 M448.11972398701033,36.01078300485915 L447.82326595197395,19.6672366930934 M447.63796046555495,4.7665244143565815 L449.5503840348146,4.7665170396130065 M447.8122597626275,14.35707040734826 L447.63796046555495,4.7665244143565815 M447.6116253423536,7.999074604013288 L447.63796046555495,4.7665244143565815 M447.7857115881625,17.596790927080292 L447.6116253423536,7.999074604013288 M449.5228821023412,7.999067223737882 L447.6116253423536,7.999074604013288 M446.8989531701385,348.5760425162389 L435.4693929573019,348.5760504619693 M435.4693929573019,348.5760504619693 L437.6307902072151,58.67222445440859 M435.26091953425816,330.28924138572756 L435.4693929573019,348.5760504619693" stroke="black"  stroke-width="4"  fill="red"/>
<path d="M450.2796867770759,9.870998807050341 L449.96703853914903,-6.374680182533098 M453.82724029091463,-6.374680182533098 L449.96703853914903,-6.374680182533098 M453.78427397576706,-8.432650636070434 L453.82724029091463,-6.374680182533098 M449.92743287930455,-8.432650636070434 L453.78427397576706,-8.432650636070434 M449.92743287930455,-8.432650636070434 L449.61955865088896,-24.430264814774034 M449.61955865088896,-24.430264814774034 L461.78207071559484,-24.430272110035844 M462.62004277316385,9.871006317218757 L461.78207071559484,-24.430272110035844 M450.2796867770759,9.870998807050341 L462.62004277316385,9.871006317218757 M450.2796867770759,9.870998807050341 L450.081632085951,32.75743793803679 M449.77167252327615,16.425983014141707 L450.081632085951,32.75743793803679 M449.96703853914903,-6.374680182533098 L449.77167252327615,16.425983014141707 M449.77167252327615,16.425983014141707 L451.69348456479787,16.425975566812212 M451.69348456479787,16.425975566812212 L451.6645337372283,19.6672366930934 M451.6645337372283,19.6672366930934 L449.7438999857729,19.667244145964503 M449.7438999857729,19.667244145964503 L449.72573572820016,21.78714773965305 M453.5654622354062,21.78714773965305 L449.72573572820016,21.78714773965305 M453.82724029091463,-6.374680182533098 L453.5654622354062,21.78714773965305 M453.78427397576706,-8.432650636070434 L453.5229503181363,19.71569621027527 M453.5229503181363,19.71569621027527 L453.5654622354062,21.78714773965305 M449.68654892502786,19.71569621027527 L453.5229503181363,19.71569621027527 M449.68654892502786,19.71569621027527 L449.70468173026757,17.59679836704379 M449.70468173026757,17.59679836704379 L451.62365159051814,17.596790927080235 M451.62365159051814,17.596790927080235 L451.6525522628557,14.35707040734826 M451.6525522628557,14.35707040734826 L449.73240615384174,14.357077841771797 M449.73240615384174,14.357077841771797 L449.92743287930455,-8.432650636070434 M449.5503840348146,4.7665170396130065 L449.73240615384174,14.357077841771797 M449.5503840348146,4.7665170396130065 L449.5228821023412,7.999067223737882 M449.70468173026757,17.59679836704379 L449.5228821023412,7.999067223737882 M449.68654892502786,19.71569621027527 L449.72573572820016,21.78714773965305 M450.0534782849755,36.01078300485915 L449.7438999857729,19.667244145964503 M450.0534782849755,36.01078300485915 L449.8573707447365,58.67221686091608 M446.8989531701385,348.5760425162389 L449.8573707447365,58.67221686091608 M446.613604926102,330.2892492249317 L446.8989531701385,348.5760425162389 M449.61955865088896,-24.430264814774034 L446.613604926102,330.2892492249317 M446.613604926102,330.2892492249317 L457.966290073299,330.28924138572756 M461.78207071559484,-24.430272110035844 L457.966290073299,330.28924138572756 M451.9872325829406,36.01078300485915 L450.0534782849755,36.01078300485915 M452.0165808412279,32.75743793803679 L451.9872325829406,36.01078300485915 M450.081632085951,32.75743793803679 L452.0165808412279,32.75743793803679 M462.08395156601875,58.67222445440859 L462.62004277316385,9.871006317218757 M449.8573707447365,58.67221686091608 L462.08395156601875,58.67222445440859 M452.0165808412279,32.75743793803679 L451.69348456479787,16.425975566812212 M451.9872325829406,36.01078300485915 L451.6645337372283,19.6672366930934 M451.43413914192223,7.999074604013231 L449.5228821023412,7.999067223737882 M451.62365159051814,17.596790927080235 L451.43413914192223,7.999074604013231 M451.4628078840091,4.766524414356468 L451.43413914192223,7.999074604013231 M451.6525522628557,14.35707040734826 L451.4628078840091,4.766524414356468 M449.5503840348146,4.7665170396130065 L451.4628078840091,4.766524414356468 M446.8989531701385,348.5760425162389 L458.3285136309464,348.5760504619693 M458.3285136309464,348.5760504619693 L462.08395156601875,58.67222445440859 M457.966290073299,330.28924138572756 L458.3285136309464,348.5760504619693" stroke="black"  stroke-width="4"  fill="red"/>
<path d="M70.15371486442427,216.22988063868354 L37.06800179206641,216.22988063868354 M37.06800179206641,216.22988063868354 L36.71738120469206,218.6981958552654 M36.71738120469206,218.6981958552654 L32.48963658896815,218.6981958552654 M32.48963658896815,218.6981958552654 L32.84428792256051,216.22988063868354 M32.84428792256051,216.22988063868354 L-0.2414251497975215,216.22988063868354 M-0.2414251497975215,216.22988063868354 L-1.4702553540396934,224.0830724330762 M69.13865189597016,224.0830724330762 L-1.4702553540396934,224.0830724330762 M70.15371486442427,216.22988063868354 L69.13865189597016,224.0830724330762 M38.79368499712814,240.12201987016738 L71.7239965990052,240.12201987016738 M37.06800179206641,216.22988063868354 L38.79368499712814,240.12201987016738 M71.7239965990052,240.12201987016738 L70.15371486442427,216.22988063868354 M36.71738120469206,218.6981958552654 L38.85268298664687,248.21899987934182 M39.19924570487848,245.73702085526628 L38.85268298664687,248.21899987934182 M39.038888722223135,243.5168732956767 L39.19924570487848,245.73702085526628 M39.038888722223135,243.5168732956767 L38.865522270441375,244.7567660072349 M38.865522270441375,244.7567660072349 L38.62008576758666,241.36113343744347 M38.62008576758666,241.36113343744347 L38.79368499712814,240.12201987016738 M32.48963658896815,218.6981958552654 L34.64948587295726,248.21899987934194 M38.85268298664687,248.21899987934182 L34.64948587295726,248.21899987934194 M34.58980964054092,240.12201987016732 L32.84428792256051,216.22988063868354 M34.58980964054092,240.12201987016732 L34.41421488223722,241.36113343744347 M34.41421488223722,241.36113343744347 L34.662472931374,244.7567660072349 M34.662472931374,244.7567660072349 L34.83783223601358,243.5168732956767 M35.000032688004865,245.73702085526622 L34.83783223601358,243.5168732956767 M34.64948587295726,248.21899987934194 L35.000032688004865,245.73702085526622 M71.94711920322283,243.5168732956767 L39.038888722223135,243.5168732956767 M73.50063825643673,267.1539650994959 L71.94711920322283,243.5168732956767 M61.90015370989482,587.138750444115 L73.50063825643673,267.1539650994959 M29.26908726551551,587.138750444115 L61.90015370989482,587.138750444115 M-0.2414251497975215,216.22988063868354 L29.26908726551551,587.138750444115 M15.006771301156448,240.12201987016738 L34.58980964054092,240.12201987016732 M15.006771301156448,240.12201987016738 L15.267925124840644,243.5168732956767 M34.83783223601358,243.5168732956767 L15.267925124840644,243.5168732956767 M35.000032688004865,245.73702085526622 L39.19924570487848,245.73702085526628 M29.26908726551551,587.138750444115 L28.213160716589016,595.4615240589958 M-1.4702553540396934,224.0830724330762 L28.213160716589016,595.4615240589958 M71.94711920322283,243.5168732956767 L71.78937966221503,244.75675708438848 M71.78937966221503,244.75675708438848 L71.56604525313242,241.36112452020137 M71.56604525313242,241.36112452020137 L71.7239965990052,240.12201987016738 M72.50582778662863,275.08136666231565 L69.13865189597016,224.0830724330762 M73.50063825643673,267.1539650994959 L72.50582778662863,275.08136666231565 M71.56604525313242,241.36112452020137 L38.62008576758666,241.36113343744347 M71.78937966221503,244.75675708438848 L38.865522270441375,244.7567660072349 M14.821910964578535,241.36113343744347 L15.006771301156448,240.12201987016738 M34.41421488223722,241.36113343744347 L14.821910964578535,241.36113343744347 M15.083312686876752,244.7567660072349 L14.821910964578535,241.36113343744347 M34.662472931374,244.7567660072349 L15.083312686876752,244.7567660072349 M15.267925124840644,243.5168732956767 L15.083312686876752,244.7567660072349 M61.90015370989482,587.138750444115 L60.936086646859394,595.4615240589958 M60.936086646859394,595.4615240589958 L72.50582778662863,275.08136666231565 M28.213160716589016,595.4615240589958 L60.936086646859394,595.4615240589958" stroke="black"  stroke-width="4"  fill="red"/>
<path d="M70.15371486442427,216.22988063868354 L37.06800179206641,216.22988063868354 M37.41795445050525,213.7662675394746 L37.06800179206641,216.22988063868354 M33.19826364868345,213.7662675394746 L37.41795445050525,213.7662675394746 M32.84428792256051,216.22988063868354 L33.19826364868345,213.7662675394746 M32.84428792256051,216.22988063868354 L-0.2414251497975215,216.22988063868354 M-0.2414251497975215,216.22988063868354 L0.9799577498538952,208.42408940472558 M71.16268137122393,208.42408940472558 L0.9799577498538952,208.42408940472558 M70.15371486442427,216.22988063868354 L71.16268137122393,208.42408940472558 M70.15371486442427,216.22988063868354 L71.7239965990052,240.12201987016738 M38.79368499712814,240.12201987016738 L71.7239965990052,240.12201987016738 M37.06800179206641,216.22988063868354 L38.79368499712814,240.12201987016738 M38.79368499712814,240.12201987016738 L38.967089347717774,238.88408157155226 M38.967089347717774,238.88408157155226 L39.21206064630144,242.27815580359118 M39.21206064630144,242.27815580359118 L39.038888722223135,243.5168732956767 M39.038888722223135,243.5168732956767 L39.19924570487848,245.73702085526628 M39.54515205042105,243.25974257700227 L39.19924570487848,245.73702085526628 M37.41795445050525,213.7662675394746 L39.54515205042105,243.25974257700227 M33.19826364868345,213.7662675394746 L35.34991558468073,243.25974257700238 M35.34991558468073,243.25974257700238 L39.54515205042105,243.25974257700227 M35.000032688004865,245.73702085526622 L35.34991558468073,243.25974257700238 M35.000032688004865,245.73702085526622 L34.83783223601358,243.5168732956767 M34.83783223601358,243.5168732956767 L35.01299512404472,242.27815580359118 M35.01299512404472,242.27815580359118 L34.765207627182804,238.88408157155226 M34.765207627182804,238.88408157155226 L34.58980964054092,240.12201987016732 M34.58980964054092,240.12201987016732 L32.84428792256051,216.22988063868354 M15.006771301156448,240.12201987016738 L34.58980964054092,240.12201987016732 M15.006771301156448,240.12201987016738 L15.267925124840644,243.5168732956767 M34.83783223601358,243.5168732956767 L15.267925124840644,243.5168732956767 M35.000032688004865,245.73702085526622 L39.19924570487848,245.73702085526628 M71.94711920322283,243.5168732956767 L39.038888722223135,243.5168732956767 M71.94711920322283,243.5168732956767 L73.50063825643673,267.1539650994959 M61.90015370989482,587.138750444115 L73.50063825643673,267.1539650994959 M29.26908726551551,587.138750444115 L61.90015370989482,587.138750444115 M-0.2414251497975215,216.22988063868354 L29.26908726551551,587.138750444115 M29.26908726551551,587.138750444115 L30.319075756369955,578.8625589983243 M0.9799577498538952,208.42408940472558 L30.319075756369955,578.8625589983243 M72.10470923351443,242.2781647095308 L71.94711920322283,243.5168732956767 M71.88179813299894,238.88409047188696 L72.10470923351443,242.2781647095308 M71.7239965990052,240.12201987016738 L71.88179813299894,238.88409047188696 M74.48953413527369,259.27393442911995 L71.16268137122393,208.42408940472558 M73.50063825643673,267.1539650994959 L74.48953413527369,259.27393442911995 M71.88179813299894,238.88409047188696 L38.967089347717774,238.88408157155226 M72.10470923351443,242.2781647095308 L39.21206064630144,242.27815580359118 M15.45239278392279,242.27815580359118 L15.267925124840644,243.5168732956767 M35.01299512404472,242.27815580359118 L15.45239278392279,242.27815580359118 M15.191486526627727,238.88408157155226 L15.45239278392279,242.27815580359118 M34.765207627182804,238.88408157155226 L15.191486526627727,238.88408157155226 M15.006771301156448,240.12201987016738 L15.191486526627727,238.88408157155226 M61.90015370989482,587.138750444115 L62.85885302258447,578.8625589983242 M62.85885302258447,578.8625589983242 L74.48953413527369,259.27393442911995 M30.319075756369955,578.8625589983243 L62.85885302258447,578.8625589983242" stroke="black"  stroke-width="4"  fill="red"/></svg>