<svg viewBox="0 0 800 800" xmlns="http://www.w3.org/2000/svg"><path d="M584.6147245242324,165.45563212340738 L736.8621101737862,165.45563212340738 M584.6147245242324,165.45563212340738 L584.0030482366692,159.45249942535526 M735.7480697722484,159.45250281420533 L584.0030482366692,159.45249942535526 M736.8621101737862,165.45563212340738 L735.7480697722484,159.45250281420533 M582.5870078794604,220.2144921320118 L581.9886190217743,214.09809016800952 M582.5870078794604,220.2144921320118 L584.6147245242324,165.45563212340738 M581.9886190217743,214.09809016800952 L584.0030482366692,159.45249942535526 M733.1689531054275,220.21449213201197 L732.0791132823314,214.0980936209266 M736.8621101737862,165.45563212340738 L733.1689531054275,220.21449213201197 M735.7480697722484,159.45250281420533 L732.0791132823314,214.0980936209266 M582.5870078794604,220.2144921320118 L733.1689531054275,220.21449213201197 M657.257187457679,192.9856415061581 L657.339191501064,192.54878192395532 M657.339191501064,192.54878192395532 L657.5352229140857,192.13726829720326 M657.5352229140857,192.13726829720326 L657.8338831762325,191.77497838642063 M657.8338831762325,191.77497838642063 L658.2178308699781,191.483052752748 M658.2178308699781,191.483052752748 L658.6647558807566,191.27842060579445 M658.6647558807566,191.27842060579445 L659.1486493649036,191.17306611102853 M659.1486493649036,191.17306611102853 L659.6413833857135,191.17307299458236 M659.6413833857135,191.17307299458236 L660.1142704296254,191.27842060579445 M660.1142704296254,191.27842060579445 L660.5398167142912,191.483052752748 M660.5398167142912,191.483052752748 L660.8932657876566,191.77497838642063 M660.8932657876566,191.77497838642063 L661.1540696882647,192.13726485429422 M661.1540696882647,192.13726485429422 L661.3071059930257,192.54877848056344 M661.3071059930257,192.54877848056344 L661.3434722558952,192.9856380622537 M661.3434722558952,192.9856380622537 L661.261122147474,193.42240721275687 M661.261122147474,193.42240721275687 L661.064835404933,193.8337222183398 M661.064835404933,193.8337222183398 L660.7660705053286,194.19570918875718 M660.7660705053286,194.19570918875718 L660.382180699314,194.48735398756122 M660.382180699314,194.48735398756122 L659.935475078318,194.6916854002991 M659.935475078318,194.6916854002991 L659.4519049018844,194.79692819266302 M659.4519049018844,194.79692819266302 L658.9595294280318,194.79692130060738 M658.9595294280318,194.79692130060738 L658.4869540195625,194.6916854002991 M658.4869540195625,194.6916854002991 L658.0615957057915,194.48735398756122 M658.0615957057915,194.48735398756122 L657.708175180233,194.19570918875718 M657.708175180233,194.19570918875718 L657.4472216191249,193.83372566323857 M657.4472216191249,193.83372566323857 L657.2939039147169,193.42241065717334 M657.2939039147169,193.42241065717334 L657.257187457679,192.9856415061581 M732.0791132823314,214.0980936209266 L581.9886190217743,214.09809016800952 M606.7363180840275,168.52579607712815 L606.5212886220803,173.71040951884729 M606.5212886220803,173.71040951884729 L612.2964998305965,173.71040951884729 M612.2964998305965,173.71040951884729 L612.5175206588302,168.52579607712815 M612.5175206588302,168.52579607712815 L606.7363180840275,168.52579607712815 M706.2899419891636,168.52579607712815 L705.9717398363703,173.71040951884729 M705.9717398363703,173.71040951884729 L711.7469510448865,173.71040951884729 M711.7469510448865,173.71040951884729 L712.0711445639663,168.52579607712815 M712.0711445639663,168.52579607712815 L706.2899419891636,168.52579607712815 M610.9545416029046,205.18950006936603 L611.1727838324515,200.07006582462793 M611.1727838324515,200.07006582462793 L605.4280339800019,200.07006582462793 M605.4280339800019,200.07006582462793 L605.2157077953223,205.18950006936603 M605.2157077953223,205.18950006936603 L610.9545416029046,205.18950006936603 M656.4104720306312,186.92506955909656 L656.4471576551337,187.3609423350944 M656.4471576551337,187.3609423350944 L656.6000264296887,187.77140008625256 M656.6000264296887,187.77140008625256 L656.8601920780892,188.1326319995166 M656.8601920780892,188.1326319995166 L657.2125026519744,188.42367410566663 M657.2125026519744,188.42367410566663 L657.6365002825091,188.62758332812908 M657.6365002825091,188.62758332812908 L658.1075520847568,188.7326120969048 M658.1075520847568,188.7326120969048 L658.5982966990814,188.7326120969048 M658.5982966990814,188.7326120969048 L659.0802693247551,188.62758332812908 M659.0802693247551,188.62758332812908 L659.5254744255024,188.42367410566663 M659.5254744255024,188.42367410566663 L659.9080546788175,188.1326319995166 M659.9080546788175,188.1326319995166 L660.2057926985084,187.77140008625256 M660.2057926985084,187.77140008625256 L660.4013509133466,187.3609423350944 M660.4013509133466,187.3609423350944 L660.4833692542844,186.92506955909656 M660.4833692542844,186.92506955909656 L660.4470334426159,186.4891205371178 M660.4470334426159,186.4891205371178 L660.2944422646557,186.07845152454115 M660.2944422646557,186.07845152454115 L660.0344164923991,185.71690802876086 M660.0344164923991,185.71690802876086 L659.68207750362,185.4255867099255 M659.68207750362,185.4255867099255 L659.2578930890097,185.22137823853132 M659.2578930890097,185.22137823853132 L658.7865335881783,185.116252166935 M658.7865335881783,185.116252166935 L658.2954327883645,185.116252166935 M658.2954327883645,185.116252166935 L657.8131370666637,185.22137823853132 M657.8131370666637,185.22137823853132 L657.367714058615,185.4255867099255 M657.367714058615,185.4255867099255 L656.9850763510393,185.71690802876086 M656.9850763510393,185.71690802876086 L656.6874510790327,186.07845152454115 M656.6874510790327,186.07845152454115 L656.492148488658,186.4891205371178 M656.492148488658,186.4891205371178 L656.4104720306312,186.92506955909656 M709.7785656950957,205.18950006936603 L710.098683563507,200.07006582462793 M710.098683563507,200.07006582462793 L704.3539337110575,200.07006582462793 M704.3539337110575,200.07006582462793 L704.0397318875133,205.18950006936603 M704.0397318875133,205.18950006936603 L709.7785656950957,205.18950006936603 M657.257187457679,192.9856415061581 L656.4104720306312,186.92506955909656 M606.6732910618423,175.05059921991148 L606.8886361864652,169.86357107187618 M606.8886361864652,169.86357107187618 L606.7363180840275,168.52579607712815 M606.6732910618423,175.05059921991148 L606.5212886220803,173.71040951884729 M606.8886361864652,169.86357107187618 L612.6740828008312,169.86357107187618 M612.6740828008312,169.86357107187618 L612.5175206588302,168.52579607712815 M612.452737514612,175.05059921991148 L606.6732910618423,175.05059921991148 M612.452737514612,175.05059921991148 L612.2964998305965,173.71040951884729 M612.6740828008312,169.86357107187618 L612.452737514612,175.05059921991148 M706.1966741459486,175.05059921991148 L706.5153434186523,169.86357107187618 M706.5153434186523,169.86357107187618 L706.2899419891636,168.52579607712815 M706.1966741459486,175.05059921991148 L705.9717398363703,173.71040951884729 M706.5153434186523,169.86357107187618 L712.3007900330183,169.86357107187618 M712.3007900330183,169.86357107187618 L712.0711445639663,168.52579607712815 M711.9761205987182,175.05059921991148 L706.1966741459486,175.05059921991148 M711.9761205987182,175.05059921991148 L711.7469510448865,173.71040951884729 M712.3007900330183,169.86357107187618 L711.9761205987182,175.05059921991148 M611.3273771135063,201.42241032520673 L611.1088165262307,206.54418155247907 M611.1088165262307,206.54418155247907 L610.9545416029046,205.18950006936603 M611.3273771135063,201.42241032520673 L611.1727838324515,200.07006582462793 M611.1088165262307,206.54418155247907 L605.3658006803224,206.54418155247907 M605.3658006803224,206.54418155247907 L605.2157077953223,205.18950006936603 M605.3658006803224,206.54418155247907 L605.5784365927851,201.42241032520673 M605.5784365927851,201.42241032520673 L605.4280339800019,200.07006582462793 M605.5784365927851,201.42241032520673 L611.3273771135063,201.42241032520673 M710.3254411058247,201.42241032520673 L710.0048562700546,206.54418155247907 M710.0048562700546,206.54418155247907 L709.7785656950957,205.18950006936603 M710.3254411058247,201.42241032520673 L710.098683563507,200.07006582462793 M710.0048562700546,206.54418155247907 L704.2618404241463,206.54418155247907 M704.2618404241463,206.54418155247907 L704.0397318875133,205.18950006936603 M704.5765005851034,201.42241032520673 L710.3254411058247,201.42241032520673 M704.5765005851034,201.42241032520673 L704.3539337110575,200.07006582462793 M704.2618404241463,206.54418155247907 L704.5765005851034,201.42241032520673" stroke="black"  stroke-width="4"  fill="red"/>
<path d="M585.6694471870936,247.5030888207118 L593.51376843821,327.50676005259385 M585.6694471870936,247.5030888207118 L599.303558874781,247.50308474543633 M607.7215684860387,327.5067479142003 L599.303558874781,247.50308474543633 M593.51376843821,327.50676005259385 L607.7215684860387,327.5067479142003 M583.5392736412747,303.7658121979741 L597.0175917005686,303.7658080500486 M583.5392736412747,303.7658121979741 L585.6694471870936,247.5030888207118 M597.0175917005686,303.7658080500486 L599.303558874781,247.50308474543633 M591.2016647612704,385.1565778829953 L605.2403656620518,385.15656554008234 M593.51376843821,327.50676005259385 L591.2016647612704,385.1565778829953 M607.7215684860387,327.5067479142003 L605.2403656620518,385.15656554008234 M583.5392736412747,303.7658121979741 L591.2016647612704,385.1565778829953 M588.2905981484714,314.23548228794226 L588.311312089033,313.8128805760093 M588.311312089033,313.8128805760093 L588.336894832037,313.47795168543445 M588.336894832037,313.47795168543445 L588.3658682010379,313.2501473795654 M588.3658682010379,313.2501473795654 L588.3965526130055,313.1427988037272 M588.3965526130055,313.1427988037272 L588.427167946028,313.16213897252027 M588.427167946028,313.16213897252027 L588.455915375147,313.30717639862 M588.455915375147,313.30717639862 L588.4811524601433,313.56947309100065 M588.4811524601433,313.56947309100065 L588.5013803457235,313.93379173704545 M588.5013803457235,313.93379173704545 L588.515434340448,314.37904118963274 M588.515434340448,314.37904118963274 L588.5224930014912,314.8792303896551 M588.5224930014912,314.8792303896551 L588.5221382823763,315.4053024482531 M588.5221382823763,315.4053024482531 L588.514413024629,315.9265844185393 M588.514413024629,315.9265844185393 L588.4997222666194,316.4127395491656 M588.4997222666194,316.4127395491656 L588.4789834507882,316.8354851063297 M588.4789834507882,316.8354851063297 L588.4533458179574,317.17020312450234 M588.4533458179574,317.17020312450234 L588.4243456385568,317.39751186486137 M588.4243456385568,317.39751186486137 L588.3936507048611,317.50422449239494 M588.3936507048611,317.50422449239494 L588.363051449844,317.4841447098654 M588.363051449844,317.4841447098654 L588.3343270032914,317.33858451630744 M588.3343270032914,317.33858451630744 L588.309129057514,317.0759891878216 M588.309129057514,317.0759891878216 L588.2889474795523,316.71166446796474 M588.2889474795523,316.71166446796474 L588.2749218697847,316.2668153417496 M588.2749218697847,316.2668153417496 L588.2678831642786,315.7671900982843 M588.2678831642786,315.7671900982843 L588.268236936276,315.24182540910545 M588.268236936276,315.24182540910545 L588.2759585065696,314.72120135259036 M588.2759585065696,314.72120135259036 L588.2905981484714,314.23548228794226 M605.2403656620518,385.15656554008234 L597.0175917005686,303.7658080500486 M600.1569641248145,268.64855230694326 L599.9373260059828,274.00825433974774 M599.9373260059828,274.00825433974774 L600.2480817507244,276.9933499835469 M600.2480817507244,276.9933499835469 L600.4684009686995,271.62861163496234 M600.4684009686995,271.62861163496234 L600.1569641248145,268.64855230694326 M605.6583151483647,321.2894461938124 L605.4264908052799,326.73662252897384 M605.4264908052799,326.73662252897384 L605.7544923445266,329.88737974301705 M605.7544923445266,329.88737974301705 L605.987055297192,324.4350762141302 M605.987055297192,324.4350762141302 L605.6583151483647,321.2894461938124 M598.910937885687,309.5525930503444 L599.1283323528627,304.2590719242922 M599.1283323528627,304.2590719242922 L598.8210267168998,301.24866051668636 M598.8210267168998,301.24866051668636 L598.6042998442382,306.5373210923008 M598.6042998442382,306.5373210923008 L598.910937885687,309.5525930503444 M602.1164108954531,314.2354783769726 L602.1007042736516,314.7211954851422 M602.1007042736516,314.7211954851422 L602.092418260258,315.2418195403451 M602.092418260258,315.2418195403451 L602.0920553665413,315.7671920550561 M602.0920553665413,315.7671920550561 L602.0996051462345,316.2668192564317 M602.0996051462345,316.2668192564317 L602.1146562561665,316.7116683838213 M602.1146562561665,316.7116683838213 L602.1363144204535,317.0759931048203 M602.1363144204535,317.0759931048203 L602.1633419303729,317.33857863924356 M602.1633419303729,317.33857863924356 L602.1941802310935,317.48414862879264 M602.1941802310935,317.48414862879264 L602.2270174139999,317.5042284119963 M602.2270174139999,317.5042284119963 L602.2599572732056,317.39751578488654 M602.2599572732056,317.39751578488654 L602.2910787160182,317.17020704467643 M602.2910787160182,317.17020704467643 L602.3185740553525,316.8354811862905 M602.3185740553525,316.8354811862905 L602.3408509885235,316.4127415089796 M602.3408509885235,316.4127415089796 L602.3565948272145,315.92658049957447 M602.3565948272145,315.92658049957447 L602.3649024329236,315.40530636634094 M602.3649024329236,315.40530636634094 L602.3652828083096,314.8792343067033 M602.3652828083096,314.8792343067033 L602.3577079002404,314.37904510553983 M602.3577079002404,314.37904510553983 L602.3426260430161,313.9337956517759 M602.3426260430161,313.9337956517759 L602.3209057026078,313.56946722061974 M602.3209057026078,313.56946722061974 L602.2938362020909,313.3071803111639 M602.2938362020909,313.3071803111639 L602.2629857083093,313.1621428841809 M602.2629857083093,313.1621428841809 L602.2301315580685,313.1428027147164 M602.2301315580685,313.1428027147164 L602.1972067052932,313.25014933484954 M602.1972067052932,313.25014933484954 L602.1660975613942,313.4779458198017 M602.1660975613942,313.4779458198017 L602.1386434970432,313.81287471017174 M602.1386434970432,313.81287471017174 L602.1164108954531,314.2354783769726 M604.3433393414103,362.9710433726234 L604.5727312946768,357.5930820853305 M604.5727312946768,357.5930820853305 L604.248470160964,354.41657231620803 M604.248470160964,354.41657231620803 L604.0198017768518,359.78959308685285 M604.0198017768518,359.78959308685285 L604.3433393414103,362.9710433726234 M588.2905981484714,314.23548228794226 L602.1164108954531,314.2354783769726 M596.8912406467365,274.00825433974785 L597.1075450465689,268.64855230694326 M597.1075450465689,268.64855230694326 L600.1569641248145,268.64855230694326 M596.8912406467365,274.00825433974785 L599.9373260059828,274.00825433974774 M597.1075450465689,268.64855230694326 L597.4142548288258,271.62861163496234 M597.4142548288258,271.62861163496234 L600.4684009686995,271.62861163496234 M597.197279667733,276.9933499835469 L596.8912406467365,274.00825433974785 M597.197279667733,276.9933499835469 L600.2480817507244,276.9933499835469 M597.4142548288258,271.62861163496234 L597.197279667733,276.9933499835469 M602.2970898086289,326.73662252897384 L602.5253954675587,321.2894461938124 M602.5253954675587,321.2894461938124 L605.6583151483647,321.2894461938124 M602.2970898086289,326.73662252897384 L605.4264908052799,326.73662252897384 M602.5253954675587,321.2894461938124 L602.849145921441,324.4350762141302 M602.849145921441,324.4350762141302 L605.987055297192,324.4350762141302 M602.6201128637199,329.88737974301705 L602.2970898086289,326.73662252897384 M602.6201128637199,329.88737974301705 L605.7544923445266,329.88737974301705 M602.849145921441,324.4350762141302 L602.6201128637199,329.88737974301705 M596.0945260894588,304.2590719242922 L595.8804312866102,309.5525930503444 M595.8804312866102,309.5525930503444 L598.910937885687,309.5525930503444 M596.0945260894588,304.2590719242922 L599.1283323528627,304.2590719242922 M595.8804312866102,309.5525930503444 L595.5784474694381,306.5373210923008 M595.5784474694381,306.5373210923008 L598.6042998442382,306.5373210923008 M595.5784474694381,306.5373210923008 L595.791884810679,301.2486605166864 M595.791884810679,301.2486605166864 L598.8210267168998,301.24866051668636 M595.791884810679,301.2486605166864 L596.0945260894588,304.2590719242922 M601.4562888597637,357.5930820853305 L601.2303786712703,362.9710433726234 M601.2303786712703,362.9710433726234 L604.3433393414103,362.9710433726234 M601.4562888597637,357.5930820853305 L604.5727312946768,357.5930820853305 M601.2303786712703,362.9710433726234 L600.9117518356146,359.78959308685285 M600.9117518356146,359.78959308685285 L604.0198017768518,359.78959308685285 M601.136949437456,354.41657231620803 L601.4562888597637,357.5930820853305 M601.136949437456,354.41657231620803 L604.248470160964,354.41657231620803 M600.9117518356146,359.78959308685285 L601.136949437456,354.41657231620803" stroke="black"  stroke-width="4"  fill="red"/>
<path d="M229.5187895617931,77.29270045137059 L235.53759639977082,15.907121911565639 M229.5187895617931,77.29270045137059 L217.10525521187915,77.29270382963858 M223.56427147409272,15.907130532154724 L217.10525521187915,77.29270382963858 M235.53759639977082,15.907121911565639 L223.56427147409272,15.907130532154724 M231.28644102490114,130.34367051745284 L219.00218669004795,130.34367396299143 M231.28644102490114,130.34367051745284 L229.5187895617931,77.29270045137059 M219.00218669004795,130.34367396299143 L217.10525521187915,77.29270382963858 M237.1827130818811,67.71261234076411 L225.3297062553297,67.71262113950968 M235.53759639977082,15.907121911565639 L237.1827130818811,67.71261234076411 M223.56427147409272,15.907130532154724 L225.3297062553297,67.71262113950968 M231.28644102490114,130.34367051745284 L237.1827130818811,67.71261234076411 M233.35886572286273,73.2290092902245 L233.3475904791041,72.78632943703286 M233.3475904791041,72.78632943703286 L233.34164856685658,72.32069022513258 M233.34164856685658,72.32069022513258 L233.34138246667942,71.85916384617087 M233.34138246667942,71.85916384617087 L233.34680601308975,71.42866247010886 M233.34680601308975,71.42866247010886 L233.3576010162574,71.05418625210496 M233.3576010162574,71.05418625210496 L233.3731537707043,70.75759079786457 M233.3731537707043,70.75759079786457 L233.39253315353332,70.55604097715025 M233.39253315353332,70.55604097715025 L233.41463288289142,70.46124190388048 M233.41463288289142,70.46124190388048 L233.43815669933286,70.47871336737597 M233.43815669933286,70.47871336737597 L233.46173740940554,70.60733021696262 M233.46173740940554,70.60733021696262 L233.48401050703936,70.83963085555001 M233.48401050703936,70.83963085555001 L233.50366538030536,71.16203303769191 M233.50366538030536,71.16203303769191 L233.5195986872335,71.55583601159617 M233.5195986872335,71.55583601159617 L233.53083741250236,71.99813448817952 M233.53083741250236,71.99813448817952 L233.53677892867478,72.46326028985328 M233.53677892867478,72.46326028985328 L233.53704439839214,72.92424214171245 M233.53704439839214,72.92424214171245 L233.5316344380389,73.35433421195518 M233.5316344380389,73.35433421195518 L233.5208573448607,73.72853310591819 M233.5208573448607,73.72853310591819 L233.50533700365577,74.02517663531273 M233.50533700365577,74.02517663531273 L233.48598397894827,74.22699457571531 M233.48598397894827,74.22699457571531 L233.46389852791998,74.32222037497172 M233.46389852791998,74.32222037497172 L233.44038675069103,74.3053308525511 M233.44038675069103,74.3053308525511 L233.41679880982687,74.17718794406665 M233.41679880982687,74.17718794406665 L233.39450764736975,73.94524167208976 M233.39450764736975,73.94524167208976 L233.37481370435734,73.62295154008848 M233.37481370435734,73.62295154008848 L233.35886572286273,73.2290092902245 M225.3297062553297,67.71262113950968 L219.00218669004795,130.34367396299143 M218.4307408320113,76.42695283615438 L218.60867157945805,81.44042330676643 M218.60867157945805,81.44042330676643 L218.85970642557643,79.02900199510799 M218.85970642557643,79.02900199510799 L218.6822701144337,74.02013360756587 M218.6822701144337,74.02013360756587 L218.4307408320113,76.42695283615438 M222.6665475180526,35.89549844294936 L222.83624350744296,40.8305881178992 M222.83624350744296,40.8305881178992 L223.07567359336198,38.53064137923303 M223.07567359336198,38.53064137923303 L222.90643813871674,33.60004672935327 M222.90643813871674,33.60004672935327 L222.6665475180526,35.89549844294936 M219.93744490490238,109.45259547700095 L219.762124737418,104.50346393252983 M219.762124737418,104.50346393252983 L219.51359699234402,106.93807843783657 M219.51359699234402,106.93807843783657 L219.68940277310875,111.89167472782435 M219.68940277310875,111.89167472782435 L219.93744490490238,109.45259547700095 M221.22618240525375,73.22901230195976 L221.2432931770309,73.62295605828763 M221.2432931770309,73.62295605828763 L221.26442721713897,73.94524619059536 M221.26442721713897,73.94524619059536 L221.2883353103773,74.17718643789846 M221.2883353103773,74.17718643789846 L221.31365198450337,74.30532784041958 M221.31365198450337,74.30532784041958 L221.3388835859754,74.32221736323811 M221.3388835859754,74.32221736323811 L221.36258379114216,74.22699156454871 M221.36258379114216,74.22699156454871 L221.38336225756507,74.02518115100781 M221.38336225756507,74.02518115100781 L221.40000793003676,73.72853009625351 M221.40000793003676,73.72853009625351 L221.4115732239322,73.3543312031378 M221.4115732239322,73.3543312031378 L221.41737885077538,72.92423913374279 M221.41737885077538,72.92423913374279 L221.4170937144678,72.4632572826817 M221.4170937144678,72.4632572826817 L221.41073151828263,71.99813749464835 M221.41073151828263,71.99813749464835 L221.39865312881884,71.55583450864515 M221.39865312881884,71.55583450864515 L221.3815722162391,71.16203604319685 M221.3815722162391,71.16203604319685 L221.36046598606475,70.83962785025034 M221.36046598606475,70.83962785025034 L221.336564159318,70.60732721166426 M221.336564159318,70.60732721166426 L221.31125883461297,70.47871036187439 M221.31125883461297,70.47871036187439 L221.28601456454987,70.46123889798275 M221.28601456454987,70.46123889798275 L221.26230831550384,70.55604548684596 M221.26230831550384,70.55604548684596 L221.24150155691837,70.75758779069815 M221.24150155691837,70.75758779069815 L221.224811828345,71.0541832441395 M221.224811828345,71.0541832441395 L221.21322706329275,71.42865946129439 M221.21322706329275,71.42865946129439 L221.2074032652569,71.8591623413389 M221.2074032652569,71.8591623413389 L221.20770220231978,72.32069474082812 M221.20770220231978,72.32069474082812 L221.21407893723054,72.7863339537846 M221.21407893723054,72.7863339537846 L221.22618240525375,73.22901230195976 M224.10376770389138,68.4836753435045 L223.9365038346412,63.6105218983721 M223.9365038346412,63.6105218983721 L223.69940943816462,65.93313348610263 M223.69940943816462,65.93313348610263 L223.86712581406852,70.81065214766386 M223.86712581406852,70.81065214766386 L224.10376770389138,68.4836753435045 M233.35886572286273,73.2290092902245 L221.22618240525375,73.22901230195976 M221.35048217851167,81.44042330676643 L221.17525210577705,76.42695283615438 M221.17525210577705,76.42695283615438 L218.4307408320113,76.42695283615438 M221.35048217851167,81.44042330676643 L218.60867157945805,81.44042330676643 M221.17525210577705,76.42695283615438 L221.4229636176223,74.02013360756587 M221.4229636176223,74.02013360756587 L218.6822701144337,74.02013360756587 M221.59770675872335,79.02900199510799 L221.35048217851167,81.44042330676643 M221.59770675872335,79.02900199510799 L218.85970642557643,79.02900199510799 M221.4229636176223,74.02013360756587 L221.59770675872335,79.02900199510799 M225.51388685801453,40.8305881178992 L225.34676655408114,35.89549844294936 M225.34676655408114,35.89549844294936 L222.6665475180526,35.89549844294936 M225.51388685801453,40.8305881178992 L222.83624350744296,40.8305881178992 M225.34676655408114,35.89549844294936 L225.5830160587404,33.60004672935327 M225.5830160587404,33.60004672935327 L222.90643813871674,33.60004672935327 M225.74968281803294,38.53064137923303 L225.51388685801453,40.8305881178992 M225.74968281803294,38.53064137923303 L223.07567359336198,38.53064137923303 M225.5830160587404,33.60004672935327 L225.74968281803294,38.53064137923303 M222.48642795329042,104.50346393252983 L222.65908707005906,109.45259547700095 M222.65908707005906,109.45259547700095 L219.93744490490238,109.45259547700095 M222.48642795329042,104.50346393252983 L219.762124737418,104.50346393252983 M222.65908707005906,109.45259547700095 L222.41480978005063,111.89167472782435 M222.41480978005063,111.89167472782435 L219.68940277310875,111.89167472782435 M222.41480978005063,111.89167472782435 L222.24167242075413,106.93807843783657 M222.24167242075413,106.93807843783657 L219.51359699234402,106.93807843783657 M222.24167242075413,106.93807843783657 L222.48642795329042,104.50346393252983 M226.59744717636852,63.6105218983721 L226.76217227545075,68.4836753435045 M226.76217227545075,68.4836753435045 L224.10376770389138,68.4836753435045 M226.59744717636852,63.6105218983721 L223.9365038346412,63.6105218983721 M226.76217227545075,68.4836753435045 L226.52912219163537,70.81065214766386 M226.52912219163537,70.81065214766386 L223.86712581406852,70.81065214766386 M226.36395145415142,65.9331334861028 L226.59744717636852,63.6105218983721 M226.36395145415142,65.9331334861028 L223.69940943816462,65.93313348610263 M226.52912219163537,70.81065214766386 L226.36395145415142,65.9331334861028" stroke="black"  stroke-width="4"  fill="red"/>
<path d="M215.31475195800832,151.41855771420174 L64.2420931984953,151.41855771420174 M215.31475195800832,151.41855771420174 L214.70850754731913,157.3685245459199 M63.137889826213836,157.36852116485488 L214.70850754731913,157.3685245459199 M64.2420931984953,151.41855771420174 L63.137889826213836,157.36852116485488 M217.3114665033536,205.91187020139208 L216.71833418871563,211.97469084549533 M217.3114665033536,205.91187020139208 L215.31475195800832,151.41855771420174 M216.71833418871563,211.97469084549533 L214.70850754731913,157.3685245459199 M67.87878496982796,205.91187020139208 L66.79846344689065,211.97468740042444 M64.2420931984953,151.41855771420174 L67.87878496982796,205.91187020139208 M63.137889826213836,157.36852116485488 L66.79846344689065,211.97468740042444 M217.3114665033536,205.91187020139208 L67.87878496982796,205.91187020139208 M143.2219281845122,178.81390641228398 L143.1407239815303,178.3791790637878 M143.1407239815303,178.3791790637878 L142.94636149252358,177.96964801853596 M142.94636149252358,177.96964801853596 L142.65013582173526,177.60912278986203 M142.65013582173526,177.60912278986203 L142.26925081499138,177.31861390052245 M142.26925081499138,177.31861390052245 L141.82583764363977,177.1149750097383 M141.82583764363977,177.1149750097383 L141.34569964810476,177.01013875543785 M141.34569964810476,177.01013875543785 L140.85675005450344,177.01013197716247 M140.85675005450344,177.01013197716247 L140.3874501642938,177.1149750097383 M140.3874501642938,177.1149750097383 L139.96508876170623,177.31861390052245 M139.96508876170623,177.31861390052245 L139.61423596510986,177.60912278986203 M139.61423596510986,177.60912278986203 L139.35528876725732,177.96965140879843 M139.35528876725732,177.96965140879843 L139.20326014105558,178.37918245452988 M139.20326014105558,178.37918245452988 L139.1669997660053,178.81390980353535 M139.1669997660053,178.81390980353535 L139.248540953497,179.24857501906132 M139.248540953497,179.24857501906132 L139.4431587732791,179.65788275536437 M139.4431587732791,179.65788275536437 L139.73948659526752,180.01811561622907 M139.73948659526752,180.01811561622907 L140.12031472482028,180.308347460654 M140.12031472482028,180.308347460654 L140.56351196462674,180.51168908846694 M140.56351196462674,180.51168908846694 L141.04333165458297,180.61641531018984 M141.04333165458297,180.61641531018984 L141.53192818571893,180.6164220969125 M141.53192818571893,180.6164220969125 L142.00092114304528,180.51168908846694 M142.00092114304528,180.51168908846694 L142.423097344521,180.308347460654 M142.423097344521,180.308347460654 L142.77392190425826,180.01811561622907 M142.77392190425826,180.01811561622907 L143.0330173603354,179.65787936312466 M143.0330173603354,179.65787936312466 L143.18531917933228,179.24857162730083 M143.18531917933228,179.24857162730083 L143.2219281845122,178.81390641228398 M66.79846344689065,211.97468740042444 L216.71833418871563,211.97469084549533 M192.00093489972625,166.43517366174035 L192.2154715195441,171.61600941137894 M192.2154715195441,171.61600941137894 L186.44687899792936,171.61600941137894 M186.44687899792936,171.61600941137894 L186.22636474388608,166.43517366174035 M186.22636474388608,166.43517366174035 L192.00093489972625,166.43517366174035 M92.5615227583948,166.43517366174035 L92.87899559984129,171.61600941137894 M92.87899559984129,171.61600941137894 L87.11040307822657,171.61600941137894 M87.11040307822657,171.61600941137894 L86.7869526025546,166.43517366174035 M86.7869526025546,166.43517366174035 L92.5615227583948,166.43517366174035 M187.78577274817428,203.07242766575604 L187.5680275773603,197.95664968505966 M187.5680275773603,197.95664968505966 L193.30622833972453,197.95664968505966 M193.30622833972453,197.95664968505966 L193.5180709397903,203.07242766575604 M193.5180709397903,203.07242766575604 L187.78577274817428,203.07242766575604 M142.38268524986916,184.8210965014934 L142.34601587899613,185.25665488645038 M142.34601587899613,185.25665488645038 L142.19329762586767,185.66681665779737 M142.19329762586767,185.66681665779737 L141.93340607495838,186.02780182216938 M141.93340607495838,186.02780182216938 L141.581480903169,186.31863415509343 M141.581480903169,186.31863415509343 L141.15795569490592,186.52239642986876 M141.15795569490592,186.52239642986876 L140.6874378224515,186.6273358435871 M140.6874378224515,186.6273358435871 L140.19725393786558,186.6273358435871 M140.19725393786558,186.6273358435871 L139.71583634172794,186.52239642986876 M139.71583634172794,186.52239642986876 L139.27115210099714,186.31863415509343 M139.27115210099714,186.31863415509343 L138.8890263889861,186.02780182216938 M138.8890263889861,186.02780182216938 L138.59165213580394,185.66681665779737 M138.59165213580394,185.66681665779737 L138.39634196421355,185.25665488645038 M138.39634196421355,185.25665488645038 L138.31444344593228,184.8210965014934 M138.31444344593228,184.8210965014934 L138.35076380772523,184.38546201264663 M138.35076380772523,184.38546201264663 L138.5032051110241,183.97508937358558 M138.5032051110241,183.97508937358558 L138.76295327765422,183.6138205212823 M138.76295327765422,183.6138205212823 L139.11490681817327,183.32270953833483 M139.11490681817327,183.32270953833483 L139.53861839931017,183.11864852997425 M139.53861839931017,183.11864852997425 L140.00944712149584,183.01358472317997 M140.00944712149584,183.01358472317997 L140.49998637777907,183.01358472317997 M140.49998637777907,183.01358472317997 L140.98172247760795,183.11864852997425 M140.98172247760795,183.11864852997425 L141.42662411223262,183.32270953833483 M141.42662411223262,183.32270953833483 L141.80880712848108,183.6138205212823 M141.80880712848108,183.6138205212823 L142.10607271927228,183.97508937358558 M142.10607271927228,183.97508937358558 L142.3011278379065,184.38546201264663 M142.3011278379065,184.38546201264663 L142.38268524986916,184.8210965014934 M89.07429345016556,203.07242766575604 L88.75490466788199,197.95664968505966 M88.75490466788199,197.95664968505966 L94.49310543024626,197.95664968505966 M94.49310543024626,197.95664968505966 L94.80659164178155,203.07242766575604 M94.80659164178155,203.07242766575604 L89.07429345016556,203.07242766575604 M143.2219281845122,178.81390641228398 L142.38268524986916,184.8210965014934 M192.36690377578068,170.28084695914868 L192.15268104324207,165.10242205115537 M192.15268104324207,165.10242205115537 L192.00093489972625,166.43517366174035 M192.36690377578068,170.28084695914868 L192.2154715195441,171.61600941137894 M192.15268104324207,165.10242205115537 L186.3823389904728,165.10242205115537 M186.3823389904728,165.10242205115537 L186.22636474388608,166.43517366174035 M186.60253061139497,170.28084695914868 L192.36690377578068,170.28084695914868 M186.60253061139497,170.28084695914868 L186.44687899792936,171.61600941137894 M186.3823389904728,165.10242205115537 L186.60253061139497,170.28084695914868 M93.10308614771566,170.28084695914868 L92.78607779893491,165.10242205115537 M92.78607779893491,165.10242205115537 L92.5615227583948,166.43517366174035 M93.10308614771566,170.28084695914868 L92.87899559984129,171.61600941137894 M92.78607779893491,165.10242205115537 L87.0157357461656,165.10242205115537 M87.0157357461656,165.10242205115537 L86.7869526025546,166.43517366174035 M87.33871298332997,170.28084695914868 L93.10308614771566,170.28084695914868 M87.33871298332997,170.28084695914868 L87.11040307822657,171.61600941137894 M87.0157357461656,165.10242205115537 L87.33871298332997,170.28084695914868 M187.72204400750482,196.60935133623244 L187.93947259989835,201.72279586170882 M187.93947259989835,201.72279586170882 L187.78577274817428,203.07242766575604 M187.72204400750482,196.60935133623244 L187.5680275773603,197.95664968505966 M187.93947259989835,201.72279586170882 L193.6676043420569,201.72279586170882 M193.6676043420569,201.72279586170882 L193.5180709397903,203.07242766575604 M193.6676043420569,201.72279586170882 L193.4560697386988,196.60935133623244 M193.4560697386988,196.60935133623244 L193.30622833972453,197.95664968505966 M193.4560697386988,196.60935133623244 L187.72204400750482,196.60935133623244 M88.98081608484534,196.60935133623244 L89.29974050966081,201.72279586170882 M89.29974050966081,201.72279586170882 L89.07429345016556,203.07242766575604 M88.98081608484534,196.60935133623244 L88.75490466788199,197.95664968505966 M89.29974050966081,201.72279586170882 L95.02787225181942,201.72279586170882 M95.02787225181942,201.72279586170882 L94.80659164178155,203.07242766575604 M94.71484181603938,196.60935133623244 L88.98081608484534,196.60935133623244 M94.71484181603938,196.60935133623244 L94.49310543024626,197.95664968505966 M95.02787225181942,201.72279586170882 L94.71484181603938,196.60935133623244" stroke="black"  stroke-width="4"  fill="red"/>
<path d="M124.9369382469468,99.89221369939992 L125.56003749751955,111.4118222234057 M301.318663862672,37.79104578153982 L125.56003749751955,111.4118222234057 M301.1050270699549,26.59232843631844 L301.318663862672,37.79104578153982 M124.9369382469468,99.89221369939992 L301.1050270699549,26.59232843631844 M316.39708152850585,26.38754956908491 L316.5774093214584,37.58535085236582 M301.1050270699549,26.59232843631844 L302.40788592640996,26.124793155927364 M302.40788592640996,26.124793155927364 L303.855243630401,25.74446383368604 M303.855243630401,25.74446383368604 L305.4144390881799,25.459863507812884 M305.4144390881799,25.459863507812884 L307.05028130325525,25.277338612066046 M307.05028130325525,25.277338612066046 L308.7259446355707,25.200973390763124 M308.7259446355707,25.200973390763124 L310.40370769865905,25.232471370671306 M310.40370769865905,25.232471370671306 L312.04578699482386,25.37111757063201 M312.04578699482386,25.37111757063201 L313.615240675972,25.61383285400558 M313.615240675972,25.61383285400558 L315.0766773222835,25.955191568324494 M315.0766773222835,25.955191568324494 L316.39708152850585,26.38754956908491 M301.318663862672,37.79104578153982 L302.61862818941944,37.32141885948812 M302.61862818941944,37.32141885948812 L304.0627893272089,36.93938761471094 M304.0627893272089,36.93938761471094 L305.61855798680983,36.65351349444086 M305.61855798680983,36.65351349444086 L307.25082001483196,36.47017155548389 M307.25082001483196,36.47017155548389 L308.9228297498828,36.3934644718791 M308.9228297498828,36.3934644718791 L310.59694736698657,36.42510345985545 M310.59694736698657,36.42510345985545 L312.235470771687,36.56437031123778 M312.235470771687,36.56437031123778 L313.80153747876903,36.8081719921243 M313.80153747876903,36.8081719921243 L315.25983192265653,37.15105837410863 M315.25983192265653,37.15105837410863 L316.5774093214584,37.58535085236582 M316.8984079264416,26.59232843631844 L317.07766638469855,37.79104578153982 M316.39708152850585,26.38754956908491 L316.8984079264416,26.59232843631844 M316.5774093214584,37.58535085236582 L317.07766638469855,37.79104578153982 M686.6467030425176,199.8201719333956 L317.07766638469855,37.79104578153982 M687.3338585053683,187.9336145010962 L686.6467030425176,199.8201719333956 M316.8984079264416,26.59232843631844 L687.3338585053683,187.9336145010962 M688.4349765081851,188.47266379782914 L687.7449931844446,200.36140584167035 M687.3338585053683,187.9336145010962 L688.4349765081851,188.47266379782914 M686.6467030425176,199.8201719333956 L687.7449931844446,200.36140584167035 M688.6049519518168,196.05968596100357 L687.9117266339176,207.97909584954334 M688.4349765081851,188.47266379782914 L689.5231867444774,189.1608443199525 M689.5231867444774,189.1608443199525 L690.3992543845119,189.90842879477424 M690.3992543845119,189.90842879477424 L691.0446713569461,190.69994909226654 M691.0446713569461,190.69994909226654 L691.4457594912942,191.5190099494213 M691.4457594912942,191.5190099494213 L691.5938124817006,192.34857300389746 M691.5938124817006,192.34857300389746 L691.485410043988,193.17134440063788 M691.485410043988,193.17134440063788 L691.1224814024775,193.97014274998344 M691.1224814024775,193.97014274998344 L690.5122848409201,194.72822246964637 M690.5122848409201,194.72822246964637 L689.6672950424326,195.4296621508787 M689.6672950424326,195.4296621508787 L688.6049519518168,196.05968596100357 M687.7449931844446,200.36140584167035 L688.8303489019477,201.05237426299942 M688.8303489019477,201.05237426299942 L689.7040442821869,201.80298589357585 M689.7040442821869,201.80298589357585 L690.3476217116303,202.597709669762 M690.3476217116303,202.597709669762 L690.7474424968772,203.42008375368385 M690.7474424968772,203.42008375368385 L690.8948283173135,204.25300073950422 M690.8948283173135,204.25300073950422 L690.7863744075952,205.07909684102742 M690.7863744075952,205.07909684102742 L690.4240126694434,205.88112133905005 M690.4240126694434,205.88112133905005 L689.8149910657614,206.6422612202109 M689.8149910657614,206.6422612202109 L688.9717610074965,207.3465310912763 M688.9717610074965,207.3465310912763 L687.9117266339176,207.97909584954334 M512.2189492805276,297.5511623538262 L687.9117266339176,207.97909584954334 M512.5033317807379,285.28233220287245 L512.2189492805276,297.5511623538262 M688.6049519518168,196.05968596100357 L512.5033317807379,285.28233220287245 M494.882201813583,285.55508642307393 L494.64203265085536,297.82495301987996 M512.5033317807379,285.28233220287245 L511.0669126425807,285.90527342135795 M511.0669126425807,285.90527342135795 L509.44949228336236,286.4125732824133 M509.44949228336236,286.4125732824133 L507.6879067576749,286.7925096501808 M507.6879067576749,286.7925096501808 L505.8224566275919,287.0363232840706 M505.8224566275919,287.0363232840706 L503.8958245940162,287.1383645523909 M503.8958245940162,287.1383645523909 L501.95216050939655,287.09627367730127 M501.95216050939655,287.09627367730127 L500.03603492246805,286.9110406827135 M500.03603492246805,286.9110406827135 L498.1912969679064,286.58692885324933 M498.1912969679064,286.58692885324933 L496.46016838538736,286.13143427013904 M496.46016838538736,286.13143427013904 L494.882201813583,285.55508642307393 M512.2189492805276,297.5511623538262 L510.78604704625667,298.1764704192781 M510.78604704625667,298.1764704192781 L509.1726171530304,298.6856970060238 M509.1726171530304,298.6856970060238 L507.41540435978544,299.0670759345478 M507.41540435978544,299.0670759345478 L505.5546084898411,299.3118150941378 M505.5546084898411,299.3118150941378 L503.63280484205035,299.41424366906574 M503.63280484205035,299.41424366906574 L501.6940315828307,299.3719930376383 M501.6940315828307,299.3719930376383 L499.78274603235985,299.1860569346294 M499.78274603235985,299.1860569346294 L497.9426855576227,298.86071462510773 M497.9426855576227,298.86071462510773 L496.21596398836084,298.4034903099774 M496.21596398836084,298.4034903099774 L494.64203265085536,297.82495301987996 M494.2785946377883,285.28233220287245 L494.0399748387613,297.5511623538262 M494.882201813583,285.55508642307393 L494.2785946377883,285.28233220287245 M494.64203265085536,297.82495301987996 L494.0399748387613,297.5511623538262 M124.41304861697375,118.80946687814657 L494.0399748387613,297.5511623538262 M123.78470981069222,107.25838385573428 L124.41304861697375,118.80946687814657 M494.2785946377883,285.28233220287245 L123.78470981069222,107.25838385573428 M122.89005696344054,106.76580768686875 L123.5202605640788,118.31479041219364 M123.78470981069222,107.25838385573428 L122.89005696344054,106.76580768686875 M124.41304861697375,118.80946687814657 L123.5202605640788,118.31479041219364 M122.89005696344054,106.76580768686875 L122.05261374154912,106.13777601026851 M122.05261374154912,106.13777601026851 L121.43632371473251,105.45657069879314 M121.43632371473251,105.45657069879314 L121.05386594197853,104.73650630353382 M121.05386594197853,104.73650630353382 L120.91290682152521,103.99265745548036 M120.91290682152521,103.99265745548036 L121.01610552739578,103.24058389528409 M121.01610552739578,103.24058389528409 L121.36099295771578,102.49596945590264 M121.36099295771578,102.49596945590264 L121.9400856095292,101.77428800602883 M121.9400856095292,101.77428800602883 L122.74106227408419,101.09051862422245 M122.74106227408419,101.09051862422245 L123.74703833344802,100.45881023476136 M123.74703833344802,100.45881023476136 L124.9369382469468,99.89221369939992 M123.5202605640788,118.31479041219364 L122.68450205071917,117.68407995387236 M122.68450205071917,117.68407995387236 L122.06937232879989,116.99996789581263 M122.06937232879989,116.99996789581263 L121.68752718101621,116.27682962726863 M121.68752718101621,116.27682962726863 L121.54662156838816,115.52980395631835 M121.54662156838816,115.52980395631835 L121.6493148913699,114.77451698374017 M121.6493148913699,114.77451698374017 L121.99315001248897,114.02671955314628 M121.99315001248897,114.02671955314628 L122.57066667877086,113.30195176682184 M122.57066667877086,113.30195176682184 L123.36957764432486,112.61525693288968 M123.36957764432486,112.61525693288968 L124.37304216470619,111.98084474908063 M124.37304216470619,111.98084474908063 L125.56003749751955,111.4118222234057" stroke="black"  stroke-width="4"  fill="red"/>
<path d="M505.9829708709025,275.0529130464334 L504.74588751625896,331.8021262633657 M643.7640005398733,205.73192553304855 L641.0306928577829,261.2393164385767 M505.9829708709025,275.0529130464334 L643.7640005398733,205.73192553304855 M504.74588751625896,331.8021262633657 L641.0306928577829,261.2393164385767 M653.8020760980971,210.19216713185273 L650.9498088436504,265.781229408762 M643.7640005398733,205.73192553304855 L653.8020760980971,210.19216713185273 M641.0306928577829,261.2393164385767 L650.9498088436504,265.781229408762 M516.0533547073748,279.8523297498486 L514.6962220268647,336.6853442952902 M653.8020760980971,210.19216713185273 L516.0533547073748,279.8523297498486 M650.9498088436504,265.781229408762 L514.6962220268647,336.6853442952902 M516.0533547073748,279.8523297498486 L505.9829708709025,275.0529130464334 M514.6962220268647,336.6853442952902 L504.74588751625896,331.8021262633657" stroke="black"  stroke-width="4"  fill="red"/>
<path d="M158.4580728304012,109.42697191124773 L161.01183924438902,163.11148567047752 M296.2506269832541,51.320495185908044 L297.3073749176535,103.8501500923287 M158.4580728304012,109.42697191124773 L296.2506269832541,51.320495185908044 M161.01183924438902,163.11148567047752 L297.3073749176535,103.8501500923287 M304.6891433274525,55.07000089666633 L305.66142531504283,107.67542745651576 M296.2506269832541,51.320495185908044 L304.6891433274525,55.07000089666633 M297.3073749176535,103.8501500923287 L305.66142531504283,107.67542745651576 M166.8714569573109,113.43668365278995 L169.34153844045494,167.19936203999882 M304.6891433274525,55.07000089666633 L166.8714569573109,113.43668365278995 M305.66142531504283,107.67542745651576 L169.34153844045494,167.19936203999882 M166.8714569573109,113.43668365278995 L158.4580728304012,109.42697191124773 M169.34153844045494,167.19936203999882 L161.01183924438902,163.11148567047752" stroke="black"  stroke-width="4"  fill="red"/>
<path d="M311.86747867643265,55.070003906575096 L312.7659521645736,107.67543052718088 M320.70521433125464,51.320495185908044 L321.5110633306867,103.8501500923287 M311.86747867643265,55.070003906575096 L320.70521433125464,51.320495185908044 M312.7659521645736,107.67543052718088 L321.5110633306867,103.8501500923287 M652.0867568765103,197.63164672184655 L649.2725880153411,252.99009076171973 M320.70521433125464,51.320495185908044 L652.0867568765103,197.63164672184655 M321.5110633306867,103.8501500923287 L649.2725880153411,252.99009076171973 M643.2802469441258,202.05307156110896 L640.5576835615899,257.492915764031 M652.0867568765103,197.63164672184655 L643.2802469441258,202.05307156110896 M649.2725880153411,252.99009076171973 L640.5576835615899,257.492915764031 M643.2802469441258,202.05307156110896 L311.86747867643265,55.070003906575096 M640.5576835615899,257.492915764031 L312.7659521645736,107.67543052718088" stroke="black"  stroke-width="4"  fill="red"/>
<path d="M156.90280471184263,120.81550921692445 L159.48948993261317,174.7215138715843 M166.43285450484723,116.77227843894065 L168.91221943753382,170.59983009496753 M156.90280471184263,120.81550921692445 L166.43285450484723,116.77227843894065 M159.48948993261317,174.7215138715843 L168.91221943753382,170.59983009496753 M497.88055822303465,275.0529092117056 L496.7373851491067,331.80212236156825 M166.43285450484723,116.77227843894065 L497.88055822303465,275.0529092117056 M168.91221943753382,170.59983009496753 L496.7373851491067,331.80212236156825 M488.3211636442728,279.8523297498486 L487.2862489053032,336.6853442952902 M497.88055822303465,275.0529092117056 L488.3211636442728,279.8523297498486 M496.7373851491067,331.80212236156825 L487.2862489053032,336.6853442952902 M488.3211636442728,279.8523297498486 L156.90280471184263,120.81550921692445 M487.2862489053032,336.6853442952902 L159.48948993261317,174.7215138715843" stroke="black"  stroke-width="4"  fill="red"/>
<path d="M660.7384173490093,165.45563212340738 L662.8918936298394,180.43791606329535 M662.8918936298394,180.43791606329535 L667.0346370579321,180.43791606329535 M667.0346370579321,180.43791606329535 L667.3164659428705,182.36833121491202 M667.3164659428705,182.36833121491202 L663.1693694652774,182.3683277398633 M663.1693694652774,182.3683277398633 L665.3632398367985,197.631643188784 M665.3632398367985,197.631643188784 L678.6397388518939,197.63164672184655 M673.7841730963119,165.45562530075435 L678.6397388518939,197.63164672184655 M660.7384173490093,165.45563212340738 L673.7841730963119,165.45562530075435 M661.5270406384334,206.2750399398029 L659.3957132718311,191.1597284842195 M662.8918936298394,180.43791606329535 L661.5270406384334,206.2750399398029 M659.3957132718311,191.1597284842195 L660.7384173490093,165.45563212340738 M667.0346370579321,180.43791606329535 L665.3227302231086,212.34353632820114 M661.2064706907631,212.34353632820114 L665.3227302231086,212.34353632820114 M661.3332143747771,209.94423597493912 L661.2064706907631,212.34353632820114 M661.3332143747771,209.94423597493912 L663.3923478366114,209.9442394776377 M663.3923478366114,209.9442394776377 L663.587696951114,206.27504343819078 M663.587696951114,206.27504343819078 L661.5270406384334,206.2750399398029 M667.3164659428705,182.36833121491202 L665.6009653800296,214.29496174583173 M665.3227302231086,212.34353632820114 L665.6009653800296,214.29496174583173 M661.801649516436,208.22249875316479 L663.1693694652774,182.3683277398633 M661.801649516436,208.22249875316479 L663.8644633131262,208.22250225888175 M663.8644633131262,208.22250225888175 L663.6687050739033,211.89409636063294 M663.6687050739033,211.89409636063294 L661.6074173173632,211.89409285060157 M661.480408353267,214.29495823298484 L661.6074173173632,211.89409285060157 M665.6009653800296,214.29496174583173 L661.480408353267,214.29495823298484 M659.2050232234702,194.81020922783864 L661.3332143747771,209.94423597493912 M657.8779804924438,220.2144921320118 L659.2050232234702,194.81020922783864 M637.885192867532,657.0708077017861 L657.8779804924438,220.2144921320118 M639.7927191744234,675.5426746567157 L637.885192867532,657.0708077017861 M665.3632398367985,197.631643188784 L639.7927191744234,675.5426746567157 M663.0884513627116,217.34842814297758 L661.801649516436,208.22249875316479 M663.0884513627116,217.34842814297758 L662.8923112943816,221.0312195305113 M661.6074173173632,211.89409285060157 L662.8923112943816,221.0312195305113 M661.480408353267,214.29495823298484 L661.2064706907631,212.34353632820114 M639.7927191744234,675.5426746567157 L651.7934962262898,675.5426786746581 M678.6397388518939,197.63164672184655 L651.7934962262898,675.5426786746581 M659.2050232234702,194.81020922783864 L661.2474133669914,194.81020922783864 M661.2474133669914,194.81020922783864 L661.4396016087062,191.1597284842195 M661.4396016087062,191.1597284842195 L659.3957132718311,191.1597284842195 M670.7810281913347,220.21448518087738 L673.7841730963119,165.45562530075435 M657.8779804924438,220.2144921320118 L670.7810281913347,220.21448518087738 M661.4396016087062,191.1597284842195 L663.587696951114,206.27504343819078 M661.2474133669914,194.81020922783864 L663.3923478366114,209.9442394776377 M665.1613593648891,217.34842460281226 L663.0884513627116,217.34842814297758 M663.8644633131262,208.22250225888175 L665.1613593648891,217.34842460281226 M664.9636782792717,221.031215986015 L665.1613593648891,217.34842460281226 M663.6687050739033,211.89409636063294 L664.9636782792717,221.031215986015 M662.8923112943816,221.0312195305113 L664.9636782792717,221.031215986015 M637.885192867532,657.0708077017861 L649.7907877677002,657.0708037473167 M649.7907877677002,657.0708037473167 L670.7810281913347,220.21448518087738 M651.7934962262898,675.5426786746581 L649.7907877677002,657.0708037473167" stroke="black"  stroke-width="4"  fill="red"/>
<path d="M660.7384173490093,165.45563212340738 L662.8918936298394,180.43791606329535 M658.7491571608859,180.43791259554942 L662.8918936298394,180.43791606329535 M659.0222660374353,182.3683277398633 L658.7491571608859,180.43791259554942 M663.1693694652774,182.3683277398633 L659.0222660374353,182.3683277398633 M663.1693694652774,182.3683277398633 L665.3632398367985,197.631643188784 M665.3632398367985,197.631643188784 L652.0867568765103,197.63164672184655 M647.6926527173658,165.45562871208068 L652.0867568765103,197.63164672184655 M660.7384173490093,165.45563212340738 L647.6926527173658,165.45562871208068 M660.7384173490093,165.45563212340738 L659.3957132718311,191.1597284842195 M661.5270406384334,206.2750399398029 L659.3957132718311,191.1597284842195 M662.8918936298394,180.43791606329535 L661.5270406384334,206.2750399398029 M661.5270406384334,206.2750399398029 L659.4664070564528,206.2750399398029 M659.4664070564528,206.2750399398029 L659.2741036264771,209.94423597493912 M659.2741036264771,209.94423597493912 L661.3332143747771,209.94423597493912 M661.3332143747771,209.94423597493912 L661.2064706907631,212.34353632820114 M657.0902180761849,212.34353282268955 L661.2064706907631,212.34353632820114 M658.7491571608859,180.43791259554942 L657.0902180761849,212.34353282268955 M659.0222660374353,182.3683277398633 L657.3598444175077,214.29495823298484 M657.3598444175077,214.29495823298484 L657.0902180761849,212.34353282268955 M661.480408353267,214.29495823298484 L657.3598444175077,214.29495823298484 M661.480408353267,214.29495823298484 L661.6074173173632,211.89409285060157 M661.6074173173632,211.89409285060157 L659.5461453749067,211.89409636063294 M659.5461453749067,211.89409636063294 L659.7388515462682,208.22250225888175 M659.7388515462682,208.22250225888175 L661.801649516436,208.22249875316479 M661.801649516436,208.22249875316479 L663.1693694652774,182.3683277398633 M663.0884513627116,217.34842814297758 L661.801649516436,208.22249875316479 M663.0884513627116,217.34842814297758 L662.8923112943816,221.0312195305113 M661.6074173173632,211.89409285060157 L662.8923112943816,221.0312195305113 M661.480408353267,214.29495823298484 L661.2064706907631,212.34353632820114 M659.2050232234702,194.81020922783864 L661.3332143747771,209.94423597493912 M659.2050232234702,194.81020922783864 L657.8779804924438,220.2144921320118 M637.885192867532,657.0708077017861 L657.8779804924438,220.2144921320118 M639.7927191744234,675.5426746567157 L637.885192867532,657.0708077017861 M665.3632398367985,197.631643188784 L639.7927191744234,675.5426746567157 M639.7927191744234,675.5426746567157 L627.791956546463,675.5426786746581 M652.0867568765103,197.63164672184655 L627.791956546463,675.5426786746581 M657.1626262151718,194.81021267388192 L659.2050232234702,194.81020922783864 M657.3518180654961,191.15973192598068 L657.1626262151718,194.81021267388192 M659.3957132718311,191.1597284842195 L657.3518180654961,191.15973192598068 M644.9749240225782,220.2144886564446 L647.6926527173658,165.45562871208068 M657.8779804924438,220.2144921320118 L644.9749240225782,220.2144886564446 M657.3518180654961,191.15973192598068 L659.4664070564528,206.2750399398029 M657.1626262151718,194.81021267388192 L659.2741036264771,209.94423597493912 M660.8209284131004,221.031215986015 L662.8923112943816,221.0312195305113 M659.5461453749067,211.89409636063294 L660.8209284131004,221.031215986015 M661.0155274515745,217.34842460281226 L660.8209284131004,221.031215986015 M659.7388515462682,208.22250225888175 L661.0155274515745,217.34842460281226 M663.0884513627116,217.34842814297758 L661.0155274515745,217.34842460281226 M637.885192867532,657.0708077017861 L625.9795836643701,657.0708037473167 M625.9795836643701,657.0708037473167 L644.9749240225782,220.2144886564446 M627.791956546463,675.5426786746581 L625.9795836643701,657.0708037473167" stroke="black"  stroke-width="4"  fill="red"/>
<path d="M589.5107783041666,286.68065053783243 L555.1796583047933,286.68065247838314 M555.1796583047933,286.68065247838314 L555.3532821544371,288.8413051012913 M555.3532821544371,288.8413051012913 L550.9657042008874,288.84130315641664 M550.9657042008874,288.84130315641664 L550.7969565767252,286.68065247838314 M550.7969565767252,286.68065247838314 L516.4658365043036,286.68065441893395 M516.4658365043036,286.68065441893395 L516.8812255628728,293.5573684700593 M590.18504441076,293.55737237871756 L516.8812255628728,293.5573684700593 M589.5107783041666,286.68065053783243 L590.18504441076,293.55737237871756 M554.3259209252618,313.4244420130312 L588.4690735621809,313.4244400565067 M555.1796583047933,286.68065247838314 L554.3259209252618,313.4244420130312 M588.4690735621809,313.4244400565067 L589.5107783041666,286.68065053783243 M555.3532821544371,288.8413051012913 L554.2967564024976,321.8861168220761 M554.1254735184708,319.70356647039614 L554.2967564024976,321.8861168220761 M554.2047210009008,317.22109581598926 L554.1254735184708,319.70356647039614 M554.2047210009008,317.22109581598926 L554.2903946083437,318.31094967949434 M554.2903946083437,318.31094967949434 L554.4117286495584,314.5130478115042 M554.4117286495584,314.5130478115042 L554.3259209252618,313.4244420130312 M550.9657042008874,288.84130315641664 L549.9388740296845,321.88611485750533 M554.2967564024976,321.8861168220761 L549.9388740296845,321.88611485750533 M549.9672150612611,313.4244420130312 L550.7969565767252,286.68065247838314 M549.9672150612611,313.4244420130312 L550.0506145518926,314.51304585281366 M550.0506145518926,314.51304585281366 L549.9326908250896,318.3109477185591 M549.9326908250896,318.3109477185591 L549.8494216843698,317.22109581598926 M549.772401598633,319.70356647039614 L549.8494216843698,317.22109581598926 M549.9388740296845,321.88611485750533 L549.772401598633,319.70356647039614 M588.3211890499609,317.2210938572207 L554.2047210009008,317.22109581598926 M587.292434680942,343.6324071618053 L588.3211890499609,317.2210938572207 M537.5764442532713,776.3469342057062 L587.292434680942,343.6324071618053 M504.71525174921123,776.3469407655505 L537.5764442532713,776.3469342057062 M516.4658365043036,286.68065441893395 L504.71525174921123,776.3469407655505 M529.6629289265309,313.4244400565067 L549.9672150612611,313.4244420130312 M529.6629289265309,313.4244400565067 L529.5610043687693,317.2210938572207 M549.8494216843698,317.22109581598926 L529.5610043687693,317.2210938572207 M549.772401598633,319.70356647039614 L554.1254735184708,319.70356647039614 M504.71525174921123,776.3469407655505 L505.0514120314261,784.0928780884344 M516.8812255628728,293.5573684700593 L505.0514120314261,784.0928780884344 M588.3211890499609,317.2210938572207 L588.4257271412364,318.3109477185591 M588.4257271412364,318.3109477185591 L588.5737753001684,314.51304585281366 M588.5737753001684,314.51304585281366 L588.4690735621809,313.4244400565067 M587.951042161886,350.6281366496071 L590.18504441076,293.55737237871756 M587.292434680942,343.6324071618053 L587.951042161886,350.6281366496071 M588.5737753001684,314.51304585281366 L554.4117286495584,314.5130478115042 M588.4257271412364,318.3109477185591 L554.2903946083437,318.31094967949434 M529.7351049380957,314.51305368757585 L529.6629289265309,313.4244400565067 M550.0506145518926,314.51304585281366 L529.7351049380957,314.51305368757585 M529.6330675810248,318.3109555623002 L529.7351049380957,314.51305368757585 M549.9326908250896,318.3109477185591 L529.6330675810248,318.3109555623002 M529.5610043687693,317.2210938572207 L529.6330675810248,318.3109555623002 M537.5764442532713,776.3469342057062 L538.0173663924023,784.0928780884344 M538.0173663924023,784.0928780884344 L587.951042161886,350.6281366496071 M505.0514120314261,784.0928780884344 L538.0173663924023,784.0928780884344" stroke="black"  stroke-width="4"  fill="red"/>
<path d="M589.5107783041666,286.68065053783243 L555.1796583047933,286.68065247838314 M555.0064164661785,284.5248027555309 L555.1796583047933,286.68065247838314 M550.6285876939846,284.5248008192897 L555.0064164661785,284.5248027555309 M550.7969565767252,286.68065247838314 L550.6285876939846,284.5248008192897 M550.7969565767252,286.68065247838314 L516.4658365043036,286.68065441893395 M516.4658365043036,286.68065441893395 L516.0533547073748,279.8523297498486 M588.841274030557,279.85233360368375 L516.0533547073748,279.8523297498486 M589.5107783041666,286.68065053783243 L588.841274030557,279.85233360368375 M589.5107783041666,286.68065053783243 L588.4690735621809,313.4244400565067 M554.3259209252618,313.4244420130312 L588.4690735621809,313.4244400565067 M555.1796583047933,286.68065247838314 L554.3259209252618,313.4244420130312 M554.3259209252618,313.4244420130312 L554.2401917801151,312.3370318825945 M554.2401917801151,312.3370318825945 L554.119125763555,316.1324380501775 M554.119125763555,316.1324380501775 L554.2047210009008,317.22109581598926 M554.2047210009008,317.22109581598926 L554.1254735184708,319.70356647039614 M553.9545648981541,317.52583494483724 L554.1254735184708,319.70356647039614 M555.0064164661785,284.5248027555309 L553.9545648981541,317.52583494483724 M550.6285876939846,284.5248008192897 L549.6063003309865,317.5258329889284 M549.6063003309865,317.5258329889284 L553.9545648981541,317.52583494483724 M549.772401598633,319.70356647039614 L549.6063003309865,317.5258329889284 M549.772401598633,319.70356647039614 L549.8494216843698,317.22109581598926 M549.8494216843698,317.22109581598926 L549.7662320390691,316.1324380501775 M549.7662320390691,316.1324380501775 L549.8838952717134,312.3370318825945 M549.8838952717134,312.3370318825945 L549.9672150612611,313.4244420130312 M549.9672150612611,313.4244420130312 L550.7969565767252,286.68065247838314 M529.6629289265309,313.4244400565067 L549.9672150612611,313.4244420130312 M529.6629289265309,313.4244400565067 L529.5610043687693,317.2210938572207 M549.8494216843698,317.22109581598926 L529.5610043687693,317.2210938572207 M549.772401598633,319.70356647039614 L554.1254735184708,319.70356647039614 M588.3211890499609,317.2210938572207 L554.2047210009008,317.22109581598926 M588.3211890499609,317.2210938572207 L587.292434680942,343.6324071618053 M537.5764442532713,776.3469342057062 L587.292434680942,343.6324071618053 M504.71525174921123,776.3469407655505 L537.5764442532713,776.3469342057062 M516.4658365043036,286.68065441893395 L504.71525174921123,776.3469407655505 M504.71525174921123,776.3469407655505 L504.38120637160694,768.6500616664557 M516.0533547073748,279.8523297498486 L504.38120637160694,768.6500616664557 M588.2167664383227,316.1324439199932 L588.3211890499609,317.2210938572207 M588.3644875750206,312.3370377456808 L588.2167664383227,316.1324439199932 M588.4690735621809,313.4244400565067 L588.3644875750206,312.3370377456808 M586.6384247746669,336.6853482163029 L588.841274030557,279.85233360368375 M587.292434680942,343.6324071618053 L586.6384247746669,336.6853482163029 M588.3644875750206,312.3370377456808 L554.2401917801151,312.3370318825945 M588.2167664383227,316.1324439199932 L554.119125763555,316.1324380501775 M529.4890369355788,316.1324439199934 L529.5610043687693,317.2210938572207 M549.7662320390691,316.1324380501775 L529.4890369355788,316.1324439199934 M529.590848894013,312.3370377456808 L529.4890369355788,316.1324439199934 M549.8838952717134,312.3370318825945 L529.590848894013,312.3370377456808 M529.6629289265309,313.4244400565067 L529.590848894013,312.3370377456808 M537.5764442532713,776.3469342057062 L537.1383331962769,768.6500638392413 M537.1383331962769,768.6500638392413 L586.6384247746669,336.6853482163029 M504.38120637160694,768.6500616664557 L537.1383331962769,768.6500638392413" stroke="black"  stroke-width="4"  fill="red"/>
<path d="M232.58252269473604,46.04589254250175 L262.65627737647804,46.04589105340028 M262.65627737647804,46.04589105340028 L262.7892317101659,44.391348026051446 M262.7892317101659,44.391348026051446 L266.624698772787,44.39134951225566 M266.624698772787,44.39134951225566 L266.495484930592,46.04589105340028 M266.495484930592,46.04589105340028 L296.5692395562797,46.04588956429848 M296.5692395562797,46.04588956429848 L296.88590040863085,40.8038224042935 M233.0964977412397,40.80381944443076 L296.88590040863085,40.8038224042935 M232.58252269473604,46.04589254250175 L233.0964977412397,40.80381944443076 M263.3118466960077,70.64403713549461 L233.38242871710668,70.64403863889464 M262.65627737647804,46.04589105340028 L263.3118466960077,70.64403713549461 M233.38242871710668,70.64403863889464 L232.58252269473604,46.04589254250175 M262.7892317101659,44.391348026051446 L263.5972794091295,74.7500963410206 M263.4658957449932,76.42423596095381 L263.5972794091295,74.7500963410206 M263.40498611726156,74.13879660905582 L263.4658957449932,76.42423596095381 M263.40498611726156,74.13879660905582 L263.47077533585855,73.30205586865918 M263.47077533585855,73.30205586865918 L263.37772613333857,69.80841646353878 M263.37772613333857,69.80841646353878 L263.3118466960077,70.64403713549461 M266.624698772787,44.39134951225566 L267.4100348222374,74.75009784483632 M263.5972794091295,74.7500963410206 L267.4100348222374,74.75009784483632 M267.13262826497055,70.64403713549461 L266.495484930592,46.04589105340028 M267.13262826497055,70.64403713549461 L267.1966526834069,69.80841796548242 M267.1966526834069,69.80841796548242 L267.2870865688053,73.30205737261656 M267.2870865688053,73.30205737261656 L267.2231498309619,74.13879660905582 M267.2823474812372,76.42423596095381 L267.2231498309619,74.13879660905582 M267.4100348222374,74.75009784483632 L267.2823474812372,76.42423596095381 M233.49607464555575,74.13879811447066 L263.40498611726156,74.13879660905582 M234.28725646802815,98.46866376582392 L233.49607464555575,74.13879811447066 M276.55120585875363,501.7862103088259 L234.28725646802815,98.46866376582392 M305.69967765531493,501.7862051475335 L276.55120585875363,501.7862103088259 M296.5692395562797,46.04588956429848 L305.69967765531493,501.7862051475335 M284.93108581753586,70.64403863889464 L267.13262826497055,70.64403713549461 M284.93108581753586,70.64403863889464 L285.0094125525313,74.13879811447066 M267.2231498309619,74.13879660905582 L285.0094125525313,74.13879811447066 M267.2823474812372,76.42423596095381 L263.4658957449932,76.42423596095381 M305.69967765531493,501.7862051475335 L305.96259940107785,495.7281316915953 M296.88590040863085,40.8038224042935 L305.96259940107785,495.7281316915953 M233.49607464555575,74.13879811447066 L233.57634716601945,73.30205737261656 M233.57634716601945,73.30205737261656 L233.46281131872826,69.80841796548242 M233.46281131872826,69.80841796548242 L233.38242871710668,70.64403863889464 M234.79078683866035,93.12002769642174 L233.0964977412397,40.80381944443076 M234.28725646802815,98.46866376582392 L234.79078683866035,93.12002769642174 M233.46281131872826,69.80841796548242 L263.37772613333857,69.80841646353878 M233.57634716601945,73.30205737261656 L263.47077533585855,73.30205586865918 M284.98647569135386,69.80841195770842 L284.93108581753586,70.64403863889464 M267.1966526834069,69.80841796548242 L284.98647569135386,69.80841195770842 M285.06472656391475,73.30205135678779 L284.98647569135386,69.80841195770842 M267.2870865688053,73.30205737261656 L285.06472656391475,73.30205135678779 M285.0094125525313,74.13879811447066 L285.06472656391475,73.30205135678779 M276.55120585875363,501.7862103088259 L276.8960319383044,495.7281316915953 M276.8960319383044,495.7281316915953 L234.79078683866035,93.12002769642174 M305.96259940107785,495.7281316915953 L276.8960319383044,495.7281316915953" stroke="black"  stroke-width="4"  fill="red"/>
<path d="M232.58252269473604,46.04589254250175 L262.65627737647804,46.04589105340028 M262.5230672885956,47.70365979956125 L262.65627737647804,46.04589105340028 M266.36601548325626,47.703661291568835 L262.5230672885956,47.70365979956125 M266.495484930592,46.04589105340028 L266.36601548325626,47.703661291568835 M266.495484930592,46.04589105340028 L296.5692395562797,46.04588956429848 M296.5692395562797,46.04588956429848 L296.2506269832541,51.320495185908044 M232.06534463290666,51.3204921891932 L296.2506269832541,51.320495185908044 M232.58252269473604,46.04589254250175 L232.06534463290666,51.3204921891932 M232.58252269473604,46.04589254250175 L233.38242871710668,70.64403863889464 M263.3118466960077,70.64403713549461 L233.38242871710668,70.64403863889464 M262.65627737647804,46.04589105340028 L263.3118466960077,70.64403713549461 M263.3118466960077,70.64403713549461 L263.2459166228626,71.48047446079784 M263.2459166228626,71.48047446079784 L263.33914638534685,74.97635454100867 M263.33914638534685,74.97635454100867 L263.40498611726156,74.13879660905582 M263.40498611726156,74.13879660905582 L263.4658957449932,76.42423596095381 M263.33426088877354,78.10162013179661 L263.4658957449932,76.42423596095381 M262.5230672885956,47.70365979956125 L263.33426088877354,78.10162013179661 M266.36601548325626,47.703661291568835 L267.15440901207484,78.10162164144947 M267.15440901207484,78.10162164144947 L263.33426088877354,78.10162013179661 M267.2823474812372,76.42423596095381 L267.15440901207484,78.10162164144947 M267.2823474812372,76.42423596095381 L267.2231498309619,74.13879660905582 M267.2231498309619,74.13879660905582 L267.15916083925396,74.97635454100867 M267.15916083925396,74.97635454100867 L267.0685514713715,71.48047446079784 M267.0685514713715,71.48047446079784 L267.13262826497055,70.64403713549461 M267.13262826497055,70.64403713549461 L266.495484930592,46.04589105340028 M284.93108581753586,70.64403863889464 L267.13262826497055,70.64403713549461 M284.93108581753586,70.64403863889464 L285.0094125525313,74.13879811447066 M267.2231498309619,74.13879660905582 L285.0094125525313,74.13879811447066 M267.2823474812372,76.42423596095381 L263.4658957449932,76.42423596095381 M233.49607464555575,74.13879811447066 L263.40498611726156,74.13879660905582 M233.49607464555575,74.13879811447066 L234.28725646802815,98.46866376582392 M276.55120585875363,501.7862103088259 L234.28725646802815,98.46866376582392 M305.69967765531493,501.7862051475335 L276.55120585875363,501.7862103088259 M296.5692395562797,46.04588956429848 L305.69967765531493,501.7862051475335 M305.69967765531493,501.7862051475335 L305.4352820250466,507.8785295804589 M296.2506269832541,51.320495185908044 L305.4352820250466,507.8785295804589 M233.4157243062644,74.97635002038498 L233.49607464555575,74.13879811447066 M233.301968136487,71.48046994622086 L233.4157243062644,74.97635002038498 M233.38242871710668,70.64403863889464 L233.301968136487,71.48046994622086 M233.78062009345658,103.85014703498587 L232.06534463290666,51.3204921891932 M234.28725646802815,98.46866376582392 L233.78062009345658,103.85014703498587 M233.301968136487,71.48046994622086 L263.2459166228626,71.48047446079784 M233.4157243062644,74.97635002038498 L263.33914638534685,74.97635454100867 M284.95403157725326,74.97635002038498 L285.0094125525313,74.13879811447066 M267.15916083925396,74.97635454100867 L284.95403157725326,74.97635002038498 M284.87562886056764,71.48046994622086 L284.95403157725326,74.97635002038498 M267.0685514713715,71.48047446079784 L284.87562886056764,71.48046994622086 M284.93108581753586,70.64403863889464 L284.87562886056764,71.48046994622086 M276.55120585875363,501.7862103088259 L276.20441512880427,507.87852785028934 M276.20441512880427,507.87852785028934 L233.78062009345658,103.85014703498587 M305.4352820250466,507.8785295804589 L276.20441512880427,507.87852785028934" stroke="black"  stroke-width="4"  fill="red"/>
<path d="M139.77842257825182,151.41855771420174 L141.86458130284973,136.90471999781073 M141.86458130284973,136.90471999781073 L137.8201613185317,136.90471999781073 M137.8201613185317,136.90471999781073 L138.0882136370874,135.0686688163334 M138.0882136370874,135.0686688163334 L142.12847900333725,135.06867211465203 M142.12847900333725,135.06867211465203 L144.17716901138994,120.81551246289189 M144.17716901138994,120.81551246289189 L131.45151982888507,120.81550921692445 M126.83332465261708,151.41856443197491 L131.45151982888507,120.81550921692445 M139.77842257825182,151.41855771420174 L126.83332465261708,151.41856443197491 M143.16557640477106,162.35177357489835 L141.10053861237554,176.9968590621906 M141.86458130284973,136.90471999781073 L143.16557640477106,162.35177357489835 M141.10053861237554,176.9968590621906 L139.77842257825182,151.41855771420174 M137.8201613185317,136.90471999781073 L139.45201962445958,168.32955916425175 M143.47119409636446,168.32955916425175 L139.45201962445958,168.32955916425175 M143.35035997453997,165.96608187869768 L143.47119409636446,168.32955916425175 M143.35035997453997,165.96608187869768 L141.3398166173448,165.96607853935467 M141.3398166173448,165.96607853935467 L141.15358124459522,162.3517702397811 M141.15358124459522,162.3517702397811 L143.16557640477106,162.35177357489835 M138.0882136370874,135.0686688163334 L139.71673768412984,166.47293703258924 M139.45201962445958,168.32955916425175 L139.71673768412984,166.47293703258924 M143.4268143361582,160.4990369165961 L142.12847900333725,135.06867211465203 M143.4268143361582,160.4990369165961 L141.41687172049564,160.49903358828016 M141.41687172049564,160.49903358828016 L141.6027274515493,164.1109929181573 M141.6027274515493,164.1109929181573 L143.61122122377844,164.11099625069545 M143.73180917150853,166.4729403678832 L143.61122122377844,164.11099625069545 M139.71673768412984,166.47293703258924 L143.73180917150853,166.4729403678832 M141.28831325509304,180.62963884321982 L143.35035997453997,165.96608187869768 M142.59512573659083,205.91187020139208 L141.28831325509304,180.62963884321982 M165.96934413025977,605.2119852566877 L142.59512573659083,205.91187020139208 M167.76387484724205,587.8345815224116 L165.96934413025977,605.2119852566877 M144.17716901138994,120.81551246289189 L167.76387484724205,587.8345815224116 M144.63679112988447,151.91794666185478 L143.4268143361582,160.4990369165961 M144.63679112988447,151.91794666185478 L144.81945837014277,155.51899094662878 M143.61122122377844,164.11099625069545 L144.81945837014277,155.51899094662878 M143.73180917150853,166.4729403678832 L143.47119409636446,168.32955916425175 M167.76387484724205,587.8345815224116 L156.21497425591113,587.8345778013547 M131.45151982888507,120.81550921692445 L156.21497425591113,587.8345778013547 M141.28831325509304,180.62963884321982 L139.2615903042432,180.62963884321982 M139.2615903042432,180.62963884321982 L139.07234037362184,176.9968590621906 M139.07234037362184,176.9968590621906 L141.10053861237554,176.9968590621906 M129.79055401606195,205.9118770468274 L126.83332465261708,151.41856443197491 M142.59512573659083,205.91187020139208 L129.79055401606195,205.9118770468274 M139.07234037362184,176.9968590621906 L141.15358124459522,162.3517702397811 M139.2615903042432,180.62963884321982 L141.3398166173448,165.96607853935467 M142.63636848184512,151.91794995876137 L144.63679112988447,151.91794666185478 M141.41687172049564,160.49903358828016 L142.63636848184512,151.91794995876137 M142.8204708885429,155.51899424773998 L142.63636848184512,151.91794995876137 M141.6027274515493,164.1109929181573 L142.8204708885429,155.51899424773998 M144.81945837014277,155.51899094662878 L142.8204708885429,155.51899424773998 M165.96934413025977,605.2119852566877 L154.33092682682087,605.2119890356607 M154.33092682682087,605.2119890356607 L129.79055401606195,205.9118770468274 M156.21497425591113,587.8345778013547 L154.33092682682087,605.2119890356607" stroke="black"  stroke-width="4"  fill="red"/>
<path d="M139.77842257825182,151.41855771420174 L141.86458130284973,136.90471999781073 M145.90899354664072,136.90472330290345 L141.86458130284973,136.90471999781073 M146.16875211659774,135.06867211465203 L145.90899354664072,136.90472330290345 M142.12847900333725,135.06867211465203 L146.16875211659774,135.06867211465203 M142.12847900333725,135.06867211465203 L144.17716901138994,120.81551246289189 M144.17716901138994,120.81551246289189 L156.90280471184263,120.81550921692445 M152.72352636330928,151.41856107308826 L156.90280471184263,120.81550921692445 M139.77842257825182,151.41855771420174 L152.72352636330928,151.41856107308826 M139.77842257825182,151.41855771420174 L141.10053861237554,176.9968590621906 M143.16557640477106,162.35177357489835 L141.10053861237554,176.9968590621906 M141.86458130284973,136.90471999781073 L143.16557640477106,162.35177357489835 M143.16557640477106,162.35177357489835 L145.177550330397,162.35177357489835 M145.177550330397,162.35177357489835 L145.36088211216574,165.96608187869768 M145.36088211216574,165.96608187869768 L143.35035997453997,165.96608187869768 M143.35035997453997,165.96608187869768 L143.47119409636446,168.32955916425175 M147.4903608789596,168.3295625063531 L143.47119409636446,168.32955916425175 M145.90899354664072,136.90472330290345 L147.4903608789596,168.3295625063531 M146.16875211659774,135.06867211465203 L147.74688835460563,166.4729403678832 M147.74688835460563,166.4729403678832 L147.4903608789596,168.3295625063531 M143.73180917150853,166.4729403678832 L147.74688835460563,166.4729403678832 M143.73180917150853,166.4729403678832 L143.61122122377844,164.11099625069545 M143.61122122377844,164.11099625069545 L145.61970148611704,164.1109929181573 M145.61970148611704,164.1109929181573 L145.43674343286142,160.49903358828016 M145.43674343286142,160.49903358828016 L143.4268143361582,160.4990369165961 M143.4268143361582,160.4990369165961 L142.12847900333725,135.06867211465203 M144.63679112988447,151.91794666185478 L143.4268143361582,160.4990369165961 M144.63679112988447,151.91794666185478 L144.81945837014277,155.51899094662878 M143.61122122377844,164.11099625069545 L144.81945837014277,155.51899094662878 M143.73180917150853,166.4729403678832 L143.47119409636446,168.32955916425175 M141.28831325509304,180.62963884321982 L143.35035997453997,165.96608187869768 M141.28831325509304,180.62963884321982 L142.59512573659083,205.91187020139208 M165.96934413025977,605.2119852566877 L142.59512573659083,205.91187020139208 M167.76387484724205,587.8345815224116 L165.96934413025977,605.2119852566877 M144.17716901138994,120.81551246289189 L167.76387484724205,587.8345815224116 M167.76387484724205,587.8345815224116 L179.31276312490704,587.8345778013547 M156.90280471184263,120.81550921692445 L179.31276312490704,587.8345778013547 M143.31504396859845,180.62963544984288 L141.28831325509304,180.62963884321982 M143.12874461978038,176.99685567306852 L143.31504396859845,180.62963544984288 M141.10053861237554,176.9968590621906 L143.12874461978038,176.99685567306852 M155.39970326874618,205.91187362410983 L152.72352636330928,151.41856107308826 M142.59512573659083,205.91187020139208 L155.39970326874618,205.91187362410983 M143.12874461978038,176.99685567306852 L145.177550330397,162.35177357489835 M143.31504396859845,180.62963544984288 L145.36088211216574,165.96608187869768 M146.81845930218958,155.51899424773998 L144.81945837014277,155.51899094662878 M145.61970148611704,164.1109929181573 L146.81845930218958,155.51899424773998 M146.63722723736046,151.91794995876137 L146.81845930218958,155.51899424773998 M145.43674343286142,160.49903358828016 L146.63722723736046,151.91794995876137 M144.63679112988447,151.91794666185478 L146.63722723736046,151.91794995876137 M165.96934413025977,605.2119852566877 L177.6077738368183,605.2119890356607 M177.6077738368183,605.2119890356607 L155.39970326874618,205.91187362410983 M179.31276312490704,587.8345778013547 L177.6077738368183,605.2119890356607" stroke="black"  stroke-width="4"  fill="red"/></svg>