<svg viewBox="0 0 800 800" xmlns="http://www.w3.org/2000/svg"><path d="M229.20313216580064,337.1807076631406 L230.89749699016915,338.9030576751806 M229.20313216580064,337.1807076631406 L248.73237761906495,334.05793568533613 M247.06334269861634,336.30425672228307 L248.73237761906495,334.05793568533613 M230.89749699016915,338.9030576751806 L247.06334269861634,336.30425672228307 M226.394303613871,336.7016056588176 L230.89749699016915,338.9030576751806 M224.70206295996843,334.98557789920324 L226.394303613871,336.7016056588176 M224.70206295996843,334.98557789920324 L229.20313216580064,337.1807076631406 M247.06334269861634,336.30425672228307 L242.49666561075583,334.1332224862502 M226.394303613871,336.7016056588176 L242.49666561075583,334.1332224862502 M236.47156070644553,336.54490226597056 L236.5153913231099,336.56112754065686 M236.5153913231099,336.56112754065686 L236.57191177861074,336.5739537762043 M236.57191177861074,336.5739537762043 L236.63788076870173,336.5826536457336 M236.63788076870173,336.5826536457336 L236.7094960526626,336.5867130784615 M236.7094960526626,336.5867130784615 L236.78253418787574,336.58588955867936 M236.78253418787574,336.58588955867936 L236.85276980249677,336.5802509684139 M236.85276980249677,336.5802509684139 L236.9161163811276,336.57009806240023 M236.9161163811276,336.57009806240023 L236.96890570182967,336.55604185422345 M236.96890570182967,336.55604185422345 L237.00806324483085,336.53889685222543 M237.00806324483085,336.53889685222543 L237.03128281978445,336.51965177867055 M237.03128281978445,336.51965177867055 L237.03723574550907,336.49943062002205 M237.03723574550907,336.49943062002205 L237.02560548656868,336.47940532166064 M237.02560548656868,336.47940532166064 L236.9970521931233,336.4607473288768 M236.9970521931233,336.4607473288768 L236.95324721836914,336.4445405065871 M236.95324721836914,336.4445405065871 L236.89669846099298,336.43171352930926 M236.89669846099298,336.43171352930926 L236.83075022423384,336.4230207309629 M236.83075022423384,336.4230207309629 L236.75916518444137,336.41896487638803 M236.75916518444137,336.41896487638803 L236.68615983003843,336.41978765594877 M236.68615983003843,336.41978765594877 L236.61598686235197,336.42543105407265 M236.61598686235197,336.42543105407265 L236.55262193765788,336.4355663697112 M236.55262193765788,336.4355663697112 L236.49983399207065,336.4496134577007 M236.49983399207065,336.4496134577007 L236.46069722687406,336.46675989703215 M236.46069722687406,336.46675989703215 L236.4374513873634,336.4859994874307 M236.4374513873634,336.4859994874307 L236.43143118211464,336.50620949864265 M236.43143118211464,336.50620949864265 L236.44303022679298,336.5262376889998 M236.44303022679298,336.5262376889998 L236.47156070644553,336.54490226597056 M248.73237761906495,334.05793568533613 L244.15461407537873,331.89941492905166 M242.49666561075583,334.1332224862502 L244.15461407537873,331.89941492905166 M244.15461407537873,331.89941492905166 L224.70206295996843,334.98557789920324 M231.45241977499728,336.3397115612852 L231.02548328419618,336.1325756254545 M232.2014620799705,336.2200964974904 L231.45241977499728,336.3397115612852 M231.02548328419618,336.1325756254545 L231.77424516011274,336.01309403742465 M231.77424516011274,336.01309403742465 L232.2014620799705,336.2200964974904 M244.28368523925405,334.2906277934916 L243.85198221875015,334.08577244387385 M245.02447965424562,334.1723298569058 L244.28368523925405,334.2906277934916 M243.85198221875015,334.08577244387385 L244.59250385586967,333.96760578511083 M244.59250385586967,333.96760578511083 L245.02447965424562,334.1723298569058 M229.17153233313974,334.75201851786954 L229.59581243279172,334.95760515961064 M228.42448214876657,334.8706885710787 L229.17153233313974,334.75201851786954 M228.84851751887368,335.0764169956817 L228.42448214876657,334.8706885710787 M229.59581243279172,334.95760515961064 L228.84851751887368,335.0764169956817 M236.46926840194885,334.563074471447 L236.4407089710047,334.5444906051637 M236.4407089710047,334.5444906051637 L236.42909823529004,334.52454902424483 M236.42909823529004,334.52454902424483 L236.43512470034176,334.50442641095503 M236.43512470034176,334.50442641095503 L236.45839433944883,334.4852700239804 M236.45839433944883,334.4852700239804 L236.4975710751326,334.468197737748 M236.4975710751326,334.468197737748 L236.55041287326128,334.4542114003096 M236.55041287326128,334.4542114003096 L236.61384239650516,334.44411991834096 M236.61384239650516,334.44411991834096 L236.68408686800962,334.4385009272829 M236.68408686800962,334.4385009272829 L236.75716658281368,334.4376817061662 M236.75716658281368,334.4376817061662 L236.82882451075596,334.4417200195878 M236.82882451075596,334.4417200195878 L236.89483987282028,334.45037522277926 M236.89483987282028,334.45037522277926 L236.95144616466757,334.46314672590245 M236.95144616466757,334.46314672590245 L236.99529568100803,334.47928345815797 M236.99529568100803,334.47928345815797 L237.0238779722868,334.4978607620491 M237.0238779722868,334.4978607620491 L237.0355199859094,334.51779946054506 M237.0355199859094,334.51779946054506 L237.02956090194675,334.53793317454915 M237.02956090194675,334.53793317454915 L237.00631758090697,334.55709502653 M237.00631758090697,334.55709502653 L236.96712006059408,334.5741658900092 M236.96712006059408,334.5741658900092 L236.9142768844976,334.5881613174463 M236.9142768844976,334.5881613174463 L236.85086570909613,334.5982703217409 M236.85086570909613,334.5982703217409 L236.78055849850102,334.603884530678 M236.78055849850102,334.603884530678 L236.70744593605923,334.6047044895658 M236.70744593605923,334.6047044895658 L236.63575770231552,334.6006626098351 M236.63575770231552,334.6006626098351 L236.5697215446524,334.59200035886744 M236.5697215446524,334.59200035886744 L236.51314357684652,334.5792295851965 M236.51314357684652,334.5792295851965 L236.46926840194885,334.563074471447 M241.96070763815794,332.72037359474217 L242.38976509559723,332.92371461515455 M241.2218859536157,332.8377516044775 L241.96070763815794,332.72037359474217 M242.38976509559723,332.92371461515455 L241.65063671799373,333.04121301992285 M241.65063671799373,333.04121301992285 L241.2218859536157,332.8377516044775 M236.47156070644553,336.54490226597056 L236.46926840194885,334.563074471447 M231.02723658249704,336.5758186782348 L231.45407673336018,336.7831548911529 M231.45407673336018,336.7831548911529 L231.45241977499728,336.3397115612852 M231.02723658249704,336.5758186782348 L231.02548328419618,336.1325756254545 M231.45407673336018,336.7831548911529 L232.20294781737823,336.6634241795193 M232.20294781737823,336.6634241795193 L232.2014620799705,336.2200964974904 M231.77582736581616,336.45622154099084 L231.02723658249704,336.5758186782348 M231.77582736581616,336.45622154099084 L231.77424516011274,336.01309403742465 M232.20294781737823,336.6634241795193 L231.77582736581616,336.45622154099084 M243.85081983477488,334.5270336322564 L244.28242434763484,334.7320875697996 M244.28242434763484,334.7320875697996 L244.28368523925405,334.2906277934916 M243.85081983477488,334.5270336322564 L243.85198221875015,334.08577244387385 M244.28242434763484,334.7320875697996 L245.0230512908317,334.61367496082636 M245.0230512908317,334.61367496082636 L245.02447965424562,334.1723298569058 M244.59117412324207,334.40875239860196 L243.85081983477488,334.5270336322564 M244.59117412324207,334.40875239860196 L244.59250385586967,333.96760578511083 M245.0230512908317,334.61367496082636 L244.59117412324207,334.40875239860196 M229.59788485362606,335.3997111499823 L229.17369990151946,335.1939253799266 M229.17369990151946,335.1939253799266 L229.17153233313974,334.75201851786954 M229.59788485362606,335.3997111499823 L229.59581243279172,334.95760515961064 M229.17369990151946,335.1939253799266 L228.42682002707397,335.31271038161333 M228.42682002707397,335.31271038161333 L228.42448214876657,334.8706885710787 M228.42682002707397,335.31271038161333 L228.85076036948948,335.5186380418198 M228.85076036948948,335.5186380418198 L228.84851751887368,335.0764169956817 M228.85076036948948,335.5186380418198 L229.59788485362606,335.3997111499823 M242.3889366136221,333.36384832149054 L241.95997646298355,333.16030983953965 M241.95997646298355,333.16030983953965 L241.96070763815794,332.72037359474217 M242.3889366136221,333.36384832149054 L242.38976509559723,332.92371461515455 M241.95997646298355,333.16030983953965 L241.22132136823797,333.27780183957503 M241.22132136823797,333.27780183957503 L241.2218859536157,332.8377516044775 M241.6499749562209,333.4814608040894 L242.3889366136221,333.36384832149054 M241.6499749562209,333.4814608040894 L241.65063671799373,333.04121301992285 M241.22132136823797,333.27780183957503 L241.6499749562209,333.4814608040894" stroke="black"  stroke-width="4"  fill="red"/>
<path d="M434.3755973239321,386.7440681194671 L413.24283497647787,386.74405563691187 M436.7898150085091,384.5520477739069 L434.3755973239321,386.7440681194671 M436.7898150085091,384.5520477739069 L411.25684041907266,384.5520539899083 M413.24283497647787,386.74405563691187 L411.25684041907266,384.5520539899083 M413.24283497647787,386.74405563691187 L414.6005700097834,390.02317206610456 M435.8977403048923,390.023184743638 L414.6005700097834,390.02317206610456 M435.8977403048923,390.023184743638 L434.3755973239321,386.7440681194671 M424.87186264186255,388.3772734553827 L424.8503329992294,388.35110975889796 M424.8503329992294,388.35110975889796 L424.80997772315914,388.3264773319586 M424.80997772315914,388.3264773319586 L424.75313395112585,388.30479662957293 M424.75313395112585,388.30479662957293 L424.6831042215904,388.2873367280424 M424.6831042215904,388.2873367280424 L424.60402141873385,388.2750898789702 M424.60402141873385,388.2750898789702 L424.5203830599893,388.2687969843801 M424.5203830599893,388.2687969843801 L424.4371220719413,388.2687906978659 M424.4371220719413,388.2687906978659 L424.35907282306164,388.2750898789702 M424.35907282306164,388.2750898789702 L424.2907005254466,388.2873241539118 M424.2907005254466,388.2873241539118 L424.23601043782776,388.30479662957293 M424.23601043782776,388.30479662957293 L424.19820770246406,388.3264773319586 M424.19820770246406,388.3264773319586 L424.1794686870179,388.3511160478592 M424.1794686870179,388.3511160478592 L424.18092887129,388.37726087590494 M424.18092887129,388.37726087590494 L424.2024184474949,388.40342780685904 M424.2024184474949,388.40342780685904 L424.24274568402166,388.42806919534144 M424.24274568402166,388.42806919534144 L424.29957985641556,388.449762534861 M424.29957985641556,388.449762534861 L424.36962063993326,388.467235846784 M424.36962063993326,388.467235846784 L424.4487325756628,388.4794938240699 M424.4487325756628,388.4794938240699 L424.53241152723103,388.4857929890017 M424.53241152723103,388.4857929890017 L424.6157152284352,388.4857992819676 M424.6157152284352,388.4857992819676 L424.69379952974805,388.4794938240699 M424.69379952974805,388.4794938240699 L424.76222545987093,388.4672358467841 M424.76222545987093,388.4672358467841 L424.81688057005965,388.449762534861 M424.81688057005965,388.449762534861 L424.8546626072447,388.42806919534144 M424.8546626072447,388.42806919534144 L424.87336570449054,388.4034215163427 M424.87336570449054,388.4034215163427 L424.87186264186255,388.3772734553827 M411.25684041907266,384.5520539899083 L412.6006671279646,387.8179137348654 M414.6005700097834,390.02317206610456 L412.6006671279646,387.8179137348654 M438.3325133979705,387.81790742165634 L436.7898150085091,384.5520477739069 M412.6006671279646,387.8179137348654 L438.3325133979705,387.81790742165634 M433.14856607091065,385.0858916690155 L433.2905217260379,385.39242268768953 M432.17280283598643,385.0858916690155 L433.14856607091065,385.0858916690155 M433.2905217260379,385.39242268768953 L432.3140460641381,385.39242268768965 M432.3140460641381,385.39242268768965 L432.17280283598643,385.0858916690155 M416.3457135288837,385.0858916690155 L416.4754010384289,385.39242268768965 M415.3699502939595,385.0858916690155 L416.3457135288837,385.0858916690155 M416.4754010384289,385.39242268768965 L415.4989253765291,385.39242268768965 M415.4989253765291,385.39242268768965 L415.3699502939595,385.0858916690155 M433.1824287186779,387.2771038662379 L433.03991595899504,386.9678176021305 M434.16328468022243,387.2771038662379 L433.1824287186779,387.2771038662379 M434.020053089934,386.9678176021305 L434.16328468022243,387.2771038662379 M433.03991595899504,386.9678176021305 L434.020053089934,386.9678176021305 M425.08802772160664,386.17865236701925 L425.089545903689,386.2046947673705 M425.089545903689,386.2046947673705 L425.07083369170425,386.2292428520134 M425.07083369170425,386.2292428520134 L425.03301886747875,386.250848537582 M425.03301886747875,386.250848537582 L424.9783092105671,386.26825124883754 M424.9783092105671,386.26825124883754 L424.9098100682637,386.28045969893725 M424.9098100682637,386.28045969893725 L424.8316382911039,386.28673968055466 M424.8316382911039,386.28673968055466 L424.74823782634815,386.2867334130146 M424.74823782634815,386.2867334130146 L424.6644584640675,386.28045969893725 M424.6644584640675,386.28045969893725 L424.58524838559424,386.26825124883743 M424.58524838559424,386.26825124883743 L424.51511734108954,386.250848537582 M424.51511734108954,386.250848537582 L424.45820610134126,386.2292428520134 M424.45820610134126,386.2292428520134 L424.4178194716384,386.2047010324682 M424.4178194716384,386.2047010324682 L424.3962916054502,386.17863983837435 M424.3962916054502,386.17863983837435 L424.3948164030178,386.15260066161255 M424.3948164030178,386.15260066161255 L424.4135646212517,386.1280615142147 M424.4135646212517,386.1280615142147 L424.45140019821395,386.1064684293299 M424.45140019821395,386.1064684293299 L424.5061448744684,386.08906656647275 M424.5061448744684,386.08906656647275 L424.574590311542,386.07688173580186 M424.574590311542,386.07688173580186 L424.65272695802116,386.0706080128729 M424.65272695802116,386.0706080128729 L424.7360846103593,386.0706142739803 M424.7360846103593,386.0706142739803 L424.8198232822808,386.07688173580186 M424.8198232822808,386.07688173580186 L424.8990041544937,386.08907908978597 M424.8990041544937,386.08907908978597 L424.9691241124742,386.1064684293299 M424.9691241124742,386.1064684293299 L425.02604496771085,386.1280615142147 M425.02604496771085,386.1280615142147 L425.06645969753595,386.15259439806545 M425.06645969753595,386.15259439806545 L425.08802772160664,386.17865236701925 M416.2918783301068,387.2771038662379 L416.16174398788723,386.9678176021305 M417.27273429165143,387.2771038662379 L416.2918783301068,387.2771038662379 M416.16174398788723,386.9678176021305 L417.1418811188264,386.9678176021305 M417.1418811188264,386.9678176021305 L417.27273429165143,387.2771038662379 M438.3325133979705,387.81790742165634 L435.8977403048923,390.023184743638 M424.87186264186255,388.3772734553827 L425.08802772160664,386.17865236701925 M433.24030915409105,385.8818087980899 L433.0984267319858,385.5749998692061 M433.0984267319858,385.5749998692061 L433.14856607091065,385.0858916690155 M433.24030915409105,385.8818087980899 L433.2905217260379,385.39242268768953 M433.0984267319858,385.5749998692061 L432.12291512928834,385.5749998692061 M432.12291512928834,385.5749998692061 L432.17280283598643,385.0858916690155 M432.26408549194946,385.8818087980899 L433.24030915409105,385.8818087980899 M432.26408549194946,385.8818087980899 L432.3140460641381,385.39242268768965 M432.12291512928834,385.5749998692061 L432.26408549194946,385.8818087980899 M416.42952795645976,385.8818087980899 L416.2999073509644,385.5749998692061 M416.2999073509644,385.5749998692061 L416.3457135288837,385.0858916690155 M416.42952795645976,385.8818087980899 L416.4754010384289,385.39242268768965 M416.2999073509644,385.5749998692061 L415.32439574826697,385.5749998692061 M415.32439574826697,385.5749998692061 L415.3699502939595,385.0858916690155 M415.4533042943182,385.8818087980899 L416.42952795645976,385.8818087980899 M415.4533042943182,385.8818087980899 L415.4989253765291,385.39242268768965 M415.32439574826697,385.5749998692061 L415.4533042943182,385.8818087980899 M432.9895800713073,387.4586301900273 L433.1320189810144,387.7681961461113 M433.1320189810144,387.7681961461113 L433.1824287186779,387.2771038662379 M432.9895800713073,387.4586301900273 L433.03991595899504,386.9678176021305 M433.1320189810144,387.7681961461113 L434.1126206771703,387.7681961461113 M434.1126206771703,387.7681961461113 L434.16328468022243,387.2771038662379 M434.1126206771703,387.7681961461113 L433.96946330935486,387.4586301900273 M433.96946330935486,387.4586301900273 L434.020053089934,386.9678176021305 M433.96946330935486,387.4586301900273 L432.9895800713073,387.4586301900273 M416.1157801903379,387.4586301900273 L416.24584709706585,387.7681961461113 M416.24584709706585,387.7681961461113 L416.2918783301068,387.2771038662379 M416.1157801903379,387.4586301900273 L416.16174398788723,386.9678176021305 M416.24584709706585,387.7681961461113 L417.2264487932216,387.7681961461113 M417.2264487932216,387.7681961461113 L417.27273429165143,387.2771038662379 M417.09566342838536,387.4586301900273 L416.1157801903379,387.4586301900273 M417.09566342838536,387.4586301900273 L417.1418811188264,386.9678176021305 M417.2264487932216,387.7681961461113 L417.09566342838536,387.4586301900273" stroke="black"  stroke-width="4"  fill="red"/>
<path d="M457.0899608984545,394.21306683707866 L449.2685622487852,400.27149491463683 M458.1439881543756,391.3765394364296 L457.0899608984545,394.21306683707866 M458.1439881543756,391.3765394364296 L448.69788558776906,398.6589443694055 M449.2685622487852,400.27149491463683 L448.69788558776906,398.6589443694055 M449.2685622487852,400.27149491463683 L459.3757861012775,402.0114245782514 M467.08669047796127,395.9047700382496 L459.3757861012775,402.0114245782514 M467.08669047796127,395.9047700382496 L457.0899608984545,394.21306683707866 M458.3490279126627,397.97809123189757 L458.2651895444508,397.9672897554305 M458.2651895444508,397.9672897554305 L458.17885811614053,397.96286933103784 M458.17885811614053,397.96286933103784 L458.09510037997075,397.96508610995755 M458.09510037997075,397.96508610995755 L458.0187253908076,397.97380873060945 M458.0187253908076,397.97380873060945 L457.954193907328,397.98853799615074 M457.954193907328,397.98853799615074 L457.9052598685337,398.0084198187145 M457.9052598685337,398.0084198187145 L457.8747533888636,398.0322975255945 M457.8747533888636,398.0322975255945 L457.8644682041087,398.05877071139355 M457.8644682041087,398.05877071139355 L457.8749599329293,398.08631995041543 M457.8749599329293,398.08631995041543 L457.90568706329725,398.11334609448176 M457.90568706329725,398.11334609448176 L457.954829465397,398.1382557876475 M457.954829465397,398.1382557876475 L458.01955380421214,398.15962616527395 M458.01955380421214,398.15962616527395 L458.0960469919073,398.1761919638162 M458.0960469919073,398.1761919638162 L458.17994529086707,398.18701045693865 M458.17994529086707,398.18701045693865 L458.26629776883556,398.19142887713014 M458.26629776883556,398.19142887713014 L458.35009843902606,398.189209778518 M458.35009843902606,398.189209778518 L458.42650476243045,398.18047847188853 M458.42650476243045,398.18047847188853 L458.49104878446724,398.16573613735807 M458.49104878446724,398.16573613735807 L458.5399736887773,398.1458398575873 M458.5399736887773,398.1458398575873 L458.570451459913,398.1219496205386 M458.570451459913,398.1219496205386 L458.58069495736834,398.0954687055901 M458.58069495736834,398.0954687055901 L458.57015808700487,398.0679183019874 M458.57015808700487,398.0679183019874 L458.5393926986851,398.04089783009533 M458.5393926986851,398.04089783009533 L458.49022771821785,398.01599933991326 M458.49022771821785,398.01599933991326 L458.42552529763213,397.9946497186689 M458.42552529763213,397.9946497186689 L458.3490279126627,397.97809123189757 M448.69788558776906,398.6589443694055 L458.82981440872084,400.3970540362386 M459.3757861012775,402.0114245782514 L458.82981440872084,400.3970540362386 M468.14224541365013,393.05661689073514 L458.1439881543756,391.3765394364296 M458.82981440872084,400.3970540362386 L468.14224541365013,393.05661689073514 M458.36883102018976,392.7466744259266 L459.31124728301086,392.90552734540086 M458.0131369878211,393.0218978602005 L458.36883102018976,392.7466744259266 M459.31124728301086,392.90552734540086 L458.9560043834982,393.18094894939225 M458.9560043834982,393.18094894939225 L458.0131369878211,393.0218978602005 M452.1790068093263,397.53597566894575 L453.1296354988083,397.69840189897934 M451.81527186574965,397.8173958038876 L452.1790068093263,397.53597566894575 M453.1296354988083,397.69840189897934 L452.76640663104,397.98004024396863 M452.76640663104,397.98004024396863 L451.81527186574965,397.8173958038876 M464.73832619311554,394.1564040453866 L463.7911563119195,393.99662715954986 M465.09064827743623,393.8797257835572 L464.73832619311554,394.1564040453866 M464.14393433069085,393.7201484398081 L465.09064827743623,393.8797257835572 M463.7911563119195,393.99662715954986 L464.14393433069085,393.7201484398081 M458.6098617607139,395.7409258670983 L458.68645999167904,395.7574183120358 M458.68645999167904,395.7574183120358 L458.7512521494559,395.77868278470805 M458.7512521494559,395.77868278470805 L458.80049056315977,395.80348197553224 M458.80049056315977,395.80348197553224 L458.83130881717796,395.83039468908174 M458.83130881717796,395.83039468908174 L458.84187484768756,395.85783522507063 M458.84187484768756,395.85783522507063 L458.8316351784729,395.8842105413051 M458.8316351784729,395.8842105413051 L458.8011356292204,395.9080055138511 M458.8011356292204,395.9080055138511 L458.7521646130675,395.92782245776976 M458.7521646130675,395.92782245776976 L458.68755280395135,395.9425060090549 M458.68755280395135,395.9425060090549 L458.6110609656906,395.9512025012336 M458.6110609656906,395.9512025012336 L458.52716206231094,395.95341275167175 M458.52716206231094,395.95341275167175 L458.4407043154913,395.94901194899796 M458.4407043154913,395.94901194899796 L458.35669980789214,395.93823659278365 M458.35669980789214,395.93823659278365 L458.2801057516034,395.92173684879606 M458.2801057516034,395.92173684879606 L458.21529163911987,395.9004516857448 M458.21529163911987,395.9004516857448 L458.16607585069175,395.87564132335865 M458.16607585069175,395.87564132335865 L458.1352959421466,395.8487229535438 M458.1352959421466,395.8487229535438 L458.12477516119316,395.8212835788696 M458.12477516119316,395.8212835788696 L458.1350566214735,395.7949159701061 M458.1350566214735,395.7949159701061 L458.1655849550725,395.7711334925849 M458.1655849550725,395.7711334925849 L458.2145651361542,395.75133096532426 M458.2145651361542,395.75133096532426 L458.27916438479826,395.73666044637315 M458.27916438479826,395.73666044637315 L458.3556248195754,395.7279726158101 M458.3556248195754,395.7279726158101 L458.4394806882725,395.7257646785582 M458.4394806882725,395.7257646785582 L458.52591730844506,395.7301674720251 M458.52591730844506,395.7301674720251 L458.6098617607139,395.7409258670983 M458.5994571066393,398.9775223266472 L457.6439332627326,398.81412734174035 M458.95971756459437,398.69458450266507 L458.5994571066393,398.9775223266472 M457.6439332627326,398.81412734174035 L458.00470503073393,398.5314092241848 M458.00470503073393,398.5314092241848 L458.95971756459437,398.69458450266507 M468.14224541365013,393.05661689073514 L467.08669047796127,395.9047700382496 M458.3490279126627,397.97809123189757 L458.6098617607139,395.7409258670983 M459.25330179101263,393.40168894227065 L458.31115451259166,393.2426934839016 M458.31115451259166,393.2426934839016 L458.36883102018976,392.7466744259266 M459.25330179101263,393.40168894227065 L459.31124728301086,392.90552734540086 M458.31115451259166,393.2426934839016 L457.9555168183008,393.51816385676705 M457.9555168183008,393.51816385676705 L458.0131369878211,393.0218978602005 M458.8981149596219,393.6773576088272 L459.25330179101263,393.40168894227065 M458.8981149596219,393.6773576088272 L458.9560043834982,393.18094894939225 M457.9555168183008,393.51816385676705 L458.8981149596219,393.6773576088272 M453.0726827705573,398.1988495564116 L452.1223278851121,398.0362785380095 M452.1223278851121,398.0362785380095 L452.1790068093263,397.53597566894575 M453.0726827705573,398.1988495564116 L453.1296354988083,397.69840189897934 M452.1223278851121,398.0362785380095 L451.75865269763744,398.317949513091 M451.75865269763744,398.317949513091 L451.81527186574965,397.8173958038876 M452.7095133676992,398.48073887975374 L453.0726827705573,398.1988495564116 M452.7095133676992,398.48073887975374 L452.76640663104,397.98004024396863 M451.75865269763744,398.317949513091 L452.7095133676992,398.48073887975374 M463.73188321532405,394.49376696297907 L464.6787814792473,394.6536869711299 M464.6787814792473,394.6536869711299 L464.73832619311554,394.1564040453866 M463.73188321532405,394.49376696297907 L463.7911563119195,393.99662715954986 M464.6787814792473,394.6536869711299 L465.03104920426915,394.3767608511072 M465.03104920426915,394.3767608511072 L465.09064827743623,393.8797257835572 M465.03104920426915,394.3767608511072 L464.08460660082847,394.21704050951763 M464.08460660082847,394.21704050951763 L464.14393433069085,393.7201484398081 M464.08460660082847,394.21704050951763 L463.73188321532405,394.49376696297907 M457.58563141905336,399.3155686912777 L458.54087873280264,399.47910907122395 M458.54087873280264,399.47910907122395 L458.5994571066393,398.9775223266472 M457.58563141905336,399.3155686912777 L457.6439332627326,398.81412734174035 M458.54087873280264,399.47910907122395 L458.9010814781833,399.19591945766746 M458.9010814781833,399.19591945766746 L458.95971756459437,398.69458450266507 M457.94634517895236,399.03259892290515 L457.58563141905336,399.3155686912777 M457.94634517895236,399.03259892290515 L458.00470503073393,398.5314092241848 M458.9010814781833,399.19591945766746 L457.94634517895236,399.03259892290515" stroke="black"  stroke-width="4"  fill="red"/>
<path d="M415.5138370723081,394.89749574192854 L417.5436990912225,397.13128169483593 M415.5138370723081,394.89749574192854 L441.6767538465134,394.8975022684497 M439.1972894401148,397.13128169483593 L441.6767538465134,394.8975022684497 M417.5436990912225,397.13128169483593 L439.1972894401148,397.13128169483593 M416.14034761244386,393.7419462822302 L417.5436990912225,397.13128169483593 M414.1247612855029,391.5217191692218 L416.14034761244386,393.7419462822302 M414.1247612855029,391.5217191692218 L415.5138370723081,394.89749574192854 M439.1972894401148,397.13128169483593 L437.62398051576304,393.7419398319893 M416.14034761244386,393.7419462822302 L437.62398051576304,393.7419398319893 M427.2721493509914,395.4299347855804 L427.2941914917677,395.45698131566814 M427.2941914917677,395.45698131566814 L427.3354318217704,395.48244457053374 M427.3354318217704,395.48244457053374 L427.3933515872559,395.5048607114968 M427.3933515872559,395.5048607114968 L427.46465520250604,395.52293449112796 M427.46465520250604,395.52293449112796 L427.54521196470785,395.53559159342825 M427.54521196470785,395.53559159342825 L427.63032124423785,395.54212206485624 M427.63032124423785,395.54212206485624 L427.71499078871034,395.54212206485624 M427.71499078871034,395.54212206485624 L427.7943877687918,395.5355980977832 M427.7943877687918,395.5355980977832 L427.8638053793934,395.52293449112796 M427.8638053793934,395.52293449112796 L427.91924145076564,395.5048737183488 M427.91924145076564,395.5048737183488 L427.9574916370332,395.48245107328205 M427.9574916370332,395.48245107328205 L427.97632276256684,395.4569748136898 M427.97632276256684,395.4569748136898 L427.9746344119519,395.4299347855804 M427.9746344119519,395.4299347855804 L427.9525161788629,395.4029046567318 M427.9525161788629,395.4029046567318 L427.9113047269092,395.37744431628494 M427.9113047269092,395.37744431628494 L427.8533520695788,395.35503495085095 M427.8533520695788,395.35503495085095 L427.7820599560347,395.3369752735738 M427.7820599560347,395.3369752735738 L427.70153341334833,395.3243298532627 M427.70153341334833,395.3243298532627 L427.616489191675,395.31781248869123 M427.616489191675,395.31781248869123 L427.53180601797294,395.31781898646375 M427.53180601797294,395.31781898646375 L427.452503013601,395.3243298532627 M427.452503013601,395.3243298532627 L427.38310534596417,395.3369817719253 M427.38310534596417,395.3369817719253 L427.32763369385543,395.3550414497484 M427.32763369385543,395.3550414497484 L427.28939673872424,395.3774378167104 M427.28939673872424,395.3774378167104 L427.27050536359695,395.40289815638766 M427.27050536359695,395.40289815638766 L427.2721493509914,395.4299347855804 M441.6767538465134,394.8975022684497 L440.0821133133144,391.5217255935869 M437.62398051576304,393.7419398319893 L440.0821133133144,391.5217255935869 M440.0821133133144,391.5217255935869 L414.1247612855029,391.5217191692218 M419.2629957023147,394.3384183613183 L419.1284717629371,394.0186995134136 M420.2602632849473,394.3384183613183 L419.2629957023147,394.3384183613183 M419.1284717629371,394.0186995134136 L420.1249962679756,394.0186995134136 M420.1249962679756,394.0186995134136 L420.2602632849473,394.3384183613183 M436.4361810208825,394.3384248708654 L436.288861106102,394.0187060132635 M437.4334486186443,394.3384248708654 L436.4361810208825,394.3384248708654 M436.288861106102,394.0187060132635 L437.28538562624715,394.0187060132635 M437.28538562624715,394.0187060132635 L437.4334486186443,394.3384248708654 M419.30200883529767,392.07347591266654 L419.4360508302259,392.39029928283287 M418.310005340149,392.07347591266654 L419.30200883529767,392.07347591266654 M418.44331098703515,392.39029928283287 L418.310005340149,392.07347591266654 M419.4360508302259,392.39029928283287 L418.44331098703515,392.39029928283287 M427.4947555402864,393.2029503470303 L427.4930956048388,393.1760219305389 M427.4930956048388,393.1760219305389 L427.5119960902373,393.1506634981996 M427.5119960902373,393.1506634981996 L427.55026657644316,393.1283567776744 M427.55026657644316,393.1283567776744 L427.6057943459873,393.110369389723 M427.6057943459873,393.110369389723 L427.6752673669557,393.0977681156382 M427.6752673669557,393.0977681156382 L427.7546605969902,393.09128331163856 M427.7546605969902,393.09128331163856 L427.8394437196489,393.09127683987646 M427.8394437196489,393.09127683987646 L427.9245917040305,393.0977681156382 M427.9245917040305,393.0977681156382 L428.0052198634859,393.11036291738367 M428.0052198634859,393.11036291738367 L428.07660551279434,393.1283503047907 M428.07660551279434,393.1283503047907 L428.1346382274005,393.1506699717585 M428.1346382274005,393.1506699717585 L428.1759115665618,393.1760284048651 M428.1759115665618,393.1760284048651 L428.198069967238,393.2029503470303 M428.198069967238,393.2029503470303 L428.1997743724862,393.2298821528315 M428.1997743724862,393.2298821528315 L428.1809342600327,393.25525645244375 M428.1809342600327,393.25525645244375 L428.1426505661108,393.2775893615099 M428.1426505661108,393.2775893615099 L428.08715842091135,393.29557785661177 M428.08715842091135,393.29557785661177 L428.0176654159343,393.3081907856532 M428.0176654159343,393.3081907856532 L427.93817806326194,393.3146886452547 M427.93817806326194,393.3146886452547 L427.85340853036314,393.3146886452547 M427.85340853036314,393.3146886452547 L427.7681953548753,393.30818430732745 M427.7681953548753,393.30818430732745 L427.6875368984364,393.29557785661177 M427.6875368984364,393.29557785661177 L427.6161397129191,393.2775764067108 M427.6161397129191,393.2775764067108 L427.5581399370791,393.25524997572006 M427.5581399370791,393.25524997572006 L427.51683771841977,393.2298886287876 M427.51683771841977,393.2298886287876 L427.4947555402864,393.2029503470303 M436.3845221475094,392.07347591266654 L436.53124421392204,392.39029928283287 M435.39251865236065,392.07347591266654 L436.3845221475094,392.07347591266654 M436.53124421392204,392.39029928283287 L435.5385043707313,392.39029928283287 M435.5385043707313,392.39029928283287 L435.39251865236065,392.07347591266654 M427.2721493509914,395.4299347855804 L427.4947555402864,393.2029503470303 M419.0809583363374,394.5158590903218 L419.2154114000472,394.83586429060875 M419.2154114000472,394.83586429060875 L419.2629957023147,394.3384183613183 M419.0809583363374,394.5158590903218 L419.1284717629371,394.0186995134136 M419.2154114000472,394.83586429060875 L420.21241613854204,394.83586429060875 M420.21241613854204,394.83586429060875 L420.2602632849473,394.3384183613183 M420.0772203887383,394.5158590903218 L419.0809583363374,394.5158590903218 M420.0772203887383,394.5158590903218 L420.1249962679756,394.0186995134136 M420.21241613854204,394.83586429060875 L420.0772203887383,394.5158590903218 M436.23682818177724,394.51586559599457 L436.3840704791645,394.8358708059848 M436.3840704791645,394.8358708059848 L436.4361810208825,394.3384248708654 M436.23682818177724,394.51586559599457 L436.288861106102,394.0187060132635 M436.3840704791645,394.8358708059848 L437.38107523278074,394.8358708059848 M437.38107523278074,394.8358708059848 L437.4334486186443,394.3384248708654 M437.23309024927687,394.51586559599457 L436.23682818177724,394.51586559599457 M437.23309024927687,394.51586559599457 L437.28538562624715,394.0187060132635 M437.38107523278074,394.8358708059848 L437.23309024927687,394.51586559599457 M419.3886371067815,392.8859984521251 L419.2546654132144,392.5688905645258 M419.2546654132144,392.5688905645258 L419.30200883529767,392.07347591266654 M419.3886371067815,392.8859984521251 L419.4360508302259,392.39029928283287 M419.2546654132144,392.5688905645258 L418.2629219950377,392.5688905645258 M418.2629219950377,392.5688905645258 L418.310005340149,392.07347591266654 M418.2629219950377,392.5688905645258 L418.3961577267571,392.8859984521251 M418.3961577267571,392.8859984521251 L418.44331098703515,392.39029928283287 M418.3961577267571,392.8859984521251 L419.3886371067815,392.8859984521251 M436.4793452587936,392.8859984521251 L436.332700144093,392.5688905645258 M436.332700144093,392.5688905645258 L436.3845221475094,392.07347591266654 M436.4793452587936,392.8859984521251 L436.53124421392204,392.39029928283287 M436.332700144093,392.5688905645258 L435.34095672591616,392.5688905645258 M435.34095672591616,392.5688905645258 L435.39251865236065,392.07347591266654 M435.4868658787692,392.8859984521252 L436.4793452587936,392.8859984521251 M435.4868658787692,392.8859984521252 L435.5385043707313,392.39029928283287 M435.34095672591616,392.5688905645258 L435.4868658787692,392.8859984521252" stroke="black"  stroke-width="4"  fill="red"/>
<path d="M314.9240977540444,356.3861774718074 L315.00588965264,354.31962728872776 M249.20209492894497,376.7683348571128 L249.2139311517388,374.6169930272647 M314.9240977540444,356.3861774718074 L249.20209492894497,376.7683348571128 M315.00588965264,354.31962728872776 L249.2139311517388,374.6169930272647 M248.98367397505956,379.61745566031004 L248.995343856621,377.45444211627233 M249.20209492894497,376.7683348571128 L248.84328051436125,376.888897880623 M248.84328051436125,376.888897880623 L248.516668656607,377.01798375629 M248.516668656607,377.01798375629 L248.2243409948171,377.15479782430157 M248.2243409948171,377.15479782430157 L247.9681159966952,377.29849649776656 M247.9681159966952,377.29849649776656 L247.74968371555684,377.44818083381494 M247.74968371555684,377.44818083381494 L247.5704317033041,377.6029378779816 M247.5704317033041,377.6029378779816 L247.431520078427,377.7617805919166 M247.431520078427,377.7617805919166 L247.33388216751672,377.92373112263556 M247.33388216751672,377.92373112263556 L247.27816409300038,378.08777876159144 M247.27816409300038,378.08777876159144 L247.2647813510153,378.2528737049084 M247.2647813510153,378.2528737049084 L247.29386069776547,378.41800479100095 M247.29386069776547,378.41800479100095 L247.36525631794234,378.58212161273656 M247.36525631794234,378.58212161273656 L247.47858781395394,378.7441704357804 M247.47858781395394,378.7441704357804 L247.63318154609112,378.903148374911 M247.63318154609112,378.903148374911 L247.82812604634864,379.05803755293437 M247.82812604634864,379.05803755293437 L248.06219364231106,379.2078413482207 M248.06219364231106,379.2078413482207 L248.3339762906353,379.3516268717543 M248.3339762906353,379.3516268717543 L248.6417662660525,379.48845311328444 M248.6417662660525,379.48845311328444 L248.98367397505956,379.61745566031004 M249.2139311517388,374.6169930272647 L248.8547148653364,374.7370612529544 M248.8547148653364,374.7370612529544 L248.52773751649045,374.86561744058514 M248.52773751649045,374.86561744058514 L248.23508308800672,375.001870208299 M248.23508308800672,375.001870208299 L247.97857210252516,375.144979446505 M247.97857210252516,375.144979446505 L247.7598965310956,375.29404991482534 M247.7598965310956,375.29404991482534 L247.5804455094817,375.4481724164403 M247.5804455094817,375.4481724164403 L247.44138048837686,375.60636397170026 M247.44138048837686,375.60636397170026 L247.34363587638262,375.76765074557426 M247.34363587638262,375.76765074557426 L247.28785855679655,375.93102617881755 M247.28785855679655,375.93102617881755 L247.27446452776655,376.0954447734776 M247.27446452776655,376.0954447734776 L247.3035807229009,376.25989951188427 M247.3035807229009,376.25989951188427 L247.37506119434573,376.4233442878651 M247.37506119434573,376.4233442878651 L247.4885251441359,376.58472967790806 M247.4885251441359,376.58472967790806 L247.64329819736417,376.7430568958213 M247.64329819736417,376.7430568958213 L247.83846787561686,376.8973122214268 M247.83846787561686,376.8973122214268 L248.07280513115109,377.0465030999397 M248.07280513115109,377.0465030999397 L248.34490033432058,377.18970044561576 M248.34490033432058,377.18970044561576 L248.65304382404975,377.3259670822917 M248.65304382404975,377.3259670822917 L248.995343856621,377.45444211627233 M249.27710270942282,379.71348332920275 L249.2891090545374,377.5500771709865 M248.98367397505956,379.61745566031004 L249.27710270942282,379.71348332920275 M248.995343856621,377.45444211627233 L249.2891090545374,377.5500771709865 M306.2550121873501,397.23259032958384 L306.3350779634801,394.9983998719845 M249.27710270942282,379.71348332920275 L306.2550121873501,397.23259032958384 M249.2891090545374,377.5500771709865 L306.3350779634801,394.9983998719845 M306.9494096516427,397.4218987427017 L307.03033417516485,395.18695256565326 M306.2550121873501,397.23259032958384 L306.9494096516427,397.4218987427017 M306.3350779634801,394.9983998719845 L307.03033417516485,395.18695256565326 M316.23119956331357,397.23259032958384 L316.3230928127114,394.9983998719845 M306.9494096516427,397.4218987427017 L307.4274464239508,397.52822132743677 M307.4274464239508,397.52822132743677 L307.92867445124375,397.6222816498089 M307.92867445124375,397.6222816498089 L308.44982235116464,397.7034789292905 M308.44982235116464,397.7034789292905 L308.98747498557714,397.771259733798 M308.98747498557714,397.771259733798 L309.53814292210666,397.82516441544175 M309.53814292210666,397.82516441544175 L310.09822975130373,397.8648669913046 M310.09822975130373,397.8648669913046 L310.66407851924316,397.89007688004097 M310.66407851924316,397.89007688004097 L311.23194784916654,397.9006311879193 M311.23194784916654,397.9006311879193 L311.798193593253,397.8964751622332 M311.798193593253,397.8964751622332 L312.3590393365815,397.8776162261469 M312.3590393365815,397.8776162261469 L312.91085470300095,397.8441962858226 M312.91085470300095,397.8441962858226 L313.45002408075794,397.7964258493355 M313.45002408075794,397.7964258493355 L313.9730148678262,397.7346166917172 M313.9730148678262,397.7346166917172 L314.4764434979335,397.65920124995023 M314.4764434979335,397.65920124995023 L314.95700327974185,397.570659954504 M314.95700327974185,397.570659954504 L315.411579738929,397.4695930476444 M315.411579738929,397.4695930476444 L315.83723996457104,397.35665439447064 M315.83723996457104,397.35665439447064 L316.23119956331357,397.23259032958384 M307.03033417516485,395.18695256565326 L307.50895801473035,395.29285079640306 M307.50895801473035,395.29285079640306 L308.0107985772443,395.3865357573711 M308.0107985772443,395.3865357573711 L308.5325804498635,395.46740904619264 M308.5325804498635,395.46740904619264 L309.070884291722,395.5349194216112 M309.070884291722,395.5349194216112 L309.6222163881068,395.5886090544855 M309.6222163881068,395.5886090544855 L310.18297593837946,395.62815324999633 M310.18297593837946,395.62815324999633 L310.74950152649683,395.6532625766565 M310.74950152649683,395.6532625766565 L311.3180472343059,395.66377478450386 M311.3180472343059,395.66377478450386 L311.8849645075206,395.6596353366971 M311.8849645075206,395.6596353366971 L312.4464723802146,395.64085162779253 M312.4464723802146,395.64085162779253 L312.9989361278646,395.6075650024113 M312.9989361278646,395.6075650024113 L313.5387358260349,395.5599851368016 M313.5387358260349,395.5599851368016 L314.0623346853481,395.49842257332597 M314.0623346853481,395.49842257332597 L314.566345161851,395.42330803769414 M314.566345161851,395.42330803769414 L315.0474566971618,395.3351200599647 M315.0474566971618,395.3351200599647 L315.5025512136913,395.23445650576303 M315.5025512136913,395.23445650576303 L315.92869243561506,395.1219686508246 M315.92869243561506,395.1219686508246 L316.3230928127114,394.9983998719845 M381.57553431805286,374.82805220730796 L381.73610404055705,372.68468434136025 M316.23119956331357,397.23259032958384 L381.57553431805286,374.82805220730796 M316.3230928127114,394.9983998719845 L381.73610404055705,372.68468434136025 M380.8902704996758,372.04419195128406 L381.048982621291,369.91230083627687 M381.57553431805286,374.82805220730796 L381.8939104823977,374.7086931730884 M381.8939104823977,374.7086931730884 L382.1771128444458,374.5810509036819 M382.1771128444458,374.5810509036819 L382.4233827937128,374.4459468389185 M382.4233827937128,374.4459468389185 L382.63126463016795,374.3042187931652 M382.63126463016795,374.3042187931652 L382.7994071835301,374.1568145971618 M382.7994071835301,374.1568145971618 L382.9268550835277,374.0046388195459 M382.9268550835277,374.0046388195459 L383.0127814725963,373.848669990518 M383.0127814725963,373.848669990518 L383.05673495791416,373.68990151104595 M383.05673495791416,373.68990151104595 L383.0585187122482,373.52932971687846 M383.0585187122482,373.52932971687846 L383.01806509529774,373.36798300388404 M383.01806509529774,373.36798300388404 L382.9357799317488,373.20686900765776 M382.9357799317488,373.20686900765776 L382.81216560341284,373.0469980311279 M382.81216560341284,373.0469980311279 L382.64808384898754,372.8893713858375 M382.64808384898754,372.8893713858375 L382.4446009361293,372.73498150344835 M382.4446009361293,372.73498150344835 L382.2030205424479,372.58480043675956 M382.2030205424479,372.58480043675956 L381.9249085087604,372.4397451572913 M381.9249085087604,372.4397451572913 L381.6120870186131,372.3007187067952 M381.6120870186131,372.3007187067952 L381.2664383645234,372.1685988547766 M381.2664383645234,372.1685988547766 L380.8902704996758,372.04419195128406 M381.73610404055705,372.68468434136025 L382.0547911133664,372.5658165078805 M382.0547911133664,372.5658165078805 L382.3382613977062,372.4386996135522 M382.3382613977062,372.4386996135522 L382.5847546502305,372.30415173360433 M382.5847546502305,372.30415173360433 L382.79281389402183,372.16300724893273 M382.79281389402183,372.16300724893273 L382.9610868512516,372.016210101873 M382.9610868512516,372.016210101873 L383.08861747876404,371.8646611484139 M383.08861747876404,371.8646611484139 L383.17457842577255,371.7093348987751 M383.17457842577255,371.7093348987751 L383.2185182381198,371.5512206696028 M383.2185182381198,371.5512206696028 L383.22024031705087,371.39131069694236 M383.22024031705087,371.39131069694236 L383.1796774099894,371.2306291413562 M383.1796774099894,371.2306291413562 L383.0972362516304,371.07017948514283 M383.0972362516304,371.07017948514283 L382.9734202413507,370.91096786338534 M382.9734202413507,370.91096786338534 L382.8090925309914,370.75399145336286 M382.8090925309914,370.75399145336286 L382.60532102198215,370.60023858572805 M382.60532102198215,370.60023858572805 L382.36341127713115,370.45067729317174 M382.36341127713115,370.45067729317174 L382.08493128654163,370.30622075154304 M382.08493128654163,370.30622075154304 L381.7717056556909,370.16776826191193 M381.7717056556909,370.16776826191193 L381.42561914703674,370.0361939552606 M381.42561914703674,370.0361939552606 L381.048982621291,369.91230083627687 M380.5723023795307,371.9516848334068 L380.7306234814853,369.8201758157371 M380.8902704996758,372.04419195128406 L380.5723023795307,371.9516848334068 M381.048982621291,369.91230083627687 L380.7306234814853,369.8201758157371 M323.95697763165316,356.3861774718074 L324.0484649489005,354.31962728872776 M380.5723023795307,371.9516848334068 L323.95697763165316,356.3861774718074 M380.7306234814853,369.8201758157371 L324.0484649489005,354.31962728872776 M323.3217459357071,356.23110643416163 L323.4125153888881,354.1652100639685 M323.95697763165316,356.3861774718074 L323.3217459357071,356.23110643416163 M324.0484649489005,354.31962728872776 L323.4125153888881,354.1652100639685 M323.3217459357071,356.23110643416163 L322.88584895833463,356.14412087693654 M322.88584895833463,356.14412087693654 L322.4297534128202,356.0672400758083 M322.4297534128202,356.0672400758083 L321.95642008282135,356.00092952718205 M321.95642008282135,356.00092952718205 L321.46884737857107,355.94560748577027 M321.46884737857107,355.94560748577027 L320.97010669969404,355.9016345559437 M320.97010669969404,355.9016345559437 L320.4634618822382,355.86926573873757 M320.4634618822382,355.86926573873757 L319.95207093868396,355.8487096611625 M319.95207093868396,355.8487096611625 L319.43918365530016,355.84010194387156 M319.43918365530016,355.84010194387156 L318.9280501729924,355.84349996378097 M318.9280501729924,355.84349996378097 L318.4219375801563,355.85886682674015 M318.4219375801563,355.85886682674015 L317.9240862607558,355.88611958430295 M317.9240862607558,355.88611958430295 L317.43760967244657,355.92508090630076 M317.43760967244657,355.92508090630076 L316.96561240120616,355.9755110860071 M316.96561240120616,355.9755110860071 L316.51111367811745,356.03708637299934 M316.51111367811745,356.03708637299934 L316.0770182210694,356.10943087632666 M316.0770182210694,356.10943087632666 L315.6661280521099,356.1920786831292 M315.6661280521099,356.1920786831292 L315.2809701845885,356.28452715581136 M315.2809701845885,356.28452715581136 L314.9240977540444,356.3861774718074 M323.4125153888881,354.1652100639685 L322.97613061633666,354.07859131412 M322.97613061633666,354.07859131412 L322.5195281458149,354.0020347442827 M322.5195281458149,354.0020347442827 L322.04567201704384,353.93600387470843 M322.04567201704384,353.93600387470843 L321.5575639182207,353.88091518433515 M321.5575639182207,353.88091518433515 L321.05827858537015,353.8371277463784 M321.05827858537015,353.8371277463784 L320.55108336779216,353.8048954779396 M320.55108336779216,353.8048954779396 L320.03913966315724,353.7844261197296 M320.03913966315724,353.7844261197296 L319.5257007220979,353.7758547162673 M319.5257007220979,353.7758547162673 L319.0140201314482,353.7792384007235 M319.0140201314482,353.7792384007235 L318.5073684229902,353.79454043526056 M318.5073684229902,353.79454043526056 L318.0089893869611,353.8216782243681 M318.0089893869611,353.8216782243681 L317.5219997336387,353.860475191222 M317.5219997336387,353.860475191222 L317.0495072829873,353.91069264766685 M317.0495072829873,353.91069264766685 L316.59453439610303,353.9720082182447 M316.59453439610303,353.9720082182447 L316.15998879369835,354.0440476085023 M316.15998879369835,354.0440476085023 L315.748675379031,354.12634688303865 M315.748675379031,354.12634688303865 L315.36312375231563,354.21840553751383 M315.36312375231563,354.21840553751383 L315.00588965264,354.31962728872776" stroke="black"  stroke-width="4"  fill="red"/>
<path d="M302.7533400309106,349.3167183985942 L216.1948295971926,356.0637045695519 M218.54795483959936,358.8020645665099 L216.1948295971926,356.0637045695519 M305.6615197022155,351.96102464584845 L218.54795483959936,358.8020645665099 M305.6615197022155,351.96102464584845 L302.7533400309106,349.3167183985942 M214.24181721375402,358.29257849517177 L304.59375514112475,351.2124909044891 M216.1948295971926,356.0637045695519 L214.24181721375402,358.29257849517177 M302.7533400309106,349.3167183985942 L304.59375514112475,351.2124909044891 M218.54795483959936,358.8020645665099 L216.57961232834407,361.04465059384563 M214.24181721375402,358.29257849517177 L216.57961232834407,361.04465059384563 M216.57961232834407,361.04465059384563 L307.51033646586274,353.86597727394894 M305.6615197022155,351.96102464584845 L307.51033646586274,353.86597727394894 M304.59375514112475,351.2124909044891 L307.51033646586274,353.86597727394894" stroke="black"  stroke-width="4"  fill="red"/>
<path d="M415.6335411412381,435.3504599907259 L426.33813336376136,434.3052094772776 M375.12129848158224,399.7707419430539 L385.10064757895236,398.87757425956977 M415.6335411412381,435.3504599907259 L375.12129848158224,399.7707419430539 M426.33813336376136,434.3052094772776 L385.10064757895236,398.87757425956977 M425.6207330987288,431.1074707000419 L414.9196088460608,432.1450981686751 M425.6207330987288,431.1074707000419 L426.33813336376136,434.3052094772776 M414.9196088460608,432.1450981686751 L415.6335411412381,435.3504599907259 M386.0970301936526,397.3392646979163 L376.0915356689752,398.2317791361237 M386.0970301936526,397.3392646979163 L385.10064757895236,398.87757425956977 M376.0915356689752,398.2317791361237 L375.12129848158224,399.7707419430539 M376.0915356689752,398.2317791361237 L414.9196088460608,432.1450981686751 M386.0970301936526,397.3392646979163 L425.6207330987288,431.1074707000419" stroke="black"  stroke-width="4"  fill="red"/>
<path d="M253.05714914263228,370.5379924492958 L255.5062271158156,367.6527867583838 M180.80186052719517,364.68775499389596 L183.7228413655036,361.88495486144706 M253.05714914263228,370.5379924492958 L180.80186052719517,364.68775499389596 M255.5062271158156,367.6527867583838 L183.7228413655036,361.88495486144706 M253.50128757401507,365.37736834904223 L251.03613560095386,368.24827009206234 M253.50128757401507,365.37736834904223 L255.5062271158156,367.6527867583838 M251.03613560095386,368.24827009206234 L253.05714914263228,370.5379924492958 M185.6303773192805,359.9525634950338 L182.71854017727094,362.7458809903892 M185.6303773192805,359.9525634950338 L183.7228413655036,361.88495486144706 M182.71854017727094,362.7458809903892 L180.80186052719517,364.68775499389596 M182.71854017727094,362.7458809903892 L251.03613560095386,368.24827009206234 M185.6303773192805,359.9525634950338 L253.50128757401507,365.37736834904223" stroke="black"  stroke-width="4"  fill="red"/>
<path d="M290.43187430276873,349.1462093912924 L287.6656636783709,346.55656548048876 M220.94010296929565,354.54697600758584 L218.61059906369587,351.8842188016331 M290.43187430276873,349.1462093912924 L220.94010296929565,354.54697600758584 M287.6656636783709,346.55656548048876 L218.61059906369587,351.8842188016331 M285.82329488531855,344.67704237108154 L288.5809573239753,347.2576312085239 M285.82329488531855,344.67704237108154 L287.6656636783709,346.55656548048876 M288.5809573239753,347.2576312085239 L290.43187430276873,349.1462093912924 M220.5346844452373,349.68740137914165 L222.8790617855749,352.3368320267408 M220.5346844452373,349.68740137914165 L218.61059906369587,351.8842188016331 M222.8790617855749,352.3368320267408 L220.94010296929565,354.54697600758584 M222.8790617855749,352.3368320267408 L288.5809573239753,347.2576312085239 M220.5346844452373,349.68740137914165 L285.82329488531855,344.67704237108154" stroke="black"  stroke-width="4"  fill="red"/>
<path d="M433.03568888978873,436.3563299388398 L433.91522551623234,438.4886965208738 M433.91522551623234,438.4886965208738 L433.9950114961516,437.7352714593067 M433.9950114961516,437.7352714593067 L434.1079455028138,438.00855374026287 M434.1079455028138,438.00855374026287 L434.0280672240924,438.7623026767625 M434.0280672240924,438.7623026767625 L434.91663100241544,440.9165550087606 M434.91663100241544,440.9165550087606 L435.17278681121184,438.5131724984856 M433.2869535303987,433.97012179451224 L435.17278681121184,438.5131724984856 M433.03568888978873,436.3563299388398 L433.2869535303987,433.97012179451224 M439.3247831886059,438.4886965208738 L438.4208715805869,436.3563299388398 M433.91522551623234,438.4886965208738 L439.3247831886059,438.4886965208738 M438.4208715805869,436.3563299388398 L433.03568888978873,436.3563299388398 M433.9950114961516,437.7352714593067 L440.686038945767,437.7352714593067 M440.6035191076252,438.4886965208738 L440.686038945767,437.7352714593067 M440.09757070317653,438.488692586992 L440.6035191076252,438.4886965208738 M440.09757070317653,438.488692586992 L440.1387188083112,438.11205703394074 M440.1387188083112,438.11205703394074 L439.36577338685424,438.11206096549483 M439.36577338685424,438.11206096549483 L439.3247831886059,438.4886965208738 M434.1079455028138,438.00855374026287 L440.80285581560975,438.0085576740339 M440.686038945767,437.7352714593067 L440.80285581560975,438.0085576740339 M439.440752475497,438.7623026767625 L434.0280672240924,438.7623026767625 M439.440752475497,438.7623026767625 L439.4817900876427,438.3855052615389 M439.4817900876427,438.3855052615389 L440.25519528688585,438.38550526153887 M440.25519528688585,438.38550526153887 L440.2139995822331,438.7623026767625 M440.7202405099771,438.76230661519446 L440.2139995822331,438.7623026767625 M440.80285581560975,438.0085576740339 L440.7202405099771,438.76230661519446 M439.1901769914533,436.3563260403297 L440.09757070317653,438.488692586992 M444.5753596376877,436.3563260403297 L439.1901769914533,436.3563260403297 M524.1569708167697,438.6254659675841 L444.5753596376877,436.3563260403297 M525.5384860343595,440.9165550087606 L524.1569708167697,438.6254659675841 M434.91663100241544,440.9165550087606 L525.5384860343595,440.9165550087606 M439.98280444520765,440.04104244742535 L439.440752475497,438.7623026767625 M439.98280444520765,440.04104244742535 L440.758139742518,440.04104244742535 M440.2139995822331,438.7623026767625 L440.758139742518,440.04104244742535 M440.7202405099771,438.76230661519446 L440.6035191076252,438.4886965208738 M525.5384860343595,440.9165550087606 L525.9129593095502,438.5131724984856 M435.17278681121184,438.5131724984856 L525.9129593095502,438.5131724984856 M439.1901769914533,436.3563260403297 L439.2309550728934,435.9809541659231 M439.2309550728934,435.9809541659231 L438.46149317510435,435.9809580621194 M438.46149317510435,435.9809580621194 L438.4208715805869,436.3563299388398 M444.8415460415416,433.9701179107328 L433.2869535303987,433.97012179451224 M444.5753596376877,436.3563260403297 L444.8415460415416,433.9701179107328 M438.46149317510435,435.9809580621194 L439.36577338685424,438.11206096549483 M439.2309550728934,435.9809541659231 L440.1387188083112,438.11205703394074 M440.0240640274651,439.6634894123228 L439.98280444520765,440.04104244742535 M439.4817900876427,438.3855052615389 L440.0240640274651,439.6634894123228 M440.79955827239576,439.6634894123228 L440.0240640274651,439.6634894123228 M440.25519528688585,438.38550526153887 L440.79955827239576,439.6634894123228 M440.758139742518,440.04104244742535 L440.79955827239576,439.6634894123228 M524.1569708167697,438.6254659675841 L524.5278430306004,436.23069776321876 M524.5278430306004,436.23069776321876 L444.8415460415416,433.9701179107328 M525.9129593095502,438.5131724984856 L524.5278430306004,436.23069776321876" stroke="black"  stroke-width="4"  fill="red"/>
<path d="M601.2755079739924,468.10058507094834 L594.8485314259594,466.89425100266857 M595.0028406671246,466.1078909406291 L594.8485314259594,466.89425100266857 M594.1841739413732,465.95449329979516 L595.0028406671246,466.1078909406291 M594.0302664047925,466.74067904510434 L594.1841739413732,465.95449329979516 M594.0302664047925,466.74067904510434 L587.6379911312509,465.54083340338155 M587.6379911312509,465.54083340338155 L588.117157995895,463.0466781088691 M601.7759542490182,465.59718403881044 L588.117157995895,463.0466781088691 M601.2755079739924,468.10058507094834 L601.7759542490182,465.59718403881044 M601.2755079739924,468.10058507094834 L602.794426463121,466.2358824171421 M596.3875880843409,465.03846574199997 L602.794426463121,466.2358824171421 M594.8485314259594,466.89425100266857 L596.3875880843409,465.03846574199997 M596.3875880843409,465.03846574199997 L596.4647726961007,464.6464249286811 M596.4647726961007,464.6464249286811 L596.6837054751098,464.38258821496936 M596.6837054751098,464.38258821496936 L596.6065144214206,464.7744788467963 M596.6065144214206,464.7744788467963 L596.7497367876634,464.60179238956835 M596.9041605698782,463.81803868597643 L596.7497367876634,464.60179238956835 M595.0028406671246,466.1078909406291 L596.9041605698782,463.81803868597643 M594.1841739413732,465.95449329979516 L596.088682839896,463.6660205783955 M596.088682839896,463.6660205783955 L596.9041605698782,463.81803868597643 M595.9346575936021,464.4496009303855 L596.088682839896,463.6660205783955 M595.9346575936021,464.4496009303855 L595.7912045390281,464.6221843133525 M595.7912045390281,464.6221843133525 L595.868196255769,464.2303803488677 M595.868196255769,464.2303803488677 L595.6488649069678,464.49407366301443 M595.6488649069678,464.49407366301443 L595.5718798187684,464.8860277620815 M595.5718798187684,464.8860277620815 L594.0302664047925,466.74067904510434 M591.7786843752313,464.17708584494403 L595.5718798187684,464.8860277620815 M591.7786843752313,464.17708584494403 L591.9996982964376,463.9139904131469 M595.7912045390281,464.6221843133525 L591.9996982964376,463.9139904131469 M595.9346575936021,464.4496009303855 L596.7497367876634,464.60179238956835 M603.0104848528329,465.9706293953555 L596.6065144214206,464.7744788467963 M603.0104848528329,465.9706293953555 L604.5165792324339,464.1216589641671 M618.7054989676154,437.590783677835 L604.5165792324339,464.1216589641671 M612.2413340366253,436.458448205481 L618.7054989676154,437.590783677835 M587.6379911312509,465.54083340338155 L612.2413340366253,436.458448205481 M612.2413340366253,436.458448205481 L612.7244314886645,434.0718542263881 M588.117157995895,463.0466781088691 L612.7244314886645,434.0718542263881 M603.0892453465392,465.57805875760914 L603.0104848528329,465.9706293953555 M602.8731819514295,465.8431611515923 L603.0892453465392,465.57805875760914 M602.794426463121,466.2358824171421 L602.8731819514295,465.8431611515923 M605.0174984934082,461.63264512481834 L601.7759542490182,465.59718403881044 M604.5165792324339,464.1216589641671 L605.0174984934082,461.63264512481834 M602.8731819514295,465.8431611515923 L596.4647726961007,464.6464249286811 M603.0892453465392,465.57805875760914 L596.6837054751098,464.38258821496936 M592.0757644336779,463.5225897286189 L591.9996982964376,463.9139904131469 M595.868196255769,464.2303803488677 L592.0757644336779,463.5225897286189 M591.8547430409925,463.7855352905814 L592.0757644336779,463.5225897286189 M595.6488649069678,464.49407366301443 L591.8547430409925,463.7855352905814 M591.7786843752313,464.17708584494403 L591.8547430409925,463.7855352905814 M618.7054989676154,437.590783677835 L619.1981394728049,435.19991520323066 M619.1981394728049,435.19991520323066 L605.0174984934082,461.63264512481834 M612.7244314886645,434.0718542263881 L619.1981394728049,435.19991520323066" stroke="black"  stroke-width="4"  fill="red"/>
<path d="M309.08109034867095,403.2363934063643 L312.1487921231881,404.83114031554277 M312.1487921231881,404.83114031554277 L312.17667030624216,404.11854182991067 M312.17667030624216,404.11854182991067 L312.5700655412219,404.322714457374 M312.5700655412219,404.322714457374 L312.5420250201519,405.03556681160984 M312.5420250201519,405.03556681160984 L315.635008496563,406.6434734517259 M315.635008496563,406.6434734517259 L315.7281838568763,404.3719519666997 M309.16566737662083,400.9783311853512 L315.7281838568763,404.3719519666997 M309.08109034867095,403.2363934063643 L309.16566737662083,400.9783311853512 M316.3545686432515,404.0069112075698 L313.27736852020547,402.4181283036406 M312.1487921231881,404.83114031554277 L316.3545686432515,404.0069112075698 M313.27736852020547,402.4181283036406 L309.08109034867095,403.2363934063643 M312.17667030624216,404.11854182991067 L317.376226973983,403.10119521168616 M317.34644459549156,403.8125276507318 L317.376226973983,403.10119521168616 M316.954101841971,403.88942223835824 L317.34644459549156,403.8125276507318 M316.954101841971,403.88942223835824 L316.9689185155854,403.5337755705426 M316.9689185155854,403.5337755705426 L316.36927570874536,403.65119151950626 M316.36927570874536,403.65119151950626 L316.3545686432515,404.0069112075698 M312.5700655412219,404.322714457374 L317.77112320857304,403.30442212475987 M317.376226973983,403.10119521168616 L317.77112320857304,403.30442212475987 M316.7490160965965,404.21057163019157 L312.5420250201519,405.03556681160984 M316.7490160965965,404.21057163019157 L316.76380475015947,403.85472539391844 M316.76380475015947,403.85472539391844 L317.36363957071364,403.73719364858584 M317.36363957071364,403.73719364858584 L317.34874124387744,404.0929668132753 M317.74117741631176,404.01600761471053 L317.34874124387744,404.0929668132753 M317.77112320857304,403.30442212475987 L317.74117741631176,404.01600761471053 M313.8755717260242,402.30148185094595 L316.954101841971,403.88942223835824 M318.0539711428926,401.48670306295196 L313.8755717260242,402.30148185094595 M380.45075429095766,391.58208567279905 L318.0539711428926,401.48670306295196 M383.89697281487565,393.1897570403926 L380.45075429095766,391.58208567279905 M315.635008496563,406.6434734517259 L383.89697281487565,393.1897570403926 M318.59130491499786,405.161760882038 L316.7490160965965,404.21057163019157 M318.59130491499786,405.161760882038 L319.1918151979607,405.04365269654505 M317.34874124387744,404.0929668132753 L319.1918151979607,405.04365269654505 M317.74117741631176,404.01600761471053 L317.34644459549156,403.8125276507318 M383.89697281487565,393.1897570403926 L384.0674759169191,390.9717523487928 M315.7281838568763,404.3719519666997 L384.0674759169191,390.9717523487928 M313.8755717260242,402.30148185094595 L313.8897538114521,401.94682326818537 M313.8897538114521,401.94682326818537 L313.2914414763636,402.0633970643665 M313.2914414763636,402.0633970643665 L313.27736852020547,402.4181283036406 M318.14895276277593,399.23557745063596 L309.16566737662083,400.9783311853512 M318.0539711428926,401.48670306295196 L318.14895276277593,399.23557745063596 M313.2914414763636,402.0633970643665 L316.36927570874536,403.65119151950626 M313.8897538114521,401.94682326818537 L316.9689185155854,403.5337755705426 M318.60647554839375,404.8053240805482 L318.59130491499786,405.161760882038 M316.76380475015947,403.85472539391844 L318.60647554839375,404.8053240805482 M319.2070957890103,404.68728918246984 L318.60647554839375,404.8053240805482 M317.36363957071364,403.73719364858584 L319.2070957890103,404.68728918246984 M319.1918151979607,405.04365269654505 L319.2070957890103,404.68728918246984 M380.45075429095766,391.58208567279905 L380.616583871789,389.3705422372276 M380.616583871789,389.3705422372276 L318.14895276277593,399.23557745063596 M384.0674759169191,390.9717523487928 L380.616583871789,389.3705422372276" stroke="black"  stroke-width="4"  fill="red"/>
<path d="M498.49379585136273,413.1401117039245 L502.33644118168513,414.807942756883 M502.43880046290667,414.08303860850856 L502.33644118168513,414.807942756883 M502.93166189631927,414.29657958692735 L502.43880046290667,414.08303860850856 M502.8290625442137,415.0217455660386 L502.93166189631927,414.29657958692735 M502.8290625442137,415.0217455660386 L506.7041232012268,416.70364586845443 M506.7041232012268,416.70364586845443 L507.0361737752577,414.39275325298524 M498.8131293579995,410.84310191628276 L507.0361737752577,414.39275325298524 M498.49379585136273,413.1401117039245 L498.8131293579995,410.84310191628276 M498.49379585136273,413.1401117039245 L494.5495989242121,413.99904607024143 M498.3849127931036,415.6732885784392 L494.5495989242121,413.99904607024143 M502.33644118168513,414.807942756883 L498.3849127931036,415.6732885784392 M498.3849127931036,415.6732885784392 L498.435412515396,415.3103774735812 M498.435412515396,415.3103774735812 L497.8695870947671,415.4341925534493 M497.8695870947671,415.4341925534493 L497.81918353369394,415.7971793970793 M497.81918353369394,415.7971793970793 L497.4486124020541,415.878330854757 M497.54931307418883,415.15211666094 L497.4486124020541,415.878330854757 M502.43880046290667,414.08303860850856 L497.54931307418883,415.15211666094 M502.93166189631927,414.29657958692735 L498.04101720284075,415.36667636533343 M498.04101720284075,415.36667636533343 L497.54931307418883,415.15211666094 M497.9400771291147,416.0931532415834 L498.04101720284075,415.36667636533343 M497.9400771291147,416.0931532415834 L498.31073633917583,416.0119243996329 M498.31073633917583,416.0119243996329 L498.3612595986932,415.6488063062841 M498.3612595986932,415.6488063062841 L498.9272320467279,415.52487672787055 M498.9272320467279,415.52487672787055 L498.876612584098,415.88791903539754 M498.876612584098,415.88791903539754 L502.8290625442137,415.0217455660386 M501.17319723301534,416.89044692087714 L498.876612584098,415.88791903539754 M501.17319723301534,416.89044692087714 L500.60667366883604,417.01502264719966 M498.31073633917583,416.0119243996329 L500.60667366883604,417.01502264719966 M497.9400771291147,416.0931532415834 L497.4486124020541,415.878330854757 M493.9849095284154,414.1220139187514 L497.81918353369394,415.7971793970793 M493.9849095284154,414.1220139187514 L490.02338330465375,414.9847221044127 M434.66762525988224,429.79294840097145 L490.02338330465375,414.9847221044127 M438.6468180252459,431.7023694154097 L434.66762525988224,429.79294840097145 M506.7041232012268,416.70364586845443 L438.6468180252459,431.7023694154097 M438.6468180252459,431.7023694154097 L438.9027811851058,429.33380591468466 M507.0361737752577,414.39275325298524 L438.9027811851058,429.33380591468466 M494.0343825223847,413.76005228345855 L493.9849095284154,414.1220139187514 M494.5991677757876,413.6371597872032 L494.0343825223847,413.76005228345855 M494.5495989242121,413.99904607024143 L494.5991677757876,413.6371597872032 M490.3335781307328,412.6805174090491 L498.8131293579995,410.84310191628276 M490.02338330465375,414.9847221044127 L490.3335781307328,412.6805174090491 M494.5991677757876,413.6371597872032 L498.435412515396,415.3103774735812 M494.0343825223847,413.76005228345855 L497.8695870947671,415.4341925534493 M500.6577572295065,416.65129199868045 L500.60667366883604,417.01502264719966 M498.3612595986932,415.6488063062841 L500.6577572295065,416.65129199868045 M501.22437718055437,416.52679229894187 L500.6577572295065,416.65129199868045 M498.9272320467279,415.52487672787055 L501.22437718055437,416.52679229894187 M501.17319723301534,416.89044692087714 L501.22437718055437,416.52679229894187 M434.66762525988224,429.79294840097145 L434.91746564306334,427.43165838957844 M434.91746564306334,427.43165838957844 L490.3335781307328,412.6805174090491 M438.9027811851058,429.33380591468466 L434.91746564306334,427.43165838957844" stroke="black"  stroke-width="4"  fill="red"/>
<path d="M202.93389147098418,341.44005317476797 L202.804623770177,342.79850633497165 M202.804623770177,342.79850633497165 L202.79291219760182,342.1662737855389 M202.79291219760182,342.1662737855389 L202.77637281155518,342.34015580479445 M202.77637281155518,342.34015580479445 L202.7880951790616,342.9726232202686 M202.7880951790616,342.9726232202686 L202.65780496655947,344.3421976742535 M202.65780496655947,344.3421976742535 L202.62028930218958,342.32681877312365 M202.89694830682203,339.437123141678 L202.62028930218958,342.32681877312365 M202.93389147098418,341.44005317476797 L202.89694830682203,339.437123141678 M207.12038688107043,342.79850633497165 L207.23408985771056,341.44006311816895 M202.804623770177,342.79850633497165 L207.12038688107043,342.79850633497165 M207.23408985771056,341.44006311816895 L202.93389147098418,341.44005317476797 M202.79291219760182,342.1662737855389 L208.13062209572098,342.1662737855388 M208.14059374374455,342.7985063349715 L208.13062209572098,342.1662737855388 M207.73692446834093,342.7985063349715 L208.14059374374455,342.7985063349715 M207.73692446834093,342.7985063349715 L207.7318736546411,342.482441590606 M207.7318736546411,342.482441590606 L207.11523556511662,342.482441590606 M207.11523556511662,342.482441590606 L207.12038688107043,342.79850633497165 M202.77637281155518,342.34015580479445 L208.11647413912544,342.34015580479445 M208.13062209572098,342.1662737855388 L208.11647413912544,342.34015580479445 M207.10581229471916,342.9726332448521 L202.7880951790616,342.9726232202686 M207.10581229471916,342.9726332448521 L207.10065622565355,342.6564511036282 M207.10065622565355,342.6564511036282 L207.7175787583165,342.6564511036282 M207.7175787583165,342.6564511036282 L207.72263423239485,342.9726332448521 M208.12645499977424,342.9726232202685 L207.72263423239485,342.9726332448521 M208.11647413912544,342.34015580479445 L208.12645499977424,342.9726232202685 M207.84840909814778,341.44006311816895 L207.73692446834093,342.7985063349715 M212.14860913318063,341.44005317476797 L207.84840909814778,341.44006311816895 M274.7417320160456,342.885549717477 L212.14860913318063,341.44005317476797 M274.8807074703163,344.3421875768426 L274.7417320160456,342.885549717477 M202.65780496655947,344.3421976742535 L274.8807074703163,344.3421875768426 M207.03774188928037,343.78589058661896 L207.10581229471916,342.9726332448521 M207.03774188928037,343.78589058661896 L207.65589188161925,343.7858905866192 M207.72263423239485,342.9726332448521 L207.65589188161925,343.7858905866192 M208.12645499977424,342.9726232202685 L208.14059374374455,342.7985063349715 M274.8807074703163,344.3421875768426 L274.9183225576206,342.326808718946 M202.62028930218958,342.32681877312365 L274.9183225576206,342.326808718946 M207.84840909814778,341.44006311816895 L207.84339456838666,341.1249151383704 M207.84339456838666,341.1249151383704 L207.22897554768167,341.1249151383704 M207.22897554768167,341.1249151383704 L207.23408985771056,341.44006311816895 M212.1211782315831,339.437123141678 L202.89694830682203,339.437123141678 M212.14860913318063,341.44005317476797 L212.1211782315831,339.437123141678 M207.22897554768167,341.1249151383704 L207.11523556511662,342.482441590606 M207.84339456838666,341.1249151383704 L207.7318736546411,342.482441590606 M207.03256359184212,343.4691604914506 L207.03774188928037,343.78589058661896 M207.10065622565355,342.6564511036282 L207.03256359184212,343.4691604914506 M207.65081461284416,343.46916049145074 L207.03256359184212,343.4691604914506 M207.7175787583165,342.6564511036282 L207.65081461284416,343.46916049145074 M207.65589188161925,343.7858905866192 L207.65081461284416,343.46916049145074 M274.7417320160456,342.885549717477 L274.77905840476654,340.8764134144891 M274.77905840476654,340.8764134144891 L212.1211782315831,339.437123141678 M274.9183225576206,342.326808718946 L274.77905840476654,340.8764134144891" stroke="black"  stroke-width="4"  fill="red"/>
<path d="M590.6111343774872,429.2053663003451 L594.947509720758,430.99522656983714 M595.0908115260744,430.25072194095776 L594.947509720758,430.99522656983714 M595.6471051447755,430.4799281391062 L595.0908115260744,430.25072194095776 M595.5035089272334,431.22470738633933 L595.6471051447755,430.4799281391062 M595.5035089272334,431.22470738633933 L599.8777947133716,433.0302143781537 M599.8777947133716,433.0302143781537 L600.3414988347764,430.65660451865483 M591.0592416877704,426.8463185561979 L600.3414988347764,430.65660451865483 M590.6111343774872,429.2053663003451 L591.0592416877704,426.8463185561979 M590.6111343774872,429.2053663003451 L586.7081887640139,430.12708707798777 M591.0381184411352,431.9240779684677 L586.7081887640139,430.12708707798777 M594.947509720758,430.99522656983714 L591.0381184411352,431.9240779684677 M591.0381184411352,431.9240779684677 L591.1091100904642,431.55134527932256 M591.1091100904642,431.55134527932256 L590.5492689876736,431.6842570513097 M590.5492689876736,431.6842570513097 L590.4783699244897,432.0570691768927 M590.4783699244897,432.0570691768927 L590.1117215857976,432.14418620637576 M590.253426918748,431.39830753559767 L590.1117215857976,432.14418620637576 M595.0908115260744,430.25072194095776 L590.253426918748,431.39830753559767 M595.6471051447755,430.4799281391062 L590.8087037922552,431.6286467385338 M590.8087037922552,431.6286467385338 L590.253426918748,431.39830753559767 M590.6667045190387,432.37480092720324 L590.8087037922552,431.6286467385338 M590.6667045190387,432.37480092720324 L591.0334049243982,432.2876150658415 M591.0334049243982,432.2876150658415 L591.1044509366759,431.9146652699978 M591.1044509366759,431.9146652699978 L591.664442533981,431.7816068650997 M591.664442533981,431.7816068650997 L591.5933039037311,432.15447716336644 M591.5933039037311,432.15447716336644 L595.5035089272334,431.22470738633933 M594.1866824138414,433.23079119619877 L591.5933039037311,432.15447716336644 M594.1866824138414,433.23079119619877 L593.6262659013373,433.3645283211182 M591.0334049243982,432.2876150658415 L593.6262659013373,433.3645283211182 M590.6667045190387,432.37480092720324 L590.1117215857976,432.14418620637576 M586.1493601906576,430.2590540113508 L590.4783699244897,432.0570691768927 M586.1493601906576,430.2590540113508 L582.2286487283485,431.18497036473366 M527.9598794488172,447.0981256371298 L582.2286487283485,431.18497036473366 M532.485749289387,449.1527586633856 L527.9598794488172,447.0981256371298 M599.8777947133716,433.0302143781537 L532.485749289387,449.1527586633856 M532.485749289387,449.1527586633856 L532.8759429570857,446.7186458065346 M600.3414988347764,430.65660451865483 L532.8759429570857,446.7186458065346 M586.2191169336153,429.8873171427536 L586.1493601906576,430.2590540113508 M586.778037876414,429.7554292387455 L586.2191169336153,429.8873171427536 M586.7081887640139,430.12708707798777 L586.778037876414,429.7554292387455 M582.6679503477077,428.81837580442635 L591.0592416877704,426.8463185561979 M582.2286487283485,431.18497036473366 L582.6679503477077,428.81837580442635 M586.778037876414,429.7554292387455 L591.1091100904642,431.55134527932256 M586.2191169336153,429.8873171427536 L590.5492689876736,431.6842570513097 M593.6979998410134,432.99093605512826 L593.6262659013373,433.3645283211182 M591.1044509366759,431.9146652699978 L593.6979998410134,432.99093605512826 M594.2585090953723,432.85727866132186 L593.6979998410134,432.99093605512826 M591.664442533981,431.7816068650997 L594.2585090953723,432.85727866132186 M594.1866824138414,433.23079119619877 L594.2585090953723,432.85727866132186 M527.9598794488172,447.0981256371298 L528.3424282265063,444.6716441510945 M528.3424282265063,444.6716441510945 L582.6679503477077,428.81837580442635 M532.8759429570857,446.7186458065346 L528.3424282265063,444.6716441510945" stroke="black"  stroke-width="4"  fill="red"/>
<path d="M409.4189383328272,405.90770545310266 L410.14141773680865,407.77279103411854 M410.14141773680865,407.77279103411854 L410.2069365209966,407.0565463830484 M410.2069365209966,407.0565463830484 L410.29968038697837,407.29548647701415 M410.29968038697837,407.29548647701415 L410.234090728605,408.012027003748 M410.234090728605,408.012027003748 L410.9635252210662,409.89501326212905 M410.9635252210662,409.89501326212905 L411.1737233684937,407.6107061439729 M409.6253812305147,403.6390851589154 L411.1737233684937,407.6107061439729 M409.4189383328272,405.90770545310266 L409.6253812305147,403.6390851589154 M415.1998452976437,407.77279791369926 L414.4560822205141,405.9076986313905 M410.14141773680865,407.77279103411854 L415.1998452976437,407.77279791369926 M414.4560822205141,405.9076986313905 L409.4189383328272,405.90770545310266 M410.2069365209966,407.0565463830484 L416.46351100295,407.0565463830484 M416.3956017937455,407.77279103411854 L416.46351100295,407.0565463830484 M415.9224863364144,407.77279791369926 L416.3956017937455,407.77279103411854 M415.9224863364144,407.77279791369926 L415.9563440558941,407.4147440101831 M415.9563440558941,407.4147440101831 L415.2335649424225,407.4147440101831 M415.2335649424225,407.4147440101831 L415.1998452976437,407.77279791369926 M410.29968038697837,407.29548647701415 L416.55963858949553,407.29548647701415 M416.46351100295,407.0565463830484 L416.55963858949553,407.29548647701415 M415.295252976224,408.0120338907691 L410.234090728605,408.012027003748 M415.295252976224,408.0120338907691 L415.32900909335,407.6538321146994 M415.32900909335,407.6538321146994 L416.0521790301141,407.6538321146994 M416.0521790301141,407.6538321146994 L416.01828468894075,408.0120338907691 M416.4916559202911,408.012027003748 L416.01828468894075,408.0120338907691 M416.55963858949553,407.29548647701415 L416.4916559202911,408.012027003748 M415.1756415946078,405.90771227481525 L415.9224863364144,407.77279791369926 M420.21278547115526,405.9077054531027 L415.1756415946078,405.90771227481525 M494.51796536091604,407.892376693755 L420.21278547115526,405.9077054531027 M495.6752536688148,409.89501673499143 L494.51796536091604,407.892376693755 M410.9635252210662,409.89501326212905 L495.6752536688148,409.89501673499143 M415.74105387272925,409.1298853534733 L415.295252976224,408.0120338907691 M415.74105387272925,409.1298853534733 L416.46591104434026,409.1298853534733 M416.01828468894075,408.0120338907691 L416.46591104434026,409.1298853534733 M416.4916559202911,408.012027003748 L416.3956017937455,407.77279103411854 M495.6752536688148,409.89501673499143 L495.9888310322434,407.61070960321 M411.1737233684937,407.6107061439729 L495.9888310322434,407.61070960321 M415.1756415946078,405.90771227481525 L415.20921448989907,405.5508128804928 M415.20921448989907,405.5508128804928 L414.4895182084499,405.55079924552444 M414.4895182084499,405.55079924552444 L414.4560822205141,405.9076986313905 M420.43228253467146,403.6390851589154 L409.6253812305147,403.6390851589154 M420.21278547115526,405.9077054531027 L420.43228253467146,403.6390851589154 M414.4895182084499,405.55079924552444 L415.2335649424225,407.4147440101831 M415.20921448989907,405.5508128804928 L415.9563440558941,407.4147440101831 M415.7749806714738,408.7709932843011 L415.74105387272925,409.1298853534733 M415.32900909335,407.6538321146994 L415.7749806714738,408.7709932843011 M416.49997676603675,408.77099328430097 L415.7749806714738,408.7709932843011 M416.0521790301141,407.6538321146994 L416.49997676603675,408.77099328430097 M416.46591104434026,409.1298853534733 L416.49997676603675,408.77099328430097 M494.51796536091604,407.892376693755 L494.82872273664077,405.6159374614865 M494.82872273664077,405.6159374614865 L420.43228253467146,403.6390851589154 M495.9888310322434,407.61070960321 L494.82872273664077,405.6159374614865" stroke="black"  stroke-width="4"  fill="red"/>
<path d="M386.642574308759,376.69937569711044 L391.9057103447544,376.69937569711044 M391.96014651877704,376.0224004913524 L391.9057103447544,376.69937569711044 M392.63228322019756,376.0224004913524 L391.96014651877704,376.0224004913524 M392.5776082777983,376.69937569711044 L392.63228322019756,376.0224004913524 M392.5776082777983,376.69937569711044 L397.8407659456641,376.69938164445847 M397.8407659456641,376.69938164445847 L398.0204360734499,374.5483228384123 M386.8095999557265,374.54831691547673 L398.0204360734499,374.5483228384123 M386.642574308759,376.69937569711044 L386.8095999557265,374.54831691547673 M386.642574308759,376.69937569711044 L387.16458334124457,378.1514183005291 M392.44632785305555,378.1514063217304 L387.16458334124457,378.1514183005291 M391.9057103447544,376.69937569711044 L392.44632785305555,378.1514063217304 M392.44632785305555,378.1514063217304 L392.47373353933426,377.81204316815865 M392.47373353933426,377.81204316815865 L392.5513021001367,378.0201816687484 M392.5513021001367,378.0201816687484 L392.5238687568185,378.359678883182 M392.5238687568185,378.359678883182 L392.57465830751346,378.4961502574134 M392.62957104499105,377.8168589778925 L392.57465830751346,378.4961502574134 M391.96014651877704,376.0224004913524 L392.62957104499105,377.8168589778925 M392.63228322019756,376.0224004913524 L393.3046439815588,377.8168589778925 M393.3046439815588,377.8168589778925 L392.62957104499105,377.8168589778925 M393.2494903853981,378.4961502574134 L393.3046439815588,377.8168589778925 M393.2494903853981,378.4961502574134 L393.1984779760388,378.3596788831819 M393.1984779760388,378.3596788831819 L393.22603164768907,378.02018166874825 M393.22603164768907,378.02018166874825 L393.14812285509527,377.81204316815865 M393.14812285509527,377.81204316815865 L393.1205969617938,378.15140632173035 M393.1205969617938,378.15140632173035 L392.5776082777983,376.69937569711044 M396.26154717991926,378.15140632173035 L393.1205969617938,378.15140632173035 M396.26154717991926,378.15140632173035 L396.34101253204733,378.359678883182 M393.1984779760388,378.3596788831819 L396.34101253204733,378.359678883182 M393.2494903853981,378.4961502574134 L392.57465830751346,378.4961502574134 M387.2394945724717,378.3596788831819 L392.5238687568185,378.359678883182 M387.2394945724717,378.3596788831819 L387.7657326359765,379.82348472981954 M401.7998916167784,402.3163260141564 L387.7657326359765,379.82348472981954 M407.7475959700829,402.3163193031857 L401.7998916167784,402.3163260141564 M397.8407659456641,376.69938164445847 L407.7475959700829,402.3163193031857 M407.7475959700829,402.3163193031857 L407.95034948280625,400.0619026090018 M398.0204360734499,374.5483228384123 L407.95034948280625,400.0619026090018 M387.26598535539574,378.02018166874825 L387.2394945724717,378.3596788831819 M387.19104741199374,377.8120551392459 L387.26598535539574,378.02018166874825 M387.16458334124457,378.1514183005291 L387.19104741199374,377.8120551392459 M387.93530580282356,377.65962888702984 L386.8095999557265,374.54831691547673 M387.7657326359765,379.82348472981954 L387.93530580282356,377.65962888702984 M387.19104741199374,377.8120551392459 L392.47373353933426,377.81204316815865 M387.26598535539574,378.02018166874825 L392.5513021001367,378.0201816687484 M396.36912672960045,378.0201816687484 L396.34101253204733,378.359678883182 M393.22603164768907,378.02018166874825 L396.36912672960045,378.0201816687484 M396.2896330340268,377.81204316815865 L396.36912672960045,378.0201816687484 M393.14812285509527,377.81204316815865 L396.2896330340268,377.81204316815865 M396.26154717991926,378.15140632173035 L396.2896330340268,377.81204316815865 M401.7998916167784,402.3163260141564 L401.995510626342,400.0619092933654 M401.995510626342,400.0619092933654 L387.93530580282356,377.65962888702984 M407.95034948280625,400.0619026090018 L401.995510626342,400.0619092933654" stroke="black"  stroke-width="4"  fill="red"/></svg>