<svg viewBox="0 0 800 800" xmlns="http://www.w3.org/2000/svg"><path d="M666.1219925494534,170.2617714691075 L668.133359663078,189.61623433568548 M668.133359663078,189.61623433568548 L672.3978414869923,189.61623433568548 M672.3978414869923,189.61623433568548 L672.6608458692417,192.10784335351917 M672.6608458692417,192.10784335351917 L668.3923024703506,192.10783886867443 M668.3923024703506,192.10783886867443 L670.4378446918467,211.79115249066854 M670.4378446918467,211.79115249066854 L684.0925380762003,211.79115704331042 M679.5613571699234,170.26176264872038 L684.0925380762003,211.79115704331042 M666.1219925494534,170.2617714691075 L679.5613571699234,170.26176264872038 M666.8589297951034,213.74161822545886 L664.8663395367043,194.29940312900118 M668.133359663078,189.61623433568548 L666.8589297951034,213.74161822545886 M664.8663395367043,194.29940312900118 L666.1219925494534,170.2617714691075 M672.3978414869923,189.61623433568548 L670.7991695477335,219.41144210316924 M666.559419829628,219.41144210316924 L670.7991695477335,219.41144210316924 M666.6778448156815,217.16961748616126 L666.559419829628,219.41144210316924 M666.6778448156815,217.16961748616126 L668.7986582016913,217.16962198542905 M668.7986582016913,217.16962198542905 L668.9811659263937,213.7416227218966 M668.9811659263937,213.7416227218966 L666.8589297951034,213.74161822545886 M672.6608458692417,192.10784335351917 L671.0591307197651,221.91685006607094 M670.7991695477335,219.41144210316924 L671.0591307197651,221.91685006607094 M667.1154452387718,216.24442125366687 L668.3923024703506,192.10783886867443 M667.1154452387718,216.24442125366687 L669.2396966960621,216.24442575864856 M669.2396966960621,216.24442575864856 L669.056842290767,219.6739986779067 M669.056842290767,219.6739986779067 L666.9340162812782,219.67399417009534 M666.8153664672202,221.9168455564133 L666.9340162812782,219.67399417009534 M671.0591307197651,221.91685006607094 L666.8153664672202,221.9168455564133 M664.6879154867775,197.71506935833833 L666.6778448156815,217.16961748616126 M663.4455653846017,221.49803634485505 L664.6879154867775,197.71506935833833 M644.5861835454491,638.7451360420905 L663.4455653846017,221.49803634485505 M646.3971866562031,661.1091711060592 L644.5861835454491,638.7451360420905 M670.4378446918467,211.79115249066854 L646.3971866562031,661.1091711060592 M668.3167944731003,227.96624948839985 L667.1154452387718,216.24442125366687 M668.3167944731003,227.96624948839985 L668.1337501841679,231.4031501510609 M666.9340162812782,219.67399417009534 L668.1337501841679,231.4031501510609 M666.8153664672202,221.9168455564133 L666.559419829628,219.41144210316924 M646.3971866562031,661.1091711060592 L658.8524834518066,661.1091759673011 M684.0925380762003,211.79115704331042 L658.8524834518066,661.1091759673011 M664.6879154867775,197.71506935833833 L666.7930712006607,197.71506935833833 M666.7930712006607,197.71506935833833 L666.9728970737456,194.29940312900118 M666.9728970737456,194.29940312900118 L664.8663395367043,194.29940312900118 M676.7514022531609,221.49802743948862 L679.5613571699234,170.26176264872038 M663.4455653846017,221.49803634485505 L676.7514022531609,221.49802743948862 M666.9728970737456,194.29940312900118 L668.9811659263937,213.7416227218966 M666.7930712006607,197.71506935833833 L668.7986582016913,217.16962198542905 M670.450468383015,227.96624494329507 L668.3167944731003,227.96624948839985 M669.2396966960621,216.24442575864856 L670.450468383015,227.96624494329507 M670.265985966581,231.40314560312845 L670.450468383015,227.96624494329507 M669.056842290767,219.6739986779067 L670.265985966581,231.40314560312845 M668.1337501841679,231.4031501510609 L670.265985966581,231.40314560312845 M644.5861835454491,638.7451360420905 L656.9511132614982,638.7451312511209 M656.9511132614982,638.7451312511209 L676.7514022531609,221.49802743948862 M658.8524834518066,661.1091759673011 L656.9511132614982,638.7451312511209" stroke="black"  stroke-width="4"  fill="red"/>
<path d="M666.1219925494534,170.2617714691075 L668.133359663078,189.61623433568548 M663.8688850499452,189.61622985938658 L668.133359663078,189.61623433568548 M664.1237518688829,192.10783886867443 L663.8688850499452,189.61622985938658 M668.3923024703506,192.10783886867443 L664.1237518688829,192.10783886867443 M668.3923024703506,192.10783886867443 L670.4378446918467,211.79115249066854 M670.4378446918467,211.79115249066854 L656.7831677213028,211.79115704331042 M652.6826189193282,170.26176705891396 L656.7831677213028,211.79115704331042 M666.1219925494534,170.2617714691075 L652.6826189193282,170.26176705891396 M666.1219925494534,170.2617714691075 L664.8663395367043,194.29940312900118 M666.8589297951034,213.74161822545886 L664.8663395367043,194.29940312900118 M668.133359663078,189.61623433568548 L666.8589297951034,213.74161822545886 M666.8589297951034,213.74161822545886 L664.7367170262187,213.74161822545886 M664.7367170262187,213.74161822545886 L664.5570547761033,217.16961748616126 M664.5570547761033,217.16961748616126 L666.6778448156815,217.16961748616126 M666.6778448156815,217.16961748616126 L666.559419829628,219.41144210316924 M662.319677283125,219.41143760205495 L666.559419829628,219.41144210316924 M663.8688850499452,189.61622985938658 L662.319677283125,219.41143760205495 M664.1237518688829,192.10783886867443 L662.5715950511776,221.9168455564133 M662.5715950511776,221.9168455564133 L662.319677283125,219.41143760205495 M666.8153664672202,221.9168455564133 L662.5715950511776,221.9168455564133 M666.8153664672202,221.9168455564133 L666.9340162812782,219.67399417009534 M666.9340162812782,219.67399417009534 L664.8112064635102,219.6739986779067 M664.8112064635102,219.6739986779067 L664.9912099846945,216.24442575864856 M664.9912099846945,216.24442575864856 L667.1154452387718,216.24442125366687 M667.1154452387718,216.24442125366687 L668.3923024703506,192.10783886867443 M668.3167944731003,227.96624948839985 L667.1154452387718,216.24442125366687 M668.3167944731003,227.96624948839985 L668.1337501841679,231.4031501510609 M666.9340162812782,219.67399417009534 L668.1337501841679,231.4031501510609 M666.8153664672202,221.9168455564133 L666.559419829628,219.41144210316924 M664.6879154867775,197.71506935833833 L666.6778448156815,217.16961748616126 M664.6879154867775,197.71506935833833 L663.4455653846017,221.49803634485505 M644.5861835454491,638.7451360420905 L663.4455653846017,221.49803634485505 M646.3971866562031,661.1091711060592 L644.5861835454491,638.7451360420905 M670.4378446918467,211.79115249066854 L646.3971866562031,661.1091711060592 M646.3971866562031,661.1091711060592 L633.9419047568426,661.1091759673011 M656.7831677213028,211.79115704331042 L633.9419047568426,661.1091759673011 M662.5827526514809,197.71507379151393 L664.6879154867775,197.71506935833833 M662.7597748738076,194.29940755934456 L662.5827526514809,197.71507379151393 M664.8663395367043,194.29940312900118 L662.7597748738076,194.29940755934456 M650.1397196096536,221.49803189217187 L652.6826189193282,170.26176705891396 M663.4455653846017,221.49803634485505 L650.1397196096536,221.49803189217187 M662.7597748738076,194.29940755934456 L664.7367170262187,213.74161822545886 M662.5827526514809,197.71507379151393 L664.5570547761033,217.16961748616126 M666.0014981340246,231.40314560312845 L668.1337501841679,231.4031501510609 M664.8112064635102,219.6739986779067 L666.0014981340246,231.40314560312845 M666.1831042838555,227.96624494329507 L666.0014981340246,231.40314560312845 M664.9912099846945,216.24442575864856 L666.1831042838555,227.96624494329507 M668.3167944731003,227.96624948839985 L666.1831042838555,227.96624494329507 M644.5861835454491,638.7451360420905 L632.2212390468862,638.7451312511209 M632.2212390468862,638.7451312511209 L650.1397196096536,221.49803189217187 M633.9419047568426,661.1091759673011 L632.2212390468862,638.7451312511209" stroke="black"  stroke-width="4"  fill="red"/>
<path d="M591.5426328931658,326.020911502016 L556.3927093253969,326.02091398008395 M556.3927093253969,326.02091398008395 L556.5529963610118,328.77974854637864 M556.5529963610118,328.77974854637864 L552.0612651233255,328.77974606333225 M552.0612651233255,328.77974606333225 L551.9054793520993,326.02091398008395 M551.9054793520993,326.02091398008395 L516.7555557168857,326.0209164581519 M516.7555557168857,326.0209164581519 L517.1389446031069,334.79937023459297 M592.1649578983013,334.79937522244586 L517.1389446031069,334.79937023459297 M591.5426328931658,326.020911502016 L592.1649578983013,334.79937522244586 M555.6040409585974,350.7263811647315 L590.5803234085317,350.7263786767355 M556.3927093253969,326.02091398008395 L555.6040409585974,350.7263811647315 M590.5803234085317,350.7263786767355 L591.5426328931658,326.020911502016 M556.5529963610118,328.77974854637864 L555.5770846228565,359.3032067623666 M555.4187482982984,356.53077491409454 L555.5770846228565,359.3032067623666 M555.4920096874728,354.235821899184 L555.4187482982984,356.53077491409454 M555.4920096874728,354.235821899184 L555.5712031608198,355.62083659711436 M555.5712031608198,355.62083659711436 L555.6833462812278,352.11062163834686 M555.6833462812278,352.11062163834686 L555.6040409585974,350.7263811647315 M552.0612651233255,328.77974606333225 L551.1127831620245,359.3032042670976 M555.5770846228565,359.3032067623666 L551.1127831620245,359.3032042670976 M551.1389779647218,350.7263811647315 L551.9054793520993,326.02091398008395 M551.1389779647218,350.7263811647315 L551.2160579171582,352.1106191478659 M551.2160579171582,352.1106191478659 L551.1070667835572,355.62083410524133 M551.1070667835572,355.62083410524133 L551.0300955391529,354.235821899184 M550.9588932964773,356.53077491409454 L551.0300955391529,354.235821899184 M551.1127831620245,359.3032042670976 L550.9588932964773,356.53077491409454 M590.4436262119436,354.23581940979557 L555.4920096874728,354.235821899184 M589.4921177958327,378.6639896773205 L590.4436262119436,354.23581940979557 M539.7780248547317,782.6190359067219 L589.4921177958327,378.6639896773205 M505.7985118203222,782.6190437847097 L539.7780248547317,782.6190359067219 M516.7555557168857,326.0209164581519 L505.7985118203222,782.6190437847097 M530.3392453354991,350.7263786767354 L551.1389779647218,350.7263811647315 M530.3392453354991,350.7263786767354 L530.2450312687229,354.23581940979557 M551.0300955391529,354.235821899184 L530.2450312687229,354.23581940979557 M550.9588932964773,356.53077491409454 L555.4187482982984,356.53077491409454 M505.7985118203222,782.6190437847097 L506.1149969500031,791.9188138882607 M517.1389446031069,334.79937023459297 L506.1149969500031,791.9188138882607 M590.4436262119436,354.23581940979557 L590.5402574801299,355.62083410524133 M590.5402574801299,355.62083410524133 L590.6770911531066,352.1106191478659 M590.6770911531066,352.1106191478659 L590.5803234085317,350.7263786767355 M590.1013897732896,387.5161574364422 L592.1649578983013,334.79937522244586 M589.4921177958327,378.6639896773205 L590.1013897732896,387.5161574364422 M590.6770911531066,352.1106191478659 L555.6833462812278,352.11062163834686 M590.5402574801299,355.62083410524133 L555.5712031608198,355.62083659711436 M530.4059533850339,352.11062910979 L530.3392453354991,350.7263786767354 M551.2160579171582,352.1106191478659 L530.4059533850339,352.11062910979 M530.3116452461234,355.6208440727336 L530.4059533850339,352.11062910979 M551.1070667835572,355.62083410524133 L530.3116452461234,355.6208440727336 M530.2450312687229,354.23581940979557 L530.3116452461234,355.6208440727336 M539.7780248547317,782.6190359067219 L540.193142071598,791.9188138882607 M540.193142071598,791.9188138882607 L590.1013897732896,387.5161574364422 M506.1149969500031,791.9188138882607 L540.193142071598,791.9188138882607" stroke="black"  stroke-width="4"  fill="red"/>
<path d="M591.5426328931658,326.020911502016 L556.3927093253969,326.02091398008395 M556.2327396131327,323.26761050553796 L556.3927093253969,326.02091398008395 M551.7500096613524,323.2676080324336 L556.2327396131327,323.26761050553796 M551.9054793520993,326.02091398008395 L551.7500096613524,323.2676080324336 M551.9054793520993,326.02091398008395 L516.7555557168857,326.0209164581519 M516.7555557168857,326.0209164581519 L516.3745843550614,317.29818507714754 M590.924275666401,317.2981900018681 L516.3745843550614,317.29818507714754 M591.5426328931658,326.020911502016 L590.924275666401,317.2981900018681 M591.5426328931658,326.020911502016 L590.5803234085317,350.7263786767355 M555.6040409585974,350.7263811647315 L590.5803234085317,350.7263786767355 M556.3927093253969,326.02091398008395 L555.6040409585974,350.7263811647315 M555.6040409585974,350.7263811647315 L555.5247981252996,349.3435115749817 M555.5247981252996,349.3435115749817 L555.4128785483185,352.85217787801935 M555.4128785483185,352.85217787801935 L555.4920096874728,354.235821899184 M555.4920096874728,354.235821899184 L555.4187482982984,356.53077491409454 M555.2607234769332,353.7638675577489 L555.4187482982984,356.53077491409454 M556.2327396131327,323.26761050553796 L555.2607234769332,353.7638675577489 M551.7500096613524,323.2676080324336 L550.8053138097057,353.7638650724099 M550.8053138097057,353.7638650724099 L555.2607234769332,353.7638675577489 M550.9588932964773,356.53077491409454 L550.8053138097057,353.7638650724099 M550.9588932964773,356.53077491409454 L551.0300955391529,354.235821899184 M551.0300955391529,354.235821899184 L550.9531883012412,352.85217787801946 M550.9531883012412,352.85217787801946 L551.0619621718774,349.3435115749817 M551.0619621718774,349.3435115749817 L551.1389779647218,350.7263811647315 M551.1389779647218,350.7263811647315 L551.9054793520993,326.02091398008395 M530.3392453354991,350.7263786767354 L551.1389779647218,350.7263811647315 M530.3392453354991,350.7263786767354 L530.2450312687229,354.23581940979557 M551.0300955391529,354.235821899184 L530.2450312687229,354.23581940979557 M550.9588932964773,356.53077491409454 L555.4187482982984,356.53077491409454 M590.4436262119436,354.23581940979557 L555.4920096874728,354.235821899184 M590.4436262119436,354.23581940979557 L589.4921177958327,378.6639896773205 M539.7780248547317,782.6190359067219 L589.4921177958327,378.6639896773205 M505.7985118203222,782.6190437847097 L539.7780248547317,782.6190359067219 M516.7555557168857,326.0209164581519 L505.7985118203222,782.6190437847097 M505.7985118203222,782.6190437847097 L505.48383808093985,773.372930234136 M516.3745843550614,317.29818507714754 L505.48383808093985,773.372930234136 M590.3470912687176,352.8521853387422 L590.4436262119436,354.23581940979557 M590.4836521930013,349.34351903152606 L590.3470912687176,352.8521853387422 M590.5803234085317,350.7263786767355 L590.4836521930013,349.34351903152606 M588.8866899536231,369.8674424276178 L590.924275666401,317.2981900018681 M589.4921177958327,378.6639896773205 L588.8866899536231,369.8674424276178 M590.4836521930013,349.34351903152606 L555.5247981252996,349.3435115749817 M590.3470912687176,352.8521853387422 L555.4128785483185,352.85217787801935 M530.1785002123995,352.8521853387422 L530.2450312687229,354.23581940979557 M550.9531883012412,352.85217787801946 L530.1785002123995,352.8521853387422 M530.2726203597101,349.34351903152606 L530.1785002123995,352.8521853387422 M551.0619621718774,349.3435115749817 L530.2726203597101,349.34351903152606 M530.3392453354991,350.7263786767354 L530.2726203597101,349.34351903152606 M539.7780248547317,782.6190359067219 L539.3653218210925,773.3729328449997 M539.3653218210925,773.3729328449997 L588.8866899536231,369.8674424276178 M505.48383808093985,773.372930234136 L539.3653218210925,773.3729328449997" stroke="black"  stroke-width="4"  fill="red"/>
<path d="M223.9974739372185,14.943215462999376 L255.16816111557142,14.943213514244803 M255.16816111557142,14.943213514244803 L255.29397264797717,12.777765740454583 M255.29397264797717,12.777765740454583 L259.26967446589146,12.777767685747222 M259.26967446589146,12.777767685747222 L259.1474027832344,14.943213514244803 M259.1474027832344,14.943213514244803 L290.3180899085488,14.94321156549006 M290.3180899085488,14.94321156549006 L290.6177942829707,8.081189987328798 M224.48392514323186,8.081186111739385 L290.6177942829707,8.081189987328798 M223.9974739372185,14.943215462999376 L224.48392514323186,8.081186111739385 M255.78871763525052,38.22761604579398 L224.75465839117288,38.22761800454646 M255.16816111557142,14.943213514244803 L255.78871763525052,38.22761604579398 M224.75465839117288,38.22761800454646 L223.9974739372185,14.943215462999376 M255.29397264797717,12.777765740454583 L256.05906783549665,41.52276713664571 M255.93461423879768,43.701920379483965 L256.05906783549665,41.52276713664571 M255.8769247572149,41.537306732841444 L255.93461423879768,43.701920379483965 M255.8769247572149,41.537306732841444 L255.93923697030152,40.44776331464442 M255.93923697030152,40.44776331464442 L255.8511078876158,37.13885547159441 M255.8511078876158,37.13885547159441 L255.78871763525052,38.22761604579398 M259.26967446589146,12.777767685747222 L260.01326526220174,41.52276909425984 M256.05906783549665,41.52276713664571 L260.01326526220174,41.52276909425984 M259.7505174170954,38.22761604579398 L259.1474027832344,14.943213514244803 M259.7505174170954,38.22761604579398 L259.811150606888,37.138857428613505 M259.811150606888,37.138857428613505 L259.8968026613584,40.447765273071184 M259.8968026613584,40.447765273071184 L259.83624531516824,41.537306732841444 M259.8923133274428,43.701920379483965 L259.83624531516824,41.537306732841444 M260.01326526220174,41.52276909425984 L259.8923133274428,43.701920379483965 M224.8622860759384,41.53730869300165 L255.8769247572149,41.537306732841444 M225.61192463543625,64.5896652077933 L224.8622860759384,41.53730869300165 M268.57723290372206,449.5288387734656 L225.61192463543625,64.5896652077933 M299.02470851243885,449.5288324481302 L268.57723290372206,449.5288387734656 M290.3180899085488,14.94321156549006 L299.02470851243885,449.5288324481302 M278.20588420800885,38.22761800454646 L259.7505174170954,38.22761604579398 M278.20588420800885,38.22761800454646 L278.2800630656049,41.53730869300165 M259.83624531516824,41.537306732841444 L278.2800630656049,41.53730869300165 M259.8923133274428,43.701920379483965 L255.93461423879768,43.701920379483965 M299.02470851243885,449.5288324481302 L299.27744021364555,442.10279266061775 M290.6177942829707,8.081189987328798 L299.27744021364555,442.10279266061775 M224.8622860759384,41.53730869300165 L224.93831600262035,40.44776527307107 M224.93831600262035,40.44776527307107 L224.83078353806152,37.138857428613505 M224.83078353806152,37.138857428613505 L224.75465839117288,38.22761800454646 M226.08933828259555,57.65308517978667 L224.48392514323186,8.081186111739385 M225.61192463543625,64.5896652077933 L226.08933828259555,57.65308517978667 M224.83078353806152,37.138857428613505 L255.8511078876158,37.13885547159441 M224.93831600262035,40.44776527307107 L255.93923697030152,40.44776331464442 M278.258339320812,37.138849600537355 L278.20588420800885,38.22761800454646 M259.811150606888,37.138857428613505 L278.258339320812,37.138849600537355 M278.3324525580511,40.44775743936424 L278.258339320812,37.138849600537355 M259.8968026613584,40.447765273071184 L278.3324525580511,40.44775743936424 M278.2800630656049,41.53730869300165 L278.3324525580511,40.44775743936424 M268.57723290372206,449.5288387734656 L268.90869310306846,442.10279266061775 M268.90869310306846,442.10279266061775 L226.08933828259555,57.65308517978667 M299.27744021364555,442.10279266061775 L268.90869310306846,442.10279266061775" stroke="black"  stroke-width="4"  fill="red"/>
<path d="M223.9974739372185,14.943215462999376 L255.16816111557142,14.943213514244803 M255.04212927391126,17.11251485175319 L255.16816111557142,14.943213514244803 M259.0249097083623,17.112516803979247 L255.04212927391126,17.11251485175319 M259.1474027832344,14.943213514244803 L259.0249097083623,17.112516803979247 M259.1474027832344,14.943213514244803 L290.3180899085488,14.94321156549006 M290.3180899085488,14.94321156549006 L290.0167020328804,21.84410713592979 M223.50825369609535,21.84410321631367 L290.0167020328804,21.84410713592979 M223.9974739372185,14.943215462999376 L223.50825369609535,21.84410321631367 M223.9974739372185,14.943215462999376 L224.75465839117288,38.22761800454646 M255.78871763525052,38.22761604579398 L224.75465839117288,38.22761800454646 M255.16816111557142,14.943213514244803 L255.78871763525052,38.22761604579398 M255.78871763525052,38.22761604579398 L255.72628591495425,39.31734903185509 M255.72628591495425,39.31734903185509 L255.81457117153423,42.62782265776781 M255.81457117153423,42.62782265776781 L255.8769247572149,41.537306732841444 M255.8769247572149,41.537306732841444 L255.93461423879768,43.701920379483965 M255.80994393064987,45.88493055243157 L255.93461423879768,43.701920379483965 M255.04212927391126,17.11251485175319 L255.80994393064987,45.88493055243157 M259.0249097083623,17.112516803979247 L259.7711435377219,45.884932516985145 M259.7711435377219,45.884932516985145 L255.80994393064987,45.88493055243157 M259.8923133274428,43.701920379483965 L259.7711435377219,45.884932516985145 M259.8923133274428,43.701920379483965 L259.83624531516824,41.537306732841444 M259.83624531516824,41.537306732841444 L259.7756444922525,42.62782265776781 M259.7756444922525,42.62782265776781 L259.689840655807,39.317349031854974 M259.689840655807,39.317349031854974 L259.7505174170954,38.22761604579398 M259.7505174170954,38.22761604579398 L259.1474027832344,14.943213514244803 M278.20588420800885,38.22761800454646 L259.7505174170954,38.22761604579398 M278.20588420800885,38.22761800454646 L278.2800630656049,41.53730869300165 M259.83624531516824,41.537306732841444 L278.2800630656049,41.53730869300165 M259.8923133274428,43.701920379483965 L255.93461423879768,43.701920379483965 M224.8622860759384,41.53730869300165 L255.8769247572149,41.537306732841444 M224.8622860759384,41.53730869300165 L225.61192463543625,64.5896652077933 M268.57723290372206,449.5288387734656 L225.61192463543625,64.5896652077933 M299.02470851243885,449.5288324481302 L268.57723290372206,449.5288387734656 M290.3180899085488,14.94321156549006 L299.02470851243885,449.5288324481302 M299.02470851243885,449.5288324481302 L298.77067564894674,456.9934915283792 M290.0167020328804,21.84410713592979 L298.77067564894674,456.9934915283792 M224.7861888339363,42.6278167720792 L224.8622860759384,41.53730869300165 M224.6784658024355,39.31734315039057 L224.7861888339363,42.6278167720792 M224.75465839117288,38.22761800454646 L224.6784658024355,39.31734315039057 M225.1318186080515,71.56515759287976 L223.50825369609535,21.84410321631367 M225.61192463543625,64.5896652077933 L225.1318186080515,71.56515759287976 M224.6784658024355,39.31734315039057 L255.72628591495425,39.31734903185509 M224.7861888339363,42.6278167720792 L255.81457117153423,42.62782265776781 M278.22761331953797,42.6278167720792 L278.2800630656049,41.53730869300165 M259.7756444922525,42.62782265776781 L278.22761331953797,42.6278167720792 M278.1533687459398,39.31734315039057 L278.22761331953797,42.6278167720792 M259.689840655807,39.317349031854974 L278.1533687459398,39.31734315039057 M278.20588420800885,38.22761800454646 L278.1533687459398,39.31734315039057 M268.57723290372206,449.5288387734656 L268.2440331301312,456.9934894089572 M268.2440331301312,456.9934894089572 L225.1318186080515,71.56515759287976 M298.77067564894674,456.9934915283792 L268.2440331301312,456.9934894089572" stroke="black"  stroke-width="4"  fill="red"/>
<path d="M129.25267210873443,152.1015327806411 L131.20688881873332,133.29714592142517 M131.20688881873332,133.29714592142517 L127.03437578028831,133.29714592142517 M127.03437578028831,133.29714592142517 L127.2856840812479,130.9163413752359 M127.2856840812479,130.9163413752359 L131.4543013371558,130.91634565256078 M131.4543013371558,130.91634565256078 L133.3765970746615,112.41911790442225 M133.3765970746615,112.41911790442225 L120.23712436490905,112.41911368885974 M115.90746192379981,152.10154147786972 L120.23712436490905,112.41911368885974 M129.25267210873443,152.1015327806411 L115.90746192379981,152.10154147786972 M132.4270657095759,157.1634207974348 L130.49083295062883,176.05559605031817 M131.20688881873332,133.29714592142517 L132.4270657095759,157.1634207974348 M130.49083295062883,176.05559605031817 L129.25267210873443,152.1015327806411 M127.03437578028831,133.29714592142517 L128.56502806531705,162.77305182700587 M132.71386128969874,162.77305182700587 L128.56502806531705,162.77305182700587 M132.60046188637614,160.55499528882342 L132.71386128969874,162.77305182700587 M132.60046188637614,160.55499528882342 L130.52514730358484,160.554990980531 M130.52514730358484,160.554990980531 L130.35038879193303,157.16341649197614 M130.35038879193303,157.16341649197614 L132.4270657095759,157.1634207974348 M127.2856840812479,130.9163413752359 L128.81349332835782,160.37843710949937 M128.56502806531705,162.77305182700587 L128.81349332835782,160.37843710949937 M132.67221068077214,154.77141461734584 L131.4543013371558,130.91634565256078 M132.67221068077214,154.77141461734584 L130.59745987078463,154.77141031987014 M130.59745987078463,154.77141031987014 L130.7718944684043,158.16140894274417 M130.7718944684043,158.16140894274417 L132.84528546865857,158.16141324305374 M132.95847480068647,160.37844141165823 L132.84528546865857,158.16141324305374 M128.81349332835782,160.37843710949937 L132.95847480068647,160.37844141165823 M130.6667779845131,179.45951445174438 L132.60046188637614,160.55499528882342 M131.89191220018336,203.16155825981036 L130.6667779845131,179.45951445174438 M153.99876844621565,575.7960426916892 L131.89191220018336,203.16155825981036 M155.7112986300177,554.6483804684979 L153.99876844621565,575.7960426916892 M133.3765970746615,112.41911790442225 L155.7112986300177,554.6483804684979 M133.80824613750877,143.68686725017199 L132.67221068077214,154.77141461734584 M133.80824613750877,143.68686725017199 L133.9798354769688,147.06952529721497 M132.84528546865857,158.16141324305374 L133.9798354769688,147.06952529721497 M132.95847480068647,160.37844141165823 L132.71386128969874,162.77305182700587 M155.7112986300177,554.6483804684979 L143.68611160900116,554.6483759371981 M120.23712436490905,112.41911368885974 L143.68611160900116,554.6483759371981 M130.6667779845131,179.45951445174438 L128.57629304526154,179.45951445174438 M128.57629304526154,179.45951445174438 L128.39896566508975,176.05559605031817 M128.39896566508975,176.05559605031817 L130.49083295062883,176.05559605031817 M118.6783745303403,203.16156704205423 L115.90746192379981,152.10154147786972 M131.89191220018336,203.16155825981036 L118.6783745303403,203.16156704205423 M128.39896566508975,176.05559605031817 L130.35038879193303,157.16341649197614 M128.57629304526154,179.45951445174438 L130.52514730358484,160.554990980531 M131.74243488230366,143.68687151075187 L133.80824613750877,143.68686725017199 M130.59745987078463,154.77141031987014 L131.74243488230366,143.68687151075187 M131.91537235211592,147.06952956062833 L131.74243488230366,143.68687151075187 M130.7718944684043,158.16140894274417 L131.91537235211592,147.06952956062833 M133.9798354769688,147.06952529721497 L131.91537235211592,147.06952956062833 M153.99876844621565,575.7960426916892 L141.88815634597063,575.7960472876068 M141.88815634597063,575.7960472876068 L118.6783745303403,203.16156704205423 M143.68611160900116,554.6483759371981 L141.88815634597063,575.7960472876068" stroke="black"  stroke-width="4"  fill="red"/>
<path d="M129.25267210873443,152.1015327806411 L131.20688881873332,133.29714592142517 M135.37939391555557,133.29715020673223 L131.20688881873332,133.29714592142517 M135.62292654084808,130.91634565256078 L135.37939391555557,133.29715020673223 M131.4543013371558,130.91634565256078 L135.62292654084808,130.91634565256078 M131.4543013371558,130.91634565256078 L133.3765970746615,112.41911790442225 M133.3765970746615,112.41911790442225 L146.51605577666456,112.41911368885974 M142.59788847385727,152.1015371292554 L146.51605577666456,112.41911368885974 M129.25267210873443,152.1015327806411 L142.59788847385727,152.1015371292554 M129.25267210873443,152.1015327806411 L130.49083295062883,176.05559605031817 M132.4270657095759,157.1634207974348 L130.49083295062883,176.05559605031817 M131.20688881873332,133.29714592142517 L132.4270657095759,157.1634207974348 M132.4270657095759,157.1634207974348 L134.50372066554496,157.1634207974348 M134.50372066554496,157.1634207974348 L134.6757545216093,160.55499528882342 M134.6757545216093,160.55499528882342 L132.60046188637614,160.55499528882342 M132.60046188637614,160.55499528882342 L132.71386128969874,162.77305182700587 M136.86268662000145,162.77305613714765 L132.71386128969874,162.77305182700587 M135.37939391555557,133.29715020673223 L136.86268662000145,162.77305613714765 M135.62292654084808,130.91634565256078 L137.10346417319067,160.37844141165823 M137.10346417319067,160.37844141165823 L136.86268662000145,162.77305613714765 M132.95847480068647,160.37844141165823 L137.10346417319067,160.37844141165823 M132.95847480068647,160.37844141165823 L132.84528546865857,158.16141324305374 M132.84528546865857,158.16141324305374 L134.91866243467598,158.16140894274412 M134.91866243467598,158.16140894274412 L134.74694744789576,154.77141031987014 M134.74694744789576,154.77141031987014 L132.67221068077214,154.77141461734584 M132.67221068077214,154.77141461734584 L131.4543013371558,130.91634565256078 M133.80824613750877,143.68686725017199 L132.67221068077214,154.77141461734584 M133.80824613750877,143.68686725017199 L133.9798354769688,147.06952529721497 M132.84528546865857,158.16141324305374 L133.9798354769688,147.06952529721497 M132.95847480068647,160.37844141165823 L132.71386128969874,162.77305182700587 M130.6667779845131,179.45951445174438 L132.60046188637614,160.55499528882342 M130.6667779845131,179.45951445174438 L131.89191220018336,203.16155825981036 M153.99876844621565,575.7960426916892 L131.89191220018336,203.16155825981036 M155.7112986300177,554.6483804684979 L153.99876844621565,575.7960426916892 M133.3765970746615,112.41911790442225 L155.7112986300177,554.6483804684979 M155.7112986300177,554.6483804684979 L167.73647276320088,554.6483759371981 M146.51605577666456,112.41911368885974 L167.73647276320088,554.6483759371981 M132.7572708859471,179.45951008014276 L130.6667779845131,179.45951445174438 M132.5827082039089,176.05559168155003 L132.7572708859471,179.45951008014276 M130.49083295062883,176.05559605031817 L132.5827082039089,176.05559168155003 M145.10545600270206,203.16156265093224 L142.59788847385727,152.1015371292554 M131.89191220018336,203.16155825981036 L145.10545600270206,203.16156265093224 M132.5827082039089,176.05559168155003 L134.50372066554496,157.1634207974348 M132.7572708859471,179.45951008014276 L134.6757545216093,160.55499528882342 M136.04431257948846,147.06952956062833 L133.9798354769688,147.06952529721497 M134.91866243467598,158.16140894274412 L136.04431257948846,147.06952956062833 M135.8740713789383,143.68687151075187 L136.04431257948846,147.06952956062833 M134.74694744789576,154.77141031987014 L135.8740713789383,143.68687151075187 M133.80824613750877,143.68686725017199 L135.8740713789383,143.68687151075187 M153.99876844621565,575.7960426916892 L166.10939352060973,575.7960472876068 M166.10939352060973,575.7960472876068 L145.10545600270206,203.16156265093224 M167.73647276320088,554.6483759371981 L166.10939352060973,575.7960472876068" stroke="black"  stroke-width="4"  fill="red"/></svg>