<svg viewBox="0 0 800 800" xmlns="http://www.w3.org/2000/svg"><path d="M549.2331121586353,322.83274151795194 L551.1930000634749,336.46813456214363 M551.5826769208877,329.14378441907604 L551.1930000634749,336.46813456214363 M549.6135116419756,315.5641681785403 L551.5826769208877,329.14378441907604 M549.2331121586353,322.83274151795194 L549.6135116419756,315.5641681785403 M553.6789899306974,353.7637405300932 L555.7486890124378,368.16313186045113 M555.7486890124378,368.16313186045113 L595.4419261358626,368.16312842766393 M587.3906248515236,322.83274151795194 L595.4419261358626,368.16312842766393 M587.3906248515236,322.83274151795194 L549.2331121586353,322.83274151795194 M565.029016230771,342.5342206966421 L551.1930000634749,336.46813456214363 M565.029016230771,342.5342206966421 L565.7080388750295,342.868840908123 M565.8111225533996,347.57851079845966 L566.4664934029363,347.1874248928086 M566.4664934029363,347.1874248928086 L566.987824044106,346.75200699013743 M566.987824044106,346.75200699013743 L567.3643542923128,346.2814289570416 M567.3643542923128,346.2814289570416 L567.5883860087279,345.7855738322273 M567.5883860087279,345.7855738322273 L567.6554381088478,345.27483633413465 M567.6554381088478,345.27483633413465 L567.564316186053,344.75988179473813 M567.564316186053,344.75988179473813 L567.3171252512865,344.25144545017224 M567.3171252512865,344.25144545017224 L566.9192307139114,343.7601040283015 M566.9192307139114,343.7601040283015 L566.3790647552826,343.29603513179757 M566.3790647552826,343.29603513179757 L565.7080388750295,342.868840908123 M553.6789899306974,353.7637405300932 L565.8111225533996,347.57851079845966 M571.7835595869177,344.43969448013445 L571.4761809578713,344.45744478256455 M571.4761809578713,344.45744478256455 L571.1923280796535,344.5096619735708 M571.1923280796535,344.5096619735708 L570.9485138603995,344.59332747184476 M570.9485138603995,344.59332747184476 L570.7588673744266,344.70358689099896 M570.7588673744266,344.70358689099896 L570.6344236208762,344.834043090199 M570.6344236208762,344.834043090199 L570.5824405867335,344.9771281708941 M570.5824405867335,344.9771281708941 L570.6059549564465,345.1245333446965 M570.6059549564465,345.1245333446965 L570.7036423084104,345.2676930328263 M570.7036423084104,345.2676930328263 L570.8698416517178,345.3982818606129 M570.8698416517178,345.3982818606129 L571.0948999351614,345.5086937562062 M571.0948999351614,345.5086937562062 L571.3657492387132,345.59250054172827 M571.3657492387132,345.59250054172827 L571.6666374507403,345.6448254528766 M571.6666374507403,345.6448254528766 L571.9800513292843,345.6626108441453 M571.9800513292843,345.6626108441453 L572.287744860917,345.64482325147594 M572.287744860917,345.64482325147594 L572.5718141798087,345.59250054172827 M572.5718141798087,345.59250054172827 L572.8157365320343,345.50869155532706 M572.8157365320343,345.50869155532706 L573.0053140151409,345.39827966015673 M573.0053140151409,345.39827966015673 L573.1295494241303,345.2676952327822 M573.1295494241303,345.2676952327822 L573.1812324915885,345.1245355441041 M573.1812324915885,345.1245355441041 L573.1573732720451,344.9771281708941 M573.1573732720451,344.9771281708941 L573.0594192566756,344.834043090199 M573.0594192566756,344.834043090199 L572.8930484585046,344.7035846932032 M572.8930484585046,344.7035846932032 L572.6679751887839,344.59332747184476 M572.6679751887839,344.59332747184476 L572.3972708004203,344.5096641706242 M572.3972708004203,344.5096641706242 L572.0966422656517,344.45744478256455 M572.0966422656517,344.45744478256455 L571.7835595869177,344.43969448013445 M551.5826769208877,329.14378441907604 L565.453853076327,335.185305004247 M565.453853076327,335.185305004247 L565.029016230771,342.5342206966421 M587.8606853636666,315.5641681785403 L549.6135116419756,315.5641681785403 M595.9506334794565,360.7121125217803 L587.8606853636666,315.5641681785403 M556.1603637167624,360.7121159410748 L595.9506334794565,360.7121125217803 M554.0805957234098,346.36975275272823 L556.1603637167624,360.7121159410748 M566.2397121131684,340.2092839324913 L554.0805957234098,346.36975275272823 M566.1346240578468,335.5185745701662 L566.8074147567233,335.94404516306383 M566.8074147567233,335.94404516306383 L567.3490473752606,336.40624250739177 M567.3490473752606,336.40624250739177 L567.7480792180692,336.89560336466434 M567.7480792180692,336.89560336466434 L567.9960536969149,337.4019912924098 M567.9960536969149,337.4019912924098 L568.0875881004376,337.91487224920434 M568.0875881004376,337.91487224920434 L568.0205678231085,338.42355423414404 M568.0205678231085,338.42355423414404 L567.7961856162327,338.9174147785445 M567.7961856162327,338.9174147785445 L567.418928945223,339.38610085352025 M567.418928945223,339.38610085352025 L566.8965103370274,339.81976897905076 M566.8965103370274,339.81976897905076 L566.2397121131684,340.2092839324913 M565.453853076327,335.185305004247 L566.1346240578468,335.5185745701662 M556.907615636562,322.2124633148393 L560.5350169250852,322.2124633148393 M557.1604646415163,323.89104834316356 L556.907615636562,322.2124633148393 M560.5350169250852,322.2124633148393 L560.7932750361863,323.89104834316356 M560.7932750361863,323.89104834316356 L557.1604646415163,323.89104834316356 M572.2252812808795,337.0830938411426 L572.539120634395,337.10077262594837 M572.539120634395,337.10077262594837 L572.8404893792231,337.1527816248147 M572.8404893792231,337.1527816248147 L573.1118745559245,337.2361078745773 M573.1118745559245,337.2361078745773 L573.3375297217427,337.34592095089783 M573.3375297217427,337.34592095089783 L573.5043497306951,337.4758538924709 M573.5043497306951,337.4758538924709 L573.6025940247794,337.6183627417934 M573.6025940247794,337.6183627417934 L573.6265677030223,337.76517656590056 M573.6265677030223,337.76517656590056 L573.5748164073508,337.9077598955996 M573.5748164073508,337.9077598955996 L573.4503339500853,338.0378186661082 M573.4503339500853,338.0378186661082 L573.2603448865318,338.14778616257354 M573.2603448865318,338.14778616257354 L573.0158702737936,338.23125785859145 M573.0158702737936,338.23125785859145 L572.7311401767838,338.2833700096971 M572.7311401767838,338.2833700096971 L572.4227158285526,338.30108602358564 M572.4227158285526,338.30108602358564 L572.1085436828458,338.28337220223904 M572.1085436828458,338.28337220223904 L571.8069139636013,338.23125785859145 M571.8069139636013,338.23125785859145 L571.5353831312262,338.1477883545947 M571.5353831312262,338.1477883545947 L571.3097429637552,338.03782085770706 M571.3097429637552,338.03782085770706 L571.1430951715276,337.90775770449994 M571.1430951715276,337.90775770449994 L571.0451188259528,337.76517437534847 M571.0451188259528,337.76517437534847 L571.0214916185824,337.6183627417934 M571.0214916185824,337.6183627417934 L571.0735443594527,337.4758538924709 M571.0735443594527,337.4758538924709 L571.198236210563,337.3459231398408 M571.198236210563,337.3459231398408 L571.3882946567052,337.2361078745773 M571.3882946567052,337.2361078745773 L571.6326607076032,337.15277943661295 M571.6326607076032,337.15277943661295 L571.9171733317718,337.10077262594837 M571.9171733317718,337.10077262594837 L572.2252812808795,337.0830938411426 M561.3696671205797,351.83455704495407 L565.0925232395535,351.83455704495407 M561.6360090936278,353.6027175490087 L561.3696671205797,351.83455704495407 M565.0925232395535,351.83455704495407 L565.3645629685624,353.6027175490087 M565.3645629685624,353.6027175490087 L561.6360090936278,353.6027175490087 M583.0132662839045,323.89105048077744 L579.3804558823462,323.89105048077744 M582.7219235137694,322.21246544609244 L583.0132662839045,323.89105048077744 M579.3804558823462,323.89105048077744 L579.0945222183783,322.21246544609244 M579.0945222183783,322.21246544609244 L582.7219235137694,322.21246544609244 M588.1701564944592,353.60271529723525 L584.4416026267809,353.60271529723525 M587.8632666040775,351.8345548000574 L588.1701564944592,353.60271529723525 M584.4416026267809,353.60271529723525 L584.1404104923377,351.8345548000574 M584.1404104923377,351.8345548000574 L587.8632666040775,351.8345548000574 M587.3906248515236,322.83274151795194 L587.8606853636666,315.5641681785403 M595.4419261358626,368.16312842766393 L595.9506334794565,360.7121125217803 M555.7486890124378,368.16313186045113 L556.1603637167624,360.7121159410748 M553.6789899306974,353.7637405300932 L554.0805957234098,346.36975275272823 M566.2397121131684,340.2092839324913 L565.8111225533996,347.57851079845966 M566.1346240578468,335.5185745701662 L565.7080388750295,342.868840908123 M571.7835595869177,344.43969448013445 L572.2252812808795,337.0830938411426 M560.4438933752028,323.8403311944 L556.818400630623,323.8403311944 M556.818400630623,323.8403311944 L556.907615636562,322.2124633148393 M560.4438933752028,323.8403311944 L560.5350169250852,322.2124633148393 M556.818400630623,323.8403311944 L557.0709834362409,325.52045788903797 M557.0709834362409,325.52045788903797 L557.1604646415163,323.89104834316356 M560.7018795922626,325.52045788903797 L560.4438933752028,323.8403311944 M560.7018795922626,325.52045788903797 L560.7932750361863,323.89104834316356 M557.0709834362409,325.52045788903797 L560.7018795922626,325.52045788903797 M564.9965420919601,353.4892435632046 L561.2756962571381,353.4892435632046 M561.2756962571381,353.4892435632046 L561.3696671205797,351.83455704495407 M564.9965420919601,353.4892435632046 L565.0925232395535,351.83455704495407 M561.2756962571381,353.4892435632046 L561.5417504469601,355.2589789223788 M561.5417504469601,355.2589789223788 L561.6360090936278,353.6027175490087 M565.2682878813024,355.2589789223788 L564.9965420919601,353.4892435632046 M565.2682878813024,355.2589789223788 L565.3645629685624,353.6027175490087 M561.5417504469601,355.2589789223788 L565.2682878813024,355.2589789223788 M579.2792662854746,325.52046002861346 L582.9101624483773,325.52046002861346 M582.9101624483773,325.52046002861346 L583.0132662839045,323.89105048077744 M579.2792662854746,325.52046002861346 L579.3804558823462,323.89105048077744 M582.9101624483773,325.52046002861346 L582.6191264038006,323.84033332761237 M582.6191264038006,323.84033332761237 L582.7219235137694,322.21246544609244 M578.9936336523601,323.84033332761237 L579.2792662854746,325.52046002861346 M578.9936336523601,323.84033332761237 L579.0945222183783,322.21246544609244 M582.6191264038006,323.84033332761237 L578.9936336523601,323.84033332761237 M584.3350104788944,355.25897666860175 L588.0615479059884,355.25897666860175 M588.0615479059884,355.25897666860175 L588.1701564944592,353.60271529723525 M584.3350104788944,355.25897666860175 L584.4416026267809,353.60271529723525 M588.0615479059884,355.25897666860175 L587.7549896109666,353.4892413163068 M587.7549896109666,353.4892413163068 L587.8632666040775,351.8345548000574 M584.0341437833706,353.4892413163068 L584.3350104788944,355.25897666860175 M584.0341437833706,353.4892413163068 L584.1404104923377,351.8345548000574 M587.7549896109666,353.4892413163068 L584.0341437833706,353.4892413163068" stroke="black"  stroke-width="4"  fill="red"/>
<path d="M501.41080966523873,396.2360871655328 L470.3708220709376,396.2360883652867 M470.57866045775995,388.6763688047596 L470.3708220709376,396.2360883652867 M501.6963499420199,388.67636760958135 L470.57866045775995,388.6763688047596 M501.41080966523873,396.2360871655328 L501.6963499420199,388.67636760958135 M432.0509883405331,396.2360883652867 L401.01100306847,396.2360883652867 M401.01100306847,396.2360883652867 L401.2428763330776,416.59086444250727 M503.3461141442332,416.59085699764336 L401.2428763330776,416.59086444250727 M503.3461141442332,416.59085699764336 L501.41080966523873,396.2360871655328 M457.18830085867256,402.9568294481377 L470.3708220709376,396.2360883652867 M446.32129590964337,403.12610171503695 L447.2943857862393,403.4837849041394 M447.2943857862393,403.4837849041394 L448.36193888637104,403.7664658202534 M448.36193888637104,403.7664658202534 L449.4995642564389,403.96761011434035 M449.4995642564389,403.96761011434035 L450.6812248385294,404.0825659165537 M450.6812248385294,404.0825659165537 L451.8798798157862,404.1086875527027 M451.8798798157862,404.1086875527027 L453.0680432571687,404.0453606419529 M453.0680432571687,404.0453606419529 L454.2184883752665,403.8940495949405 M454.2184883752665,403.8940495949405 L455.3048928068864,403.65826041808737 M455.3048928068864,403.65826041808737 L456.3024028368881,403.3434288719787 M456.3024028368881,403.3434288719787 L457.18830085867256,402.9568294481377 M446.32129590964337,403.12610171503695 L445.9490710557926,402.9568294481377 M432.0509883405331,396.2360883652867 L445.9490710557926,402.9568294481377 M453.11435283609393,406.32786504185117 L453.0658355095154,406.16552369343765 M453.0658355095154,406.16552369343765 L452.94076396010246,406.0126565783355 M452.94076396010246,406.0126565783355 L452.74644741496815,405.87813894622843 M452.74644741496815,405.87813894622843 L452.49417521756453,405.7697740882853 M452.49417521756453,405.7697740882853 L452.1985996104577,405.693839080011 M452.1985996104577,405.693839080011 L451.8768929662229,405.65473813562403 M451.8768929662229,405.65473813562403 L451.5477221907145,405.65474057295603 M451.5477221907145,405.65474057295603 L451.23018342991605,405.693839080011 M451.23018342991605,405.693839080011 L450.94270249327354,405.7697740882853 M450.94270249327354,405.7697740882853 L450.70196318685316,405.8781413844612 M450.70196318685316,405.8781413844612 L450.52195873883517,406.01265413956025 M450.52195873883517,406.01265413956025 L450.413173126548,406.1655261328294 M450.413173126548,406.1655261328294 L450.38193534465034,406.32786504185117 M450.38193534465034,406.32786504185117 L450.43010372252934,406.49024753027663 M450.43010372252934,406.49024753027663 L450.55490242776006,406.64323784472083 M450.55490242776006,406.64323784472083 L450.74910278545923,406.77792330540854 M450.74910278545923,406.77792330540854 L451.0014288092208,406.8864689363767 M451.0014288092208,406.8864689363767 L451.2972159265903,406.9625562599948 M451.2972159265903,406.9625562599948 L451.6192464779225,407.00173450867214 M451.6192464779225,407.00173450867214 L451.9487892668142,407.00173939420324 M451.9487892668142,407.00173939420324 L452.26665300995234,406.9625538173874 M452.26665300995234,406.9625538173874 L452.55433427725444,406.8864689363767 M452.55433427725444,406.8864689363767 L452.7951033798549,406.77792330540854 M452.7951033798549,406.77792330540854 L452.9749634275763,406.6432329620831 M452.9749634275763,406.6432329620831 L453.08347342323304,406.49024753027663 M453.08347342323304,406.49024753027663 L453.11435283609393,406.32786504185117 M470.57866045775995,388.6763688047596 L457.3641215729829,395.37157198926457 M457.3641215729829,395.37157198926457 L457.18830085867256,402.9568294481377 M503.64143841080863,408.95436898572177 L501.6963499420199,388.67636760958135 M401.27825966617314,408.9543764028223 L503.64143841080863,408.95436898572177 M401.0452141615578,388.6763688047596 L401.27825966617314,408.9543764028223 M432.16290131805283,388.6763688047596 L401.0452141615578,388.6763688047596 M446.09659878159323,395.37157198926457 L432.16290131805283,388.6763688047596 M446.4697815362726,395.5402034690199 L446.09659878159323,395.37157198926457 M457.3641215729829,395.37157198926457 L456.4760492101156,395.756708099702 M456.4760492101156,395.756708099702 L455.476072057205,396.0703484392951 M455.476072057205,396.0703484392951 L454.38696416478507,396.3052457467031 M454.38696416478507,396.3052457467031 L453.2336415301679,396.4559845834368 M453.2336415301679,396.4559845834368 L452.04249291833,396.5190720401964 M452.04249291833,396.5190720401964 L450.8408141670549,396.4930491740963 M450.8408141670549,396.4930491740963 L449.65616121142995,396.3785280717142 M449.65616121142995,396.3785280717142 L448.5156439691713,396.1781445272602 M448.5156439691713,396.1781445272602 L447.4453662139772,395.8965330254703 M447.4453662139772,395.8965330254703 L446.4697815362726,395.5402034690199 M486.64121376561405,391.9658861953627 L486.7984727156672,393.8591212647038 M482.78903764466116,391.9658861953627 L486.64121376561405,391.9658861953627 M486.7984727156672,393.8591212647038 L482.9401957959593,393.8591212647038 M482.9401957959593,393.8591212647038 L482.78903764466116,391.9658861953627 M420.3058642313438,391.9658813882302 L420.3580660381228,393.8591164423327 M416.45368812588146,391.9658813882302 L420.3058642313438,391.9658813882302 M420.3580660381228,393.8591164423327 L416.49978913395466,393.8591164423327 M416.49978913395466,393.8591164423327 L416.45368812588146,391.9658813882302 M453.2803818264956,398.7298688251229 L453.24944679259835,398.8916388814166 M453.24944679259835,398.8916388814166 L453.1406838418667,399.0440474227647 M453.1406838418667,399.0440474227647 L452.96038807917256,399.1782299448514 M452.96038807917256,399.1782299448514 L452.7190257608115,399.2863663825318 M452.7190257608115,399.2863663825318 L452.4306282696165,399.36216446938397 M452.4306282696165,399.36216446938397 L452.1119669868667,399.4012023495751 M452.1119669868667,399.4012023495751 L451.78159183688837,399.4011974824581 M451.78159183688837,399.4011974824581 L451.4587426581755,399.36216690278457 M451.4587426581755,399.36216690278457 L451.1621983326995,399.28636638253175 M451.1621983326995,399.28636638253175 L450.90922064663533,399.1782299448514 M450.90922064663533,399.1782299448514 L450.7145120583709,399.04405228699204 M450.7145120583709,399.04405228699204 L450.5893780396986,398.8916388814166 M450.5893780396986,398.8916388814166 L450.5410666363971,398.7298688251229 M450.5410666363971,398.7298688251229 L450.57236185683047,398.5681422934533 M450.57236185683047,398.5681422934533 L450.68140184622484,398.4158470664589 M450.68140184622484,398.4158470664589 L450.86184274974465,398.2818418909601 M450.86184274974465,398.2818418909601 L451.1031751332829,398.1738835700408 M451.1031751332829,398.1738835700408 L451.3913713013573,398.0982351675344 M451.3913713013573,398.0982351675344 L451.7097059827948,398.0592842415208 M451.7097059827948,398.0592842415208 L452.0397072512366,398.05928181338896 M452.0397072512366,398.05928181338896 L452.3622308615841,398.0982351675344 M452.3622308615841,398.0982351675344 L452.6585625749007,398.1738835700408 M452.6585625749007,398.1738835700408 L452.9114861380899,398.2818394619286 M452.9114861380899,398.2818394619286 L453.1063114905736,398.4158494960322 M453.1063114905736,398.4158494960322 L453.2317197039538,398.5681398632643 M453.2317197039538,398.5681398632643 L453.2803818264956,398.7298688251229 M483.8752675515402,405.5708285327402 L483.7211401984788,403.6404045203393 M487.7712845122371,405.5708285327402 L483.8752675515402,405.5708285327402 M483.7211401984788,403.6404045203393 L487.6109365220228,403.6404045203393 M487.6109365220228,403.6404045203393 L487.7712845122371,405.5708285327402 M416.7849788211129,405.5708285327402 L416.7379722395673,403.6404045203393 M420.68099578180977,405.57082853274017 L416.7849788211129,405.5708285327402 M416.7379722395673,403.6404045203393 L420.6277685631113,403.6404045203393 M420.6277685631113,403.6404045203393 L420.68099578180977,405.57082853274017 M503.3461141442332,416.59085699764336 L503.64143841080863,408.95436898572177 M401.2428763330776,416.59086444250727 L401.27825966617314,408.9543764028223 M401.01100306847,396.2360883652867 L401.0452141615578,388.6763688047596 M432.0509883405331,396.2360883652867 L432.16290131805283,388.6763688047596 M446.09659878159323,395.37157198926457 L445.9490710557926,402.9568294481377 M446.4697815362726,395.5402034690199 L446.32129590964337,403.12610171503695 M453.11435283609393,406.32786504185117 L453.2803818264956,398.7298688251229 M486.7428167301893,395.5504465688595 L486.58573360101036,393.6555964397071 M486.58573360101036,393.6555964397071 L486.64121376561405,391.9658861953627 M486.7428167301893,395.5504465688595 L486.7984727156672,393.8591212647038 M486.58573360101036,393.6555964397071 L482.7357098110951,393.6555964397071 M482.7357098110951,393.6555964397071 L482.78903764466116,391.9658861953627 M482.88669896242027,395.5504465688595 L486.7428167301893,395.5504465688595 M482.88669896242027,395.5504465688595 L482.9401957959593,393.8591212647038 M482.7357098110951,393.6555964397071 L482.88669896242027,395.5504465688595 M420.33959114051584,395.55044174237895 L420.2874476971385,393.6555916284695 M420.2874476971385,393.6555916284695 L420.3058642313438,391.9658813882302 M420.33959114051584,395.55044174237895 L420.3580660381228,393.8591164423327 M420.2874476971385,393.6555916284695 L416.4374239226965,393.6555916284695 M416.4374239226965,393.6555916284695 L416.45368812588146,391.9658813882302 M416.48347338826926,395.55044174237895 L420.33959114051584,395.55044174237895 M416.48347338826926,395.55044174237895 L416.49978913395466,393.8591164423327 M416.4374239226965,393.6555916284695 L416.48347338826926,395.55044174237895 M483.66676598320134,405.3400205150101 L483.8207193338337,407.27207019367825 M483.8207193338337,407.27207019367825 L483.8752675515402,405.5708285327402 M483.66676598320134,405.3400205150101 L483.7211401984788,403.6404045203393 M483.8207193338337,407.27207019367825 L487.71453470822576,407.27207019367825 M487.71453470822576,407.27207019367825 L487.7712845122371,405.5708285327402 M487.55436774324323,405.3400205150101 L483.66676598320134,405.3400205150101 M487.55436774324323,405.3400205150101 L487.6109365220228,403.6404045203393 M487.71453470822576,407.27207019367825 L487.55436774324323,405.3400205150101 M416.72138890160903,405.3400205150101 L416.7683424149665,407.27207019367825 M416.7683424149665,407.27207019367825 L416.7849788211129,405.5708285327402 M416.72138890160903,405.3400205150101 L416.7379722395673,403.6404045203393 M416.7683424149665,407.27207019367825 L420.6621577893587,407.27207019367825 M420.6621577893587,407.27207019367825 L420.68099578180977,405.57082853274017 M420.608990661651,405.3400205150101 L416.72138890160903,405.3400205150101 M420.608990661651,405.3400205150101 L420.6277685631113,403.6404045203393 M420.6621577893587,407.27207019367825 L420.608990661651,405.3400205150101" stroke="black"  stroke-width="4"  fill="red"/>
<path d="M287.42346091565014,247.46260636292132 L314.6142129427838,247.46260544227775 M314.45477549987845,240.51627645617748 L314.6142129427838,247.46260544227775 M287.2044166262695,240.51627737274066 L314.45477549987845,240.51627645617748 M287.42346091565014,247.46260636292132 L287.2044166262695,240.51627737274066 M348.18204496383487,247.46260544227775 L375.3727947692494,247.46260544227775 M375.3727947692494,247.46260544227775 L375.545236452608,232.32497473231828 M288.8627381521645,232.32498009819358 L375.545236452608,232.32497473231828 M288.8627381521645,232.32498009819358 L287.42346091565014,247.46260636292132 M326.79828458479784,242.35901062557272 L314.6142129427838,247.46260544227775 M336.2320701519824,242.23183884337564 L335.41747220996695,241.963335634879 M335.41747220996695,241.963335634879 L334.51587534444417,241.7513446418916 M334.51587534444417,241.7513446418916 L333.5476478097217,241.6006131951542 M333.5476478097217,241.6006131951542 L332.5346236074039,241.51451086019446 M332.5346236074039,241.51451086019446 L331.4995931288721,241.49494991863867 M331.4995931288721,241.49494991863867 L330.4658658575628,241.54237440580687 M330.4658658575628,241.54237440580687 L329.4567127785361,241.65572635484253 M329.4567127785361,241.65572635484253 L328.4948520563383,241.83246926972492 M328.4948520563383,241.83246926972492 L327.60199316861616,242.06866174393105 M327.60199316861616,242.06866174393105 L326.79828458479784,242.35901062557272 M336.2320701519824,242.23183884337564 L336.541356251277,242.35901062557272 M348.18204496383487,247.46260544227775 L336.541356251277,242.35901062557272 M330.6257862120156,239.83888372004398 L330.65345890032,239.95964762614224 M330.65345890032,239.95964762614224 L330.74802329670734,240.07341896281375 M330.74802329670734,240.07341896281375 L330.9039863975072,240.1735780205588 M330.9039863975072,240.1735780205588 L331.11230501725845,240.25429445587716 M331.11230501725845,240.25429445587716 L331.3608734071918,240.31087131990748 M331.3608734071918,240.31087131990748 L331.63522192233603,240.34000940823807 M331.63522192233603,240.34000940823807 L331.91938757094795,240.34000759182484 M331.91938757094795,240.34000759182484 L332.1968341006737,240.31087131990748 M332.1968341006737,240.31087131990748 L332.45141778648855,240.25429445587716 M332.45141778648855,240.25429445587716 L332.66833467010247,240.17357620472472 M332.66833467010247,240.17357620472472 L332.83497005553244,240.0734207782993 M332.83497005553244,240.0734207782993 L332.9416394704458,239.9596458110525 M332.9416394704458,239.9596458110525 L332.9821741105602,239.83888372004398 M332.9821741105602,239.83888372004398 L332.95423080310485,239.71814957894844 M332.95423080310485,239.71814957894844 L332.859462479325,239.6044538773076 M332.859462479325,239.6044538773076 L332.7033925233416,239.50440583703795 M332.7033925233416,239.50440583703795 L332.4951006052901,239.42380534157908 M332.4951006052901,239.42380534157908 L332.2466863569051,239.36732278629054 M332.2466863569051,239.36732278629054 L331.97258038435024,239.33824441635693 M331.97258038435024,239.33824441635693 L331.6886835112642,239.33824079049998 M331.6886835112642,239.33824079049998 L331.4114770202392,239.3673245993201 M331.4114770202392,239.3673245993201 L331.15705337163035,239.42380534157908 M331.15705337163035,239.42380534157908 L330.94017986845876,239.50440583703795 M330.94017986845876,239.50440583703795 L330.7734575383564,239.6044575050159 M330.7734575383564,239.6044575050159 L330.6665841589222,239.7181495789486 M330.6665841589222,239.7181495789486 L330.6257862120156,239.83888372004398 M314.45477549987845,240.51627645617748 L326.6662027110161,235.43535505063198 M326.6662027110161,235.43535505063198 L326.79828458479784,242.35901062557272 M288.64996541141085,225.4462174822177 L287.2044166262695,240.51627737274066 M375.5197437673067,225.44621214046148 L288.64996541141085,225.4462174822177 M375.3465506798667,240.51627645617748 L375.5197437673067,225.44621214046148 M348.09619403303964,240.51627645617748 L375.3465506798667,240.51627645617748 M336.43052893189696,235.43535505063198 L348.09619403303964,240.51627645617748 M336.12058171178836,235.3087496277031 L336.43052893189696,235.43535505063198 M326.6662027110161,235.43535505063198 L327.4717008503817,235.1462993355199 M327.4717008503817,235.1462993355199 L328.36653602902356,234.91115908230375 M328.36653602902356,234.91115908230375 L329.33051538405925,234.73520369633252 M329.33051538405925,234.73520369633252 L330.3418819292612,234.62235688780564 M330.3418819292612,234.62235688780564 L331.37786805292745,234.5751437584886 M331.37786805292745,234.5751437584886 L332.4151523442519,234.59461752119435 M332.4151523442519,234.59461752119435 L333.4303749918918,234.68033613572055 M333.4303749918918,234.68033613572055 L334.40069653802226,234.8303959124832 M334.40069653802226,234.8303959124832 L335.3042360838234,235.04144241830986 M335.3042360838234,235.04144241830986 L336.12058171178836,235.3087496277031 M300.83623357343293,238.00658722311908 L300.95524153314346,236.57385450565775 M304.19228815370184,238.00658722311908 L300.83623357343293,238.00658722311908 M300.95524153314346,236.57385450565775 L304.3066792466955,236.57385450565775 M304.3066792466955,236.57385450565775 L304.19228815370184,238.00658722311908 M358.6282570468525,238.00659087176615 L358.66776151136395,236.57385814427295 M361.9843116388789,238.00659087176615 L358.6282570468525,238.00659087176615 M358.66776151136395,236.57385814427295 L362.01919923664116,236.57385814427295 M362.01919923664116,236.57385814427295 L361.9843116388789,238.00659087176615 M330.50235285735585,232.9264640482212 L330.54325389510143,232.80626885844308 M330.54325389510143,232.80626885844308 L330.6503732743842,232.69308435572998 M330.6503732743842,232.69308435572998 L330.81747014708566,232.59347940663298 M330.81747014708566,232.59347940663298 L331.03482493368136,232.5132388131037 M331.03482493368136,232.5132388131037 L331.28980865150453,232.45701028795457 M331.28980865150453,232.45701028795457 L331.5676215198512,232.42805635926342 M331.5676215198512,232.42805635926342 L331.8521359220646,232.4280599689279 M331.8521359220646,232.4280599689279 L332.1268347778838,232.45700848302138 M332.1268347778838,232.45700848302138 L332.375782913202,232.5132388131037 M332.375782913202,232.5132388131037 L332.58451873639785,232.59347940663298 M332.58451873639785,232.59347940663298 L332.7409168330616,232.69308074421818 M332.7409168330616,232.69308074421818 L332.83587842144567,232.80626885844308 M332.83587842144567,232.80626885844308 L332.8638688126473,232.9264640482212 M332.8638688126473,232.9264640482212 L332.8232322257244,233.04668712370636 M332.8232322257244,233.04668712370636 L332.716317681425,233.1599543175185 M332.716317681425,233.1599543175185 L332.5493081287671,233.25966279850587 M332.5493081287671,233.25966279850587 L332.3319097684627,233.34002087329142 M332.3319097684627,233.34002087329142 L332.07676530493364,233.3963452994031 M332.07676530493364,233.3963452994031 L331.7987113364301,233.42535157460634 M331.7987113364301,233.42535157460634 L331.5139269783381,233.4253533829154 M331.5139269783381,233.4253533829154 L331.2389845386775,233.3963452994031 M331.2389845386775,233.3963452994031 L330.98988161061044,233.34002087329142 M330.98988161061044,233.34002087329142 L330.7811189828605,233.25966460623707 M330.7811189828605,233.25966460623707 L330.6248282104356,233.159952510135 M330.6248282104356,233.159952510135 L330.5300714562518,233.04668893069498 M330.5300714562518,233.04668893069498 L330.50235285735585,232.9264640482212 M304.99956072697535,227.89566212728832 L304.8870719532455,229.3045686297378 M301.67608779503666,227.89566212728832 L304.99956072697535,227.89566212728832 M304.8870719532455,229.3045686297378 L301.5590589326643,229.3045686297378 M301.5590589326643,229.3045686297378 L301.67608779503666,227.89566212728832 M362.2305124504624,227.89566212728832 L362.1962050247506,229.3045686297378 M358.9070395185237,227.89566212728832 L362.2305124504624,227.89566212728832 M362.1962050247506,229.3045686297378 L358.86819200416943,229.3045686297378 M358.86819200416943,229.3045686297378 L358.9070395185237,227.89566212728832 M288.8627381521645,232.32498009819358 L288.64996541141085,225.4462174822177 M375.545236452608,232.32497473231828 L375.5197437673067,225.44621214046148 M375.3727947692494,247.46260544227775 L375.3465506798667,240.51627645617748 M348.18204496383487,247.46260544227775 L348.09619403303964,240.51627645617748 M336.43052893189696,235.43535505063198 L336.541356251277,242.35901062557272 M336.12058171178836,235.3087496277031 L336.2320701519824,242.23183884337564 M330.6257862120156,239.83888372004398 L330.50235285735585,232.9264640482212 M300.9972386348071,238.11957066760903 L300.8783464351558,239.55373422828086 M300.8783464351558,239.55373422828086 L300.83623357343293,238.00658722311908 M300.9972386348071,238.11957066760903 L300.95524153314346,236.57385450565775 M300.8783464351558,239.55373422828086 L304.23276726361416,239.55373422828086 M304.23276726361416,239.55373422828086 L304.19228815370184,238.00658722311908 M304.34704708741447,238.11957066760903 L300.9972386348071,238.11957066760903 M304.34704708741447,238.11957066760903 L304.3066792466955,236.57385450565775 M304.23276726361416,239.55373422828086 L304.34704708741447,238.11957066760903 M358.6817023689022,238.11957430986052 L358.64223633072106,239.55373788056937 M358.64223633072106,239.55373788056937 L358.6282570468525,238.00659087176615 M358.6817023689022,238.11957430986052 L358.66776151136395,236.57385814427295 M358.64223633072106,239.55373788056937 L361.9966571709255,239.55373788056937 M361.9966571709255,239.55373788056937 L361.9843116388789,238.00659087176615 M362.0315108332233,238.11957430986052 L358.6817023689022,238.11957430986052 M362.0315108332233,238.11957430986052 L362.01919923664116,236.57385814427295 M361.9966571709255,239.55373788056937 L362.0315108332233,238.11957430986052 M304.92687760155184,230.84299549499383 L305.03925786945643,229.4326704867887 M305.03925786945643,229.4326704867887 L304.99956072697535,227.89566212728832 M304.92687760155184,230.84299549499383 L304.8870719532455,229.3045686297378 M305.03925786945643,229.4326704867887 L301.7173871289164,229.4326704867887 M301.7173871289164,229.4326704867887 L301.67608779503666,227.89566212728832 M301.60047115170465,230.84299549499383 L304.92687760155184,230.84299549499383 M301.60047115170465,230.84299549499383 L301.5590589326643,229.3045686297378 M301.7173871289164,229.4326704867887 L301.60047115170465,230.84299549499383 M362.208345163512,230.84299549499383 L362.2426194965389,229.4326704867887 M362.2426194965389,229.4326704867887 L362.2305124504624,227.89566212728832 M362.208345163512,230.84299549499383 L362.1962050247506,229.3045686297378 M362.2426194965389,229.4326704867887 L358.9207487559989,229.4326704867887 M358.9207487559989,229.4326704867887 L358.9070395185237,227.89566212728832 M358.88193871366485,230.84299549499383 L362.208345163512,230.84299549499383 M358.88193871366485,230.84299549499383 L358.86819200416943,229.3045686297378 M358.9207487559989,229.4326704867887 L358.88193871366485,230.84299549499383" stroke="black"  stroke-width="4"  fill="red"/>
<path d="M227.14332649403784,311.0930587103186 L229.0174296859101,298.05448973734275 M228.65360229688616,290.8892516057423 L229.0174296859101,298.05448973734275 M226.77082481316415,303.87312653440756 L228.65360229688616,290.8892516057423 M227.14332649403784,311.0930587103186 L226.77082481316415,303.87312653440756 M231.27145004927405,282.3727492111702 L233.05075117944673,269.993755254618 M233.05075117944673,269.993755254618 L196.68336765109171,269.99375813624613 M189.38353957357617,311.0930587103186 L196.68336765109171,269.99375813624613 M189.38353957357617,311.0930587103186 L227.14332649403784,311.0930587103186 M217.42562060226965,292.4490008991269 L229.0174296859101,298.05448973734275 M217.42562060226965,292.4490008991269 L216.87365051595393,292.14316502831184 M218.1347514529179,287.87537500284657 L217.4008864396207,288.22717564757295 M217.4008864396207,288.22717564757295 L216.7804901472044,288.6194037320788 M216.7804901472044,288.6194037320788 L216.28655997734444,289.0439557918079 M216.28655997734444,289.0439557918079 L215.92950779334316,289.4920466195012 M215.92950779334316,289.4920466195012 L215.71693023827063,289.9543756246587 M215.71693023827063,289.9543756246587 L215.65343964588817,290.42133507163527 M215.65343964588817,290.42133507163527 L215.74055515209648,290.88318693304564 M215.74055515209648,290.88318693304564 L215.97663257102909,291.33027030430287 M215.97663257102909,291.33027030430287 L216.35693918983094,291.7532255516456 M216.35693918983094,291.7532255516456 L216.87365051595393,292.14316502831184 M231.27145004927405,282.3727492111702 L218.1347514529179,287.87537500284657 M211.5381390093062,290.7120926883867 L211.83643160665096,290.6959655927219 M211.83643160665096,290.6959655927219 L212.1225584530124,290.64852913946174 M212.1225584530124,290.64852913946174 L212.3798382186566,290.57254119293765 M212.3798382186566,290.57254119293765 L212.59333756103482,290.4724327414579 M212.59333756103482,290.4724327414579 L212.75064165302587,290.35403539560474 M212.75064165302587,290.35403539560474 L212.8426148282818,290.2242369181588 M212.8426148282818,290.2242369181588 L212.8639438393374,290.09058551981457 M212.8639438393374,290.09058551981457 L212.81340182677067,289.96084756276366 M212.81340182677067,289.96084756276366 L212.69395727926056,289.84255693778925 M212.69395727926056,289.84255693778925 L212.51257427428618,289.74258402070336 M212.51257427428618,289.74258402070336 L212.27978971669634,289.6667258408604 M212.27978971669634,289.6667258408604 L212.00912604682915,289.61937460355574 M212.00912604682915,289.61937460355574 L211.71629690343138,289.60328169470665 M211.71629690343138,289.60328169470665 L211.4183004318333,289.6193765955282 M211.4183004318333,289.6193765955282 L211.1324252291044,289.6667258408604 M211.1324252291044,289.6667258408604 L210.8752589270515,289.74258601312494 M210.8752589270515,289.74258601312494 L210.66174968147166,289.84255893057514 M210.66174968147166,289.84255893057514 L210.50429315314364,289.96084556954645 M210.50429315314364,289.96084556954645 L210.41205992189043,290.09058352612436 M210.41205992189043,290.09058352612436 L210.39044425139144,290.2242369181588 M210.39044425139144,290.2242369181588 L210.44069787493618,290.35403539560474 M210.44069787493618,290.35403539560474 L210.55995916717072,290.4724347365408 M210.55995916717072,290.4724347365408 L210.74128459441212,290.57254119293765 M210.74128459441212,290.57254119293765 L210.97415044172465,290.64852714373654 M210.97415044172465,290.64852714373654 L211.24502884506927,290.6959655927219 M211.24502884506927,290.6959655927219 L211.5381390093062,290.7120926883867 M228.65360229688616,290.8892516057423 L217.03714740976434,285.3074937158194 M217.03714740976434,285.3074937158194 L217.42562060226965,292.4490008991269 M188.92323839401615,303.87312653440756 L226.77082481316415,303.87312653440756 M196.256424436095,262.9486245415392 L188.92323839401615,303.87312653440756 M232.7052446283136,262.94862167241286 L196.256424436095,262.9486245415392 M230.9179197288696,275.274228274599 L232.7052446283136,262.94862167241286 M217.74951763845698,280.7533270647046 L230.9179197288696,275.274228274599 M216.48402440624875,285.00295636278895 L215.96627150176826,284.6146730545414 M215.96627150176826,284.6146730545414 L215.58524751943062,284.19351491588293 M215.58524751943062,284.19351491588293 L215.34879134245273,283.7483319801175 M215.34879134245273,283.7483319801175 L215.26164275479937,283.288444203243 M215.26164275479937,283.288444203243 L215.32544580234503,282.8234714624102 M215.32544580234503,282.8234714624102 L215.53867395214561,282.36311035537653 M215.53867395214561,282.36311035537653 L215.89670049603785,281.91692766858137 M215.89670049603785,281.91692766858137 L216.39190779326552,281.49418428231866 M216.39190779326552,281.49418428231866 L217.01385685555198,281.1036278303965 M217.01385685555198,281.1036278303965 L217.74951763845698,280.7533270647046 M217.03714740976434,285.3074937158194 L216.48402440624875,285.00295636278895 M221.51308658901422,297.43907363729033 L217.96551556950902,297.43907363729033 M221.75421764923007,295.8382803590434 L221.51308658901422,297.43907363729033 M217.96551556950902,297.43907363729033 L218.21180505817208,295.8382803590434 M218.21180505817208,295.8382803590434 L221.75421764923007,295.8382803590434 M225.5697317089525,270.50822398489305 L222.1089432008686,270.50822398489305 M225.7992178962611,268.9847374387004 L225.5697317089525,270.50822398489305 M222.1089432008686,270.50822398489305 L222.34333870185648,268.9847374387004 M222.34333870185648,268.9847374387004 L225.7992178962611,268.9847374387004 M196.54473036340218,295.8382783264893 L200.08714294791048,295.8382783264893 M196.26688948150746,297.4390715988123 L196.54473036340218,295.8382783264893 M200.08714294791048,295.8382783264893 L199.81446049444378,297.4390715988123 M199.81446049444378,297.4390715988123 L196.26688948150746,297.4390715988123 M211.1368441732987,283.5779652324366 L210.84307089521698,283.56190671585523 M210.84307089521698,283.56190671585523 L210.57159168915263,283.5146700010462 M210.57159168915263,283.5146700010462 L210.33822239272527,283.43900720346414 M210.33822239272527,283.43900720346414 L210.1565201288982,283.33932651664054 M210.1565201288982,283.33932651664054 L210.03703046548443,283.22143080172907 M210.03703046548443,283.22143080172907 L209.98671019521515,283.09218450484406 M209.98671019521515,283.09218450484406 L210.00842462805963,282.9590997658496 M210.00842462805963,282.9590997658496 L210.10091624162595,282.829913874352 M210.10091624162595,282.829913874352 L210.25877563007145,282.7121306333927 M210.25877563007145,282.7121306333927 L210.47280873042382,282.612583220714 M210.47280873042382,282.612583220714 L210.73058946766665,282.5370459522531 M210.73058946766665,282.5370459522531 L211.0171339999985,282.48989826421075 M211.0171339999985,282.48989826421075 L211.31581590648346,282.4738718786316 M211.31581590648346,282.4738718786316 L211.60930688169915,282.48989628071797 M211.60930688169915,282.48989628071797 L211.8805704163732,282.5370459522531 M211.8805704163732,282.5370459522531 L212.11385808790016,282.612581236773 M212.11385808790016,282.612581236773 L212.2956182416548,282.71212864908796 M212.2956182416548,282.71212864908796 L212.4152920483934,282.8299158590872 M212.4152920483934,282.8299158590872 L212.46590201761802,282.95910175105683 M212.46590201761802,282.95910175105683 L212.44447558416934,283.09218450484406 M212.44447558416934,283.09218450484406 L212.35224518137852,283.22143080172907 M212.35224518137852,283.22143080172907 L212.19453888484392,283.33932453004354 M212.19453888484392,283.33932453004354 L211.98051569391342,283.43900720346414 M211.98051569391342,283.43900720346414 L211.72262089798087,283.51467198828436 M211.72262089798087,283.51467198828436 L211.43582357011124,283.56190671585523 M211.43582357011124,283.56190671585523 L211.1368441732987,283.5779652324366 M201.20555139119054,268.9847393731656 L204.66143059182872,268.9847393731656 M200.9411282115111,270.50822592485827 L201.20555139119054,268.9847393731656 M204.66143059182872,268.9847393731656 L204.40191672584646,270.50822592485827 M204.40191672584646,270.50822592485827 L200.9411282115111,270.50822592485827 M189.38353957357617,311.0930587103186 L188.92323839401615,303.87312653440756 M196.68336765109171,269.99375813624613 L196.256424436095,262.9486245415392 M233.05075117944673,269.993755254618 L232.7052446283136,262.94862167241286 M231.27145004927405,282.3727492111702 L230.9179197288696,275.274228274599 M217.74951763845698,280.7533270647046 L218.1347514529179,287.87537500284657 M216.48402440624875,285.00295636278895 L216.87365051595393,292.14316502831184 M211.5381390093062,290.7120926883867 L211.1368441732987,283.5779652324366 M218.0526734478811,299.04388226385294 L221.59841898274368,299.04388226385294 M221.59841898274368,299.04388226385294 L221.51308658901422,297.43907363729033 M218.0526734478811,299.04388226385294 L217.96551556950902,297.43907363729033 M221.59841898274368,299.04388226385294 L221.83930212792504,297.4415792032094 M221.83930212792504,297.4415792032094 L221.75421764923007,295.8382803590434 M218.29870971795407,297.4415792032094 L218.0526734478811,299.04388226385294 M218.29870971795407,297.4415792032094 L218.21180505817208,295.8382803590434 M221.83930212792504,297.4415792032094 L218.29870971795407,297.4415792032094 M222.1918900824072,272.08731372468907 L225.65094130347632,272.08731372468907 M225.65094130347632,272.08731372468907 L225.5697317089525,270.50822398489305 M222.1918900824072,272.08731372468907 L222.1089432008686,270.50822398489305 M225.65094130347632,272.08731372468907 L225.8801973115576,270.56235197131167 M225.8801973115576,270.56235197131167 L225.7992178962611,268.9847374387004 M222.42605048002818,270.56235197131167 L222.1918900824072,272.08731372468907 M222.42605048002818,270.56235197131167 L222.34333870185648,268.9847374387004 M225.8801973115576,270.56235197131167 L222.42605048002818,270.56235197131167 M200.18336051682004,297.4415771687367 L196.64276811339204,297.4415771687367 M196.64276811339204,297.4415771687367 L196.54473036340218,295.8382783264893 M200.18336051682004,297.4415771687367 L200.08714294791048,295.8382783264893 M196.64276811339204,297.4415771687367 L196.3652128891461,299.0438802234538 M196.3652128891461,299.0438802234538 L196.26688948150746,297.4390715988123 M199.9109584174466,299.0438802234538 L200.18336051682004,297.4415771687367 M199.9109584174466,299.0438802234538 L199.81446049444378,297.4390715988123 M196.3652128891461,299.0438802234538 L199.9109584174466,299.0438802234538 M204.75300595579722,270.56235390765147 L201.29885911804044,270.56235390765147 M201.29885911804044,270.56235390765147 L201.20555139119054,268.9847393731656 M204.75300595579722,270.56235390765147 L204.66143059182872,268.9847393731656 M201.29885911804044,270.56235390765147 L201.03470116008958,272.0873156665314 M201.03470116008958,272.0873156665314 L200.9411282115111,270.50822592485827 M204.49375238740382,272.0873156665314 L204.75300595579722,270.56235390765147 M204.49375238740382,272.0873156665314 L204.40191672584646,270.50822592485827 M201.03470116008958,272.0873156665314 L204.49375238740382,272.0873156665314" stroke="black"  stroke-width="4"  fill="red"/>
<path d="M217.74951763845698,280.7533270647046 L218.1347514529179,287.87537500284657 M326.79828458479784,242.35901062557272 L218.1347514529179,287.87537500284657 M326.6662027110161,235.43535505063198 L326.79828458479784,242.35901062557272 M217.74951763845698,280.7533270647046 L326.6662027110161,235.43535505063198 M336.2320701519824,242.23183884337564 L335.41747220996695,241.963335634879 M335.41747220996695,241.963335634879 L334.51587534444417,241.7513446418916 M334.51587534444417,241.7513446418916 L333.5476478097217,241.6006131951542 M333.5476478097217,241.6006131951542 L332.5346236074039,241.51451086019446 M332.5346236074039,241.51451086019446 L331.4995931288721,241.49494991863867 M331.4995931288721,241.49494991863867 L330.4658658575628,241.54237440580687 M330.4658658575628,241.54237440580687 L329.4567127785361,241.65572635484253 M329.4567127785361,241.65572635484253 L328.4948520563383,241.83246926972492 M328.4948520563383,241.83246926972492 L327.60199316861616,242.06866174393105 M327.60199316861616,242.06866174393105 L326.79828458479784,242.35901062557272 M336.12058171178836,235.3087496277031 L336.2320701519824,242.23183884337564 M326.6662027110161,235.43535505063198 L327.4717008503817,235.1462993355199 M327.4717008503817,235.1462993355199 L328.36653602902356,234.91115908230375 M328.36653602902356,234.91115908230375 L329.33051538405925,234.73520369633252 M329.33051538405925,234.73520369633252 L330.3418819292612,234.62235688780564 M330.3418819292612,234.62235688780564 L331.37786805292745,234.5751437584886 M331.37786805292745,234.5751437584886 L332.4151523442519,234.59461752119435 M332.4151523442519,234.59461752119435 L333.4303749918918,234.68033613572055 M333.4303749918918,234.68033613572055 L334.40069653802226,234.8303959124832 M334.40069653802226,234.8303959124832 L335.3042360838234,235.04144241830986 M335.3042360838234,235.04144241830986 L336.12058171178836,235.3087496277031 M336.43052893189696,235.43535505063198 L336.541356251277,242.35901062557272 M336.12058171178836,235.3087496277031 L336.43052893189696,235.43535505063198 M336.2320701519824,242.23183884337564 L336.541356251277,242.35901062557272 M565.029016230771,342.5342206966421 L336.541356251277,242.35901062557272 M565.453853076327,335.185305004247 L565.029016230771,342.5342206966421 M336.43052893189696,235.43535505063198 L565.453853076327,335.185305004247 M566.1346240578468,335.5185745701662 L565.7080388750295,342.868840908123 M565.453853076327,335.185305004247 L566.1346240578468,335.5185745701662 M565.029016230771,342.5342206966421 L565.7080388750295,342.868840908123 M565.8111225533996,347.57851079845966 L566.4664934029363,347.1874248928086 M566.4664934029363,347.1874248928086 L566.987824044106,346.75200699013743 M566.987824044106,346.75200699013743 L567.3643542923128,346.2814289570416 M567.3643542923128,346.2814289570416 L567.5883860087279,345.7855738322273 M567.5883860087279,345.7855738322273 L567.6554381088478,345.27483633413465 M567.6554381088478,345.27483633413465 L567.564316186053,344.75988179473813 M567.564316186053,344.75988179473813 L567.3171252512865,344.25144545017224 M567.3171252512865,344.25144545017224 L566.9192307139114,343.7601040283015 M566.9192307139114,343.7601040283015 L566.3790647552826,343.29603513179757 M566.3790647552826,343.29603513179757 L565.7080388750295,342.868840908123 M566.2397121131684,340.2092839324913 L565.8111225533996,347.57851079845966 M566.1346240578468,335.5185745701662 L566.8074147567233,335.94404516306383 M566.8074147567233,335.94404516306383 L567.3490473752606,336.40624250739177 M567.3490473752606,336.40624250739177 L567.7480792180692,336.89560336466434 M567.7480792180692,336.89560336466434 L567.9960536969149,337.4019912924098 M567.9960536969149,337.4019912924098 L568.0875881004376,337.91487224920434 M568.0875881004376,337.91487224920434 L568.0205678231085,338.42355423414404 M568.0205678231085,338.42355423414404 L567.7961856162327,338.9174147785445 M567.7961856162327,338.9174147785445 L567.418928945223,339.38610085352025 M567.418928945223,339.38610085352025 L566.8965103370274,339.81976897905076 M566.8965103370274,339.81976897905076 L566.2397121131684,340.2092839324913 M457.18830085867256,402.9568294481377 L565.8111225533996,347.57851079845966 M457.3641215729829,395.37157198926457 L457.18830085867256,402.9568294481377 M566.2397121131684,340.2092839324913 L457.3641215729829,395.37157198926457 M446.32129590964337,403.12610171503695 L447.2943857862393,403.4837849041394 M447.2943857862393,403.4837849041394 L448.36193888637104,403.7664658202534 M448.36193888637104,403.7664658202534 L449.4995642564389,403.96761011434035 M449.4995642564389,403.96761011434035 L450.6812248385294,404.0825659165537 M450.6812248385294,404.0825659165537 L451.8798798157862,404.1086875527027 M451.8798798157862,404.1086875527027 L453.0680432571687,404.0453606419529 M453.0680432571687,404.0453606419529 L454.2184883752665,403.8940495949405 M454.2184883752665,403.8940495949405 L455.3048928068864,403.65826041808737 M455.3048928068864,403.65826041808737 L456.3024028368881,403.3434288719787 M456.3024028368881,403.3434288719787 L457.18830085867256,402.9568294481377 M446.4697815362726,395.5402034690199 L446.32129590964337,403.12610171503695 M457.3641215729829,395.37157198926457 L456.4760492101156,395.756708099702 M456.4760492101156,395.756708099702 L455.476072057205,396.0703484392951 M455.476072057205,396.0703484392951 L454.38696416478507,396.3052457467031 M454.38696416478507,396.3052457467031 L453.2336415301679,396.4559845834368 M453.2336415301679,396.4559845834368 L452.04249291833,396.5190720401964 M452.04249291833,396.5190720401964 L450.8408141670549,396.4930491740963 M450.8408141670549,396.4930491740963 L449.65616121142995,396.3785280717142 M449.65616121142995,396.3785280717142 L448.5156439691713,396.1781445272602 M448.5156439691713,396.1781445272602 L447.4453662139772,395.8965330254703 M447.4453662139772,395.8965330254703 L446.4697815362726,395.5402034690199 M446.09659878159323,395.37157198926457 L445.9490710557926,402.9568294481377 M446.4697815362726,395.5402034690199 L446.09659878159323,395.37157198926457 M446.32129590964337,403.12610171503695 L445.9490710557926,402.9568294481377 M217.42562060226965,292.4490008991269 L445.9490710557926,402.9568294481377 M217.03714740976434,285.3074937158194 L217.42562060226965,292.4490008991269 M446.09659878159323,395.37157198926457 L217.03714740976434,285.3074937158194 M216.48402440624875,285.00295636278895 L216.87365051595393,292.14316502831184 M217.03714740976434,285.3074937158194 L216.48402440624875,285.00295636278895 M217.42562060226965,292.4490008991269 L216.87365051595393,292.14316502831184 M218.1347514529179,287.87537500284657 L217.4008864396207,288.22717564757295 M217.4008864396207,288.22717564757295 L216.7804901472044,288.6194037320788 M216.7804901472044,288.6194037320788 L216.28655997734444,289.0439557918079 M216.28655997734444,289.0439557918079 L215.92950779334316,289.4920466195012 M215.92950779334316,289.4920466195012 L215.71693023827063,289.9543756246587 M215.71693023827063,289.9543756246587 L215.65343964588817,290.42133507163527 M215.65343964588817,290.42133507163527 L215.74055515209648,290.88318693304564 M215.74055515209648,290.88318693304564 L215.97663257102909,291.33027030430287 M215.97663257102909,291.33027030430287 L216.35693918983094,291.7532255516456 M216.35693918983094,291.7532255516456 L216.87365051595393,292.14316502831184 M216.48402440624875,285.00295636278895 L215.96627150176826,284.6146730545414 M215.96627150176826,284.6146730545414 L215.58524751943062,284.19351491588293 M215.58524751943062,284.19351491588293 L215.34879134245273,283.7483319801175 M215.34879134245273,283.7483319801175 L215.26164275479937,283.288444203243 M215.26164275479937,283.288444203243 L215.32544580234503,282.8234714624102 M215.32544580234503,282.8234714624102 L215.53867395214561,282.36311035537653 M215.53867395214561,282.36311035537653 L215.89670049603785,281.91692766858137 M215.89670049603785,281.91692766858137 L216.39190779326552,281.49418428231866 M216.39190779326552,281.49418428231866 L217.01385685555198,281.1036278303965 M217.01385685555198,281.1036278303965 L217.74951763845698,280.7533270647046" stroke="black"  stroke-width="4"  fill="red"/>
<path d="M453.3328801573513,389.04718922402697 L452.56804800729276,424.1326364543365 M538.5165993978153,346.1891880028202 L536.8267200671964,380.50687320249773 M453.3328801573513,389.04718922402697 L538.5165993978153,346.1891880028202 M452.56804800729276,424.1326364543365 L536.8267200671964,380.50687320249773 M544.7226831534723,348.9467517183042 L542.9592565512376,383.314930597601 M538.5165993978153,346.1891880028202 L544.7226831534723,348.9467517183042 M536.8267200671964,380.50687320249773 L542.9592565512376,383.314930597601 M459.558938646178,392.01444941916384 L458.71988547966885,427.1517071843261 M544.7226831534723,348.9467517183042 L459.558938646178,392.01444941916384 M542.9592565512376,383.314930597601 L458.71988547966885,427.1517071843261 M459.558938646178,392.01444941916384 L453.3328801573513,389.04718922402697 M458.71988547966885,427.1517071843261 L452.56804800729276,424.1326364543365" stroke="black"  stroke-width="4"  fill="red"/>
<path d="M238.47410449805022,286.64823268774387 L240.05298166087528,319.8389161846966 M323.6649488006636,250.7236514060104 L324.318287794922,283.2003384078257 M238.47410449805022,286.64823268774387 L323.6649488006636,250.7236514060104 M240.05298166087528,319.8389161846966 L324.318287794922,283.2003384078257 M328.8820981339012,253.04179957577742 L329.48321569016014,285.565332730997 M323.6649488006636,250.7236514060104 L328.8820981339012,253.04179957577742 M324.318287794922,283.2003384078257 L329.48321569016014,285.565332730997 M243.67571572893405,289.1272543647292 L245.202854320268,322.36626348198166 M328.8820981339012,253.04179957577742 L243.67571572893405,289.1272543647292 M329.48321569016014,285.565332730997 L245.202854320268,322.36626348198166 M243.67571572893405,289.1272543647292 L238.47410449805022,286.64823268774387 M245.202854320268,322.36626348198166 L240.05298166087528,319.8389161846966" stroke="black"  stroke-width="4"  fill="red"/>
<path d="M333.3201351006051,253.04180143666673 L333.87562023192316,285.56533462944907 M338.78410350431443,250.7236514060104 L339.2823231437144,283.2003384078257 M333.3201351006051,253.04180143666673 L338.78410350431443,250.7236514060104 M333.87562023192316,285.56533462944907 L339.2823231437144,283.2003384078257 M543.6621796042502,341.1811554915179 L541.9223074989172,375.40675364542307 M338.78410350431443,250.7236514060104 L543.6621796042502,341.1811554915179 M339.2823231437144,283.2003384078257 L541.9223074989172,375.40675364542307 M538.2175166388845,343.91472057704107 L536.5342800180704,378.19064473483763 M543.6621796042502,341.1811554915179 L538.2175166388845,343.91472057704107 M541.9223074989172,375.40675364542307 L536.5342800180704,378.19064473483763 M538.2175166388845,343.91472057704107 L333.3201351006051,253.04180143666673 M536.5342800180704,378.19064473483763 L333.87562023192316,285.56533462944907" stroke="black"  stroke-width="4"  fill="red"/>
<path d="M237.512553237523,293.68924527661113 L239.11178259543223,327.01686648041624 M243.40454786018893,291.18950030995154 L244.93742598447102,324.46861760704917 M237.512553237523,293.68924527661113 L243.40454786018893,291.18950030995154 M239.11178259543223,327.01686648041624 L244.93742598447102,324.46861760704917 M448.32352839227457,389.0471868531898 L447.6167566806195,424.1326340420333 M243.40454786018893,291.18950030995154 L448.32352839227457,389.0471868531898 M244.93742598447102,324.46861760704917 L447.6167566806195,424.1326340420333 M442.41339122852645,392.01444941916384 L441.7735507020475,427.1517071843261 M448.32352839227457,389.0471868531898 L442.41339122852645,392.01444941916384 M447.6167566806195,424.1326340420333 L441.7735507020475,427.1517071843261 M442.41339122852645,392.01444941916384 L237.512553237523,293.68924527661113 M441.7735507020475,427.1517071843261 L239.11178259543223,327.01686648041624" stroke="black"  stroke-width="4"  fill="red"/>
<path d="M552.5732416447107,346.07082667096586 L552.3659797747409,349.92192398593636 M552.9866233873287,348.94675393237424 L552.5732416447107,346.07082667096586 M552.9866233873287,348.94675393237424 L550.9269385028591,387.08613575428933 M550.3807682163242,383.1111523023234 L550.9269385028591,387.08613575428933 M552.2197418727071,348.89978993475245 L550.3807682163242,383.1111523023234 M552.3659797747409,349.92192398593636 L552.2197418727071,348.89978993475245 M552.5732416447107,346.07082667096586 L556.9004446789755,346.07082667096586 M556.9004446789755,346.07082667096586 L556.794032994845,347.9975837844262 M554.6317943197307,347.99758598976695 L556.794032994845,347.9975837844262 M554.6317943197307,347.99758598976695 L554.5268722668103,349.9219261935773 M554.5268722668103,349.9219261935773 L552.3659797747409,349.92192398593636 M554.378709417881,348.89978773102257 L554.5268722668103,349.9219261935773 M552.2197418727071,348.89978993475245 L554.378709417881,348.89978773102257 M916.5914965875453,364.1996456818465 L591.3368699771742,345.05082712770803 M913.3120090287055,383.1111523023234 L916.5914965875453,364.1996456818465 M550.3807682163242,383.1111523023234 L913.3120090287055,383.1111523023234 M554.4834455266958,346.97651304496026 L554.378709417881,348.89978773102257 M556.6437767808666,346.9765152463916 L554.4834455266958,346.97651304496026 M556.6437767808666,346.9765152463916 L556.7499997694192,345.05082712770803 M591.3368699771742,345.05082712770803 L556.7499997694192,345.05082712770803 M913.3120090287055,383.1111523023234 L915.073982479958,387.0861380131928 M550.9269385028591,387.08613575428933 L915.073982479958,387.0861380131928 M556.7499997694192,345.05082712770803 L556.9004446789755,346.07082667096586 M592.0288317289551,348.9467517183042 L552.9866233873287,348.94675393237424 M591.3368699771742,345.05082712770803 L592.0288317289551,348.9467517183042 M554.6317943197307,347.99758598976695 L554.4834455266958,346.97651304496026 M556.794032994845,347.9975837844262 L556.6437767808666,346.9765152463916 M916.5914965875453,364.1996456818465 L918.3755481502576,368.1357503230271 M918.3755481502576,368.1357503230271 L592.0288317289551,348.9467517183042 M915.073982479958,387.0861380131928 L918.3755481502576,368.1357503230271" stroke="black"  stroke-width="4"  fill="red"/>
<path d="M552.0737629341924,347.8794659165856 L552.2802909523712,344.03263610217743 M552.2802909523712,344.03263610217743 L551.8704227833523,341.1811533071866 M551.8704227833523,341.1811533071866 L549.8382328780747,379.16262371185326 M550.3807682163242,383.1111523023234 L549.8382328780747,379.16262371185326 M552.2197418727071,348.89978993475245 L550.3807682163242,383.1111523023234 M552.0737629341924,347.8794659165856 L552.2197418727071,348.89978993475245 M552.0737629341924,347.8794659165856 L554.2308188896106,347.8794637167566 M554.3353695548069,345.9572537897563 L554.2308188896106,347.8794637167566 M554.3353695548069,345.9572537897563 L556.4937725164675,345.9572537897563 M556.4937725164675,345.9572537897563 L556.5998073017475,344.0326339069495 M552.2802909523712,344.03263610217743 L556.5998073017475,344.0326339069495 M552.2197418727071,348.89978993475245 L554.378709417881,348.89978773102257 M554.2308188896106,347.8794637167566 L554.378709417881,348.89978773102257 M556.7499997694192,345.05082712770803 L591.3368699771742,345.05082712770803 M916.5914965875453,364.1996456818465 L591.3368699771742,345.05082712770803 M913.3120090287055,383.1111523023234 L916.5914965875453,364.1996456818465 M550.3807682163242,383.1111523023234 L913.3120090287055,383.1111523023234 M554.4834455266958,346.97651304496026 L554.378709417881,348.89978773102257 M556.6437767808666,346.9765152463916 L554.4834455266958,346.97651304496026 M556.6437767808666,346.9765152463916 L556.7499997694192,345.05082712770803 M913.3120090287055,383.1111523023234 L911.5617621143024,379.1626214829174 M549.8382328780747,379.16262371185326 L911.5617621143024,379.1626214829174 M556.7499997694192,345.05082712770803 L556.5998073017475,344.0326339069495 M590.6495567219979,341.1811533071866 L551.8704227833523,341.1811533071866 M591.3368699771742,345.05082712770803 L590.6495567219979,341.1811533071866 M556.6437767808666,346.9765152463916 L556.4937725164675,345.9572537897563 M554.4834455266958,346.97651304496026 L554.3353695548069,345.9572537897563 M916.5914965875453,364.1996456818465 L914.8193922841118,360.2898999552169 M914.8193922841118,360.2898999552169 L590.6495567219979,341.1811533071866 M911.5617621143024,379.1626214829174 L914.8193922841118,360.2898999552169" stroke="black"  stroke-width="4"  fill="red"/>
<path d="M448.952889908785,396.23609076479454 L448.87224064680174,400.18935905218245 M442.60785313954847,396.2360859657789 L448.952889908785,396.23609076479454 M442.60785313954847,396.2360859657789 L441.892844988965,435.30843513968506 M450.38458903943365,435.30843758528465 L441.892844988965,435.30843513968506 M451.12730005895304,400.1893566479192 L450.38458903943365,435.30843758528465 M448.87224064680174,400.18935905218245 L451.12730005895304,400.1893566479192 M448.952889908785,396.23609076479454 L449.0673016581596,398.4641255470491 M449.0673016581596,398.4641255470491 L449.0268006527164,400.44426324552103 M448.96961441775835,399.32810874743666 L449.0268006527164,400.44426324552103 M448.96961441775835,399.32810874743666 L448.92924146896587,401.30454855215964 M448.92924146896587,401.30454855215964 L448.87224064680174,400.18935905218245 M451.1863902029164,401.3045461434393 L448.92924146896587,401.30454855215964 M451.12730005895304,400.1893566479192 L451.1863902029164,401.3045461434393 M462.57104834124533,642.2050129453228 L452.2944980702258,416.59086444250727 M461.99477366394206,663.4549431501971 L462.57104834124533,642.2050129453228 M450.38458903943365,435.30843758528465 L461.99477366394206,663.4549431501971 M451.2282428651263,399.3281063410912 L451.1863902029164,401.3045461434393 M451.2875303017155,400.4442680671481 L451.2282428651263,399.3281063410912 M451.2875303017155,400.4442680671481 L451.3295157177022,398.4641303639064 M452.2944980702258,416.59086444250727 L451.3295157177022,398.4641303639064 M461.99477366394206,663.4549431501971 L451.93908684002724,663.4549431501971 M441.892844988965,435.30843513968506 L451.93908684002724,663.4549431501971 M451.3295157177022,398.4641303639064 L449.0673016581596,398.4641255470491 M443.54548181193184,416.59086196088595 L442.60785313954847,396.2360859657789 M452.2944980702258,416.59086444250727 L443.54548181193184,416.59086196088595 M448.96961441775835,399.32810874743666 L451.2282428651263,399.3281063410912 M449.0268006527164,400.44426324552103 L451.2875303017155,400.4442680671481 M462.57104834124533,642.2050129453228 L452.43773502501716,642.2050129453228 M452.43773502501716,642.2050129453228 L443.54548181193184,416.59086196088595 M451.93908684002724,663.4549431501971 L452.43773502501716,642.2050129453228" stroke="black"  stroke-width="4"  fill="red"/>
<path d="M453.3823594620955,400.189354243656 L453.4689204936534,396.2360859657789 M453.4689204936534,396.2360859657789 L459.813957306336,396.23609076479454 M459.813957306336,396.23609076479454 L458.8763331234313,435.3084400308843 M450.38458903943365,435.30843758528465 L458.8763331234313,435.3084400308843 M451.12730005895304,400.1893566479192 L450.38458903943365,435.30843758528465 M453.3823594620955,400.189354243656 L451.12730005895304,400.1893566479192 M453.3823594620955,400.189354243656 L453.4435489336456,401.30454855215964 M453.48688131599397,399.32810874743666 L453.4435489336456,401.30454855215964 M453.48688131599397,399.32810874743666 L453.548254692641,400.44426565633455 M453.548254692641,400.44426565633455 L453.59172451546937,398.4641279554778 M453.4689204936534,396.2360859657789 L453.59172451546937,398.4641279554778 M451.12730005895304,400.1893566479192 L451.1863902029164,401.3045461434393 M453.4435489336456,401.30454855215964 L451.1863902029164,401.3045461434393 M451.3295157177022,398.4641303639064 L452.2944980702258,416.59086444250727 M462.57104834124533,642.2050129453228 L452.2944980702258,416.59086444250727 M461.99477366394206,663.4549431501971 L462.57104834124533,642.2050129453228 M450.38458903943365,435.30843758528465 L461.99477366394206,663.4549431501971 M451.2282428651263,399.3281063410912 L451.1863902029164,401.3045461434393 M451.2875303017155,400.4442680671481 L451.2282428651263,399.3281063410912 M451.2875303017155,400.4442680671481 L451.3295157177022,398.4641303639064 M461.99477366394206,663.4549431501971 L472.05046048785687,663.4549431501971 M458.8763331234313,435.3084400308843 L472.05046048785687,663.4549431501971 M451.3295157177022,398.4641303639064 L453.59172451546937,398.4641279554778 M461.04350895910414,416.59085947926457 L459.813957306336,396.23609076479454 M452.2944980702258,416.59086444250727 L461.04350895910414,416.59085947926457 M451.2875303017155,400.4442680671481 L453.548254692641,400.44426565633455 M451.2282428651263,399.3281063410912 L453.48688131599397,399.32810874743666 M462.57104834124533,642.2050129453228 L472.7043616574734,642.2050129453228 M472.7043616574734,642.2050129453228 L461.04350895910414,416.59085947926457 M472.05046048785687,663.4549431501971 L472.7043616574734,642.2050129453228" stroke="black"  stroke-width="4"  fill="red"/>
<path d="M333.3761303841592,247.46260360099055 L333.43802747759486,251.0968239418234 M338.93432552705593,247.46260728356498 L333.3761303841592,247.46260360099055 M338.93432552705593,247.46260728356498 L339.4838761628106,283.43351099713334 M332.03323020462796,283.43350911444065 L339.4838761628106,283.43351099713334 M331.46229464427347,251.09682578735897 L332.03323020462796,283.43350911444065 M333.43802747759486,251.0968239418234 L331.46229464427347,251.09682578735897 M333.3761303841592,247.46260360099055 L333.4636286004893,245.75883402718205 M333.4636286004893,245.75883402718205 L333.49449460709576,247.57501693062366 M333.4508332572403,248.4271942433875 L333.49449460709576,247.57501693062366 M333.4508332572403,248.4271942433875 L333.48171392117285,250.24227924724323 M333.48171392117285,250.24227924724323 L333.43802747759486,251.0968239418234 M331.50758208861174,250.2422810897889 L333.48171392117285,250.24227924724323 M331.46229464427347,251.09682578735897 L331.50758208861174,250.2422810897889 M338.4304061568309,136.54505684980285 L332.20398545403305,232.32497473231828 M338.67470476257756,152.92488576353117 L338.4304061568309,136.54505684980285 M332.03323020462796,283.43350911444065 L338.67470476257756,152.92488576353117 M331.4755696138053,248.42719608381373 L331.50758208861174,250.2422810897889 M331.52082723473575,247.5750132557327 L331.4755696138053,248.42719608381373 M331.52082723473575,247.5750132557327 L331.4888299523574,245.7588303565385 M332.20398545403305,232.32497473231828 L331.4888299523574,245.7588303565385 M338.67470476257756,152.92488576353117 L345.23072197092733,152.92488576353117 M339.4838761628106,283.43351099713334 L345.23072197092733,152.92488576353117 M331.4888299523574,245.7588303565385 L333.4636286004893,245.75883402718205 M339.6316300141403,232.32497652094335 L338.93432552705593,247.46260728356498 M332.20398545403305,232.32497473231828 L339.6316300141403,232.32497652094335 M333.4508332572403,248.4271942433875 L331.4755696138053,248.42719608381373 M333.49449460709576,247.57501693062366 L331.52082723473575,247.5750132557327 M338.4304061568309,136.54505684980285 L345.01933135955915,136.54505684980285 M345.01933135955915,136.54505684980285 L339.6316300141403,232.32497652094335 M345.23072197092733,152.92488576353117 L345.01933135955915,136.54505684980285" stroke="black"  stroke-width="4"  fill="red"/>
<path d="M329.4865618040368,251.09682763289425 L329.42012751552835,247.46260728356498 M329.42012751552835,247.46260728356498 L323.86193240597055,247.46260360099055 M323.86193240597055,247.46260360099055 L324.5825842722569,283.43350723174797 M332.03323020462796,283.43350911444065 L324.5825842722569,283.43350723174797 M331.46229464427347,251.09682578735897 L332.03323020462796,283.43350911444065 M329.4865618040368,251.09682763289425 L331.46229464427347,251.09682578735897 M329.4865618040368,251.09682763289425 L329.53344193128675,250.24227924724323 M329.50029764094575,248.4271942433875 L329.53344193128675,250.24227924724323 M329.50029764094575,248.4271942433875 L329.5471638320596,247.5750150931782 M329.5471638320596,247.5750150931782 L329.5140352760187,245.75883219186036 M329.42012751552835,247.46260728356498 L329.5140352760187,245.75883219186036 M331.46229464427347,251.09682578735897 L331.50758208861174,250.2422810897889 M329.53344193128675,250.24227924724323 L331.50758208861174,250.2422810897889 M331.4888299523574,245.7588303565385 L332.20398545403305,232.32497473231828 M338.4304061568309,136.54505684980285 L332.20398545403305,232.32497473231828 M338.67470476257756,152.92488576353117 L338.4304061568309,136.54505684980285 M332.03323020462796,283.43350911444065 L338.67470476257756,152.92488576353117 M331.4755696138053,248.42719608381373 L331.50758208861174,250.2422810897889 M331.52082723473575,247.5750132557327 L331.4755696138053,248.42719608381373 M331.52082723473575,247.5750132557327 L331.4888299523574,245.7588303565385 M338.67470476257756,152.92488576353117 L332.1186875542279,152.92488576353117 M324.5825842722569,283.43350723174797 L332.1186875542279,152.92488576353117 M331.4888299523574,245.7588303565385 L329.5140352760187,245.75883219186036 M324.7763448023341,232.3249783095685 L323.86193240597055,247.46260360099055 M332.20398545403305,232.32497473231828 L324.7763448023341,232.3249783095685 M331.52082723473575,247.5750132557327 L329.5471638320596,247.5750150931782 M331.4755696138053,248.42719608381373 L329.50029764094575,248.4271942433875 M338.4304061568309,136.54505684980285 L331.84148095410274,136.54505684980285 M331.84148095410274,136.54505684980285 L324.7763448023341,232.3249783095685 M332.1186875542279,152.92488576353117 L331.84148095410274,136.54505684980285" stroke="black"  stroke-width="4"  fill="red"/>
<path d="M230.28522448303616,289.2341792485322 L230.47250927212224,292.9628677492677 M230.6569078197904,286.64823070658554 L230.28522448303616,289.2341792485322 M230.6569078197904,286.64823070658554 L232.50116132836825,323.4833608941708 M232.008595612617,327.0682767717185 L232.50116132836825,323.4833608941708 M230.34012092584624,293.88813944300784 L232.008595612617,327.0682767717185 M230.47250927212224,292.9628677492677 L230.34012092584624,293.88813944300784 M230.28522448303616,289.2341792485322 L226.17197215812485,289.2341792485322 M226.17197215812485,289.2341792485322 L226.2681242973043,291.0996357273474 M228.3235193741166,291.0996337345699 L226.2681242973043,291.0996357273474 M228.3235193741166,291.0996337345699 L228.41833138260174,292.96286575428803 M228.41833138260174,292.96286575428803 L230.47250927212224,292.9628677492677 M228.28421781441122,293.888141441356 L228.41833138260174,292.96286575428803 M230.34012092584624,293.88813944300784 L228.28421781441122,293.888141441356 M-116.75725380107588,308.72244666801805 L193.1020065182275,290.1574061386363 M-113.78111261533047,327.0682767717185 L-116.75725380107588,308.72244666801805 M232.008595612617,327.0682767717185 L-113.78111261533047,327.0682767717185 M228.18924566929485,292.0238885650398 L228.28421781441122,293.888141441356 M226.1321067153591,292.0238865688953 L228.18924566929485,292.0238885650398 M226.1321067153591,292.0238865688953 L226.03579207440535,290.1574061386363 M193.1020065182275,290.1574061386363 L226.03579207440535,290.1574061386363 M-113.78111261533047,327.0682767717185 L-112.19204270995522,323.48335887017544 M232.50116132836825,323.4833608941708 L-112.19204270995522,323.48335887017544 M226.03579207440535,290.1574061386363 L226.17197215812485,289.2341792485322 M193.72529403323242,286.64823268774387 L230.6569078197904,286.64823070658554 M193.1020065182275,290.1574061386363 L193.72529403323242,286.64823268774387 M228.3235193741166,291.0996337345699 L228.18924566929485,292.0238885650398 M226.2681242973043,291.0996357273474 L226.1321067153591,292.0238865688953 M-116.75725380107588,308.72244666801805 L-115.14928343610893,305.174825204205 M-115.14928343610893,305.174825204205 L193.72529403323242,286.64823268774387 M-112.19204270995522,323.48335887017544 L-115.14928343610893,305.174825204205" stroke="black"  stroke-width="4"  fill="red"/>
<path d="M230.2075089464312,294.8149741248747 L230.01959050264065,291.08219442777215 M230.01959050264065,291.08219442777215 L229.6448737662038,293.6892472834447 M229.6448737662038,293.6892472834447 L231.51288610789723,330.67607328961304 M232.008595612617,327.0682767717185 L231.51288610789723,330.67607328961304 M230.34012092584624,293.88813944300784 L232.008595612617,327.0682767717185 M230.2075089464312,294.8149741248747 L230.34012092584624,293.88813944300784 M230.2075089464312,294.8149741248747 L228.14986939767323,294.81497612659996 M228.05473670526123,292.9497016066363 L228.14986939767323,294.81497612659996 M228.05473670526123,292.9497016066363 L225.99587226676977,292.9497016066363 M225.99587226676977,292.9497016066363 L225.89939471936174,291.0821964250798 M230.01959050264065,291.08219442777215 L225.89939471936174,291.0821964250798 M230.34012092584624,293.88813944300784 L228.28421781441122,293.888141441356 M228.14986939767323,294.81497612659996 L228.28421781441122,293.888141441356 M226.03579207440535,290.1574061386363 L193.1020065182275,290.1574061386363 M-116.75725380107588,308.72244666801805 L193.1020065182275,290.1574061386363 M-113.78111261533047,327.0682767717185 L-116.75725380107588,308.72244666801805 M232.008595612617,327.0682767717185 L-113.78111261533047,327.0682767717185 M228.18924566929485,292.0238885650398 L228.28421781441122,293.888141441356 M226.1321067153591,292.0238865688953 L228.18924566929485,292.0238885650398 M226.1321067153591,292.0238865688953 L226.03579207440535,290.1574061386363 M-113.78111261533047,327.0682767717185 L-115.38032472735472,330.6760753395272 M231.51288610789723,330.67607328961304 L-115.38032472735472,330.6760753395272 M226.03579207440535,290.1574061386363 L225.89939471936174,291.0821964250798 M192.47470621249536,293.6892472834447 L229.6448737662038,293.6892472834447 M193.1020065182275,290.1574061386363 L192.47470621249536,293.6892472834447 M226.1321067153591,292.0238865688953 L225.99587226676977,292.9497016066363 M228.18924566929485,292.0238885650398 L228.05473670526123,292.9497016066363 M-116.75725380107588,308.72244666801805 L-118.3755481502576,312.29284565857563 M-118.3755481502576,312.29284565857563 L192.47470621249536,293.6892472834447 M-115.38032472735472,330.6760753395272 L-118.3755481502576,312.29284565857563" stroke="black"  stroke-width="4"  fill="red"/></svg>